<svg xmlns="http://www.w3.org/2000/svg" width="442.972" height="118.048" viewBox="0 0 442.972 118.048">
  <g id="Grupo_292" data-name="Grupo 292" transform="translate(-29.993 -36.319)">
    <g id="Grupo_290" data-name="Grupo 290" transform="translate(105.826 125.746)">
      <g id="Grupo_289" data-name="Grupo 289">
        <g id="Grupo_287" data-name="Grupo 287">
          <path id="Trazado_160" data-name="Trazado 160" d="M136.2,138.573a11.452,11.452,0,0,1,.343,2.625v17.419l-19.015-20.948-.051-.072H116.37v24.987a8.793,8.793,0,0,1-.417,2.593l-.079.261h2.82l-.072-.261a9.076,9.076,0,0,1-.383-2.593V145.2l18.98,20.953.057.068h1.173V141.2a11.335,11.335,0,0,1,.381-2.625l.059-.243h-2.744Z" transform="translate(-115.875 -137.597)" fill="#c2c2c2"/>
          <path id="Trazado_161" data-name="Trazado 161" d="M153.822,164.588a8.059,8.059,0,0,1-.122-1.453V147.546a7.7,7.7,0,0,1,.539-2.817l.111-.268h-4.974l.129.277a7.1,7.1,0,0,1,.532,2.808v15.589a7.238,7.238,0,0,1-.545,2.833l-.105.274h4.971l-.12-.274a6.649,6.649,0,0,1-.417-1.38C153.74,164.149,153.9,165.016,153.822,164.588Z" transform="translate(-119.795 -138.4)" fill="#c2c2c2"/>
          <path id="Trazado_162" data-name="Trazado 162" d="M172.857,164.4a5.752,5.752,0,0,1-1.609.246h-5.91V154.334h7.076l.581-1.615h-7.657V146.1h5.512a9.836,9.836,0,0,1,3.162.758l.432.147-1.106-2.547h-12.3l.1.268a7.824,7.824,0,0,1,.543,2.909v15.556a7.154,7.154,0,0,1-.535,2.773l-.114.274H173.8l1.108-2.516-.433.147c-.535.181-1.075.359-1.62.523C172.327,164.55,173.4,164.233,172.857,164.4Z" transform="translate(-121.158 -138.4)" fill="#c2c2c2"/>
          <path id="Trazado_163" data-name="Trazado 163" d="M180.475,144.461l-1.109,2.564.437-.164a8.871,8.871,0,0,1,3.093-.758h4.619v17.032a7.167,7.167,0,0,1-.553,2.833l-.109.274h4.879l-.124-.278a6.209,6.209,0,0,1-.539-2.614V146.1h4.643a9.448,9.448,0,0,1,3.1.758l.433.153-1.1-2.553Z" transform="translate(-123.304 -138.4)" fill="#c2c2c2"/>
          <path id="Trazado_164" data-name="Trazado 164" d="M226.061,150.588c-2.064-4.236-6.759-6.46-11.354-6.294a12.251,12.251,0,0,0-10.727,7.365,10.6,10.6,0,0,0-.374,6.894,10.323,10.323,0,0,0,3.709,5.3,12.77,12.77,0,0,0,13.421,1.114,11.792,11.792,0,0,0,5.524-5.86,10.553,10.553,0,0,0-.2-8.519C225.414,149.254,226.705,151.921,226.061,150.588Zm-10.915,14c-2.221,0-4.222-1.485-5.565-3.143a11.435,11.435,0,0,1-2.408-6.227v-.544c0-3.73,2.147-7.338,5.912-8.261a7.623,7.623,0,0,1,2.775-.191,6.491,6.491,0,0,1,2.693,1.127,10.572,10.572,0,0,1,3.7,4.562,13.926,13.926,0,0,1,.794,3.589,11.971,11.971,0,0,1-.351,3.422,8.133,8.133,0,0,1-1.57,3.008A7.767,7.767,0,0,1,215.145,164.588Z" transform="translate(-126.093 -138.38)" fill="#c2c2c2"/>
        </g>
        <g id="Grupo_288" data-name="Grupo 288" transform="translate(112.042 0.274)">
          <path id="Trazado_165" data-name="Trazado 165" d="M259.931,152.015c.225.179.439.341,0,0s-.224-.174-.008,0a36.768,36.768,0,0,0-6.173-3.481,17.257,17.257,0,0,1-2.936-1.8,6.509,6.509,0,0,1-2.189-2.546c-.939-2.427,1.7-4.022,3.707-4.418,2.4-.473,4.934.621,6.871,1.97a16.97,16.97,0,0,1,1.905,1.542l.4.382-.429-3.633-.093-.047a18.757,18.757,0,0,0-7.124-2.052,12.27,12.27,0,0,0-6.948,1.654,5.96,5.96,0,0,0-3.205,5.271c.1,2.254,1.764,3.845,3.513,5.057,2.028,1.371,4.3,2.307,6.444,3.508,1.8.992,4.176,2.36,4.6,4.572a5.143,5.143,0,0,1-2.834,5.43c-2.254,1.09-4.765.464-6.893-.592a20.971,20.971,0,0,1-5.342-3.919l-.421-.409.6,4.383.075.048c4.2,2.547,9.365,3.753,14.092,1.979a8.761,8.761,0,0,0,4.873-4.114,6.727,6.727,0,0,0-.175-6.239A9.813,9.813,0,0,0,259.931,152.015Z" transform="translate(-242.765 -137.907)" fill="#c2c2c2"/>
          <path id="Trazado_166" data-name="Trazado 166" d="M285.245,167.038Z" transform="translate(-247.736 -141.316)" fill="#c2c2c2"/>
          <path id="Trazado_167" data-name="Trazado 167" d="M283.677,164.4c.071-.028.142-.041.155-.048-.013,0-.056.019-.155.048a.93.93,0,0,0-.124.035c.025,0,.072-.024.124-.035a5.717,5.717,0,0,1-1.6.246h-5.916V154.334h7.09l.573-1.615h-7.663V146.1h5.52a9.831,9.831,0,0,1,3.161.758l.425.147-1.1-2.547H271.842l.119.268a7.856,7.856,0,0,1,.54,2.909v15.556a7.158,7.158,0,0,1-.54,2.773l-.119.274h12.789l1.1-2.516-.427.147C284.765,164.054,284.213,164.233,283.677,164.4Z" transform="translate(-246.167 -138.674)" fill="#c2c2c2"/>
          <path id="Trazado_168" data-name="Trazado 168" d="M308.616,144.586a9.239,9.239,0,0,1,.281,2.1v13.852l-15.184-16.711-.056-.072h-.939v20.062a6.927,6.927,0,0,1-.337,2.076l-.072.261h2.366l-.077-.261a7.165,7.165,0,0,1-.307-2.076V150l15.146,16.718.059.067h1V146.69a9.042,9.042,0,0,1,.313-2.1l.051-.237H308.56Z" transform="translate(-248.562 -138.592)" fill="#c2c2c2"/>
          <path id="Trazado_169" data-name="Trazado 169" d="M331.314,164.4c.07-.028.132-.041.148-.048-.011,0-.054.019-.148.048-.065.011-.1.032-.128.035.029,0,.076-.024.128-.035a5.705,5.705,0,0,1-1.6.246H323.8V154.334h7.08l.571-1.615H323.8V146.1h5.515a9.843,9.843,0,0,1,3.159.758l.431.147-1.111-2.547H319.487l.1.268a7.539,7.539,0,0,1,.548,2.909v15.556a6.872,6.872,0,0,1-.548,2.773l-.111.274h12.786l1.106-2.516-.43.147C332.4,164.054,331.849,164.233,331.314,164.4Z" transform="translate(-251.741 -138.674)" fill="#c2c2c2"/>
          <path id="Trazado_170" data-name="Trazado 170" d="M332.883,167.038Z" transform="translate(-253.31 -141.316)" fill="#c2c2c2"/>
          <path id="Trazado_171" data-name="Trazado 171" d="M338.926,144.461l-1.109,2.564.448-.164a8.89,8.89,0,0,1,3.09-.758h4.62v17.032a7.2,7.2,0,0,1-.549,2.833l-.119.274h4.9l-.119-.278a6.15,6.15,0,0,1-.548-2.614V146.1h4.636a9.5,9.5,0,0,1,3.107.758l.431.153-1.1-2.553Z" transform="translate(-253.887 -138.674)" fill="#c2c2c2"/>
          <path id="Trazado_172" data-name="Trazado 172" d="M368.92,164.588a8.2,8.2,0,0,1-.13-1.453V147.546a7.747,7.747,0,0,1,.549-2.817l.1-.268h-4.968l.125.277a7.141,7.141,0,0,1,.532,2.808v15.589a7.339,7.339,0,0,1-.532,2.833l-.12.274h4.98l-.118-.274A6.559,6.559,0,0,1,368.92,164.588Z" transform="translate(-257.006 -138.674)" fill="#c2c2c2"/>
          <path id="Trazado_173" data-name="Trazado 173" d="M392.632,144.586a8.94,8.94,0,0,1,.272,2.1v13.852l-15.171-16.711-.056-.072h-.943v20.062a6.941,6.941,0,0,1-.332,2.076l-.072.261h2.359l-.074-.261a7.187,7.187,0,0,1-.3-2.076V150l15.136,16.718.063.067h1V146.69a9.787,9.787,0,0,1,.3-2.1l.062-.237h-2.306Z" transform="translate(-258.394 -138.592)" fill="#c2c2c2"/>
          <path id="Trazado_174" data-name="Trazado 174" d="M416.9,167.038Z" transform="translate(-263.141 -141.316)" fill="#c2c2c2"/>
          <path id="Trazado_175" data-name="Trazado 175" d="M415.332,164.4a.853.853,0,0,1,.148-.041s-.049.012-.148.041a1.256,1.256,0,0,0-.125.035c.023,0,.075-.024.125-.035a5.7,5.7,0,0,1-1.6.246h-5.92V154.334h7.073l.593-1.615h-7.666V146.1h5.515a9.884,9.884,0,0,1,3.167.758l.42.147-1.1-2.547H403.509l.109.268a7.822,7.822,0,0,1,.541,2.909v15.556a7.128,7.128,0,0,1-.541,2.773l-.113.274h12.779l1.1-2.516-.424.147C416.415,164.054,415.876,164.233,415.332,164.4Z" transform="translate(-261.574 -138.674)" fill="#c2c2c2"/>
          <path id="Trazado_176" data-name="Trazado 176" d="M442.727,165.883a67.065,67.065,0,0,1-5.54-4.45,38.222,38.222,0,0,1-4.628-5.226,7.315,7.315,0,0,0,4.7-2.288,5.435,5.435,0,0,0,.942-4.931c-.957-3.855-5.423-4.56-8.776-4.56h-5.677l.115.271a7.913,7.913,0,0,1,.55,3.063V162.9a8.135,8.135,0,0,1-.55,3.06l-.109.274h4.965l-.109-.274a8.114,8.114,0,0,1-.546-3.06V146.091l.551-.027a7.03,7.03,0,0,1,4.139.87,4.4,4.4,0,0,1,1.895,3.362,4.139,4.139,0,0,1-1.389,3.73,4.688,4.688,0,0,1-4.041.653l-.08-.011-.647.385.1.17a58.3,58.3,0,0,0,8.913,10.964l.055.052h5.648Z" transform="translate(-263.942 -138.67)" fill="#c2c2c2"/>
        </g>
      </g>
    </g>
    <g id="Grupo_291" data-name="Grupo 291" transform="translate(29.993 36.319)">
      <path id="Trazado_177" data-name="Trazado 177" d="M64.7,67.367c4.848-2.424,7.949-6.688,7.949-12.506,0-9.4-6.108-16.867-19.292-16.867H29.993v65.922H55.1c15.126,0,22.2-8.726,22.2-19.873C77.3,75.511,72.456,69.6,64.7,67.367ZM40.271,46.913H52.777c7.271,0,9.6,3.2,9.6,8.238,0,5.43-2.422,8.726-9.6,8.726H40.271ZM54.521,95H40.271V72.215H54.036c9.014,0,12.7,4.652,12.7,11.438S63.636,95,54.521,95Z" transform="translate(-29.993 -36.515)" fill="#fff"/>
      <path id="Trazado_178" data-name="Trazado 178" d="M105.574,75.669H133.59V66.655H105.574V47.2h31.6V37.994H95.2v65.922h43.335v-9.21h-32.96Z" transform="translate(-37.623 -36.515)" fill="#fff"/>
      <path id="Trazado_179" data-name="Trazado 179" d="M201.032,81.2,158.763,36.894h-.775v66.893h9.7V60.453l42.269,44.3h.775V37.865h-9.7Z" transform="translate(-44.97 -36.386)" fill="#fff"/>
      <path id="Trazado_180" data-name="Trazado 180" d="M254.622,85.206c0,7.853-3.588,10.178-8.63,10.178q-.5,0-.957-.032h0c-3.989-.15-6.963-1.921-7.8-6.984H226.66c1.119,11.061,8.55,16.418,18.547,16.418l0-.03c.385.015.772.03,1.171.03,10.859,0,18.711-6.3,18.711-19.388V37.994H254.622Z" transform="translate(-53.005 -36.515)" fill="#fff"/>
      <path id="Trazado_181" data-name="Trazado 181" d="M386.163,73.585l-32.185-37.13h-.484v67.281h9.793V60.983l22.392,26.855h.484l22.493-26.855v42.753h9.793V36.455h-.484Z" transform="translate(-67.846 -36.335)" fill="#fff"/>
      <rect id="Rectángulo_128" data-name="Rectángulo 128" width="10.374" height="65.922" transform="translate(365.225 1.479)" fill="#fff"/>
      <path id="Trazado_182" data-name="Trazado 182" d="M514.982,37.865V81.2L472.713,36.894h-.775v66.893h9.7V60.453l42.269,44.3h.775V37.865Z" transform="translate(-81.706 -36.386)" fill="#fff"/>
      <path id="Trazado_183" data-name="Trazado 183" d="M305.762,36.319,276.872,103.6h10.471l6.516-15.707h24l6.516,15.707h10.956L306.343,36.319ZM297.725,78.7,305.957,59.1S310.9,70.974,314.086,78.7Z" transform="translate(-58.881 -36.319)" fill="#fff"/>
    </g>
  </g>
</svg>
