<?xml version="1.0" encoding="utf-8"?>
<!-- Generator: Adobe Illustrator 23.0.2, SVG Export Plug-In . SVG Version: 6.00 Build 0)  -->
<svg version="1.1" id="Capa_1" xmlns="http://www.w3.org/2000/svg" xmlns:xlink="http://www.w3.org/1999/xlink" x="0px" y="0px"
	 viewBox="0 0 123.7 33.9" style="enable-background:new 0 0 123.7 33.9;" xml:space="preserve">
<style type="text/css">
	.st0{enable-background:new    ;}
	.st1{fill:#77787B;}
</style>
<g>
	<g id="Grupo_290" transform="translate(105.826 125.746)" class="st0">
		<g id="Grupo_289">
			<g id="Grupo_287">
				<path id="Trazado_160" class="st1" d="M-78.9-100c0.1,0.2,0.1,0.5,0.1,0.7v4.9l-5.3-5.8l0,0h-0.3v7c0,0.2,0,0.5-0.1,0.7l0,0.1
					h0.8l0-0.1c-0.1-0.2-0.1-0.5-0.1-0.7v-4.8l5.3,5.8l0,0h0.3v-7c0-0.2,0-0.5,0.1-0.7l0-0.1L-78.9-100L-78.9-100z"/>
				<path id="Trazado_161" class="st1" d="M-75.1-93c0-0.1,0-0.3,0-0.4v-4.3c0-0.3,0.1-0.5,0.2-0.8l0-0.1h-1.4l0,0.1
					c0.1,0.2,0.2,0.5,0.1,0.8v4.3c0,0.3,0,0.5-0.2,0.8l0,0.1h1.4l0-0.1C-75-92.7-75.1-92.9-75.1-93C-75.1-93.1-75.1-92.9-75.1-93z"
					/>
				<path id="Trazado_162" class="st1" d="M-70.1-93c-0.1,0-0.3,0.1-0.4,0.1h-1.6v-2.9h2l0.2-0.5h-2.1v-1.8h1.5
					c0.3,0,0.6,0.1,0.9,0.2l0.1,0l-0.3-0.7h-3.4l0,0.1c0.1,0.3,0.2,0.5,0.2,0.8v4.3c0,0.3,0,0.5-0.1,0.8l0,0.1h3.6l0.3-0.7l-0.1,0
					C-69.8-93.1-70-93.1-70.1-93C-70.3-93-70-93.1-70.1-93z"/>
				<path id="Trazado_163" class="st1" d="M-68.6-98.6l-0.3,0.7l0.1,0c0.3-0.1,0.6-0.2,0.9-0.2h1.3v4.8c0,0.3,0,0.5-0.2,0.8l0,0.1
					h1.4l0-0.1c-0.1-0.2-0.2-0.5-0.2-0.7v-4.8h1.3c0.3,0,0.6,0.1,0.9,0.2l0.1,0l-0.3-0.7L-68.6-98.6z"/>
				<path id="Trazado_164" class="st1" d="M-56.7-96.9c-0.6-1.2-1.9-1.8-3.2-1.8c-1.3,0.1-2.5,0.9-3,2.1c-0.2,0.6-0.3,1.3-0.1,1.9
					c0.2,0.6,0.5,1.1,1,1.5c1.1,0.8,2.5,0.9,3.7,0.3c0.7-0.3,1.2-0.9,1.5-1.6C-56.3-95.3-56.3-96.1-56.7-96.9
					C-56.9-97.3-56.5-96.5-56.7-96.9z M-59.7-93c-0.6,0-1.2-0.4-1.6-0.9c-0.4-0.5-0.6-1.1-0.7-1.7v-0.2c0-1,0.6-2,1.6-2.3
					c0.3-0.1,0.5-0.1,0.8-0.1c0.3,0,0.5,0.2,0.8,0.3c0.5,0.3,0.8,0.8,1,1.3c0.1,0.3,0.2,0.7,0.2,1c0,0.3,0,0.6-0.1,1
					c-0.1,0.3-0.2,0.6-0.4,0.8C-58.5-93.2-59.1-93-59.7-93L-59.7-93z"/>
			</g>
			<g id="Grupo_288" transform="translate(112.042 0.274)">
				<path id="Trazado_165" class="st1" d="M-160.6-96.6C-160.5-96.5-160.4-96.5-160.6-96.6C-160.7-96.7-160.6-96.6-160.6-96.6
					c-0.5-0.4-1.1-0.7-1.7-1c-0.3-0.1-0.6-0.3-0.8-0.5c-0.3-0.2-0.5-0.4-0.6-0.7c-0.3-0.7,0.5-1.1,1-1.2c0.7-0.1,1.4,0.2,1.9,0.5
					c0.2,0.1,0.4,0.3,0.5,0.4l0.1,0.1l-0.1-1l0,0c-0.6-0.3-1.3-0.5-2-0.6c-0.7,0-1.4,0.1-1.9,0.5c-0.5,0.3-0.9,0.9-0.9,1.5
					c0,0.6,0.5,1.1,1,1.4c0.6,0.4,1.2,0.6,1.8,1c0.5,0.3,1.2,0.7,1.3,1.3c0.1,0.6-0.2,1.2-0.8,1.5c-0.6,0.3-1.3,0.1-1.9-0.2
					c-0.6-0.3-1.1-0.7-1.5-1.1l-0.1-0.1l0.2,1.2l0,0c1.2,0.7,2.6,1,3.9,0.6c0.6-0.2,1.1-0.6,1.4-1.1c0.3-0.6,0.3-1.2,0-1.7
					C-160.1-96.1-160.3-96.4-160.6-96.6z"/>
				<path id="Trazado_166" class="st1" d="M-154.9-93.3"/>
				<path id="Trazado_167" class="st1" d="M-154.9-93.3C-154.9-93.3-154.9-93.3-154.9-93.3C-154.9-93.3-154.9-93.3-154.9-93.3
					C-154.9-93.3-154.9-93.3-154.9-93.3C-154.9-93.3-154.9-93.3-154.9-93.3c-0.1,0-0.3,0.1-0.4,0.1h-1.7v-2.9h2l0.2-0.5h-2.1v-1.8
					h1.5c0.3,0,0.6,0.1,0.9,0.2l0.1,0l-0.3-0.7h-3.4l0,0.1c0.1,0.3,0.2,0.5,0.2,0.8v4.3c0,0.3,0,0.5-0.2,0.8l0,0.1h3.6l0.3-0.7
					l-0.1,0C-154.6-93.4-154.7-93.4-154.9-93.3z"/>
				<path id="Trazado_168" class="st1" d="M-148.6-98.8c0,0.2,0.1,0.4,0.1,0.6v3.9l-4.2-4.7l0,0h-0.3v5.6c0,0.2,0,0.4-0.1,0.6l0,0.1
					h0.7l0-0.1c-0.1-0.2-0.1-0.4-0.1-0.6v-3.9l4.2,4.7l0,0h0.3v-5.6c0-0.2,0-0.4,0.1-0.6l0-0.1L-148.6-98.8L-148.6-98.8z"/>
				<path id="Trazado_169" class="st1" d="M-143.2-93.3C-143.1-93.3-143.1-93.3-143.2-93.3C-143.1-93.3-143.1-93.3-143.2-93.3
					C-143.2-93.3-143.2-93.3-143.2-93.3C-143.2-93.3-143.2-93.3-143.2-93.3c-0.1,0-0.3,0.1-0.4,0.1h-1.6v-2.9h2l0.2-0.5h-2.1v-1.8
					h1.5c0.3,0,0.6,0.1,0.9,0.2l0.1,0l-0.3-0.7h-3.4l0,0.1c0.1,0.3,0.2,0.5,0.2,0.8v4.3c0,0.3,0,0.5-0.2,0.8l0,0.1h3.6l0.3-0.7
					l-0.1,0C-142.9-93.4-143-93.4-143.2-93.3z"/>
				<path id="Trazado_170" class="st1" d="M-143.2-93.3"/>
				<path id="Trazado_171" class="st1" d="M-141.6-98.9l-0.3,0.7l0.1,0c0.3-0.1,0.6-0.2,0.9-0.2h1.3v4.8c0,0.3,0,0.5-0.2,0.8l0,0.1
					h1.4l0-0.1c-0.1-0.2-0.2-0.5-0.2-0.7v-4.8h1.3c0.3,0,0.6,0.1,0.9,0.2l0.1,0l-0.3-0.7L-141.6-98.9z"/>
				<path id="Trazado_172" class="st1" d="M-134.1-93.3c0-0.1,0-0.3,0-0.4V-98c0-0.3,0.1-0.5,0.2-0.8l0-0.1h-1.4l0,0.1
					c0.1,0.2,0.2,0.5,0.1,0.8v4.3c0,0.3,0,0.5-0.1,0.8l0,0.1h1.4l0-0.1C-134.1-93-134.1-93.1-134.1-93.3z"/>
				<path id="Trazado_173" class="st1" d="M-127.9-98.8c0,0.2,0.1,0.4,0.1,0.6v3.9l-4.2-4.7l0,0h-0.3v5.6c0,0.2,0,0.4-0.1,0.6l0,0.1
					h0.7l0-0.1c-0.1-0.2-0.1-0.4-0.1-0.6v-3.9l4.2,4.7l0,0h0.3v-5.6c0-0.2,0-0.4,0.1-0.6l0-0.1L-127.9-98.8L-127.9-98.8z"/>
				<path id="Trazado_174" class="st1" d="M-122.5-93.3"/>
				<path id="Trazado_175" class="st1" d="M-122.5-93.3C-122.5-93.3-122.4-93.3-122.5-93.3C-122.4-93.3-122.4-93.3-122.5-93.3
					C-122.5-93.3-122.5-93.3-122.5-93.3C-122.5-93.3-122.5-93.3-122.5-93.3c-0.1,0-0.3,0.1-0.4,0.1h-1.7v-2.9h2l0.2-0.5h-2.1v-1.8
					h1.5c0.3,0,0.6,0.1,0.9,0.2l0.1,0l-0.3-0.7h-3.4l0,0.1c0.1,0.3,0.2,0.5,0.2,0.8v4.3c0,0.3,0,0.5-0.2,0.8l0,0.1h3.6l0.3-0.7
					l-0.1,0C-122.2-93.4-122.3-93.4-122.5-93.3z"/>
				<path id="Trazado_176" class="st1" d="M-115.5-92.9c-0.5-0.4-1.1-0.8-1.5-1.2c-0.5-0.4-0.9-0.9-1.3-1.5c0.5,0,1-0.3,1.3-0.6
					c0.3-0.4,0.4-0.9,0.3-1.4c-0.3-1.1-1.5-1.3-2.4-1.3h-1.6l0,0.1c0.1,0.3,0.2,0.6,0.2,0.9v4.2c0,0.3,0,0.6-0.2,0.9l0,0.1h1.4
					l0-0.1c-0.1-0.3-0.2-0.6-0.2-0.9v-4.7l0.2,0c0.4,0,0.8,0,1.2,0.2c0.3,0.2,0.5,0.6,0.5,0.9c0.1,0.4-0.1,0.8-0.4,1
					c-0.3,0.2-0.7,0.3-1.1,0.2l0,0l-0.2,0.1l0,0c0.7,1.1,1.5,2.1,2.5,3.1l0,0h1.6L-115.5-92.9z"/>
			</g>
		</g>
	</g>
	<g id="Grupo_291" transform="translate(29.993 36.319)" class="st0">
		<path id="Trazado_177" d="M-20.2-27.2c1.4-0.7,2.2-1.9,2.2-3.5c0-2.6-1.7-4.7-5.4-4.7h-6.5V-17h7c4.2,0,6.2-2.4,6.2-5.5
			C-16.7-24.9-18-26.6-20.2-27.2z M-27-32.9h3.5c2,0,2.7,0.9,2.7,2.3c0,1.5-0.7,2.4-2.7,2.4H-27V-32.9z M-23-19.5h-4v-6.4h3.8
			c2.5,0,3.5,1.3,3.5,3.2C-19.6-20.8-20.5-19.5-23-19.5z"/>
		<path id="Trazado_178" d="M-10.9-24.9h7.8v-2.5h-7.8v-5.4h8.8v-2.6h-11.7V-17h12.1v-2.6h-9.2L-10.9-24.9z"/>
		<path id="Trazado_179" d="M13.6-23.3L1.9-35.7H1.6V-17h2.7v-12.1l11.8,12.4h0.2v-18.7h-2.7V-23.3z"/>
		<path id="Trazado_180" d="M26.4-22.2c0,2.2-1,2.8-2.4,2.8c-0.1,0-0.2,0-0.3,0l0,0c-1.1,0-1.9-0.5-2.2-1.9h-2.9
			c0.3,3.1,2.4,4.6,5.2,4.6v0c0.1,0,0.2,0,0.3,0c3,0,5.2-1.8,5.2-5.4v-13.2h-2.9V-22.2z"/>
		<path id="Trazado_181" d="M58.9-25.4l-9-10.4h-0.1V-17h2.7v-11.9l6.2,7.5h0.1l6.3-7.5V-17h2.7v-18.8h-0.1L58.9-25.4z"/>
		<rect id="Rectángulo_128" x="72" y="-35.4" width="2.9" height="18.4"/>
		<path id="Trazado_182" d="M91-35.4v12.1L79.2-35.7H79V-17h2.7v-12.1l11.8,12.4h0.2v-18.7H91z"/>
		<path id="Trazado_183" d="M39-35.8L30.9-17h2.9l1.8-4.4h6.7l1.8,4.4h3.1l-8.1-18.8H39z M36.7-24l2.3-5.5c0,0,1.4,3.3,2.3,5.5H36.7
			z"/>
	</g>
</g>
</svg>
