<?xml version="1.0" encoding="utf-8"?>
<!-- Generator: Adobe Illustrator 23.0.2, SVG Export Plug-In . SVG Version: 6.00 Build 0)  -->
<svg version="1.1" id="Capa_1" xmlns="http://www.w3.org/2000/svg" xmlns:xlink="http://www.w3.org/1999/xlink" x="0px" y="0px"
	 viewBox="0 0 443 118" style="enable-background:new 0 0 443 118;" xml:space="preserve">
<style type="text/css">
	.st0{fill:#C2C2C2;}
	.st1{fill:#FFFFFF;}
</style>
<g id="Grupo_292" transform="translate(-29.993 -36.319)">
	<g id="Grupo_290" transform="translate(105.826 125.746)">
		<g id="Grupo_289">
			<g id="Grupo_287">
				<path id="Trazado_160" class="st0" d="M20.3,1c0.2,0.9,0.3,1.7,0.3,2.6V21L1.7,0.1L1.6,0H0.5v25c0,0.9-0.1,1.8-0.4,2.6L0,27.8
					h2.8l-0.1-0.3c-0.3-0.8-0.4-1.7-0.4-2.6V7.6l19,21l0.1,0.1h1.2v-25c0-0.9,0.2-1.8,0.4-2.6L23,0.7h-2.7L20.3,1z"/>
				<path id="Trazado_161" class="st0" d="M34,26.2c-0.1-0.5-0.1-1-0.1-1.5V9.1c0-1,0.2-1.9,0.5-2.8l0.1-0.3h-5l0.1,0.3
					c0.4,0.9,0.5,1.8,0.5,2.8v15.6c0,1-0.2,1.9-0.5,2.8l-0.1,0.3h5l-0.1-0.3C34.3,27.1,34.1,26.7,34,26.2
					C33.9,25.7,34.1,26.6,34,26.2z"/>
				<path id="Trazado_162" class="st0" d="M51.7,26c-0.5,0.2-1.1,0.2-1.6,0.2h-5.9V15.9h7.1l0.6-1.6h-7.7V7.7h5.5
					c1.1,0.1,2.2,0.3,3.2,0.8l0.4,0.1l-1.1-2.5H39.9L40,6.3c0.4,0.9,0.5,1.9,0.5,2.9v15.6c0,1-0.2,1.9-0.5,2.8l-0.1,0.3h12.8
					l1.1-2.5l-0.4,0.1C52.8,25.7,52.2,25.8,51.7,26C51.2,26.2,52.2,25.8,51.7,26z"/>
				<path id="Trazado_163" class="st0" d="M57.2,6.1l-1.1,2.6l0.4-0.2c1-0.4,2-0.7,3.1-0.8h4.6v17c0,1-0.2,1.9-0.6,2.8l-0.1,0.3h4.9
					l-0.1-0.3c-0.4-0.8-0.6-1.7-0.5-2.6V7.7h4.6c1.1,0.1,2.1,0.3,3.1,0.8l0.4,0.2l-1.1-2.6L57.2,6.1z"/>
				<path id="Trazado_164" class="st0" d="M100,12.2C97.9,8,93.2,5.7,88.6,5.9c-4.7,0.2-8.9,3.1-10.7,7.4c-0.9,2.2-1,4.6-0.4,6.9
					c0.6,2.1,1.9,4,3.7,5.3c3.9,2.9,9.1,3.3,13.4,1.1c2.5-1.2,4.4-3.3,5.5-5.9C101.3,18,101.2,14.9,100,12.2
					C99.3,10.9,100.6,13.5,100,12.2z M89.1,26.2c-2.2,0-4.2-1.5-5.6-3.1c-1.4-1.8-2.2-4-2.4-6.2v-0.5c0-3.7,2.1-7.3,5.9-8.3
					c0.9-0.2,1.8-0.3,2.8-0.2c1,0.2,1.9,0.6,2.7,1.1c1.6,1.1,2.9,2.7,3.7,4.6c0.4,1.2,0.7,2.4,0.8,3.6c0,1.2-0.1,2.3-0.4,3.4
					c-0.3,1.1-0.8,2.1-1.6,3C93.5,25.3,91.3,26.2,89.1,26.2L89.1,26.2z"/>
			</g>
			<g id="Grupo_288" transform="translate(112.042 0.274)">
				<path id="Trazado_165" class="st0" d="M17.2,14.1C17.4,14.3,17.6,14.4,17.2,14.1S16.9,13.9,17.2,14.1c-1.9-1.4-4-2.5-6.2-3.5
					c-1-0.5-2-1.1-2.9-1.8C7.1,8.2,6.4,7.3,5.9,6.3c-0.9-2.4,1.7-4,3.7-4.4c2.4-0.5,4.9,0.6,6.9,2c0.7,0.5,1.3,1,1.9,1.5l0.4,0.4
					l-0.4-3.6l-0.1,0C16,0.9,13.6,0.2,11.1,0C8.7-0.1,6.2,0.5,4.1,1.7c-2,1-3.2,3.1-3.2,5.3C1,9.2,2.7,10.8,4.5,12
					c2,1.4,4.3,2.3,6.4,3.5c1.8,1,4.2,2.4,4.6,4.6c0.4,2.2-0.8,4.4-2.8,5.4c-2.3,1.1-4.8,0.5-6.9-0.6c-2-1-3.8-2.3-5.3-3.9L0,20.6
					L0.6,25l0.1,0c4.2,2.5,9.4,3.8,14.1,2c2.1-0.7,3.8-2.2,4.9-4.1c1-2,0.9-4.3-0.2-6.2C18.9,15.7,18.1,14.8,17.2,14.1z"/>
				<path id="Trazado_166" class="st0" d="M37.5,25.7"/>
				<path id="Trazado_167" class="st0" d="M37.5,25.7c0.1,0,0.1,0,0.2,0C37.7,25.7,37.6,25.7,37.5,25.7c0,0-0.1,0-0.1,0
					C37.4,25.8,37.5,25.7,37.5,25.7C37,25.9,36.5,26,35.9,26H30V15.7h7.1l0.6-1.6H30V7.4h5.5c1.1,0.1,2.2,0.3,3.2,0.8l0.4,0.1
					L38,5.8H25.7l0.1,0.3C26.2,7,26.3,8,26.3,9v15.6c0,1-0.2,1.9-0.5,2.8l-0.1,0.3h12.8l1.1-2.5l-0.4,0.1
					C38.6,25.4,38,25.6,37.5,25.7z"/>
				<path id="Trazado_168" class="st0" d="M60.1,6c0.2,0.7,0.3,1.4,0.3,2.1v13.9L45.2,5.2l-0.1-0.1h-0.9v20.1c0,0.7-0.1,1.4-0.3,2.1
					l-0.1,0.3h2.4L46,27.3c-0.2-0.7-0.3-1.4-0.3-2.1V11.4l15.1,16.7l0.1,0.1h1V8.1c0-0.7,0.1-1.4,0.3-2.1l0.1-0.2H60L60.1,6z"/>
				<path id="Trazado_169" class="st0" d="M79.6,25.7c0.1,0,0.1,0,0.1,0C79.7,25.7,79.7,25.7,79.6,25.7c-0.1,0-0.1,0-0.1,0
					C79.5,25.8,79.5,25.7,79.6,25.7C79.1,25.9,78.5,26,78,26h-5.9V15.7h7.1l0.6-1.6h-7.7V7.4h5.5c1.1,0.1,2.2,0.3,3.2,0.8l0.4,0.1
					l-1.1-2.5H67.7l0.1,0.3C68.2,7,68.4,8,68.4,9v15.6c0,1-0.2,1.9-0.5,2.8l-0.1,0.3h12.8l1.1-2.5l-0.4,0.1
					C80.7,25.4,80.1,25.6,79.6,25.7z"/>
				<path id="Trazado_170" class="st0" d="M79.6,25.7"/>
				<path id="Trazado_171" class="st0" d="M85,5.8l-1.1,2.6l0.4-0.2c1-0.4,2-0.7,3.1-0.8h4.6v17c0,1-0.2,1.9-0.5,2.8l-0.1,0.3h4.9
					l-0.1-0.3c-0.4-0.8-0.6-1.7-0.5-2.6V7.4h4.6c1.1,0.1,2.1,0.3,3.1,0.8l0.4,0.2l-1.1-2.6L85,5.8z"/>
				<path id="Trazado_172" class="st0" d="M111.9,25.9c-0.1-0.5-0.1-1-0.1-1.5V8.9c0-1,0.2-1.9,0.5-2.8l0.1-0.3h-5l0.1,0.3
					c0.4,0.9,0.5,1.8,0.5,2.8v15.6c0,1-0.2,1.9-0.5,2.8l-0.1,0.3h5l-0.1-0.3C112.1,26.9,112,26.4,111.9,25.9z"/>
				<path id="Trazado_173" class="st0" d="M134.2,6c0.2,0.7,0.3,1.4,0.3,2.1v13.9L119.3,5.2l-0.1-0.1h-0.9v20.1
					c0,0.7-0.1,1.4-0.3,2.1l-0.1,0.3h2.4l-0.1-0.3c-0.2-0.7-0.3-1.4-0.3-2.1V11.4l15.1,16.7l0.1,0.1h1V8.1c0-0.7,0.1-1.4,0.3-2.1
					l0.1-0.2h-2.3L134.2,6z"/>
				<path id="Trazado_174" class="st0" d="M153.8,25.7"/>
				<path id="Trazado_175" class="st0" d="M153.8,25.7c0,0,0.1,0,0.1,0C153.9,25.7,153.9,25.7,153.8,25.7c0,0-0.1,0-0.1,0
					C153.7,25.8,153.7,25.7,153.8,25.7c-0.5,0.2-1.1,0.2-1.6,0.2h-5.9V15.7h7.1l0.6-1.6h-7.7V7.4h5.5c1.1,0.1,2.2,0.3,3.2,0.8
					l0.4,0.1l-1.1-2.5h-12.3l0.1,0.3c0.4,0.9,0.5,1.9,0.5,2.9v15.6c0,1-0.2,1.9-0.5,2.8l-0.1,0.3h12.8l1.1-2.5l-0.4,0.1
					C154.8,25.4,154.3,25.6,153.8,25.7z"/>
				<path id="Trazado_176" class="st0" d="M178.8,27.2c-1.9-1.4-3.8-2.9-5.5-4.4c-1.7-1.6-3.2-3.3-4.6-5.2c1.8-0.2,3.5-1,4.7-2.3
					c1.1-1.4,1.5-3.2,0.9-4.9c-1-3.9-5.4-4.6-8.8-4.6h-5.7l0.1,0.3c0.4,1,0.6,2,0.5,3.1v15.1c0,1-0.2,2.1-0.5,3.1l-0.1,0.3h5
					l-0.1-0.3c-0.4-1-0.6-2-0.5-3.1V7.4l0.6,0c1.4-0.1,2.9,0.2,4.1,0.9c1.1,0.8,1.8,2,1.9,3.4c0.2,1.4-0.3,2.8-1.4,3.7
					c-1.2,0.8-2.7,1.1-4,0.7l-0.1,0l-0.6,0.4l0.1,0.2c2.5,4,5.5,7.7,8.9,11l0.1,0.1h5.6L178.8,27.2z"/>
			</g>
		</g>
	</g>
	<g id="Grupo_291" transform="translate(29.993 36.319)">
		<path id="Trazado_177" class="st1" d="M34.7,30.9c4.8-2.4,7.9-6.7,7.9-12.5c0-9.4-6.1-16.9-19.3-16.9H0v65.9h25.1
			c15.1,0,22.2-8.7,22.2-19.9C47.3,39,42.5,33.1,34.7,30.9z M10.3,10.4h12.5c7.3,0,9.6,3.2,9.6,8.2c0,5.4-2.4,8.7-9.6,8.7H10.3V10.4
			z M24.5,58.5H10.3V35.7H24c9,0,12.7,4.7,12.7,11.4S33.6,58.5,24.5,58.5z"/>
		<path id="Trazado_178" class="st1" d="M68,39.2h28v-9H68V10.7h31.6V1.5h-42v65.9h43.3v-9.2H68L68,39.2z"/>
		<path id="Trazado_179" class="st1" d="M156.1,44.8L113.8,0.5H113v66.9h9.7V24.1L165,68.4h0.8V1.5h-9.7V44.8z"/>
		<path id="Trazado_180" class="st1" d="M201.6,48.7c0,7.9-3.6,10.2-8.6,10.2c-0.3,0-0.7,0-1,0l0,0c-4-0.2-7-1.9-7.8-7h-10.6
			c1.1,11.1,8.6,16.4,18.5,16.4v0c0.4,0,0.8,0,1.2,0c10.9,0,18.7-6.3,18.7-19.4V1.5h-10.5V48.7z"/>
		<path id="Trazado_181" class="st1" d="M318.3,37.3L286.1,0.1h-0.5v67.3h9.8V24.6l22.4,26.9h0.5l22.5-26.9v42.8h9.8V0.1h-0.5
			L318.3,37.3z"/>
		<rect id="Rectángulo_128" x="365.2" y="1.5" class="st1" width="10.4" height="65.9"/>
		<path id="Trazado_182" class="st1" d="M433.3,1.5v43.3L391,0.5h-0.8v66.9h9.7V24.1l42.3,44.3h0.8V1.5H433.3z"/>
		<path id="Trazado_183" class="st1" d="M246.9,0L218,67.3h10.5l6.5-15.7h24l6.5,15.7h11L247.5,0H246.9z M238.8,42.4l8.2-19.6
			c0,0,4.9,11.9,8.1,19.6H238.8z"/>
	</g>
</g>
</svg>
