<svg xmlns="http://www.w3.org/2000/svg" width="276.539" height="42.682" viewBox="0 0 276.539 42.682">
  <g id="Grupo_368" data-name="Grupo 368" transform="translate(-29.993 -36.319)">
    <g id="Grupo_291" data-name="Grupo 291" transform="translate(29.993 36.319)">
      <path id="Trazado_177" data-name="Trazado 177" d="M51.661,56.331a8.42,8.42,0,0,0,4.962-7.807c0-5.871-3.813-10.53-12.044-10.53H29.993V79.148H45.668c9.443,0,13.861-5.447,13.861-12.407A10.273,10.273,0,0,0,51.661,56.331ZM36.409,43.562h7.807c4.539,0,5.99,2,5.99,5.143,0,3.39-1.512,5.447-5.99,5.447H36.409Zm8.9,30.017h-8.9V59.358H45c5.628,0,7.928,2.9,7.928,7.141S51,73.579,45.305,73.579Z" transform="translate(-29.993 -37.071)" fill="#313131"/>
      <path id="Trazado_178" data-name="Trazado 178" d="M101.676,61.514h17.489V55.886H101.676V43.743h19.73V37.994H95.2V79.148h27.053V73.4H101.676Z" transform="translate(-59.256 -37.071)" fill="#313131"/>
      <path id="Trazado_179" data-name="Trazado 179" d="M184.86,64.553,158.472,36.894h-.484v41.76h6.053V51.6l26.388,27.657h.484V37.5H184.86Z" transform="translate(-87.433 -36.577)" fill="#313131"/>
      <path id="Trazado_180" data-name="Trazado 180" d="M244.116,67.467c0,4.9-2.24,6.354-5.388,6.354q-.309,0-.6-.02h0c-2.49-.094-4.347-1.2-4.872-4.36h-6.6c.7,6.905,5.338,10.25,11.579,10.25v-.019c.24.009.482.019.731.019,6.779,0,11.681-3.934,11.681-12.1V37.994h-6.535Z" transform="translate(-118.251 -37.071)" fill="#313131"/>
      <path id="Trazado_181" data-name="Trazado 181" d="M373.889,59.635,353.8,36.455h-.3v42h6.114V51.767l13.979,16.765h.3L387.93,51.767v26.69h6.114v-42h-.3Z" transform="translate(-175.17 -36.38)" fill="#313131"/>
      <rect id="Rectángulo_128" data-name="Rectángulo 128" width="6.477" height="41.154" transform="translate(228.002 0.923)" fill="#313131"/>
      <path id="Trazado_182" data-name="Trazado 182" d="M498.81,37.5V64.553L472.422,36.894h-.484v41.76h6.053V51.6l26.388,27.657h.484V37.5Z" transform="translate(-228.324 -36.577)" fill="#313131"/>
      <path id="Trazado_183" data-name="Trazado 183" d="M294.908,36.319l-18.036,42h6.537l4.068-9.805H302.46l4.068,9.805h6.84l-18.1-42ZM289.89,62.774l5.139-12.232s3.085,7.411,5.075,12.232Z" transform="translate(-140.785 -36.319)" fill="#313131"/>
    </g>
  </g>
</svg>
