<?xml version="1.0" encoding="utf-8"?>
<!-- Generator: Adobe Illustrator 23.0.2, SVG Export Plug-In . SVG Version: 6.00 Build 0)  -->
<svg version="1.1" id="Capa_1" xmlns="http://www.w3.org/2000/svg" xmlns:xlink="http://www.w3.org/1999/xlink" x="0px" y="0px"
	 viewBox="0 0 113 33.7" style="enable-background:new 0 0 113 33.7;" xml:space="preserve">
<style type="text/css">
	.st0{fill:#FFFFFF;}
</style>
<g>
	<path class="st0" d="M10.1,23.2c0.1,0.3,0.1,0.7,0.1,1v6.6l-7.2-8l0,0H2.6v9.5c0,0.3-0.1,0.6-0.2,1v0.1h1.1v-0.1
		c-0.1-0.3-0.1-0.7-0.1-1v-6.6l7.2,8l0,0H11v-9.5c0-0.3,0.1-0.7,0.1-1v-0.1L10.1,23.2L10.1,23.2z"/>
	<path class="st0" d="M15.1,32.7c0-0.2,0-0.3,0-0.6v-5.9c0-0.4,0.1-0.7,0.2-1.1V25h-1.8v0.1c0.1,0.3,0.2,0.7,0.2,1.1v5.9
		c0,0.4-0.1,0.7-0.2,1.1v0.1h1.9v-0.1C15.2,33.1,15.2,32.9,15.1,32.7C15.1,32.6,15.2,32.9,15.1,32.7"/>
	<path class="st0" d="M21.7,32.7c-0.2,0.1-0.4,0.1-0.6,0.1h-2.2v-3.9h2.7l0.2-0.6h-2.9v-2.6H21c0.4,0,0.8,0.2,1.2,0.3l0.2,0.1
		l-0.4-1h-4.7v0.1c0.1,0.4,0.2,0.7,0.2,1.1v5.9c0,0.4-0.1,0.7-0.2,1.1v0.1h4.9l0.4-1l-0.2,0.1C22.1,32.5,21.9,32.6,21.7,32.7
		C21.5,32.7,21.9,32.6,21.7,32.7"/>
	<path class="st0" d="M23.7,25.1l-0.4,1l0.2-0.1c0.4-0.1,0.8-0.3,1.2-0.3h1.8v6.5c0,0.4-0.1,0.7-0.2,1.1v0.1h1.9v-0.1
		c-0.1-0.3-0.2-0.6-0.2-1v-6.6h1.5c0.4,0,0.8,0.2,1.2,0.3l0.2,0.1l-0.4-1H23.7z"/>
	<path class="st0" d="M39.4,27.4c-0.8-1.6-2.6-2.5-4.3-2.4c-1.8,0.1-3.4,1.2-4.1,2.8c-0.3,0.8-0.4,1.8-0.1,2.6
		c0.2,0.8,0.7,1.5,1.4,2c1.5,1.1,3.5,1.3,5.1,0.4c0.9-0.5,1.7-1.3,2.1-2.2S39.9,28.4,39.4,27.4C39.2,26.9,39.6,27.9,39.4,27.4
		 M35.3,32.8c-0.8,0-1.6-0.6-2.1-1.2c-0.6-0.7-0.8-1.5-0.9-2.4V29c0-1.4,0.8-2.8,2.2-3.1c0.3-0.1,0.7-0.1,1.1-0.1
		c0.4,0,0.7,0.2,1,0.4c0.6,0.4,1.1,1,1.4,1.7c0.2,0.4,0.3,0.9,0.3,1.4c0,0.4,0,0.9-0.1,1.3s-0.3,0.8-0.6,1.1
		C37,32.4,36.1,32.8,35.3,32.8"/>
	<path class="st0" d="M51.3,28.3c-0.7-0.6-1.5-0.9-2.3-1.3c-0.4-0.2-0.8-0.4-1.1-0.7c-0.3-0.3-0.7-0.6-0.8-1
		c-0.4-0.9,0.6-1.5,1.4-1.7c0.9-0.2,1.9,0.2,2.6,0.7c0.3,0.2,0.5,0.4,0.7,0.6L52,25l-0.3-1.3l0,0c-0.8-0.4-1.8-0.7-2.7-0.8
		c-0.9-0.1-1.9,0.2-2.6,0.6c-0.7,0.4-1.3,1.1-1.2,2c0,0.9,0.7,1.5,1.3,1.9c0.8,0.5,1.6,0.9,2.4,1.3c0.7,0.4,1.6,0.9,1.7,1.7
		c0.2,0.8-0.3,1.7-1.1,2.1c-0.9,0.4-1.8,0.2-2.6-0.2c-0.7-0.4-1.4-0.9-2-1.5l-0.2-0.1l0.2,1.7l0,0c1.6,1,3.6,1.4,5.4,0.7
		c0.8-0.3,1.5-0.8,1.8-1.6c0.4-0.7,0.4-1.7-0.1-2.4C51.9,28.9,51.6,28.5,51.3,28.3C50.9,28,51.6,28.5,51.3,28.3"/>
	<path class="st0" d="M58.8,32.7c-0.2,0.1-0.4,0.1-0.6,0.1H56v-3.9h2.7l0.2-0.6H56v-2.6h2.1c0.4,0,0.8,0.2,1.2,0.3l0.2,0.1l-0.4-1
		h-4.7v0.1c0.1,0.4,0.2,0.7,0.2,1.1v5.9c0,0.4-0.1,0.7-0.2,1.1v0.1h4.9l0.4-1l-0.2,0.1C59.2,32.5,59,32.6,58.8,32.7
		C58.6,32.7,59,32.6,58.8,32.7"/>
	<path class="st0" d="M67.3,25.2c0.1,0.3,0.1,0.5,0.1,0.8v5.3l-5.8-6.4l0,0h-0.4v7.6c0,0.2,0,0.5-0.1,0.8v0.1H62v-0.1
		c-0.1-0.3-0.1-0.5-0.1-0.8v-5.3l5.8,6.3l0,0h0.4v-7.6c0-0.3,0.1-0.5,0.1-0.8V25L67.3,25.2L67.3,25.2z"/>
	<path class="st0" d="M74.6,32.7c-0.2,0.1-0.4,0.1-0.6,0.1h-2.2v-3.9h2.7l0.2-0.6h-2.9v-2.6h2.1c0.4,0,0.8,0.2,1.2,0.3l0.2,0.1
		l-0.4-1h-4.7v0.1c0.1,0.4,0.2,0.7,0.2,1.1v5.9c0,0.4-0.1,0.7-0.2,1.1v0.1h4.9l0.4-1l-0.2,0.1C75,32.5,74.8,32.6,74.6,32.7
		C74.4,32.7,74.8,32.6,74.6,32.7"/>
	<path class="st0" d="M76.5,25.1l-0.4,1l0.2-0.1c0.4-0.1,0.8-0.3,1.2-0.3h1.7v6.5c0,0.4-0.1,0.7-0.2,1.1v0.1h1.9v-0.1
		c-0.1-0.3-0.2-0.6-0.2-1v-6.6h1.8c0.4,0,0.8,0.2,1.2,0.3l0.2,0.1l-0.4-1H76.5z"/>
	<path class="st0" d="M86.6,32.7c0-0.2,0-0.3,0-0.6v-5.9c0-0.4,0.1-0.7,0.2-1.1V25h-1.9v0.1c0.1,0.3,0.2,0.7,0.2,1.1v5.9
		c0,0.4-0.1,0.7-0.2,1.1v0.1h1.9v-0.1C86.7,33.1,86.7,32.9,86.6,32.7C86.6,32.6,86.7,32.9,86.6,32.7"/>
	<path class="st0" d="M95,25.2c0.1,0.3,0.1,0.5,0.1,0.8v5.3l-5.8-6.4l0,0h-0.4v7.6c0,0.2,0,0.5-0.1,0.8v0.1h0.9v-0.1
		c-0.1-0.3-0.1-0.5-0.1-0.8v-5.3l5.8,6.3l0,0h0.4v-7.6c0-0.3,0.1-0.5,0.1-0.8V25L95,25.2L95,25.2z"/>
	<path class="st0" d="M102.3,32.7c-0.2,0.1-0.4,0.1-0.6,0.1h-2.2v-3.9h2.7l0.2-0.6h-2.9v-2.6h2.1c0.4,0,0.8,0.2,1.2,0.3l0.2,0.1
		l-0.4-1h-4.7v0.1c0.1,0.4,0.2,0.7,0.2,1.1v5.9c0,0.4-0.1,0.7-0.2,1.1v0.1h4.9l0.4-1l-0.2,0.1C102.7,32.5,102.5,32.6,102.3,32.7
		C102.1,32.7,102.5,32.6,102.3,32.7"/>
	<path class="st0" d="M111.7,33.2c-0.7-0.5-1.4-1.1-2.1-1.7c-0.6-0.6-1.2-1.3-1.8-2c0.7-0.1,1.3-0.3,1.8-0.9
		c0.4-0.5,0.5-1.2,0.4-1.9c-0.4-1.5-2.1-1.7-3.3-1.7h-2.2v0.1c0.2,0.4,0.2,0.8,0.2,1.2v5.8c0,0.4-0.1,0.8-0.2,1.2v0.1h1.9v-0.1
		c-0.1-0.4-0.2-0.8-0.2-1.2v-6.4h0.2c0.5,0,1.1,0,1.6,0.3c0.4,0.3,0.7,0.8,0.7,1.3c0.1,0.5-0.1,1.1-0.5,1.4s-1,0.4-1.5,0.2l0,0
		l-0.2,0.2v0.1c0.9,1.5,2.1,2.9,3.4,4.2l0,0h2.1L111.7,33.2z"/>
	<path class="st0" d="M86.6,7L86.6,7L86.6,7z"/>
	<path class="st0" d="M13.8,19.1c0.3-0.6,1.2-2.8,1.3-3.8c-0.1-0.1-0.2-0.2-0.3-0.2c-0.5,1.2-1.3,2.4-1.8,2.8
		c-0.4,0.4-0.9,0.8-2.8,0.8c-2.3,0-3.5-0.1-4.1-0.2c-0.3-0.1-0.8-0.3-0.8-1.2c0-1.3-0.1-4.2-0.1-5.8c0-0.6,0-1,0-1.2
		c0-0.1,0-0.3,0.2-0.3c0.3,0,1,0,1.8,0c1.3,0,2.8,0,3.4,0.1c1.1,0.1,1.3,0.8,1.4,1.1s0.1,0.6,0.2,1c0,0,0.1,0,0.2,0s0.2,0,0.3-0.1
		c0-0.5-0.1-1.2-0.1-2.5c0-1,0.1-2.2,0.2-2.7c0,0,0,0-0.1,0s-0.1,0-0.2,0s-0.1,0-0.2,0C12.2,7.3,12.1,7.7,12,8
		c-0.2,0.5-0.4,1-1.4,1.1c-0.6,0-2.1,0.1-3.4,0.1c-0.8,0-1.5,0-1.8,0C5.2,9.2,5.3,9,5.2,8.9c0-0.1,0-0.6,0-1.3c0-1.9,0-5.3,0.1-6.1
		C5.3,1.3,5.4,1,5.7,1c0.2,0,1,0,1.9,0c1.2,0,2.6,0,3.1,0c1.3,0.1,1.6,0.7,1.8,1.4c0.1,0.4,0.2,1,0.3,1.8h0.1c0.1,0,0.2,0,0.3,0
		c0.1-1,0.3-2.9,0.6-3.9l0,0l0,0c-0.5,0.1-2.1,0.1-3.3,0.1H4.2C2.4,0.3,1.5,0.3,0.8,0.3c0,0-0.1,0.1-0.1,0.2c0,0,0,0,0,0.1l0,0
		c0.7,0,1.1,0.1,1.5,0.2C3,1,3.2,1.3,3.3,2.6c0,0.5,0.1,3.5,0.1,6.5c0,3.7,0,7.3-0.1,7.8c-0.1,1.3-0.4,1.7-1.2,1.9
		c-0.6,0.2-1.2,0.2-2,0.3c0,0,0,0.1,0,0.2s0,0.2,0,0.2c1.2,0,2-0.1,4.2-0.1c5.1,0,6.1,0.1,7.7,0.1C13.6,19.4,13.6,19.4,13.8,19.1"/>
	<path class="st0" d="M39.1,3.3L39.1,3.3h0.2l0,0c0.1,2.4,0.2,10.4,0.2,13.3c0,0.3,0,0.5,0,0.7c0,0.9-0.2,1.4-1,1.6
		c-0.4,0.1-0.7,0.2-1.5,0.3c0,0,0,0.1,0,0.2s0,0.2,0,0.2c0.7,0,2-0.1,3.7-0.1c1.3,0,3,0.1,3.6,0.1c0-0.1,0-0.1,0-0.2s0-0.1,0-0.2
		c-0.7-0.1-1.2-0.1-1.6-0.2c-1-0.2-1.2-0.7-1.2-1.8c-0.1-2.1-0.4-10.8-0.4-14c0-0.4,0-0.7,0-0.9c0-0.4,0.1-1.1,1.1-1.3
		c0.5-0.1,0.9-0.2,1.9-0.3c0,0,0.1-0.1,0-0.2c0-0.1,0-0.1,0-0.2c-1,0-1.7,0.1-4.6,0.1c-0.1,0.7-0.3,1.1-0.6,1.7
		c-1.5,3.2-6.4,12.8-6.8,13.6c0,0.1-0.1,0.1-0.1,0.1h-0.1c-0.4-0.6-4.2-8.3-6.6-13.7C25,1.4,24.8,1,24.7,0.4c-3,0-4.4-0.1-4.9-0.1
		c0,0,0,0,0,0.1c0,0,0,0.1,0,0.2v0.1v0.1c1,0.1,1.6,0.2,2.1,0.4c0.9,0.3,1,1,1,1.5c-0.1,2.7-0.8,11.9-1.1,13.8
		c-0.3,1.9-0.5,2.4-1.6,2.6L19,19.3c0,0,0,0.1,0,0.2s0,0.1,0,0.1c0.4,0,1.9-0.1,3.5-0.1c1.5,0,2.7,0.1,3.2,0.1l0,0c0,0,0,0,0-0.1
		s0-0.1,0-0.2c0,0,0,0,0-0.1l0,0c-0.8-0.1-1.2-0.2-1.7-0.3c-1-0.2-1.1-1.1-1.1-2.4c0-2,0.4-10.6,0.7-13.4C23.6,3,23.7,3,23.7,3h0.1
		c0,0,6.5,13.8,7.4,16.6c0,0,0.1,0,0.2,0c0.1,0,0.1,0,0.2,0C32.4,16.6,38.3,4.9,39.1,3.3"/>
	<path class="st0" d="M49.4,0.6L49.4,0.6c0.8,0.1,1.4,0.2,1.8,0.3C52,1.1,52,1.8,52.1,2.5c0.1,1.4,0.1,3.9,0.1,6.2
		c0,2.6,0,8-0.1,8.7s-0.2,1.2-1.1,1.4c-0.4,0.1-1,0.2-1.4,0.2c0,0,0,0.1,0,0.2s0,0.1,0,0.2c1.7,0,2.3-0.1,3.9-0.1
		c1.4,0,2.6,0.1,3.3,0.1l0.1-0.2v-0.1c-0.6-0.1-1.2-0.2-1.6-0.3c-0.8-0.2-1-0.8-1-1.8s-0.1-4.5-0.1-7.4c0-2.7,0-5.8,0.1-7.1
		c0.1-1,0.2-1.5,1-1.7c0-0.1,0.5-0.1,1-0.2V0.5c0-0.1,0-0.2,0-0.2c-0.8,0-1.7,0.1-3.1,0.1c-1.5,0-3.1-0.1-3.7-0.1
		C49.4,0.3,49.4,0.4,49.4,0.6C49.4,0.5,49.4,0.5,49.4,0.6"/>
	<path class="st0" d="M62.4,0.6c0.3,0,1.2,0.1,1.6,0.2c1,0.2,1.1,0.6,1.2,2.1c0,0.7,0,2.5,0,5.7c0,7.2,0,7.8-0.1,8.7
		c-0.1,1-0.5,1.3-1.2,1.5c-0.5,0.1-1,0.1-1.7,0.2c0,0,0,0.1,0,0.2s0,0.1,0,0.2c0.6,0,2.5-0.1,3.7-0.1c1.4,0,7.6,0.1,9.3,0.1
		c0.5,0,0.8-0.2,1-0.3c0.4-0.8,1.2-3.4,1.5-4.5c0,0-0.2-0.1-0.3-0.1l0,0c-0.6,1.4-1.4,2.7-1.9,3.2c-0.6,0.7-1.1,1-1.8,1
		c-0.5,0-1.3,0-2.2,0c-1.6,0-3.3-0.1-3.8-0.3c-0.3-0.1-0.5-0.4-0.6-1c0-1.2-0.1-3.5-0.1-5.7c0-0.8,0-1.6,0-2.3c0-2.6,0-6.2,0.1-7.2
		c0-0.8,0.1-1.2,0.9-1.4c0.5-0.1,0.8-0.1,1.4-0.2c0,0,0-0.1,0-0.2c0-0.1,0-0.1,0-0.1l0,0c-0.6,0-1.8,0.1-3.4,0.1
		c-1.8,0-2.9-0.1-3.6-0.1l0,0c0,0,0,0,0,0.1C62.4,0.4,62.4,0.5,62.4,0.6L62.4,0.6"/>
	<path class="st0" d="M81.4,0.6L81.4,0.6c0.8,0.1,1.4,0.2,1.8,0.3C84,1.1,84,1.8,84.1,2.5c0.1,1.4,0.1,3.9,0.1,6.2
		c0,2.6,0,8-0.1,8.7s-0.2,1.2-1.1,1.4c-0.4,0.1-1,0.2-1.4,0.2c0,0,0,0.1,0,0.2s0,0.1,0,0.2c1.7,0,2.3-0.1,3.9-0.1
		c1.4,0,2.6,0.1,3.3,0.1l0.1-0.2v-0.1c-0.6-0.1-1.2-0.2-1.6-0.3c-0.8-0.2-1-0.8-1-1.8s-0.1-4.5-0.1-7.4c0-2.7,0-5.8,0.1-7.1
		c0.1-1,0.2-1.5,1-1.7c0-0.1,0.5-0.1,1-0.2V0.5c0-0.1,0-0.2,0-0.2c-0.8,0-1.7,0.1-3.1,0.1c-1.5,0-3.1-0.1-3.7-0.1
		C81.4,0.3,81.4,0.4,81.4,0.6C81.4,0.5,81.4,0.5,81.4,0.6"/>
	<path class="st0" d="M101.9,1.8c-0.7,1.9-3.6,9.9-5.6,14.4c-1,2.3-1.4,2.6-3.6,2.9c0,0,0,0.1,0,0.2v0.1l0,0c0.5,0,1.5-0.1,3-0.1
		c1.4,0,3.1,0.1,3.7,0.1v-0.2v-0.1c-0.7-0.1-1-0.2-1.3-0.2c-0.8-0.2-1-0.5-1-1c0-0.1,0-0.3,0-0.4c0.1-0.9,1.5-4.3,2.1-6
		c0-0.1,0.2-0.3,0.3-0.3c0.3,0,0.5,0,2.7,0c2,0,2.7,0,3,0c0.1,0,0.3,0.2,0.3,0.2c0.6,1.7,1.8,5,2.2,6.4c0,0.1,0.1,0.3,0.1,0.4
		c0,0.2-0.1,0.4-0.5,0.6c-0.5,0.2-1,0.2-1.6,0.3l0,0v0.1c0,0.1,0,0.2,0,0.2c0.7-0.1,2.8-0.1,3.6-0.1c0.7,0,2.6,0.1,3.4,0.1
		c0,0,0.1-0.1,0.1-0.2v-0.1c-2.1-0.2-2.3-0.4-3.2-2.2c-1-2.3-4.7-13.6-5.3-15.2c-0.2-0.6-0.3-1-0.4-1.3c-0.1,0-0.3,0-0.7,0
		c-0.4,0-0.6,0-0.7,0C102.2,0.7,102.1,1.2,101.9,1.8 M102.5,2.7c0.5,1.4,1.7,5,2.4,7.4v0.1c0,0.1,0,0.2-0.1,0.2c-0.2,0-1.4,0-2.2,0
		c-1.8,0-2.6,0-2.9,0c-0.1,0-0.2-0.1-0.2-0.3l0,0c0.5-1.4,2.1-6,2.6-7.3l0,0c0-0.1,0.1-0.1,0.1-0.1C102.4,2.6,102.5,2.6,102.5,2.7
		L102.5,2.7z"/>
</g>
</svg>
