<?xml version="1.0" encoding="utf-8"?>
<!-- Generator: Adobe Illustrator 23.0.2, SVG Export Plug-In . SVG Version: 6.00 Build 0)  -->
<svg version="1.1" id="Capa_1" xmlns="http://www.w3.org/2000/svg" xmlns:xlink="http://www.w3.org/1999/xlink" x="0px" y="0px"
	 viewBox="0 0 127.5 37.8" style="enable-background:new 0 0 127.5 37.8;" xml:space="preserve">
<style type="text/css">
	.st0{fill:#222220;}
</style>
<g>
	<path class="st0" d="M17.6,25.5c0.1,0.3,0.1,0.7,0.1,1v6.6l-7.2-8l0,0h-0.4v9.5c0,0.3-0.1,0.6-0.2,1l0,0.1h1.1l0-0.1
		c-0.1-0.3-0.1-0.7-0.1-1V28l7.2,8l0,0h0.4v-9.5c0-0.3,0.1-0.7,0.1-1l0-0.1L17.6,25.5L17.6,25.5z"/>
	<path class="st0" d="M22.6,35c0-0.2,0-0.3,0-0.6v-5.9c0-0.4,0.1-0.7,0.2-1.1l0-0.1H21l0,0.1c0.1,0.3,0.2,0.7,0.2,1.1v5.9
		c0,0.4-0.1,0.7-0.2,1.1l0,0.1h1.9l0-0.1C22.7,35.4,22.7,35.2,22.6,35C22.6,34.9,22.7,35.2,22.6,35"/>
	<path class="st0" d="M29.2,35c-0.2,0.1-0.4,0.1-0.6,0.1h-2.2v-3.9h2.7l0.2-0.6h-2.9V28h2.1c0.4,0,0.8,0.2,1.2,0.3l0.2,0.1l-0.4-1
		h-4.7l0,0.1c0.1,0.4,0.2,0.7,0.2,1.1v5.9c0,0.4-0.1,0.7-0.2,1.1l0,0.1h4.9l0.4-1l-0.2,0.1C29.6,34.8,29.4,34.9,29.2,35
		C29,35,29.4,34.9,29.2,35"/>
	<path class="st0" d="M31.2,27.4l-0.4,1l0.2-0.1c0.4-0.1,0.8-0.3,1.2-0.3h1.8v6.5c0,0.4-0.1,0.7-0.2,1.1l0,0.1h1.9l0-0.1
		c-0.1-0.3-0.2-0.6-0.2-1V28H37c0.4,0,0.8,0.2,1.2,0.3l0.2,0.1l-0.4-1H31.2z"/>
	<path class="st0" d="M46.9,29.7c-0.8-1.6-2.6-2.5-4.3-2.4c-1.8,0.1-3.4,1.2-4.1,2.8c-0.3,0.8-0.4,1.8-0.1,2.6
		c0.2,0.8,0.7,1.5,1.4,2c1.5,1.1,3.5,1.3,5.1,0.4c0.9-0.5,1.7-1.3,2.1-2.2C47.4,32,47.4,30.7,46.9,29.7
		C46.7,29.2,47.1,30.2,46.9,29.7 M42.8,35.1c-0.8,0-1.6-0.6-2.1-1.2c-0.6-0.7-0.8-1.5-0.9-2.4v-0.2c0-1.4,0.8-2.8,2.2-3.1
		c0.3-0.1,0.7-0.1,1.1-0.1c0.4,0,0.7,0.2,1,0.4c0.6,0.4,1.1,1,1.4,1.7c0.2,0.4,0.3,0.9,0.3,1.4c0,0.4,0,0.9-0.1,1.3
		c-0.1,0.4-0.3,0.8-0.6,1.1C44.5,34.7,43.6,35.1,42.8,35.1"/>
	<path class="st0" d="M58.8,30.6c-0.7-0.6-1.5-0.9-2.3-1.3c-0.4-0.2-0.8-0.4-1.1-0.7c-0.3-0.3-0.7-0.6-0.8-1
		c-0.4-0.9,0.6-1.5,1.4-1.7c0.9-0.2,1.9,0.2,2.6,0.7c0.3,0.2,0.5,0.4,0.7,0.6l0.2,0.1L59.2,26l0,0c-0.8-0.4-1.8-0.7-2.7-0.8
		c-0.9-0.1-1.9,0.2-2.6,0.6c-0.7,0.4-1.3,1.1-1.2,2c0,0.9,0.7,1.5,1.3,1.9c0.8,0.5,1.6,0.9,2.4,1.3c0.7,0.4,1.6,0.9,1.7,1.7
		c0.2,0.8-0.3,1.7-1.1,2.1c-0.9,0.4-1.8,0.2-2.6-0.2c-0.7-0.4-1.4-0.9-2-1.5L52.2,33l0.2,1.7l0,0c1.6,1,3.6,1.4,5.4,0.7
		c0.8-0.3,1.5-0.8,1.8-1.6c0.4-0.7,0.4-1.7-0.1-2.4C59.4,31.2,59.1,30.8,58.8,30.6C58.4,30.3,59.1,30.8,58.8,30.6"/>
	<path class="st0" d="M66.3,35c-0.2,0.1-0.4,0.1-0.6,0.1h-2.2v-3.9h2.7l0.2-0.6h-2.9V28h2.1c0.4,0,0.8,0.2,1.2,0.3l0.2,0.1l-0.4-1
		h-4.7l0,0.1c0.1,0.4,0.2,0.7,0.2,1.1v5.9c0,0.4-0.1,0.7-0.2,1.1l0,0.1h4.9l0.4-1L67,34.8C66.7,34.8,66.5,34.9,66.3,35
		C66.1,35,66.5,34.9,66.3,35"/>
	<path class="st0" d="M74.8,27.5c0.1,0.3,0.1,0.5,0.1,0.8v5.3l-5.8-6.4l0,0h-0.4v7.6c0,0.2,0,0.5-0.1,0.8l0,0.1h0.9l0-0.1
		c-0.1-0.3-0.1-0.5-0.1-0.8v-5.3l5.8,6.3l0,0h0.4v-7.6c0-0.3,0.1-0.5,0.1-0.8l0-0.1L74.8,27.5L74.8,27.5z"/>
	<path class="st0" d="M82.1,35c-0.2,0.1-0.4,0.1-0.6,0.1h-2.2v-3.9h2.7l0.2-0.6h-2.9V28h2.1c0.4,0,0.8,0.2,1.2,0.3l0.2,0.1l-0.4-1
		h-4.7l0,0.1c0.1,0.4,0.2,0.7,0.2,1.1v5.9c0,0.4-0.1,0.7-0.2,1.1l0,0.1h4.9l0.4-1l-0.2,0.1C82.5,34.8,82.3,34.9,82.1,35
		C81.9,35,82.3,34.9,82.1,35"/>
	<path class="st0" d="M84,27.4l-0.4,1l0.2-0.1c0.4-0.1,0.8-0.3,1.2-0.3h1.7v6.5c0,0.4-0.1,0.7-0.2,1.1l0,0.1h1.9l0-0.1
		c-0.1-0.3-0.2-0.6-0.2-1V28h1.8c0.4,0,0.8,0.2,1.2,0.3l0.2,0.1l-0.4-1H84z"/>
	<path class="st0" d="M94.1,35c0-0.2,0-0.3,0-0.6v-5.9c0-0.4,0.1-0.7,0.2-1.1l0-0.1h-1.9l0,0.1c0.1,0.3,0.2,0.7,0.2,1.1v5.9
		c0,0.4-0.1,0.7-0.2,1.1l0,0.1h1.9l0-0.1C94.2,35.4,94.2,35.2,94.1,35C94.1,34.9,94.2,35.2,94.1,35"/>
	<path class="st0" d="M102.5,27.5c0.1,0.3,0.1,0.5,0.1,0.8v5.3l-5.8-6.4l0,0h-0.4v7.6c0,0.2,0,0.5-0.1,0.8l0,0.1h0.9l0-0.1
		c-0.1-0.3-0.1-0.5-0.1-0.8v-5.3l5.8,6.3l0,0h0.4v-7.6c0-0.3,0.1-0.5,0.1-0.8l0-0.1L102.5,27.5L102.5,27.5z"/>
	<path class="st0" d="M109.8,35c-0.2,0.1-0.4,0.1-0.6,0.1h-2.2v-3.9h2.7l0.2-0.6h-2.9V28h2.1c0.4,0,0.8,0.2,1.2,0.3l0.2,0.1l-0.4-1
		h-4.7l0,0.1c0.1,0.4,0.2,0.7,0.2,1.1v5.9c0,0.4-0.1,0.7-0.2,1.1l0,0.1h4.9l0.4-1l-0.2,0.1C110.2,34.8,110,34.9,109.8,35
		C109.6,35,110,34.9,109.8,35"/>
	<path class="st0" d="M119.2,35.5c-0.7-0.5-1.4-1.1-2.1-1.7c-0.6-0.6-1.2-1.3-1.8-2c0.7-0.1,1.3-0.3,1.8-0.9
		c0.4-0.5,0.5-1.2,0.4-1.9c-0.4-1.5-2.1-1.7-3.3-1.7H112l0,0.1c0.2,0.4,0.2,0.8,0.2,1.2v5.8c0,0.4-0.1,0.8-0.2,1.2l0,0.1h1.9l0-0.1
		c-0.1-0.4-0.2-0.8-0.2-1.2V28l0.2,0c0.5,0,1.1,0,1.6,0.3c0.4,0.3,0.7,0.8,0.7,1.3c0.1,0.5-0.1,1.1-0.5,1.4c-0.4,0.3-1,0.4-1.5,0.2
		l0,0l-0.2,0.2l0,0.1c0.9,1.5,2.1,2.9,3.4,4.2l0,0h2.1L119.2,35.5z"/>
	<path class="st0" d="M94.1,9.3L94.1,9.3L94.1,9.3z"/>
	<path class="st0" d="M21.3,21.4c0.3-0.6,1.2-2.8,1.3-3.8c-0.1-0.1-0.2-0.2-0.3-0.2c-0.5,1.2-1.3,2.4-1.8,2.8
		c-0.4,0.4-0.9,0.8-2.8,0.8c-2.3,0-3.5-0.1-4.1-0.2c-0.3-0.1-0.8-0.3-0.8-1.2c0-1.3-0.1-4.2-0.1-5.8c0-0.6,0-1,0-1.2
		c0-0.1,0-0.3,0.2-0.3c0.3,0,1,0,1.8,0c1.3,0,2.8,0,3.4,0.1c1.1,0.1,1.3,0.8,1.4,1.1c0.1,0.3,0.1,0.6,0.2,1c0,0,0.1,0,0.2,0
		c0.1,0,0.2,0,0.3-0.1c0-0.5-0.1-1.2-0.1-2.5c0-1,0.1-2.2,0.2-2.7c0,0,0,0-0.1,0c-0.1,0-0.1,0-0.2,0c-0.1,0-0.1,0-0.2,0
		c-0.1,0.4-0.2,0.8-0.3,1.1c-0.2,0.5-0.4,1-1.4,1.1c-0.6,0-2.1,0.1-3.4,0.1c-0.8,0-1.5,0-1.8,0c-0.2,0-0.1-0.2-0.2-0.3
		c0-0.1,0-0.6,0-1.3c0-1.9,0-5.3,0.1-6.1c0-0.2,0.1-0.5,0.4-0.5c0.2,0,1,0,1.9,0c1.2,0,2.6,0,3.1,0C19.5,3.4,19.8,4,20,4.7
		c0.1,0.4,0.2,1,0.3,1.8c0,0,0.1,0,0.1,0c0.1,0,0.2,0,0.3,0c0.1-1,0.3-2.9,0.6-3.9c0,0,0,0,0,0c0,0,0,0,0,0
		c-0.5,0.1-2.1,0.1-3.3,0.1h-6.3C9.9,2.6,9,2.6,8.3,2.6c0,0-0.1,0.1-0.1,0.2c0,0,0,0,0,0.1c0,0,0,0,0,0C8.9,2.9,9.3,3,9.7,3.1
		c0.8,0.2,1,0.5,1.1,1.8c0,0.5,0.1,3.5,0.1,6.5c0,3.7,0,7.3-0.1,7.8c-0.1,1.3-0.4,1.7-1.2,1.9c-0.6,0.2-1.2,0.2-2,0.3
		c0,0,0,0.1,0,0.2c0,0.1,0,0.2,0,0.2c1.2,0,2-0.1,4.2-0.1c5.1,0,6.1,0.1,7.7,0.1C21.1,21.7,21.1,21.7,21.3,21.4"/>
	<path class="st0" d="M46.6,5.6c0,0,0.1,0,0.1,0c0,0,0.1,0,0.1,0l0,0C46.9,8,47,16,47,18.9c0,0.3,0,0.5,0,0.7c0,0.9-0.2,1.4-1,1.6
		c-0.4,0.1-0.7,0.2-1.5,0.3c0,0,0,0.1,0,0.2c0,0.1,0,0.2,0,0.2c0.7,0,2-0.1,3.7-0.1c1.3,0,3,0.1,3.6,0.1c0-0.1,0-0.1,0-0.2
		c0-0.1,0-0.1,0-0.2c-0.7-0.1-1.2-0.1-1.6-0.2c-1-0.2-1.2-0.7-1.2-1.8c-0.1-2.1-0.4-10.8-0.4-14c0-0.4,0-0.7,0-0.9
		c0-0.4,0.1-1.1,1.1-1.3c0.5-0.1,0.9-0.2,1.9-0.3c0,0,0.1-0.1,0-0.2c0-0.1,0-0.1,0-0.2c-1,0-1.7,0.1-4.6,0.1
		c-0.1,0.7-0.3,1.1-0.6,1.7C44.9,7.6,40,17.2,39.6,18c0,0.1-0.1,0.1-0.1,0.1c0,0-0.1,0-0.1,0c-0.4-0.6-4.2-8.3-6.6-13.7
		c-0.3-0.7-0.5-1.1-0.6-1.7c-3,0-4.4-0.1-4.9-0.1c0,0,0,0,0,0.1c0,0,0,0.1,0,0.2c0,0,0,0.1,0,0.1c0,0,0,0.1,0,0.1
		c1,0.1,1.6,0.2,2.1,0.4c0.9,0.3,1,1,1,1.5c-0.1,2.7-0.8,11.9-1.1,13.8c-0.3,1.9-0.5,2.4-1.6,2.6l-1.2,0.2c0,0,0,0.1,0,0.2
		c0,0.1,0,0.1,0,0.1c0.4,0,1.9-0.1,3.5-0.1c1.5,0,2.7,0.1,3.2,0.1c0,0,0,0,0,0c0,0,0,0,0-0.1c0-0.1,0-0.1,0-0.2c0,0,0,0,0-0.1
		c0,0,0,0,0,0c-0.8-0.1-1.2-0.2-1.7-0.3c-1-0.2-1.1-1.1-1.1-2.4c0-2,0.4-10.6,0.7-13.4c0-0.1,0.1-0.1,0.1-0.1c0,0,0.1,0,0.1,0
		c0,0,6.5,13.8,7.4,16.6c0,0,0.1,0,0.2,0c0.1,0,0.1,0,0.2,0C39.9,18.9,45.8,7.2,46.6,5.6"/>
	<path class="st0" d="M56.9,2.9C56.9,2.9,56.9,2.9,56.9,2.9c0.8,0.1,1.4,0.2,1.8,0.3c0.8,0.2,0.8,0.9,0.9,1.6
		c0.1,1.4,0.1,3.9,0.1,6.2c0,2.6,0,8-0.1,8.7c-0.1,0.7-0.2,1.2-1.1,1.4c-0.4,0.1-1,0.2-1.4,0.2c0,0,0,0.1,0,0.2c0,0.1,0,0.1,0,0.2
		c1.7,0,2.3-0.1,3.9-0.1c1.4,0,2.6,0.1,3.3,0.1c0,0,0.1-0.2,0.1-0.2c0,0,0-0.1,0-0.1c-0.6-0.1-1.2-0.2-1.6-0.3c-0.8-0.2-1-0.8-1-1.8
		c0-1-0.1-4.5-0.1-7.4c0-2.7,0-5.8,0.1-7.1c0.1-1,0.2-1.5,1-1.7C62.8,3,63.3,3,63.8,2.9c0,0,0-0.1,0-0.1c0-0.1,0-0.2,0-0.2
		c-0.8,0-1.7,0.1-3.1,0.1c-1.5,0-3.1-0.1-3.7-0.1C56.9,2.6,56.9,2.7,56.9,2.9C56.9,2.8,56.9,2.8,56.9,2.9"/>
	<path class="st0" d="M69.9,2.9c0.3,0,1.2,0.1,1.6,0.2c1,0.2,1.1,0.6,1.2,2.1c0,0.7,0,2.5,0,5.7c0,7.2,0,7.8-0.1,8.7
		c-0.1,1-0.5,1.3-1.2,1.5c-0.5,0.1-1,0.1-1.7,0.2c0,0,0,0.1,0,0.2c0,0.1,0,0.1,0,0.2c0.6,0,2.5-0.1,3.7-0.1c1.4,0,7.6,0.1,9.3,0.1
		c0.5,0,0.8-0.2,1-0.3c0.4-0.8,1.2-3.4,1.5-4.5c0,0-0.2-0.1-0.3-0.1c0,0,0,0,0,0c-0.6,1.4-1.4,2.7-1.9,3.2c-0.6,0.7-1.1,1-1.8,1
		C80.7,21,79.9,21,79,21c-1.6,0-3.3-0.1-3.8-0.3c-0.3-0.1-0.5-0.4-0.6-1c0-1.2-0.1-3.5-0.1-5.7c0-0.8,0-1.6,0-2.3
		c0-2.6,0-6.2,0.1-7.2c0-0.8,0.1-1.2,0.9-1.4C76,3,76.3,3,76.9,2.9c0,0,0-0.1,0-0.2c0-0.1,0-0.1,0-0.1c0,0,0,0,0,0
		c-0.6,0-1.8,0.1-3.4,0.1c-1.8,0-2.9-0.1-3.6-0.1c0,0,0,0,0,0c0,0,0,0,0,0.1C69.9,2.7,69.9,2.8,69.9,2.9C69.9,2.9,69.9,2.9,69.9,2.9
		"/>
	<path class="st0" d="M88.9,2.9C88.9,2.9,88.9,2.9,88.9,2.9c0.8,0.1,1.4,0.2,1.8,0.3c0.8,0.2,0.8,0.9,0.9,1.6
		c0.1,1.4,0.1,3.9,0.1,6.2c0,2.6,0,8-0.1,8.7c-0.1,0.7-0.2,1.2-1.1,1.4c-0.4,0.1-1,0.2-1.4,0.2c0,0,0,0.1,0,0.2c0,0.1,0,0.1,0,0.2
		c1.7,0,2.3-0.1,3.9-0.1c1.4,0,2.6,0.1,3.3,0.1c0,0,0.1-0.2,0.1-0.2c0,0,0-0.1,0-0.1c-0.6-0.1-1.2-0.2-1.6-0.3c-0.8-0.2-1-0.8-1-1.8
		c0-1-0.1-4.5-0.1-7.4c0-2.7,0-5.8,0.1-7.1c0.1-1,0.2-1.5,1-1.7C94.8,3,95.3,3,95.8,2.9c0,0,0-0.1,0-0.1c0-0.1,0-0.2,0-0.2
		c-0.8,0-1.7,0.1-3.1,0.1c-1.5,0-3.1-0.1-3.7-0.1C88.9,2.6,88.9,2.7,88.9,2.9C88.9,2.8,88.9,2.8,88.9,2.9"/>
	<path class="st0" d="M109.4,4.1c-0.7,1.9-3.6,9.9-5.6,14.4c-1,2.3-1.4,2.6-3.6,2.9c0,0,0,0.1,0,0.2c0,0,0,0.1,0,0.1c0,0,0,0,0,0
		c0.5,0,1.5-0.1,3-0.1c1.4,0,3.1,0.1,3.7,0.1c0,0,0-0.2,0-0.2c0,0,0-0.1,0-0.1c-0.7-0.1-1-0.2-1.3-0.2c-0.8-0.2-1-0.5-1-1
		c0-0.1,0-0.3,0-0.4c0.1-0.9,1.5-4.3,2.1-6c0-0.1,0.2-0.3,0.3-0.3c0.3,0,0.5,0,2.7,0c2,0,2.7,0,3,0c0.1,0,0.3,0.2,0.3,0.2
		c0.6,1.7,1.8,5,2.2,6.4c0,0.1,0.1,0.3,0.1,0.4c0,0.2-0.1,0.4-0.5,0.6c-0.5,0.2-1,0.2-1.6,0.3c0,0,0,0,0,0c0,0,0,0.1,0,0.1
		c0,0.1,0,0.2,0,0.2c0.7-0.1,2.8-0.1,3.6-0.1c0.7,0,2.6,0.1,3.4,0.1c0,0,0.1-0.1,0.1-0.2c0,0,0-0.1,0-0.1c-2.1-0.2-2.3-0.4-3.2-2.2
		c-1-2.3-4.7-13.6-5.3-15.2c-0.2-0.6-0.3-1-0.4-1.3c-0.1,0-0.3,0-0.7,0c-0.4,0-0.6,0-0.7,0C109.7,3,109.6,3.5,109.4,4.1 M110,5
		c0.5,1.4,1.7,5,2.4,7.4c0,0,0,0.1,0,0.1c0,0.1,0,0.2-0.1,0.2c-0.2,0-1.4,0-2.2,0c-1.8,0-2.6,0-2.9,0c-0.1,0-0.2-0.1-0.2-0.3
		c0,0,0,0,0,0c0.5-1.4,2.1-6,2.6-7.3h0c0-0.1,0.1-0.1,0.1-0.1C109.9,4.9,110,4.9,110,5L110,5z"/>
</g>
</svg>
