<?xml version="1.0" encoding="utf-8"?>
<!-- Generator: Adobe Illustrator 23.0.2, SVG Export Plug-In . SVG Version: 6.00 Build 0)  -->
<svg version="1.1" id="Capa_1" xmlns="http://www.w3.org/2000/svg" xmlns:xlink="http://www.w3.org/1999/xlink" x="0px" y="0px"
	 viewBox="0 0 127.5 37.8" style="enable-background:new 0 0 127.5 37.8;" xml:space="preserve">
<style type="text/css">
	.st0{fill:#222220;}
</style>
<g>
	<path class="st0" d="M23,24.8c0.1,0.3,0.1,0.6,0.1,0.9v5.8l-6.4-7.1l0,0h-0.4v8.4c0,0.3-0.1,0.5-0.2,0.9v0.1h1v-0.1
		c-0.1-0.3-0.1-0.6-0.1-0.9V27l6.4,7.1l0,0h0.4v-8.4c0-0.3,0.1-0.6,0.1-0.9v-0.1L23,24.8L23,24.8z"/>
	<path class="st0" d="M27.4,33.2c0-0.2,0-0.3,0-0.5v-5.2c0-0.4,0.1-0.6,0.2-1v-0.1H26v0.1c0.1,0.3,0.2,0.6,0.2,1v5.2
		c0,0.4-0.1,0.6-0.2,1v0.1h1.7v-0.1C27.5,33.5,27.5,33.3,27.4,33.2C27.4,33.1,27.5,33.3,27.4,33.2"/>
	<path class="st0" d="M33.3,33.2c-0.2,0.1-0.4,0.1-0.5,0.1h-1.9v-3.4h2.4l0.2-0.5h-2.6V27h1.9c0.4,0,0.7,0.2,1.1,0.3l0.2,0.1
		l-0.4-0.9h-4.2v0.1c0.1,0.4,0.2,0.6,0.2,1v5.2c0,0.4-0.1,0.6-0.2,1v0.1h4.3l0.4-0.9L33.9,33C33.6,33,33.4,33.1,33.3,33.2
		C33.1,33.2,33.4,33.1,33.3,33.2"/>
	<path class="st0" d="M35,26.5l-0.4,0.9l0.2-0.1c0.4-0.1,0.7-0.3,1.1-0.3h1.6v5.7c0,0.4-0.1,0.6-0.2,1v0.1H39v-0.1
		c-0.1-0.3-0.2-0.5-0.2-0.9V27h1.3c0.4,0,0.7,0.2,1.1,0.3l0.2,0.1L41,26.5H35z"/>
	<path class="st0" d="M48.9,28.5c-0.7-1.4-2.3-2.2-3.8-2.1c-1.6,0.1-3,1.1-3.6,2.5c-0.3,0.7-0.4,1.6-0.1,2.3
		c0.2,0.7,0.6,1.3,1.2,1.8c1.3,1,3.1,1.1,4.5,0.4c0.8-0.4,1.5-1.1,1.9-1.9C49.3,30.5,49.3,29.4,48.9,28.5
		C48.7,28,49.1,28.9,48.9,28.5 M45.3,33.3c-0.7,0-1.4-0.5-1.9-1.1c-0.5-0.6-0.7-1.3-0.8-2.1v-0.2c0-1.2,0.7-2.5,1.9-2.7
		c0.3-0.1,0.6-0.1,1-0.1c0.4,0,0.6,0.2,0.9,0.4c0.5,0.4,1,0.9,1.2,1.5c0.2,0.4,0.3,0.8,0.3,1.2c0,0.4,0,0.8-0.1,1.1
		c-0.1,0.4-0.3,0.7-0.5,1C46.8,32.9,46,33.3,45.3,33.3"/>
	<path class="st0" d="M59.4,29.3c-0.6-0.5-1.3-0.8-2-1.1c-0.4-0.2-0.7-0.4-1-0.6c-0.3-0.3-0.6-0.5-0.7-0.9c-0.4-0.8,0.5-1.3,1.2-1.5
		c0.8-0.2,1.7,0.2,2.3,0.6c0.3,0.2,0.4,0.4,0.6,0.5l0.2,0.1l-0.3-1.1l0,0c-0.7-0.4-1.6-0.6-2.4-0.7c-0.8-0.1-1.7,0.2-2.3,0.5
		c-0.6,0.4-1.1,1-1.1,1.8c0,0.8,0.6,1.3,1.1,1.7c0.7,0.4,1.4,0.8,2.1,1.1c0.6,0.4,1.4,0.8,1.5,1.5c0.2,0.7-0.3,1.5-1,1.9
		c-0.8,0.4-1.6,0.2-2.3-0.2c-0.6-0.4-1.2-0.8-1.8-1.3l-0.2-0.1l0.2,1.5l0,0c1.4,0.9,3.2,1.2,4.8,0.6c0.7-0.3,1.3-0.7,1.6-1.4
		c0.4-0.6,0.4-1.5-0.1-2.1C59.9,29.8,59.7,29.5,59.4,29.3C59,29,59.7,29.5,59.4,29.3"/>
	<path class="st0" d="M66,33.2c-0.2,0.1-0.4,0.1-0.5,0.1h-1.9v-3.4h2.4l0.2-0.5h-2.6V27h1.9c0.4,0,0.7,0.2,1.1,0.3l0.2,0.1l-0.4-0.9
		h-4.2v0.1c0.1,0.4,0.2,0.6,0.2,1v5.2c0,0.4-0.1,0.6-0.2,1v0.1h4.3l0.4-0.9L66.6,33C66.4,33,66.2,33.1,66,33.2
		C65.8,33.2,66.2,33.1,66,33.2"/>
	<path class="st0" d="M73.5,26.5c0.1,0.3,0.1,0.4,0.1,0.7v4.7l-5.1-5.7l0,0h-0.4V33c0,0.2,0,0.4-0.1,0.7v0.1h0.8v-0.1
		c-0.1-0.3-0.1-0.4-0.1-0.7v-4.7l5.1,5.6l0,0h0.4v-6.7c0-0.3,0.1-0.4,0.1-0.7v-0.1L73.5,26.5L73.5,26.5z"/>
	<path class="st0" d="M80,33.2c-0.2,0.1-0.4,0.1-0.5,0.1h-1.9v-3.4h2.4l0.2-0.5h-2.6V27h1.9c0.4,0,0.7,0.2,1.1,0.3l0.2,0.1l-0.4-0.9
		h-4.2v0.1c0.1,0.4,0.2,0.6,0.2,1v5.2c0,0.4-0.1,0.6-0.2,1v0.1h4.3l0.4-0.9L80.6,33C80.3,33,80.2,33.1,80,33.2
		C79.8,33.2,80.2,33.1,80,33.2"/>
	<path class="st0" d="M81.7,26.5l-0.4,0.9l0.2-0.1c0.4-0.1,0.7-0.3,1.1-0.3H84v5.7c0,0.4-0.1,0.6-0.2,1v0.1h1.7v-0.1
		c-0.1-0.3-0.2-0.5-0.2-0.9V27H87c0.4,0,0.7,0.2,1.1,0.3l0.2,0.1l-0.4-0.9H81.7z"/>
	<path class="st0" d="M90.6,33.2c0-0.2,0-0.3,0-0.5v-5.2c0-0.4,0.1-0.6,0.2-1v-0.1h-1.7v0.1c0.1,0.3,0.2,0.6,0.2,1v5.2
		c0,0.4-0.1,0.6-0.2,1v0.1h1.7v-0.1C90.7,33.5,90.7,33.3,90.6,33.2C90.6,33.1,90.7,33.3,90.6,33.2"/>
	<path class="st0" d="M98,26.5c0.1,0.3,0.1,0.4,0.1,0.7v4.7L93,26.3l0,0h-0.4V33c0,0.2,0,0.4-0.1,0.7v0.1h0.8v-0.1
		c-0.1-0.3-0.1-0.4-0.1-0.7v-4.7l5.1,5.6l0,0h0.4v-6.7c0-0.3,0.1-0.4,0.1-0.7v-0.1L98,26.5L98,26.5z"/>
	<path class="st0" d="M104.4,33.2c-0.2,0.1-0.4,0.1-0.5,0.1H102v-3.4h2.4l0.2-0.5H102V27h1.9c0.4,0,0.7,0.2,1.1,0.3l0.2,0.1
		l-0.4-0.9h-4.2v0.1c0.1,0.4,0.2,0.6,0.2,1v5.2c0,0.4-0.1,0.6-0.2,1v0.1h4.3l0.4-0.9l-0.2,0.1C104.8,33,104.6,33.1,104.4,33.2
		C104.3,33.2,104.6,33.1,104.4,33.2"/>
	<path class="st0" d="M112.7,33.6c-0.6-0.4-1.2-1-1.9-1.5c-0.5-0.5-1.1-1.1-1.6-1.8c0.6-0.1,1.1-0.3,1.6-0.8
		c0.4-0.4,0.4-1.1,0.4-1.7c-0.4-1.3-1.9-1.5-2.9-1.5h-1.9v0.1c0.2,0.4,0.2,0.7,0.2,1.1v5.1c0,0.4-0.1,0.7-0.2,1.1v0.1h1.7v-0.1
		c-0.1-0.4-0.2-0.7-0.2-1.1V27h0.2c0.4,0,1,0,1.4,0.3c0.4,0.3,0.6,0.7,0.6,1.1c0.1,0.4-0.1,1-0.4,1.2c-0.4,0.3-0.9,0.4-1.3,0.2l0,0
		l-0.2,0.2v0.1c0.8,1.3,1.9,2.6,3,3.7l0,0h1.9L112.7,33.6z"/>
	<path class="st0" d="M90.6,10.5L90.6,10.5L90.6,10.5z"/>
	<path class="st0" d="M26.3,21.2c0.3-0.5,1.1-2.5,1.1-3.4c-0.1-0.1-0.2-0.2-0.3-0.2c-0.4,1.1-1.1,2.1-1.6,2.5
		c-0.4,0.4-0.8,0.7-2.5,0.7c-2,0-3.1-0.1-3.6-0.2c-0.3-0.1-0.7-0.3-0.7-1.1c0-1.1-0.1-3.7-0.1-5.1c0-0.5,0-0.9,0-1.1
		c0-0.1,0-0.3,0.2-0.3c0.3,0,0.9,0,1.6,0c1.1,0,2.5,0,3,0.1c1,0.1,1.1,0.7,1.2,1c0.1,0.3,0.1,0.5,0.2,0.9c0,0,0.1,0,0.2,0
		s0.2,0,0.3-0.1c0-0.4-0.1-1.1-0.1-2.2c0-0.9,0.1-1.9,0.2-2.4c0,0,0,0-0.1,0c-0.1,0-0.1,0-0.2,0s-0.1,0-0.2,0
		c-0.1,0.4-0.2,0.7-0.3,1c-0.2,0.4-0.4,0.9-1.2,1c-0.5,0-1.9,0.1-3,0.1c-0.7,0-1.3,0-1.6,0c-0.2,0-0.1-0.2-0.2-0.3
		c0-0.1,0-0.5,0-1.1c0-1.7,0-4.7,0.1-5.4c0-0.2,0.1-0.4,0.4-0.4c0.2,0,0.9,0,1.7,0c1.1,0,2.3,0,2.7,0c1.1,0.1,1.4,0.6,1.6,1.2
		c0.1,0.4,0.2,0.9,0.3,1.6h0.1c0.1,0,0.2,0,0.3,0c0.1-0.9,0.3-2.6,0.5-3.4l0,0l0,0c-0.4,0.1-1.9,0.1-2.9,0.1h-5.6
		c-1.6-0.1-2.4-0.1-3-0.1c0,0-0.1,0.1-0.1,0.2c0,0,0,0,0,0.1l0,0c0.6,0,1,0.1,1.3,0.2c0.7,0.2,0.9,0.4,1,1.6c0,0.4,0.1,3.1,0.1,5.7
		c0,3.3,0,6.4-0.1,6.9c-0.1,1.1-0.4,1.5-1.1,1.7c-0.5,0.2-1.1,0.2-1.8,0.3c0,0,0,0.1,0,0.2c0,0.1,0,0.2,0,0.2c1.1,0,1.8-0.1,3.7-0.1
		c4.5,0,5.4,0.1,6.8,0.1C26.1,21.4,26.1,21.4,26.3,21.2"/>
	<path class="st0" d="M48.6,7.2L48.6,7.2h0.2l0,0c0.1,2.1,0.2,9.2,0.2,11.7c0,0.3,0,0.4,0,0.6c0,0.8-0.2,1.2-0.9,1.4
		c-0.4,0.1-0.6,0.2-1.3,0.3c0,0,0,0.1,0,0.2c0,0.1,0,0.2,0,0.2c0.6,0,1.8-0.1,3.3-0.1c1.1,0,2.6,0.1,3.2,0.1c0-0.1,0-0.1,0-0.2
		c0-0.1,0-0.1,0-0.2c-0.6-0.1-1.1-0.1-1.4-0.2c-0.9-0.2-1.1-0.6-1.1-1.6c-0.1-1.9-0.4-9.5-0.4-12.4c0-0.4,0-0.6,0-0.8
		c0-0.4,0.1-1,1-1.1C51.8,5.1,52.2,5,53,4.9c0,0,0.1-0.1,0-0.2c0-0.1,0-0.1,0-0.2c-0.9,0-1.5,0.1-4.1,0.1c-0.1,0.6-0.3,1-0.5,1.5
		c-1.3,2.8-5.7,11.3-6,12c0,0.1-0.1,0.1-0.1,0.1h-0.1c-0.4-0.5-3.7-7.3-5.8-12.1c-0.3-0.6-0.4-1-0.5-1.5c-2.6,0-3.9-0.1-4.3-0.1
		c0,0,0,0,0,0.1c0,0,0,0.1,0,0.2v0.1V5c0.9,0.1,1.4,0.2,1.9,0.4c0.8,0.3,0.9,0.9,0.9,1.3c-0.1,2.4-0.7,10.5-1,12.2s-0.4,2.1-1.4,2.3
		l-1.1,0.2c0,0,0,0.1,0,0.2s0,0.1,0,0.1c0.4,0,1.7-0.1,3.1-0.1c1.3,0,2.4,0.1,2.8,0.1l0,0c0,0,0,0,0-0.1s0-0.1,0-0.2c0,0,0,0,0-0.1
		l0,0c-0.7-0.1-1.1-0.2-1.5-0.3c-0.9-0.2-1-1-1-2.1c0-1.8,0.4-9.4,0.6-11.8c0-0.1,0.1-0.1,0.1-0.1h0.1c0,0,5.7,12.2,6.5,14.7
		c0,0,0.1,0,0.2,0c0.1,0,0.1,0,0.2,0C42.7,18.9,47.9,8.6,48.6,7.2"/>
	<path class="st0" d="M57.7,4.8L57.7,4.8C58.4,4.9,59,5,59.3,5.1C60,5.3,60,5.9,60.1,6.5c0.1,1.2,0.1,3.4,0.1,5.5
		c0,2.3,0,7.1-0.1,7.7s-0.2,1.1-1,1.2c-0.4,0.1-0.9,0.2-1.2,0.2c0,0,0,0.1,0,0.2c0,0.1,0,0.1,0,0.2c1.5,0,2-0.1,3.4-0.1
		c1.2,0,2.3,0.1,2.9,0.1l0.1-0.2v-0.1c-0.5-0.1-1.1-0.2-1.4-0.3c-0.7-0.2-0.9-0.7-0.9-1.6s-0.1-4-0.1-6.5c0-2.4,0-5.1,0.1-6.3
		c0.1-0.9,0.2-1.3,0.9-1.5c0-0.1,0.4-0.1,0.9-0.2V4.7c0-0.1,0-0.2,0-0.2c-0.7,0-1.5,0.1-2.7,0.1c-1.3,0-2.7-0.1-3.3-0.1
		C57.7,4.6,57.7,4.6,57.7,4.8C57.7,4.7,57.7,4.7,57.7,4.8"/>
	<path class="st0" d="M69.2,4.8c0.3,0,1.1,0.1,1.4,0.2c0.9,0.2,1,0.5,1.1,1.9c0,0.6,0,2.2,0,5c0,6.4,0,6.9-0.1,7.7
		c-0.1,0.9-0.4,1.1-1.1,1.3C70.1,21,69.6,21,69,21.1c0,0,0,0.1,0,0.2s0,0.1,0,0.2c0.5,0,2.2-0.1,3.3-0.1c1.2,0,6.7,0.1,8.2,0.1
		c0.4,0,0.7-0.2,0.9-0.3c0.4-0.7,1.1-3,1.3-4c0,0-0.2-0.1-0.3-0.1l0,0c-0.5,1.2-1.2,2.4-1.7,2.8c-0.5,0.6-1,0.9-1.6,0.9
		c-0.4,0-1.1,0-1.9,0c-1.4,0-2.9-0.1-3.4-0.3c-0.3-0.1-0.4-0.4-0.5-0.9c0-1.1-0.1-3.1-0.1-5c0-0.7,0-1.4,0-2c0-2.3,0-5.5,0.1-6.4
		c0-0.7,0.1-1.1,0.8-1.2c0.4-0.1,0.7-0.1,1.2-0.2c0,0,0-0.1,0-0.2c0-0.1,0-0.1,0-0.1l0,0c-0.5,0-1.6,0.1-3,0.1
		c-1.6,0-2.6-0.1-3.2-0.1l0,0c0,0,0,0,0,0.1C69.2,4.6,69.2,4.7,69.2,4.8L69.2,4.8"/>
	<path class="st0" d="M86,4.8L86,4.8c0.7,0.1,1.2,0.2,1.6,0.3c0.7,0.2,0.7,0.8,0.8,1.4c0.1,1.2,0.1,3.4,0.1,5.5c0,2.3,0,7.1-0.1,7.7
		c-0.1,0.6-0.2,1.1-1,1.2c-0.4,0.1-0.9,0.2-1.2,0.2c0,0,0,0.1,0,0.2c0,0.1,0,0.1,0,0.2c1.5,0,2-0.1,3.4-0.1c1.2,0,2.3,0.1,2.9,0.1
		l0.1-0.2v-0.1c-0.5-0.1-1.1-0.2-1.4-0.3c-0.7-0.2-0.9-0.7-0.9-1.6s-0.1-4-0.1-6.5c0-2.4,0-5.1,0.1-6.3c0.1-0.9,0.2-1.3,0.9-1.5
		c0-0.1,0.4-0.1,0.9-0.2V4.7c0-0.1,0-0.2,0-0.2c-0.7,0-1.5,0.1-2.7,0.1c-1.3,0-2.7-0.1-3.3-0.1C86,4.6,86,4.6,86,4.8
		C86,4.7,86,4.7,86,4.8"/>
	<path class="st0" d="M104.1,5.9c-0.6,1.7-3.2,8.7-4.9,12.7c-0.9,2-1.2,2.3-3.2,2.6c0,0,0,0.1,0,0.2v0.1l0,0c0.4,0,1.3-0.1,2.6-0.1
		c1.2,0,2.7,0.1,3.3,0.1v-0.2v-0.1c-0.6-0.1-0.9-0.2-1.1-0.2c-0.7-0.2-0.9-0.4-0.9-0.9c0-0.1,0-0.3,0-0.4c0.1-0.8,1.3-3.8,1.9-5.3
		c0-0.1,0.2-0.3,0.3-0.3c0.3,0,0.4,0,2.4,0c1.8,0,2.4,0,2.6,0c0.1,0,0.3,0.2,0.3,0.2c0.5,1.5,1.6,4.4,1.9,5.7c0,0.1,0.1,0.3,0.1,0.4
		c0,0.2-0.1,0.4-0.4,0.5c-0.4,0.2-0.9,0.2-1.4,0.3l0,0v0.1c0,0.1,0,0.2,0,0.2c0.6-0.1,2.5-0.1,3.2-0.1c0.6,0,2.3,0.1,3,0.1
		c0,0,0.1-0.1,0.1-0.2v-0.1c-1.9-0.2-2-0.4-2.8-1.9c-0.9-2-4.2-12-4.7-13.4c-0.2-0.5-0.3-0.9-0.4-1.1c-0.1,0-0.3,0-0.6,0
		s-0.5,0-0.6,0C104.4,4.9,104.3,5.3,104.1,5.9 M104.6,6.7c0.4,1.2,1.5,4.4,2.1,6.5v0.1c0,0.1,0,0.2-0.1,0.2c-0.2,0-1.2,0-1.9,0
		c-1.6,0-2.3,0-2.6,0c-0.1,0-0.2-0.1-0.2-0.3l0,0c0.4-1.2,1.9-5.3,2.3-6.4l0,0c0-0.1,0.1-0.1,0.1-0.1C104.5,6.6,104.6,6.6,104.6,6.7
		L104.6,6.7z"/>
</g>
</svg>
