<svg xmlns="http://www.w3.org/2000/svg" width="81.472" height="49.401" viewBox="0 0 81.472 49.401">
  <g id="Grupo_117" data-name="Grupo 117" transform="translate(0)">
    <path id="Trazado_90" data-name="Trazado 90" d="M1765.024-210.844a3.521,3.521,0,0,1-1.438-1.137,11.05,11.05,0,0,1-2.558-5.9,18.885,18.885,0,0,1,.1-6.264c.466-2.6,1.025-5.177,1.542-7.765.01-.05.016-.1.036-.229l-4.125.55c-.132-.281-.248-.53-.38-.812.8-.153,1.562-.306,2.329-.446.73-.132,1.462-.26,2.2-.369.222-.033.245-.13.2-.347l-4.845.9c-.019-.046-.029-.059-.026-.064.318-.406,0-.7-.176-1.024-.029-.054-.056-.109-.091-.176l.34-.258-.235-.7a11.179,11.179,0,0,1,1.3-.447c1.361-.292,2.729-.548,4.1-.808a.371.371,0,0,0,.347-.279q2.08-6.474,4.174-12.943c.021-.066.032-.135.058-.245-.8.193-1.563.386-2.332.56-3,.68-5.995,1.36-9.042,1.775a8.587,8.587,0,0,1-5.277-.777,3.95,3.95,0,0,1-2.091-4.479,1.328,1.328,0,0,1,.706-.958c.174.368.363.728.52,1.1a1.559,1.559,0,0,0,1.043.893,9.179,9.179,0,0,0,2.877.353,27.128,27.128,0,0,0,5.805-.856c4.443-1.008,8.88-2.039,13.327-3.031a84.849,84.849,0,0,1,8.659-1.478,56.139,56.139,0,0,1,6.584-.406,10.285,10.285,0,0,1,2.236.247,2.879,2.879,0,0,1,2.28,2.307,5.256,5.256,0,0,1-.266,3.714,1.951,1.951,0,0,1-1.767,1.19c.317-.283.154-.514.011-.757a1.929,1.929,0,0,1-.388-1.543,9.128,9.128,0,0,1,.541-1.19,7.24,7.24,0,0,0-1.272-.242c-1.258-.028-2.522-.059-3.776.02a80.045,80.045,0,0,0-10.736,1.793c-.97.2-1.941.386-2.909.589-.267.057-.526.153-.79.232.088.468.176.89.244,1.315a4.371,4.371,0,0,1-.34,2.087q-1.632,4.914-3.285,9.82c-.032.1-.061.194-.106.339.67-.086,1.3-.163,1.933-.249a41.732,41.732,0,0,1,7.086-.642c.413.014.825.046,1.236.086.077.008.146.1.218.155a.772.772,0,0,1-.19.156,11.2,11.2,0,0,1-3.442.532,25.136,25.136,0,0,0-4.354.557.119.119,0,0,0-.079.055,69.022,69.022,0,0,1,7.935-.635c.045.34-.064.452-.674.64l.8.271a4.085,4.085,0,0,1-.632.236c-1.114.215-2.225.447-3.346.606-2.207.313-4.42.582-6.63.874a2.952,2.952,0,0,0-.409.115c.005.03.011.061.017.091.135-.008.27-.008.4-.025q2.842-.354,5.683-.714,2.043-.26,4.084-.529c.3-.038.613-.211.858.163a1.6,1.6,0,0,1-1.108.767,21.664,21.664,0,0,1-2.45.5c-1.862.249-3.73.449-5.6.669-.738.087-1.476.182-2.215.257-.172.018-.248.071-.286.244-.726,3.27-1.495,6.531-2.176,9.811a30.482,30.482,0,0,0-.609,7.269,18.024,18.024,0,0,0,.634,3.461,2.24,2.24,0,0,1,.01,1.42m23.224-43.574,0-.011c-.13,0-.261-.009-.391,0-1.552.125-3.114.179-4.653.4-2.8.393-5.583.859-8.364,1.349-1.051.185-2.077.514-3.11.791-.085.022-.143.15-.213.229a.81.81,0,0,0,.292.055c2.843-.6,5.678-1.229,8.528-1.792,1.454-.287,2.93-.476,4.4-.668,1.166-.151,2.34-.236,3.509-.35m-5.891-1.13c-1.769-.14-10.978,1.724-11.98,2.276,2.041-.2,3.96-.923,5.955-1.282s4.016-.665,6.025-.994m-15.249,4.849-10.859,2.2a56.882,56.882,0,0,0,10.859-2.2m-5.582-.636,6.872-1.419c-.008-.039-.017-.079-.025-.118a68.589,68.589,0,0,0-6.847,1.537m-1.44,16.639.021.126a7.52,7.52,0,0,0,2.3-.51c-.009-.039-.017-.077-.026-.116l-2.293.5m21.358-19.9c-.008-.037-.016-.073-.025-.11l-1.729.315.022.115,1.732-.32m2.187-1.264c0,.015.009.029.014.043.3,0,.6.01.9-.007.07,0,.134-.1.2-.154l-.062-.088-1.049.206m-5.769,1.844,1.284-.2c0-.028-.009-.056-.014-.083a1.99,1.99,0,0,0-1.27.284m-6.743,1.41a1.665,1.665,0,0,0,1.344-.3l-1.344.3m2.683-.554c-.011-.042-.022-.084-.033-.126l-.98.26c.01.039.02.077.03.116l.982-.25" transform="translate(-1749.054 256.903)" fill="#385988"/>
    <path id="Trazado_91" data-name="Trazado 91" d="M1932.86-204.006c-.173.148-.359.283-.517.446a43.949,43.949,0,0,0-5.27,6.989c-1.236,1.946-2.45,3.907-3.707,5.84-.479.737-1.035,1.427-1.583,2.117-.714.9-1.213,1-2.456.489a3.086,3.086,0,0,1-1.808-1.995,4.287,4.287,0,0,1-.041-1.856,50.906,50.906,0,0,1,1.6-7.319c.5-1.825,1.057-3.636,1.546-5.466a14.239,14.239,0,0,0,.333-2.051,2.937,2.937,0,0,0-.085-.87c-.072-.379.152-.63.516-.485a5.315,5.315,0,0,1,1.245.651,3.842,3.842,0,0,1,1.58,3.49,26.222,26.222,0,0,1-1.072,5.6c-.61,2.137-1.292,4.252-1.943,6.377-.023.076-.036.154-.054.231l.073.037c.062-.077.127-.15.184-.23,1.77-2.437,3.523-4.883,5.312-7.306,1.908-2.584,4-5.019,6.142-7.409.558-.625,1.132-1.235,1.712-1.84a1.268,1.268,0,0,1,1.612-.315,5.388,5.388,0,0,1,1.794,1.223,1.64,1.64,0,0,1,.265,1.751c-.423,1.218-.834,2.439-1.279,3.649a131.052,131.052,0,0,0-4.274,13.3,18.848,18.848,0,0,0-.605,3.494,1.5,1.5,0,0,0,.532,1.456c.129.092.08.365-.1.467a.931.931,0,0,1-.453.115,3.135,3.135,0,0,1-3.212-2.686,10.067,10.067,0,0,1-.187-3.269,27.1,27.1,0,0,1,1.172-5.581,79.755,79.755,0,0,1,3.01-8.747c.033-.078.054-.162.081-.243l-.068-.053m-1.068,13.347a2.172,2.172,0,0,0,.158-.3c.221-.648.455-1.292.648-1.949.738-2.507,1.447-5.022,2.408-7.458.777-1.968,1.526-3.946,2.287-5.921.035-.092.055-.19.089-.307-.741.177-5.113,12.622-5.591,15.934m.646-14.149-.046-.047c-.508.561-1.021,1.116-1.521,1.683a67.093,67.093,0,0,0-4.545,5.841.369.369,0,0,0-.031.448l1.317-1.746.061.037-.12.328.049.045a2.106,2.106,0,0,0,.521-.4,5.547,5.547,0,0,0,.737-1.165c.047-.129.235-.2.332-.316.3-.371.586-.758.891-1.129.514-.624,1.038-1.239,1.558-1.858a.4.4,0,0,0,.034-.048c-.039-.074-.074-.136-.118-.216-.268.309-.51.607-.773.884s-.526.513-.79.769l-.089-.083,2.534-3.021m1.72-2.754-.081-.037c-2.2,1.98-9.25,10.877-9.65,12.21a8.962,8.962,0,0,0,.593-.692c.342-.488.652-1,.987-1.492a73.323,73.323,0,0,1,5.612-6.9c.82-.941,1.619-1.9,2.423-2.853a1.065,1.065,0,0,0,.116-.236m-.449,4.449a.609.609,0,0,0,.1-.112q.746-1.49,1.486-2.983a.911.911,0,0,0,.045-.243,15.508,15.508,0,0,0-1.627,3.337m-1.884-.584a3.474,3.474,0,0,0,1.642-1.81l-1.642,1.81m-.131,13.459-.043-.01c-.092.32-.189.639-.272.962-.014.054.039.125.062.187l.07-.018q.091-.561.183-1.121m3.619-14.058.064.027.445-1-.071-.03-.438,1" transform="translate(-1856.908 226.239)" fill="#385988"/>
    <path id="Trazado_92" data-name="Trazado 92" d="M1839.433-216.905c-.164.812-.3,1.616-.491,2.405a23.633,23.633,0,0,1-2.582,6.225,26.838,26.838,0,0,1-2.73,4.032,10.091,10.091,0,0,1-1.237,1.1.356.356,0,0,1-.286.042c-.469-.149-.931-.316-1.425-.487a1.188,1.188,0,0,1,.111-.166,22.746,22.746,0,0,0,3.892-6.111,32.226,32.226,0,0,0,2.271-6.6c.105-.45.183-.9.287-1.355.036-.153-.054-.2-.147-.27-.832-.61-1.691-1.186-2.485-1.843a3.958,3.958,0,0,1-1.451-2.477,2.983,2.983,0,0,1,1.684-3.061,1.9,1.9,0,0,1,1.358-.042,4.2,4.2,0,0,1,2.99,3.486c.173,1.032.229,2.083.326,3.126a.348.348,0,0,0,.187.306c1.074.662,2.161,1.306,3.208,2.011a6.509,6.509,0,0,1,1.666,1.489,3.336,3.336,0,0,1,.526,2.663,33.016,33.016,0,0,1-1.388,4.659c-.545,1.666-1.1,3.328-1.6,5.008a10.391,10.391,0,0,0-.5,3.645,7.712,7.712,0,0,0,.243,1.241.344.344,0,0,0,.212.194c.361.106.727.19,1.1.286-.013.132-.026.25-.041.408.185-.114.273-.348.5-.27a.307.307,0,0,1,.179.123.864.864,0,0,1-.44,1.183,3.334,3.334,0,0,1-3.487-.235,4.859,4.859,0,0,1-1.883-2.955,8.722,8.722,0,0,1-.126-3.826,42.28,42.28,0,0,1,2.082-7.168c.449-1.251.91-2.5,1.324-3.763a4.967,4.967,0,0,0,.181-1.265,1.107,1.107,0,0,0-.445-.855,5.162,5.162,0,0,0-1.587-.887m4.534,4.152-.1-.026c-.027.068-.056.134-.079.2q-1.406,4.271-2.809,8.542a10.421,10.421,0,0,0-.618,3.671c0,.1.023.192.034.288.146-.627.238-1.252.367-1.869a49.255,49.255,0,0,1,1.747-5.855c.433-1.265.843-2.539,1.24-3.815a9.778,9.778,0,0,0,.218-1.139m-6.724-7.07a7.376,7.376,0,0,0-.664-3.989,2.553,2.553,0,0,0,.664,3.989m2.444,17.674.067.01c.046-.161.092-.322.14-.482.432-1.459.844-2.924,1.3-4.374.356-1.121.784-2.218,1.155-3.333.161-.481.257-.985.382-1.479l-.074-.026a2.587,2.587,0,0,0-.132.277c-.367,1.069-.743,2.134-1.093,3.208a39.859,39.859,0,0,0-1.428,4.575c-.106.54-.214,1.082-.321,1.623m2.151-10.179c-.248.267-3.1,9.044-3.088,9.524,1.054-3.168,2.16-6.318,3.088-9.524m-3.379-3.114c-.794,2.16-1.594,4.336-2.362,6.427a20.067,20.067,0,0,0,2.362-6.427m-1.729,2.177-.091-.036q-.176.534-.353,1.069l.055.019q.195-.525.389-1.052m-1.586-9.86.1.031c.059-.2.117-.4.176-.6l-.093-.027-.182.592" transform="translate(-1801.351 236.857)" fill="#385988"/>
    <path id="Trazado_93" data-name="Trazado 93" d="M1884.956-198.758c-.42-.115-.836-.242-1.259-.337a.877.877,0,0,0-.481.024,8.391,8.391,0,0,0-3.543,2.711,24.529,24.529,0,0,0-3.032,5.291c-.111.242-.224.484-.326.731a1.081,1.081,0,0,0-.04.247l.078.04c.387-.31.787-.6,1.157-.934,1.56-1.387,3.131-2.762,4.655-4.186a13.842,13.842,0,0,0,1.285-1.6,2.41,2.41,0,0,1,1.089-.845c.023.153.045.29.057.373.172-.009.36-.073.461-.007s.1.264.132.382l.441-.035c-.468,1.319-.908,2.56-1.348,3.8l.046.018,1.552-3.578c.374.043.549.2.492.509a10.05,10.05,0,0,1-.352,1.28c-.81,2.5-1.642,5-2.431,7.51a20.207,20.207,0,0,0-.436,2.059,1.184,1.184,0,0,0,0,.21,10.906,10.906,0,0,0,1.751-1.69A22.733,22.733,0,0,0,1882.98-184a42.3,42.3,0,0,0,3.266-4.005c-1.023,1.8-2.508,3.284-3.418,5.162l1.363-1.568.034.018-.315.621.371-.133.034.063a.083.083,0,0,0,.016-.018,3.685,3.685,0,0,0,.467-1.079c.04-.338.351-.478.609-.643a.413.413,0,0,0,.126-.13c.388-.657.78-1.313,1.156-1.978.1-.173.108-.4.219-.561a6.74,6.74,0,0,0,.516-.758c.186-.369.423-.713.639-1.067a.237.237,0,0,1,.133-.11c-.109.251-.21.506-.329.753a33.537,33.537,0,0,1-3.8,6.328,23.942,23.942,0,0,1-1.644,1.752.331.331,0,0,1-.295.06,7.668,7.668,0,0,1-1.3-.6,1.556,1.556,0,0,1-.524-1.468,30.554,30.554,0,0,1,.695-5.775c.161-.811.326-1.621.5-2.478-.083.073-.14.119-.189.17-.97,1.033-1.929,2.079-2.915,3.1a12.383,12.383,0,0,1-1.407,1.268,2.871,2.871,0,0,1-3.42.124,4.991,4.991,0,0,1-.7-.49,2.451,2.451,0,0,1-.818-2.5,14.96,14.96,0,0,1,1.592-4.339,19.169,19.169,0,0,1,3.076-4.382,8.785,8.785,0,0,1,3.275-2.155,4.1,4.1,0,0,1,4.3.838,8.362,8.362,0,0,1,.63.577.462.462,0,0,1,.033.644m-6.045,1.61c-1.41.85-4.282,6.134-4.159,7.66a29.088,29.088,0,0,1,4.159-7.66m-4.988,4.482,2.695-4.539a20.852,20.852,0,0,0-2.695,4.539m1.123-.407.073.045,1.483-2.41-.078-.047-1.479,2.412" transform="translate(-1827.814 221.154)" fill="#385988"/>
    <path id="Trazado_94" data-name="Trazado 94" d="M1805.865-133.878a2.149,2.149,0,0,1,.063.483v3.2l-3.494-3.851-.011-.012h-.2v4.591a1.666,1.666,0,0,1-.076.48l-.015.047h.518l-.014-.047a1.7,1.7,0,0,1-.069-.48v-3.193l3.487,3.85.011.012h.217v-4.6a2.119,2.119,0,0,1,.07-.483l.01-.045h-.5Z" transform="translate(-1783.059 178.199)" fill="#385988"/>
    <path id="Trazado_95" data-name="Trazado 95" d="M1817.879-127.259a1.533,1.533,0,0,1-.022-.267v-2.864a1.406,1.406,0,0,1,.1-.517l.019-.05h-.913l.022.051a1.283,1.283,0,0,1,.1.516v2.864a1.334,1.334,0,0,1-.1.522l-.021.051h.914l-.021-.051a1.251,1.251,0,0,1-.078-.255c-.014-.081.015.081,0,0" transform="translate(-1792.626 176.212)" fill="#385988"/>
    <path id="Trazado_96" data-name="Trazado 96" d="M1824.337-127.293a1.022,1.022,0,0,1-.294.044h-1.087v-1.9h1.3l.106-.3h-1.407v-1.216h1.013a1.785,1.785,0,0,1,.581.141l.078.027-.2-.469h-2.263l.02.05a1.431,1.431,0,0,1,.1.534v2.859a1.31,1.31,0,0,1-.1.51l-.021.051h2.349l.2-.464-.079.027c-.1.035-.2.067-.3.1h0" transform="translate(-1795.893 176.212)" fill="#385988"/>
    <path id="Trazado_97" data-name="Trazado 97" d="M1830.49-130.957l-.2.472.081-.031a1.658,1.658,0,0,1,.569-.14h.848v3.13a1.337,1.337,0,0,1-.1.522l-.021.051h.9l-.022-.051a1.155,1.155,0,0,1-.1-.482v-3.17h.853a1.735,1.735,0,0,1,.57.14l.079.028-.2-.47Z" transform="translate(-1801.098 176.212)" fill="#385988"/>
    <path id="Trazado_98" data-name="Trazado 98" d="M1844.51-129.878a2.209,2.209,0,0,0-2.086-1.157,2.247,2.247,0,0,0-1.971,1.353,1.959,1.959,0,0,0-.07,1.267,1.9,1.9,0,0,0,.681.975,2.351,2.351,0,0,0,2.467.206,2.178,2.178,0,0,0,1.016-1.079,1.943,1.943,0,0,0-.037-1.565c-.119-.245.12.246,0,0m-2.006,2.572a1.4,1.4,0,0,1-1.022-.577,2.088,2.088,0,0,1-.442-1.142v-.1a1.508,1.508,0,0,1,1.085-1.516,1.393,1.393,0,0,1,.511-.035,1.182,1.182,0,0,1,.495.207,1.941,1.941,0,0,1,.68.838,2.61,2.61,0,0,1,.146.66,2.206,2.206,0,0,1-.065.628,1.487,1.487,0,0,1-.289.553,1.424,1.424,0,0,1-1.1.488" transform="translate(-1807.52 176.263)" fill="#385988"/>
    <path id="Trazado_99" data-name="Trazado 99" d="M1862.343-131.326a6.711,6.711,0,0,0-1.137-.64,3.2,3.2,0,0,1-.538-.332,1.2,1.2,0,0,1-.4-.469c-.173-.445.312-.738.681-.812a1.745,1.745,0,0,1,1.263.362,3.013,3.013,0,0,1,.35.284l.073.069-.078-.668-.019-.009a3.484,3.484,0,0,0-1.308-.377,2.26,2.26,0,0,0-1.278.306,1.094,1.094,0,0,0-.589.969,1.246,1.246,0,0,0,.647.927c.372.255.789.426,1.183.644.331.185.768.435.846.842a.948.948,0,0,1-.521,1,1.434,1.434,0,0,1-1.267-.11,3.871,3.871,0,0,1-.983-.72l-.077-.076.109.807.015.009a3,3,0,0,0,2.59.363,1.611,1.611,0,0,0,.9-.758,1.235,1.235,0,0,0-.033-1.145,1.789,1.789,0,0,0-.422-.466c-.163-.126.163.128,0,0" transform="translate(-1819.615 178.11)" fill="#385988"/>
    <path id="Trazado_100" data-name="Trazado 100" d="M1874.3-127.293a1.02,1.02,0,0,1-.295.044h-1.087v-1.9h1.3l.106-.3h-1.407v-1.216h1.013a1.788,1.788,0,0,1,.582.141l.078.027-.2-.469h-2.262l.02.05a1.422,1.422,0,0,1,.1.534v2.859a1.3,1.3,0,0,1-.1.51l-.02.051h2.349l.2-.464-.079.027c-.1.035-.2.067-.3.1h0" transform="translate(-1827.903 176.212)" fill="#385988"/>
    <path id="Trazado_101" data-name="Trazado 101" d="M1884.2-131.122a1.713,1.713,0,0,1,.05.386v2.546l-2.789-3.073-.011-.012h-.172v3.688a1.313,1.313,0,0,1-.062.382l-.014.047h.435l-.014-.047a1.356,1.356,0,0,1-.056-.383v-2.541l2.783,3.073.01.012h.185v-3.693a1.71,1.71,0,0,1,.056-.386l.011-.045h-.423Z" transform="translate(-1833.72 176.416)" fill="#385988"/>
    <path id="Trazado_102" data-name="Trazado 102" d="M1895.5-127.293a1.021,1.021,0,0,1-.295.044h-1.087v-1.9h1.3l.106-.3h-1.407v-1.216h1.013a1.784,1.784,0,0,1,.581.141l.078.027-.2-.469h-2.263l.02.05a1.415,1.415,0,0,1,.1.534v2.859a1.3,1.3,0,0,1-.1.51l-.02.051h2.349l.2-.464-.079.027c-.1.035-.2.067-.3.1h0" transform="translate(-1841.483 176.212)" fill="#385988"/>
    <path id="Trazado_103" data-name="Trazado 103" d="M1901.648-130.957l-.2.472.08-.031a1.664,1.664,0,0,1,.569-.14h.848v3.13a1.34,1.34,0,0,1-.1.522l-.021.051h.9L1903.7-127a1.148,1.148,0,0,1-.1-.482v-3.17h.853a1.732,1.732,0,0,1,.57.14l.08.028-.2-.47Z" transform="translate(-1846.688 176.212)" fill="#385988"/>
    <path id="Trazado_104" data-name="Trazado 104" d="M1914.137-127.259a1.5,1.5,0,0,1-.022-.267v-2.864a1.41,1.41,0,0,1,.1-.517l.019-.05h-.913l.022.051a1.282,1.282,0,0,1,.1.516v2.864a1.344,1.344,0,0,1-.1.522l-.021.051h.914l-.022-.051a1.251,1.251,0,0,1-.078-.255h0" transform="translate(-1854.297 176.212)" fill="#385988"/>
    <path id="Trazado_105" data-name="Trazado 105" d="M1921.513-131.122a1.7,1.7,0,0,1,.05.386v2.546l-2.789-3.073-.01-.012h-.173v3.688a1.308,1.308,0,0,1-.061.382l-.014.047h.435l-.014-.047a1.351,1.351,0,0,1-.055-.383v-2.541l2.783,3.073.011.012h.184v-3.693a1.7,1.7,0,0,1,.056-.386l.011-.045h-.423Z" transform="translate(-1857.625 176.416)" fill="#385988"/>
    <path id="Trazado_106" data-name="Trazado 106" d="M1932.805-127.293a1.016,1.016,0,0,1-.294.044h-1.088v-1.9h1.3l.106-.3h-1.408v-1.216h1.013a1.782,1.782,0,0,1,.581.141l.078.027-.2-.469h-2.263l.02.05a1.422,1.422,0,0,1,.1.534v2.859a1.3,1.3,0,0,1-.1.51l-.02.051h2.349l.2-.464-.079.027c-.1.035-.2.067-.3.1h0" transform="translate(-1865.387 176.212)" fill="#385988"/>
    <path id="Trazado_107" data-name="Trazado 107" d="M1943.105-127.029a12.492,12.492,0,0,1-1.018-.818,7.445,7.445,0,0,1-.852-.96,1.35,1.35,0,0,0,.865-.421,1,1,0,0,0,.173-.908c-.176-.708-1-.837-1.614-.837h-1.041l.02.05a1.462,1.462,0,0,1,.1.563v2.784a1.494,1.494,0,0,1-.1.563l-.02.05h.912l-.02-.05a1.507,1.507,0,0,1-.1-.563v-3.091l.1,0a1.273,1.273,0,0,1,.76.161.81.81,0,0,1,.348.616.748.748,0,0,1-.256.686.863.863,0,0,1-.742.12l-.015,0-.118.073.019.032a10.59,10.59,0,0,0,1.637,2.015l.011.01h1.038Z" transform="translate(-1871.145 176.222)" fill="#385988"/>
  </g>
</svg>
