<?xml version="1.0" encoding="utf-8"?>
<!-- Generator: Adobe Illustrator 23.0.2, SVG Export Plug-In . SVG Version: 6.00 Build 0)  -->
<svg version="1.1" id="Capa_1" xmlns="http://www.w3.org/2000/svg" xmlns:xlink="http://www.w3.org/1999/xlink" x="0px" y="0px"
	 viewBox="0 0 81.5 49.4" style="enable-background:new 0 0 81.5 49.4;" xml:space="preserve">
<style type="text/css">
	.st0{fill:#FFFFFF;}
</style>
<g id="Grupo_117" transform="translate(0)">
	<path id="Trazado_90" class="st0" d="M16,46.1c-0.6-0.2-1.1-0.6-1.4-1.1c-1.4-1.7-2.3-3.7-2.6-5.9c-0.3-2.1-0.3-4.2,0.1-6.3
		c0.5-2.6,1-5.2,1.5-7.8c0-0.1,0-0.1,0-0.2l-4.1,0.6c-0.1-0.3-0.2-0.5-0.4-0.8c0.8-0.2,1.6-0.3,2.3-0.4c0.7-0.1,1.5-0.3,2.2-0.4
		c0.2,0,0.2-0.1,0.2-0.3L9,24.2c0,0,0-0.1,0-0.1c0.3-0.4,0-0.7-0.2-1c0-0.1-0.1-0.1-0.1-0.2l0.3-0.3L8.8,22c0.4-0.2,0.9-0.3,1.3-0.4
		c1.4-0.3,2.7-0.5,4.1-0.8c0.2,0,0.3-0.1,0.3-0.3c1.4-4.3,2.8-8.6,4.2-12.9c0-0.1,0-0.1,0.1-0.2c-0.8,0.2-1.6,0.4-2.3,0.6
		c-3,0.7-6,1.4-9,1.8c-1.8,0.3-3.6,0-5.3-0.8C0.5,8-0.4,6.2,0.1,4.4c0.1-0.4,0.3-0.8,0.7-1C1,3.8,1.1,4.1,1.3,4.5
		c0.2,0.4,0.6,0.8,1,0.9c0.9,0.3,1.9,0.4,2.9,0.4c2-0.1,3.9-0.4,5.8-0.9c4.4-1,8.9-2,13.3-3c2.9-0.6,5.7-1.1,8.7-1.5
		C35.2,0.1,37.4,0,39.6,0c0.8,0,1.5,0.1,2.2,0.2c1.2,0.2,2.1,1.1,2.3,2.3c0.4,1.2,0.3,2.5-0.3,3.7c-0.3,0.7-1,1.2-1.8,1.2
		c0.3-0.3,0.2-0.5,0-0.8c-0.3-0.4-0.5-1-0.4-1.5C41.9,4.7,42,4.3,42.2,4c-0.4-0.1-0.8-0.2-1.3-0.2c-1.3,0-2.5-0.1-3.8,0
		c-3.6,0.4-7.2,1-10.7,1.8c-1,0.2-1.9,0.4-2.9,0.6c-0.3,0.1-0.5,0.2-0.8,0.2c0.1,0.5,0.2,0.9,0.2,1.3c0.1,0.7-0.1,1.4-0.3,2.1
		c-1.1,3.3-2.2,6.5-3.3,9.8c0,0.1-0.1,0.2-0.1,0.3c0.7-0.1,1.3-0.2,1.9-0.2c2.3-0.4,4.7-0.6,7.1-0.6c0.4,0,0.8,0,1.2,0.1
		c0.1,0,0.1,0.1,0.2,0.2c-0.1,0.1-0.1,0.1-0.2,0.2c-1.1,0.4-2.3,0.5-3.4,0.5c-1.5,0.1-2.9,0.2-4.4,0.6c0,0-0.1,0-0.1,0.1
		c2.6-0.4,5.3-0.6,7.9-0.6c0,0.3-0.1,0.5-0.7,0.6l0.8,0.3c-0.2,0.1-0.4,0.2-0.6,0.2c-1.1,0.2-2.2,0.4-3.3,0.6
		c-2.2,0.3-4.4,0.6-6.6,0.9c-0.1,0-0.3,0.1-0.4,0.1c0,0,0,0.1,0,0.1c0.1,0,0.3,0,0.4,0c1.9-0.2,3.8-0.5,5.7-0.7
		c1.4-0.2,2.7-0.3,4.1-0.5c0.3,0,0.6-0.2,0.9,0.2c-0.2,0.4-0.6,0.7-1.1,0.8c-0.8,0.2-1.6,0.4-2.4,0.5c-1.9,0.2-3.7,0.4-5.6,0.7
		c-0.7,0.1-1.5,0.2-2.2,0.3c-0.2,0-0.2,0.1-0.3,0.2c-0.7,3.3-1.5,6.5-2.2,9.8c-0.5,2.4-0.7,4.8-0.6,7.3c0.1,1.2,0.3,2.3,0.6,3.5
		C16.1,45.1,16.1,45.6,16,46.1 M39.2,2.5L39.2,2.5c-0.1,0-0.3,0-0.4,0c-1.6,0.1-3.1,0.2-4.7,0.4c-2.8,0.4-5.6,0.9-8.4,1.3
		c-1.1,0.2-2.1,0.5-3.1,0.8c-0.1,0-0.1,0.1-0.2,0.2c0.1,0,0.2,0.1,0.3,0.1c2.8-0.6,5.7-1.2,8.5-1.8c1.5-0.3,2.9-0.5,4.4-0.7
		C36.9,2.7,38,2.6,39.2,2.5 M33.3,1.4c-1.8-0.1-11,1.7-12,2.3c2-0.2,4-0.9,6-1.3S31.3,1.7,33.3,1.4 M18.1,6.2L7.2,8.4
		C10.9,8,14.5,7.3,18.1,6.2 M12.5,5.6l6.9-1.4c0,0,0-0.1,0-0.1C17,4.4,14.7,4.9,12.5,5.6 M11,22.2l0,0.1c0.8,0,1.6-0.2,2.3-0.5
		c0,0,0-0.1,0-0.1L11,22.2 M32.4,2.3c0,0,0-0.1,0-0.1l-1.7,0.3l0,0.1L32.4,2.3 M34.6,1C34.6,1.1,34.6,1.1,34.6,1
		c0.3,0,0.6,0.1,0.9,0c0.1,0,0.1-0.1,0.2-0.2l-0.1-0.1L34.6,1 M28.8,2.9l1.3-0.2c0,0,0-0.1,0-0.1C29.6,2.6,29.2,2.7,28.8,2.9
		 M22.1,4.3c0.5,0.1,1,0,1.3-0.3L22.1,4.3 M24.8,3.7c0,0,0-0.1,0-0.1l-1,0.3c0,0,0,0.1,0,0.1L24.8,3.7"/>
	<path id="Trazado_91" class="st0" d="M76,22.2c-0.2,0.1-0.4,0.3-0.5,0.4c-2,2.1-3.8,4.5-5.3,7c-1.2,1.9-2.4,3.9-3.7,5.8
		c-0.5,0.7-1,1.4-1.6,2.1c-0.7,0.9-1.2,1-2.5,0.5c-0.9-0.4-1.5-1.1-1.8-2c-0.1-0.6-0.2-1.2,0-1.9c0.4-2.5,0.9-4.9,1.6-7.3
		c0.5-1.8,1.1-3.6,1.5-5.5c0.2-0.7,0.3-1.4,0.3-2.1c0-0.3,0-0.6-0.1-0.9c-0.1-0.4,0.2-0.6,0.5-0.5c0.4,0.2,0.9,0.4,1.2,0.7
		c1.1,0.8,1.7,2.1,1.6,3.5c-0.2,1.9-0.5,3.8-1.1,5.6c-0.6,2.1-1.3,4.3-1.9,6.4c0,0.1,0,0.2-0.1,0.2l0.1,0c0.1-0.1,0.1-0.1,0.2-0.2
		c1.8-2.4,3.5-4.9,5.3-7.3c1.9-2.6,4-5,6.1-7.4c0.6-0.6,1.1-1.2,1.7-1.8c0.4-0.5,1.1-0.6,1.6-0.3c0.7,0.3,1.3,0.7,1.8,1.2
		c0.4,0.5,0.5,1.2,0.3,1.8c-0.4,1.2-0.8,2.4-1.3,3.6c-1.7,4.4-3.1,8.8-4.3,13.3c-0.3,1.1-0.5,2.3-0.6,3.5c-0.1,0.5,0.1,1.1,0.5,1.5
		c0.1,0.1,0.1,0.4-0.1,0.5c-0.1,0.1-0.3,0.1-0.5,0.1c-1.6,0.1-3-1.1-3.2-2.7c-0.2-1.1-0.3-2.2-0.2-3.3c0.2-1.9,0.6-3.8,1.2-5.6
		c0.8-3,1.8-5.9,3-8.7C76,22.5,76,22.4,76,22.2L76,22.2 M74.9,35.6c0.1-0.1,0.1-0.2,0.2-0.3c0.2-0.6,0.5-1.3,0.6-1.9
		c0.7-2.5,1.4-5,2.4-7.5c0.8-2,1.5-3.9,2.3-5.9c0-0.1,0.1-0.2,0.1-0.3C79.7,19.8,75.4,32.3,74.9,35.6 M75.5,21.4L75.5,21.4
		c-0.6,0.5-1.1,1.1-1.6,1.6c-1.6,1.9-3.1,3.8-4.5,5.8c-0.1,0.1-0.1,0.3,0,0.4l1.3-1.7l0.1,0L70.6,28l0,0c0.2-0.1,0.4-0.2,0.5-0.4
		c0.3-0.4,0.5-0.7,0.7-1.2c0-0.1,0.2-0.2,0.3-0.3c0.3-0.4,0.6-0.8,0.9-1.1c0.5-0.6,1-1.2,1.6-1.9c0,0,0,0,0,0c0-0.1-0.1-0.1-0.1-0.2
		c-0.3,0.3-0.5,0.6-0.8,0.9s-0.5,0.5-0.8,0.8L73,24.5L75.5,21.4 M77.2,18.7L77.2,18.7c-2.3,1.9-9.3,10.8-9.7,12.2
		c0.2-0.2,0.4-0.5,0.6-0.7c0.3-0.5,0.7-1,1-1.5c1.7-2.4,3.6-4.7,5.6-6.9c0.8-0.9,1.6-1.9,2.4-2.9C77.2,18.8,77.2,18.8,77.2,18.7
		 M76.8,23.1c0,0,0.1-0.1,0.1-0.1c0.5-1,1-2,1.5-3c0-0.1,0-0.2,0-0.2C77.8,20.8,77.2,22,76.8,23.1 M74.9,22.5c0.7-0.4,1.3-1,1.6-1.8
		L74.9,22.5 M74.8,36L74.8,36c-0.1,0.3-0.2,0.6-0.3,1c0,0.1,0,0.1,0.1,0.2l0.1,0C74.7,36.8,74.7,36.4,74.8,36 M78.4,21.9L78.4,21.9
		l0.5-1l-0.1,0L78.4,21.9"/>
	<path id="Trazado_92" class="st0" d="M38.1,20c-0.2,0.8-0.3,1.6-0.5,2.4c-0.6,2.2-1.4,4.3-2.6,6.2c-0.8,1.4-1.7,2.8-2.7,4
		c-0.4,0.4-0.8,0.8-1.2,1.1c-0.1,0.1-0.2,0.1-0.3,0c-0.5-0.1-0.9-0.3-1.4-0.5c0-0.1,0.1-0.1,0.1-0.2c1.6-1.8,2.9-3.9,3.9-6.1
		c1-2.1,1.8-4.3,2.3-6.6c0.1-0.4,0.2-0.9,0.3-1.4c0-0.2-0.1-0.2-0.1-0.3c-0.8-0.6-1.7-1.2-2.5-1.8c-0.8-0.6-1.3-1.5-1.5-2.5
		c-0.2-1.3,0.5-2.5,1.7-3.1c0.4-0.2,0.9-0.2,1.4,0c1.6,0.5,2.8,1.8,3,3.5c0.2,1,0.2,2.1,0.3,3.1c0,0.1,0.1,0.2,0.2,0.3
		c1.1,0.7,2.2,1.3,3.2,2c0.6,0.4,1.2,0.9,1.7,1.5c0.5,0.8,0.7,1.7,0.5,2.7c-0.3,1.6-0.8,3.1-1.4,4.7c-0.5,1.7-1.1,3.3-1.6,5
		c-0.4,1.2-0.6,2.4-0.5,3.6c0,0.4,0.1,0.8,0.2,1.2c0,0.1,0.1,0.2,0.2,0.2c0.4,0.1,0.7,0.2,1.1,0.3c0,0.1,0,0.3,0,0.4
		c0.2-0.1,0.3-0.3,0.5-0.3c0.1,0,0.1,0.1,0.2,0.1c0.2,0.4,0,0.9-0.4,1.2c0,0,0,0-0.1,0c-1.1,0.6-2.5,0.5-3.5-0.2
		c-1-0.7-1.6-1.8-1.9-3c-0.3-1.3-0.4-2.6-0.1-3.8c0.5-2.4,1.2-4.8,2.1-7.2c0.4-1.3,0.9-2.5,1.3-3.8c0.1-0.4,0.2-0.8,0.2-1.3
		c0-0.3-0.2-0.7-0.4-0.9C39.2,20.4,38.7,20.1,38.1,20 M42.6,24.1L42.6,24.1c-0.1,0-0.2,0.1-0.2,0.2c-0.9,2.8-1.9,5.7-2.8,8.5
		C39.2,34,39,35.2,39,36.5c0,0.1,0,0.2,0,0.3c0.1-0.6,0.2-1.3,0.4-1.9c0.5-2,1-3.9,1.7-5.9c0.4-1.3,0.8-2.5,1.2-3.8
		C42.5,24.9,42.6,24.5,42.6,24.1 M35.9,17c0.2-1.4-0.1-2.7-0.7-4c-1,1-0.9,2.6,0.1,3.6C35.5,16.8,35.7,16.9,35.9,17 M38.3,34.7
		L38.3,34.7c0.1-0.2,0.2-0.3,0.2-0.5c0.4-1.5,0.8-2.9,1.3-4.4c0.4-1.1,0.8-2.2,1.2-3.3c0.2-0.5,0.3-1,0.4-1.5l-0.1,0
		c0,0.1-0.1,0.2-0.1,0.3c-0.4,1.1-0.7,2.1-1.1,3.2c-0.6,1.5-1,3-1.4,4.6C38.5,33.6,38.4,34.2,38.3,34.7 M40.5,24.5
		c-0.2,0.3-3.1,9-3.1,9.5C38.4,30.9,39.6,27.7,40.5,24.5 M37.1,21.4c-0.8,2.2-1.6,4.3-2.4,6.4C35.9,25.8,36.7,23.7,37.1,21.4
		 M35.4,23.6L35.4,23.6c-0.2,0.3-0.3,0.7-0.4,1l0.1,0C35.1,24.3,35.2,23.9,35.4,23.6 M33.8,13.7L33.8,13.7c0.2-0.2,0.2-0.4,0.3-0.6
		l-0.1,0L33.8,13.7"/>
	<path id="Trazado_93" class="st0" d="M57.1,22.4c-0.4-0.1-0.8-0.2-1.3-0.3c-0.2,0-0.3,0-0.5,0c-1.4,0.6-2.6,1.5-3.5,2.7
		c-1.2,1.6-2.2,3.4-3,5.3c-0.1,0.2-0.2,0.5-0.3,0.7c0,0.1,0,0.2,0,0.2l0.1,0c0.4-0.3,0.8-0.6,1.2-0.9c1.6-1.4,3.1-2.8,4.7-4.2
		c0.5-0.5,0.9-1,1.3-1.6c0.3-0.4,0.7-0.7,1.1-0.8c0,0.2,0,0.3,0.1,0.4c0.2,0,0.4-0.1,0.5,0s0.1,0.3,0.1,0.4l0.4,0
		c-0.5,1.3-0.9,2.6-1.3,3.8l0,0l1.6-3.6c0.4,0,0.5,0.2,0.5,0.5c-0.1,0.4-0.2,0.9-0.4,1.3c-0.8,2.5-1.6,5-2.4,7.5
		c-0.2,0.7-0.3,1.4-0.4,2.1c0,0.1,0,0.1,0,0.2c0.6-0.5,1.2-1.1,1.8-1.7c-0.7,0.9-1.4,1.8-1.9,2.8c1.2-1.3,2.3-2.6,3.3-4
		c-1,1.8-2.5,3.3-3.4,5.2l1.4-1.6l0,0l-0.3,0.6l0.4-0.1l0,0.1c0,0,0,0,0,0c0.2-0.3,0.4-0.7,0.5-1.1c0-0.3,0.4-0.5,0.6-0.6
		c0.1,0,0.1-0.1,0.1-0.1c0.4-0.7,0.8-1.3,1.2-2c0.1-0.2,0.1-0.4,0.2-0.6c0.2-0.2,0.4-0.5,0.5-0.8c0.2-0.4,0.4-0.7,0.6-1.1
		c0-0.1,0.1-0.1,0.1-0.1c-0.1,0.3-0.2,0.5-0.3,0.8c-1,2.2-2.3,4.4-3.8,6.3c-0.5,0.6-1.1,1.2-1.6,1.8c-0.1,0.1-0.2,0.1-0.3,0.1
		c-0.5-0.2-0.9-0.4-1.3-0.6c-0.4-0.4-0.6-0.9-0.5-1.5c0-1.9,0.3-3.9,0.7-5.8c0.2-0.8,0.3-1.6,0.5-2.5c-0.1,0.1-0.1,0.1-0.2,0.2
		c-1,1-1.9,2.1-2.9,3.1c-0.4,0.5-0.9,0.9-1.4,1.3c-1,0.8-2.4,0.8-3.4,0.1c-0.2-0.1-0.5-0.3-0.7-0.5c-0.7-0.6-1.1-1.6-0.8-2.5
		c0.3-1.5,0.8-3,1.6-4.3c0.8-1.6,1.9-3.1,3.1-4.4c0.9-1,2-1.7,3.3-2.2c1.5-0.6,3.1-0.2,4.3,0.8c0.2,0.2,0.4,0.4,0.6,0.6
		C57.3,21.9,57.3,22.2,57.1,22.4 M51.1,24c-1.4,0.9-4.3,6.1-4.2,7.7C47.9,28.9,49.3,26.3,51.1,24 M46.1,28.5l2.7-4.5
		C47.7,25.3,46.8,26.9,46.1,28.5 M47.2,28.1L47.2,28.1l1.6-2.4l-0.1,0L47.2,28.1"/>
	<path id="Trazado_94" class="st0" d="M22.8,44.3c0,0.2,0.1,0.3,0.1,0.5V48l-3.5-3.9l0,0h-0.2v4.6c0,0.2,0,0.3-0.1,0.5l0,0h0.5l0,0
		c0-0.2-0.1-0.3-0.1-0.5v-3.2l3.5,3.9l0,0h0.2v-4.6c0-0.2,0-0.3,0.1-0.5l0,0L22.8,44.3L22.8,44.3z"/>
	<path id="Trazado_95" class="st0" d="M25.3,49c0-0.1,0-0.2,0-0.3v-2.9c0-0.2,0-0.4,0.1-0.5l0-0.1h-0.9l0,0.1
		c0.1,0.2,0.1,0.3,0.1,0.5v2.9c0,0.2,0,0.4-0.1,0.5l0,0.1h0.9l0-0.1C25.3,49.1,25.3,49,25.3,49C25.2,48.9,25.3,49,25.3,49"/>
	<path id="Trazado_96" class="st0" d="M28.4,48.9c-0.1,0-0.2,0-0.3,0h-1.1v-1.9h1.3l0.1-0.3h-1.4v-1.2h1c0.2,0,0.4,0.1,0.6,0.1
		l0.1,0l-0.2-0.5h-2.3l0,0.1c0.1,0.2,0.1,0.4,0.1,0.5v2.9c0,0.2,0,0.3-0.1,0.5l0,0.1h2.3l0.2-0.5l-0.1,0
		C28.6,48.8,28.5,48.9,28.4,48.9L28.4,48.9"/>
	<path id="Trazado_97" class="st0" d="M29.4,45.3l-0.2,0.5l0.1,0c0.2-0.1,0.4-0.1,0.6-0.1h0.8v3.1c0,0.2,0,0.4-0.1,0.5l0,0.1h0.9
		l0-0.1c-0.1-0.2-0.1-0.3-0.1-0.5v-3.2h0.9c0.2,0,0.4,0.1,0.6,0.1l0.1,0l-0.2-0.5L29.4,45.3z"/>
	<path id="Trazado_98" class="st0" d="M37,46.4c-0.4-0.8-1.2-1.2-2.1-1.2c-0.9,0-1.6,0.6-2,1.4c-0.2,0.4-0.2,0.8-0.1,1.3
		c0.1,0.4,0.4,0.7,0.7,1c0.7,0.5,1.7,0.6,2.5,0.2c0.5-0.2,0.8-0.6,1-1.1C37.2,47.4,37.2,46.9,37,46.4C36.9,46.1,37.1,46.6,37,46.4
		 M35,49c-0.4,0-0.8-0.2-1-0.6c-0.3-0.3-0.4-0.7-0.4-1.1v-0.1c0-0.7,0.4-1.3,1.1-1.5c0.2,0,0.3-0.1,0.5,0c0.2,0,0.3,0.1,0.5,0.2
		c0.3,0.2,0.5,0.5,0.7,0.8c0.1,0.2,0.1,0.4,0.1,0.7c0,0.2,0,0.4-0.1,0.6c-0.1,0.2-0.2,0.4-0.3,0.6C35.8,48.8,35.4,49,35,49"/>
	<path id="Trazado_99" class="st0" d="M42.7,46.8c-0.4-0.2-0.7-0.5-1.1-0.6c-0.2-0.1-0.4-0.2-0.5-0.3c-0.2-0.1-0.3-0.3-0.4-0.5
		c-0.2-0.4,0.3-0.7,0.7-0.8c0.5,0,0.9,0.1,1.3,0.4c0.1,0.1,0.2,0.2,0.3,0.3l0.1,0.1l-0.1-0.7l0,0c-0.4-0.2-0.9-0.3-1.3-0.4
		c-0.4,0-0.9,0.1-1.3,0.3c-0.4,0.2-0.6,0.6-0.6,1c0.1,0.4,0.3,0.7,0.6,0.9c0.4,0.3,0.8,0.4,1.2,0.6c0.3,0.2,0.8,0.4,0.8,0.8
		c0.1,0.4-0.1,0.8-0.5,1C41.5,49,41,49,40.6,48.8c-0.4-0.2-0.7-0.4-1-0.7L39.6,48l0.1,0.8l0,0c0.8,0.5,1.7,0.6,2.6,0.4
		c0.4-0.1,0.7-0.4,0.9-0.8c0.2-0.4,0.2-0.8,0-1.1C43,47.1,42.9,46.9,42.7,46.8C42.6,46.7,42.9,46.9,42.7,46.8"/>
	<path id="Trazado_100" class="st0" d="M46.4,48.9c-0.1,0-0.2,0-0.3,0H45v-1.9h1.3l0.1-0.3H45v-1.2h1c0.2,0,0.4,0.1,0.6,0.1l0.1,0
		l-0.2-0.5h-2.3l0,0.1c0.1,0.2,0.1,0.4,0.1,0.5v2.9c0,0.2,0,0.3-0.1,0.5l0,0.1h2.3l0.2-0.5l-0.1,0C46.6,48.8,46.5,48.9,46.4,48.9
		L46.4,48.9"/>
	<path id="Trazado_101" class="st0" d="M50.5,45.3c0,0.1,0,0.3,0.1,0.4v2.5l-2.8-3.1l0,0h-0.2v3.7c0,0.1,0,0.3-0.1,0.4l0,0h0.4l0,0
		c0-0.1-0.1-0.3-0.1-0.4v-2.5l2.8,3.1l0,0h0.2v-3.7c0-0.1,0-0.3,0.1-0.4l0,0L50.5,45.3L50.5,45.3z"/>
	<path id="Trazado_102" class="st0" d="M54,48.9c-0.1,0-0.2,0-0.3,0h-1.1v-1.9h1.3l0.1-0.3h-1.4v-1.2h1c0.2,0,0.4,0.1,0.6,0.1l0.1,0
		l-0.2-0.5h-2.3l0,0.1c0.1,0.2,0.1,0.4,0.1,0.5v2.9c0,0.2,0,0.3-0.1,0.5l0,0.1h2.3l0.2-0.5l-0.1,0C54.2,48.8,54.1,48.9,54,48.9
		L54,48.9"/>
	<path id="Trazado_103" class="st0" d="M55,45.3l-0.2,0.5l0.1,0c0.2-0.1,0.4-0.1,0.6-0.1h0.8v3.1c0,0.2,0,0.4-0.1,0.5l0,0.1H57l0,0
		c-0.1-0.2-0.1-0.3-0.1-0.5v-3.2h0.9c0.2,0,0.4,0.1,0.6,0.1l0.1,0l-0.2-0.5L55,45.3z"/>
	<path id="Trazado_104" class="st0" d="M59.8,49c0-0.1,0-0.2,0-0.3v-2.9c0-0.2,0-0.4,0.1-0.5l0-0.1H59l0,0.1
		c0.1,0.2,0.1,0.3,0.1,0.5v2.9c0,0.2,0,0.4-0.1,0.5l0,0.1h0.9l0-0.1C59.9,49.1,59.9,49,59.8,49L59.8,49"/>
	<path id="Trazado_105" class="st0" d="M63.9,45.3c0,0.1,0,0.3,0.1,0.4v2.5l-2.8-3.1l0,0H61v3.7c0,0.1,0,0.3-0.1,0.4l0,0h0.4l0,0
		c0-0.1-0.1-0.3-0.1-0.4v-2.5l2.8,3.1l0,0h0.2v-3.7c0-0.1,0-0.3,0.1-0.4l0,0L63.9,45.3L63.9,45.3z"/>
	<path id="Trazado_106" class="st0" d="M67.4,48.9c-0.1,0-0.2,0-0.3,0H66v-1.9h1.3l0.1-0.3H66v-1.2h1c0.2,0,0.4,0.1,0.6,0.1l0.1,0
		l-0.2-0.5h-2.3l0,0.1c0.1,0.2,0.1,0.4,0.1,0.5v2.9c0,0.2,0,0.3-0.1,0.5l0,0.1h2.3l0.2-0.5l-0.1,0C67.6,48.8,67.5,48.9,67.4,48.9
		L67.4,48.9"/>
	<path id="Trazado_107" class="st0" d="M72,49.2c-0.4-0.3-0.7-0.5-1-0.8c-0.3-0.3-0.6-0.6-0.9-1c0.3,0,0.6-0.2,0.9-0.4
		c0.2-0.3,0.3-0.6,0.2-0.9c-0.2-0.7-1-0.8-1.6-0.8h-1l0,0.1c0.1,0.2,0.1,0.4,0.1,0.6v2.8c0,0.2,0,0.4-0.1,0.6l0,0.1h0.9l0-0.1
		c-0.1-0.2-0.1-0.4-0.1-0.6v-3.1h0.1c0.3,0,0.5,0,0.8,0.2c0.2,0.1,0.3,0.4,0.3,0.6c0,0.3-0.1,0.5-0.3,0.7c-0.2,0.2-0.5,0.2-0.7,0.1
		h0l-0.1,0.1l0,0c0.5,0.7,1,1.4,1.6,2l0,0L72,49.2L72,49.2z"/>
</g>
</svg>
