<svg xmlns="http://www.w3.org/2000/svg" width="719.134" height="222.903" viewBox="0 0 719.134 222.903">
  <g id="Grupo_339" data-name="Grupo 339" transform="translate(-52.838 -45.205)">
    <path id="Trazado_185" data-name="Trazado 185" d="M438.96,77.222C440.83,75,433,73.652,429.406,76c-32.968,18.185-59.226,59.663-58.791,54.091,5.582-28.736-10.015-29.919-12.071-30.064s-.85,2.538-.85,2.538c14.469,5.866,1.637,33.684,6.328,43.8,3.572,7.712,10.992,3.981,10.553.75-.763-17.695,42.243-63.006,64.384-69.892" transform="translate(271.882 26.397)" fill="#fff"/>
    <path id="Trazado_186" data-name="Trazado 186" d="M409.755,93.369c1.825-4.386,12.65-10.439,15.033-14.853.734-1.37.746-3.212-2.642-2.784-5.707,2.067-15.1,7.774-18.473,11.145-1.914,3.082,4.174,6.644,6.082,6.493" transform="translate(312.921 27.2)" fill="#fff"/>
    <path id="Trazado_187" data-name="Trazado 187" d="M378.822,128.225c-27.867,32.444-37.924,28.584-40.047,27.411C323,147.111,362.474,71.208,365.79,66.9c.038-3.613-5.431-6.021-6.6-7a3.46,3.46,0,0,0-5.09,1.174c1.762,7.428-19.792,47.8-23.947,52.192-20.717-17.1-35.868,20.916-35.963,20.426s-17.642,12.976-20.577,11.609S282.9,122.34,282.9,122.34c-.288-7.727-9.854-8.522-11.215-7.348S248.056,138,246.291,136.045c-1.266-1.079,6.057-13.1,7.431-17.007s-1.855-5.474-4.518-5.734-7.214-6.089-9.657-4.918c-3.515,3.127-29.468,54.049-37.778,44.471-7.85-11.565,13.733-35.728,14.711-38.073s-5.38-6.449-5.38-6.449-4.465,4.692-5.569,3.322C187.666,95.842,166.013,131.4,164.5,145.4c-1.272,2.247-17.166,15.221-19.555,8.05-3.419-9.676,18.151-38.45,20.8-40.4.291-1.565-7.238-4.791-7.238-4.791s-3.225,4.691-6.156,5.667c-6.74,1.762-10.388-1.861-13.029-2.841s-2.249,1.861-2.639,3.424c-19.141,29.408-28.437,30.8-28.437,30.8-3.326,3.222,6.642,7.136,9.385,7.333s18.951-25.622,23.347-32.559a30.536,30.536,0,0,1,7.954.394c-6.843,10.751-15.516,35.9-4.373,38.739s21.312-9.809,21.412-9.027,3.227,5.866,9.574,6.841,16.423-14.365,18.378-15.735c1.953,20.526,12.02,23.877,18.773,18.317,9.339-6.356,25.1-36.759,26.462-38.325s1.961.689,1.669,2.93-9.385,14.369-8.508,24.342c.3,4.2,6.761,7.666,7.933,6.591s23.3-23.88,23.3-23.88c4.772-4.5,6.091.528,6.091.528s-7.941,20.929,3.826,23.4c6.25,1.37,18.081-15.243,19.451-12.413s8.306,8.8,12.508,9.29c12.319-.786,21.8-20.922,23.362-19.648-2.249,29.126,13.78,28.153,13.78,28.153,14.857,1.272,40.367-31.475,40.367-31.475a5.262,5.262,0,0,0-4.111-.88m-204.689,18.59c-1.908-1.906,20.405-33.4,28.615-30.468,2.2,1.908-28.73,34.132-28.615,30.468m128.1-6.125c-1.9-1.908,16.419-24.191,24.626-21.261,2.2,1.908-24.738,24.92-24.626,21.261" transform="translate(48.869 12.528)" fill="#fff"/>
    <path id="Trazado_188" data-name="Trazado 188" d="M139.991,173.077c.632-2.671,14.365-44.005,17.772-48.361,21.847-35.781,22.961-42.277,22.008-46.074,0-1.427-9.657-4.276-9.657-4.276-13.935,1.9-20.587,53.674-27.787,64.958-7.507,11.783-37.13,36.689-45.855,19.033C80.808,127.251,150.479,40.806,184.044,52.676c12.273,5.342.475,24.7-.437,25.412-.28.221-1.664,5.822,7.6,2.02,8.192-5.822,6.023-19.345,3.083-23.513-2.849-4.036-10.645-9.934-19.989-11.2C139.2,40.687,71.051,126.053,94.433,160.814c12.1,17.971,36.445-3.757,47.252-15.751-2.847,7.838-6.074,22.974-8.346,29.517C54.412,200,41.687,244.546,60.519,262.886c26.671,25.455,64.365-48.406,78.361-86.879,14.1-4.134,24.3-2.5,28.533-3-.748-.876-2.36-1.172-4.874-1.757-8.862-.655-14.806.246-22.548,1.827m33.725-90.793c4.35,3.377-19.813,45.05-21.164,44.038,0,0,16.044-45.073,21.164-44.038M61.986,260.344c-18.616-22.12,7.812-63.311,70.14-83.023-8.374,29.449-48.179,106.9-70.14,83.023" transform="translate(0)" fill="#fff"/>
    <path id="Trazado_189" data-name="Trazado 189" d="M481.148,113c.061-.814,1-5.468-3.863-2.26-9.553,10.551-28.584,24.185-36.945,21.547-6.458-2.035-4.409-10.712-2.639-12.459,22.707-7.787,35.478-17.882,33.867-23.46-2.792-7.708-8.259-11.647-12.315-12.9-5.283,0-13.2,4.1-27.71,25.219-16.566,21.4-33.322,28.293-40.988,27.691-6.756-.538-5.646-8.353-3.873-10.1,22.7-7.783,37.174-27.023,36.358-31.083-2.8-7.708-12.94-9.648-14.81-8.79-10.35,4.424-26.093,23.748-29.425,38.531-2.483,11.028,8.056,17.231,13.157,17.619,11.085.782,29.745-15.932,34.3-20.526,2.058,9.233,12.692,17.543,19.947,17.151C458.84,138.5,479.622,114.7,481.148,113M463.069,93c3.366,4.251-17.43,16.987-19.36,16.86,3.67-7.78,16.811-19.1,19.36-16.86M416.1,95.053c9.269,4.249-19.9,23.78-22.834,21.323,3.661-7.783,20.288-23.561,22.834-21.323" transform="translate(290.713 34.164)" fill="#fff"/>
    <path id="Trazado_190" data-name="Trazado 190" d="M367.33,136.843c-12.309,26.2-4.645,35.923,4.891,35.968,5.951.028,20.92-16.909,26.432-23.269-1.015,10.39.246,20.549,10.121,21.314,7.941,1.073,25.607-19.3,25.607-20.918,0-5.082-4.1-2.34-4.1-2.34s-14.779,15.65-21.893,16.415c-7.363.793,6.059-31.119,6.449-32.485s-5.987-6.123-8.145-4.734c-8.889,8.8-32.616,41.325-37.015,38.762-7.865-4.592,16.222-35.751,16.222-35.751s-3.515-8.8-10.549-5.667c-4.763,4.06-9.228,7.956-13.5,11.386l-.068.047c-52.733,44.98-66.305,40.363-71.318,38.045C249.34,158.715,327.5,48.493,371.3,53.121c12.962,1.365-26.5,51.5-51.5,53.034-.952,1.664.888,2.972.888,2.972,22.631.344,65.995-47.5,56.924-58.382,0,0-4.325-5-14.821-4.986-14.687-.278-34.706,8.217-65.665,48.938-38.423,54.242-19.936,79.667-8.6,82.018,25.293,7.7,76.345-40.218,78.73-39.877Z" transform="translate(197.464 0.49)" fill="#fff"/>
    <path id="Trazado_191" data-name="Trazado 191" d="M123.976,136.3l24.073,24.144v9.343l-29.89-29.938a26.443,26.443,0,0,0-4.471-3.549Zm4.416-1.255h-18.84V136.3h.2a6.8,6.8,0,0,1,2.419.36,12.277,12.277,0,0,1,2.082,1.3,17.062,17.062,0,0,1,1.755,1.37l1.132,1.138v19.091c0,6.11-2.656,9.336-7.906,9.5v1.2h16.646v-1.2c-4.751-.057-7.257-3.32-7.257-9.5V141.765l29.521,29.661h1.079v-25.6c0-4.4,1.577-7.551,4.285-8.809a8.363,8.363,0,0,1,3.644-.716v-1.255H140.483V136.3c4.766.095,7.263,3.347,7.263,9.525v8.6Zm-9.423,34.013h-4.927a8.08,8.08,0,0,0,3.3-4.123,6.128,6.128,0,0,0,1.624,4.123M149.736,136.3a7.382,7.382,0,0,0-1.728,3.858,7.938,7.938,0,0,0-3.2-3.858Z" transform="translate(50.352 80.215)" fill="#fff"/>
    <path id="Trazado_192" data-name="Trazado 192" d="M142.359,140.644h6.89a2.671,2.671,0,0,0-.608,1.308,6.642,6.642,0,0,0-.114,1.865v18.215a6.7,6.7,0,0,0,.114,1.866,2.922,2.922,0,0,0,.608,1.295h-6.89c.958-.9,1.31-1.764,1.31-3.88V144.468c0-2.1-.352-2.976-1.31-3.824m14.329,24.549h-1.164c-1.955,0-2.682-.163-3.267-.717-.736-.636-.924-1.476-.924-3.685V145.047c0-2.266.187-3.169.924-3.744.644-.539,1.312-.659,3.267-.659h1.164v-.931H137.269v.931h1.193c1.959,0,2.684.15,3.32.659.655.649.888,1.478.888,3.744V160.79c0,2.209-.233,3.133-.888,3.685-.725.555-1.361.717-3.32.717h-1.193v.9h19.419Z" transform="translate(75.385 84.383)" fill="#fff"/>
    <path id="Trazado_193" data-name="Trazado 193" d="M177.946,140.643v5.181a14.585,14.585,0,0,0-1.917-2.076c-.479-.451-.954-.89-1.476-1.321a15.6,15.6,0,0,0-2.5-1.783Zm2.536-.929h-30.61v.929h1.175c1.948,0,2.69.151,3.313.661.676.647.909,1.473.909,3.744v15.743c0,2.209-.233,3.133-.909,3.684-.7.555-1.365.717-3.313.717h-1.175v.9h30.958v-9.678h-.8a29.946,29.946,0,0,1-5.5,5.894,10.4,10.4,0,0,1-5.834,2.72,8.843,8.843,0,0,1-1.872.163h-2.9V152.709h.958A5.659,5.659,0,0,1,168.4,153.8a9.807,9.807,0,0,1,2.126,1.9,6.385,6.385,0,0,1,1.105,1.664h.914V147.174h-.914a11,11,0,0,1-3.083,3.6,6.55,6.55,0,0,1-3.668.969h-.958v-11.1h3.831a7.983,7.983,0,0,1,6.22,2.334,29.891,29.891,0,0,1,5.733,6.29h.772Zm-2.2,25.478h-6.8a11.131,11.131,0,0,0,2.834-1.668,13.92,13.92,0,0,0,1.492-1.215,20.778,20.778,0,0,0,2.48-2.453Zm-7.751-10.564a5.6,5.6,0,0,0-1.469-1.321,6.943,6.943,0,0,0-1.76-1.024,7.8,7.8,0,0,0,1.76-.992,5.65,5.65,0,0,0,1.469-1.363Zm-15.576-13.984h6.167v24.549h-6.167c.962-.892,1.268-1.77,1.268-3.88V144.465c0-2.1-.307-2.977-1.268-3.822" transform="translate(86.639 84.384)" fill="#fff"/>
    <path id="Trazado_194" data-name="Trazado 194" d="M197,140.644v5.272a19.455,19.455,0,0,0-4.918-5.272Zm2.62-.931H168.577v11.624h.852a23.8,23.8,0,0,1,1.386-3.21,22.759,22.759,0,0,1,4.558-5.947,4.989,4.989,0,0,1,3.755-1.535h.589V160.79c0,2.294-.227,3.133-.884,3.685-.71.555-1.372.717-3.307.717h-1.189v.9h19.415v-.9h-1.164c-1.974,0-2.684-.163-3.32-.717-.666-.636-.876-1.476-.876-3.685V140.644h.649a4.585,4.585,0,0,1,2.953.943,21.032,21.032,0,0,1,3.684,3.839,19.216,19.216,0,0,1,3.08,5.911h.859Zm-30.187.931h3.829a18.043,18.043,0,0,0-3.829,4.98Zm9.985,24.549c.969-.9,1.253-1.764,1.253-3.88V140.644h4.9v21.388a6.291,6.291,0,0,0,.121,1.866,3.1,3.1,0,0,0,.628,1.295Z" transform="translate(103.339 84.383)" fill="#fff"/>
    <path id="Trazado_195" data-name="Trazado 195" d="M210.812,153.285v.5c0,8.077-2.355,12.631-6.572,12.631-2.47,0-4.051-1.244-5.156-4.2a27.016,27.016,0,0,1-1.565-8.984c0-5.586,1.694-10.685,4.068-12.343a5.473,5.473,0,0,1,2.741-.717c3.962,0,6.358,4.855,6.485,13.112m-7.354-14.024c-4.522,0-7.908,1-10.793,3.258a13.31,13.31,0,0,0-5.274,10.706,13.015,13.015,0,0,0,4.931,10.312c3.227,2.716,6.913,3.835,12.311,3.835,4.738,0,8.249-.958,10.884-2.883a13.639,13.639,0,0,0,5.185-10.867c0-8.662-6.846-14.361-17.244-14.361m-3.911,1.147a15.994,15.994,0,0,0-3.528,4.62,18.262,18.262,0,0,0-1.846,8.2,19.4,19.4,0,0,0,2.234,9.069,13.472,13.472,0,0,0,2.928,3.729,13.183,13.183,0,0,1-10.907-12.8,13,13,0,0,1,11.119-12.817m8.111-.059h.066c3.42,1.005,3.776,1.217,5.764,3.161a14.855,14.855,0,0,1,3.994,10.036c0,6.25-4.338,12.029-9.792,12.868l-.121.068.089-.114a4.836,4.836,0,0,0,.823-.852,9.822,9.822,0,0,0,1.972-3.356,22.851,22.851,0,0,0,1.28-8.317c0-6.345-1.249-10.623-4.009-13.466Z" transform="translate(120.138 83.979)" fill="#fff"/>
    <path id="Trazado_196" data-name="Trazado 196" d="M226.115,138.62a8.229,8.229,0,0,0-1.431,4.3,5.912,5.912,0,0,0,2.535,4.747c1.586.945,3.966,1.645,7.852,2.29l9.869,1.567c8.667,1.37,12.847,4.675,12.847,10.233,0,3.755-.592,5.135-2.966,6.829a6.225,6.225,0,0,0,.8-3.036c0-2.466-1.9-4.2-5.7-5.381a50.478,50.478,0,0,0-6.638-1.408l-7.71-1.181c-4.923-.774-7.571-1.673-9.938-3.307a8.691,8.691,0,0,1-3.719-7.439,9.486,9.486,0,0,1,4.2-8.217M256.952,135h-.8l-5.857,4.789c-4.577-3.617-9.038-5.33-14.143-5.33-8.878,0-15.334,5.245-15.334,12.413,0,6.43,4.473,10.193,13.85,11.679l9.425,1.433c1.45.244,3.638.731,5.431,1.206a11.692,11.692,0,0,1,2.8,1.166,3.8,3.8,0,0,1,2,3.441c0,3.15-3.129,4.882-8.874,4.882a21.015,21.015,0,0,1-11.834-3.39,32.2,32.2,0,0,1-6.4-5.1,21.027,21.027,0,0,1-4.2-5.643H221.86v14.5h1.157l6.458-5.115.432.329c3.436,2.635,5.4,3.731,8.611,4.691a25.776,25.776,0,0,0,7.026,1c9.277,0,14.946-4.435,14.946-11.777a9.989,9.989,0,0,0-6.761-9.919,44.292,44.292,0,0,0-7.933-2.228l-8.4-1.416c-4.143-.727-6.148-1.217-7.789-1.978a4.055,4.055,0,0,1-2.328-3.506c0-3.278,3.47-5.427,8.734-5.427a22.471,22.471,0,0,1,15.963,7.223,24.062,24.062,0,0,1,3.947,5.336h1.034Zm-2.909,2.966v5.675a37.857,37.857,0,0,0-2.9-3.135Zm-31.215,31.919V161.35a19.8,19.8,0,0,0,2.215,2.68,15.4,15.4,0,0,0,2.315,2.109Z" transform="translate(149.984 79.691)" fill="#fff"/>
    <path id="Trazado_197" data-name="Trazado 197" d="M272.06,140.643v5.181a16.035,16.035,0,0,0-1.9-2.076c-.5-.451-.984-.89-1.492-1.321a14.755,14.755,0,0,0-2.485-1.783Zm2.557-.929H243.981v.929h1.2c1.931,0,2.658.151,3.3.661.676.647.878,1.473.878,3.744v15.743c0,2.209-.2,3.133-.878,3.684-.7.555-1.367.717-3.3.717h-1.2v.9h30.967v-9.678h-.814a29.981,29.981,0,0,1-5.5,5.894,10.341,10.341,0,0,1-5.841,2.72,8.863,8.863,0,0,1-1.857.163h-2.915V152.709h.958a5.691,5.691,0,0,1,3.536,1.087,9.424,9.424,0,0,1,2.133,1.9,6.666,6.666,0,0,1,1.121,1.664h.878V147.174h-.878a11.014,11.014,0,0,1-3.093,3.6,6.634,6.634,0,0,1-3.7.969h-.958v-11.1H261.9a8,8,0,0,1,6.2,2.334,30.731,30.731,0,0,1,5.76,6.29h.765Zm-2.222,25.478h-6.816a11.511,11.511,0,0,0,2.851-1.668,18.563,18.563,0,0,0,1.522-1.215,21.831,21.831,0,0,0,2.444-2.453Zm-7.742-10.564a6.1,6.1,0,0,0-1.444-1.321,7.682,7.682,0,0,0-1.794-1.024,8.6,8.6,0,0,0,1.794-.992,6.159,6.159,0,0,0,1.444-1.363Zm-15.588-13.984H255.2v24.549h-6.139c.945-.892,1.238-1.77,1.238-3.88V144.465c0-2.1-.293-2.977-1.238-3.822" transform="translate(170.665 84.384)" fill="#fff"/>
    <path id="Trazado_198" data-name="Trazado 198" d="M274.015,140.643l18.06,18.126v6.97L269.652,143.3a17.331,17.331,0,0,0-3.352-2.654Zm3.313-.929H263.2v.929h.167a5.615,5.615,0,0,1,1.793.229,9.917,9.917,0,0,1,1.526,1.005,7.876,7.876,0,0,1,1.369,1.037l.814.833v14.306c0,4.594-1.982,7.019-5.936,7.138v.9h12.5v-.9c-3.576-.025-5.448-2.5-5.448-7.138V144.719l22.177,22.245h.8V147.757c0-3.292,1.175-5.643,3.208-6.6a5.767,5.767,0,0,1,2.72-.517v-.929H286.4v.929c3.56.049,5.44,2.495,5.44,7.113v6.46Zm-7.068,25.478h-3.7a6.131,6.131,0,0,0,2.48-3.076,4.576,4.576,0,0,0,1.225,3.076m23.049-24.549a5.606,5.606,0,0,0-1.283,2.894,5.7,5.7,0,0,0-2.375-2.894Z" transform="translate(187.589 84.384)" fill="#fff"/>
    <path id="Trazado_199" data-name="Trazado 199" d="M312.348,140.643v5.181a14.7,14.7,0,0,0-1.921-2.076c-.458-.451-.952-.89-1.474-1.321a15.5,15.5,0,0,0-2.508-1.783Zm2.54-.929H284.267v.929h1.164c1.955,0,2.7.151,3.326.661.651.647.873,1.473.873,3.744v15.743c0,2.209-.221,3.133-.873,3.684-.71.555-1.37.717-3.326.717h-1.164v.9h30.956v-9.678h-.8a28.993,28.993,0,0,1-5.516,5.894,10.266,10.266,0,0,1-5.792,2.72,9.406,9.406,0,0,1-1.912.163H298.3V152.709h.967A5.673,5.673,0,0,1,302.8,153.8a9.371,9.371,0,0,1,2.139,1.9,6.69,6.69,0,0,1,1.109,1.664h.9V147.174h-.9a10.955,10.955,0,0,1-3.1,3.6,6.567,6.567,0,0,1-3.676.969H298.3v-11.1h3.865a8.007,8.007,0,0,1,6.211,2.334,29.942,29.942,0,0,1,5.733,6.29h.774Zm-2.215,25.478h-6.816a11.4,11.4,0,0,0,2.86-1.668c.49-.331.979-.774,1.507-1.215a24.967,24.967,0,0,0,2.449-2.453Zm-7.738-10.564a5.982,5.982,0,0,0-1.478-1.321,6.421,6.421,0,0,0-1.751-1.024,7.766,7.766,0,0,0,1.751-.992,6.033,6.033,0,0,0,1.478-1.363Zm-15.578-13.984h6.154v24.549h-6.154c.962-.892,1.24-1.77,1.24-3.88V144.465c0-2.1-.278-2.977-1.24-3.822" transform="translate(206.635 84.384)" fill="#fff"/>
    <path id="Trazado_200" data-name="Trazado 200" d="M313.814,165.192c.962-.892,1.266-1.77,1.266-3.88V140.643h4.88v21.382a5.969,5.969,0,0,0,.129,1.872,3.119,3.119,0,0,0,.621,1.295Zm20.212-25.478H302.97v11.624h.857a21.96,21.96,0,0,1,1.382-3.212,22.7,22.7,0,0,1,4.56-5.945,5,5,0,0,1,3.737-1.537h.609v20.148c0,2.294-.21,3.133-.89,3.684s-1.357.717-3.318.717h-1.166v.9h19.432v-.9h-1.194c-1.967,0-2.7-.163-3.314-.717-.67-.642-.88-1.475-.88-3.684V140.643h.645a4.613,4.613,0,0,1,2.966.945,22.52,22.52,0,0,1,3.668,3.837,19.436,19.436,0,0,1,3.1,5.913h.859Zm-2.633.929v5.275a19.656,19.656,0,0,0-4.929-5.275Zm-27.566,0h3.844a17.65,17.65,0,0,0-3.844,4.976Z" transform="translate(223.334 84.384)" fill="#fff"/>
    <path id="Trazado_201" data-name="Trazado 201" d="M326.54,140.644h6.911a2.653,2.653,0,0,0-.636,1.308,6.435,6.435,0,0,0-.117,1.865v18.215a6.49,6.49,0,0,0,.117,1.866,2.907,2.907,0,0,0,.636,1.295H326.54c.981-.9,1.293-1.764,1.293-3.88V144.468c0-2.1-.312-2.976-1.293-3.824m14.346,24.549H339.7c-1.967,0-2.677-.163-3.256-.717-.716-.636-.927-1.476-.927-3.685V145.047c0-2.266.212-3.169.927-3.744.636-.539,1.289-.659,3.256-.659h1.183v-.931H321.454v.931h1.2c1.959,0,2.677.15,3.316.659.634.649.878,1.478.878,3.744V160.79c0,2.209-.244,3.133-.878,3.685-.695.555-1.357.717-3.316.717h-1.2v.9h19.432Z" transform="translate(239.838 84.383)" fill="#fff"/>
    <path id="Trazado_202" data-name="Trazado 202" d="M345.132,140.643l18.045,18.126v6.97L340.765,143.3a17.641,17.641,0,0,0-3.333-2.654Zm3.32-.929H334.326v.929h.138a5.7,5.7,0,0,1,1.819.229,11.375,11.375,0,0,1,1.537,1.005,7.177,7.177,0,0,1,1.308,1.037l.844.833v14.306c0,4.594-1.967,7.019-5.921,7.138v.9h12.5v-.9c-3.587-.025-5.453-2.5-5.453-7.138V144.719l22.165,22.245h.8V147.757c0-3.292,1.155-5.643,3.189-6.6a6,6,0,0,1,2.737-.517v-.929H357.509v.929c3.574.049,5.47,2.495,5.47,7.113v6.46Zm-7.077,25.478h-3.7a6.067,6.067,0,0,0,2.449-3.076,4.923,4.923,0,0,0,1.249,3.076m23.055-24.549a5.816,5.816,0,0,0-1.3,2.894,5.559,5.559,0,0,0-2.381-2.894Z" transform="translate(251.086 84.384)" fill="#fff"/>
    <path id="Trazado_203" data-name="Trazado 203" d="M383.476,140.643v5.181a16.888,16.888,0,0,0-1.917-2.076c-.485-.451-.982-.89-1.484-1.321a14.983,14.983,0,0,0-2.5-1.783Zm2.533-.929H355.373v.929h1.189c1.953,0,2.709.151,3.328.661.645.647.865,1.473.865,3.744v15.743c0,2.209-.22,3.133-.865,3.684-.716.555-1.374.717-3.328.717h-1.189v.9h30.981v-9.678h-.82a28.321,28.321,0,0,1-5.495,5.894,10.344,10.344,0,0,1-5.813,2.72,9.142,9.142,0,0,1-1.893.163h-2.909V152.709h.984a5.66,5.66,0,0,1,3.523,1.087,11.042,11.042,0,0,1,2.145,1.9,7.677,7.677,0,0,1,1.092,1.664h.9V147.174h-.9a10.688,10.688,0,0,1-3.1,3.6,6.445,6.445,0,0,1-3.657.969h-.984v-11.1h3.871a7.945,7.945,0,0,1,6.192,2.334,29.305,29.305,0,0,1,5.749,6.29h.774Zm-2.215,25.478h-6.822a11.067,11.067,0,0,0,2.849-1.668,13.166,13.166,0,0,0,1.507-1.215,17.983,17.983,0,0,0,2.466-2.453Zm-7.719-10.564a6.522,6.522,0,0,0-1.475-1.321,7.379,7.379,0,0,0-1.789-1.024,8.14,8.14,0,0,0,1.789-.992,6.576,6.576,0,0,0,1.475-1.363Zm-15.607-13.984h6.154v24.549h-6.154c.986-.892,1.259-1.77,1.259-3.88V144.465c0-2.1-.273-2.977-1.259-3.822" transform="translate(270.123 84.384)" fill="#fff"/>
    <path id="Trazado_204" data-name="Trazado 204" d="M388.392,152.709V140.643h1.984c2.147,0,3.218.273,4.259,1.157a6.4,6.4,0,0,1,1.9,4.954c0,3.981-1.9,5.955-5.83,5.955Zm-14.041-12.995v.929h1.157c1.967,0,2.711.151,3.335.661.644.647.878,1.473.878,3.744v15.743c0,2.209-.235,3.133-.878,3.684-.683.555-1.369.717-3.335.717h-1.157v.9h18.463v-.9h-.221c-1.935,0-2.7-.163-3.269-.717-.712-.642-.931-1.475-.931-3.684v-7.157h1.984l6.413,12.459h11.685v-.9a4.872,4.872,0,0,1-4.893-3.076l-4.231-8.569c4.374-.814,6.627-3.22,6.627-6.981a6.376,6.376,0,0,0-3.763-6,12.048,12.048,0,0,0-4.138-.842c-.651,0-1.726-.009-3.275-.009Zm20.127.929a18.823,18.823,0,0,1,3.347.121,5.832,5.832,0,0,1,1.912.668,5.894,5.894,0,0,1,3.07,5.321,5.964,5.964,0,0,1-3.456,5.448c-.8.437-1.681.882-2.629,1.312l-.509.187,5.711,11.492H397.34l-5.894-11.558c2.423-.278,3.725-.9,4.645-2.08a7.851,7.851,0,0,0,1.427-4.85,6.794,6.794,0,0,0-3.04-6.061m-15.054,0h6.156v21.382a6.965,6.965,0,0,0,.11,1.872,3.246,3.246,0,0,0,.636,1.295h-6.9c.964-.892,1.3-1.77,1.3-3.88V144.465c0-2.1-.337-2.977-1.3-3.822" transform="translate(287.068 84.384)" fill="#fff"/>
  </g>
</svg>
