<?xml version="1.0" encoding="utf-8"?>
<!-- Generator: Adobe Illustrator 23.0.2, SVG Export Plug-In . SVG Version: 6.00 Build 0)  -->
<svg version="1.1" id="Capa_1" xmlns="http://www.w3.org/2000/svg" xmlns:xlink="http://www.w3.org/1999/xlink" x="0px" y="0px"
	 viewBox="0 0 389.8 127.5" style="enable-background:new 0 0 389.8 127.5;" xml:space="preserve">
<style type="text/css">
	.st0{fill:#FFFFFF;}
</style>
<g>
	<path class="st0" d="M34.2,2.4c0.3,1.1,0.4,2.3,0.4,3.4v22.6L10,1.2L9.9,1.1H8.5v32.4c0,1.1-0.2,2.2-0.6,3.4l-0.1,0.3h3.7l-0.1-0.3
		c-0.3-1.1-0.5-2.3-0.5-3.4V11l24.6,27.2l0.1,0.1h1.5V5.8c0-1.2,0.2-2.3,0.5-3.4l0.1-0.3h-3.6L34.2,2.4z"/>
	<path class="st0" d="M51.4,35.1c-0.1-0.6-0.2-1.2-0.2-1.9V13c0-1.3,0.3-2.5,0.7-3.6L52.1,9h-6.5l0.2,0.4c0.5,1.2,0.7,2.4,0.7,3.6
		v20.2c0,1.3-0.2,2.5-0.7,3.7l-0.1,0.3h6.4L52,36.9C51.7,36.3,51.5,35.7,51.4,35.1C51.3,34.5,51.5,35.7,51.4,35.1"/>
	<path class="st0" d="M73.9,34.8c-0.7,0.2-1.4,0.3-2.1,0.3h-7.7V21.8h9.2l0.7-2.1h-9.9v-8.6h7.1c1.4,0,2.8,0.5,4.1,1l0.6,0.2L74.6,9
		h-16l0.1,0.4c0.5,1.2,0.7,2.5,0.7,3.8v20.2c0,1.3-0.2,2.4-0.7,3.6l-0.2,0.3h16.6l1.4-3.3l-0.6,0.2C75.4,34.4,74.7,34.6,73.9,34.8
		C73.3,35.1,74.7,34.6,73.9,34.8"/>
	<path class="st0" d="M80.6,9l-1.4,3.3l0.6-0.2c1.3-0.5,2.6-1,4-1h6v22.1c0,1.3-0.2,2.5-0.7,3.7L89,37.2h6.3l-0.2-0.4
		c-0.5-1.1-0.7-2.2-0.7-3.4V11.1h6c1.4,0,2.7,0.5,4,1l0.6,0.2L103.6,9H80.6z"/>
	<path class="st0" d="M134.3,17c-2.7-5.5-8.8-8.4-14.7-8.2c-6,0.2-11.6,4-13.9,9.6c-1.1,2.8-1.3,6-0.5,8.9c0.8,2.7,2.5,5.2,4.8,6.9
		c5,3.8,11.9,4.3,17.4,1.5c3.2-1.6,5.8-4.3,7.2-7.6C136,24.6,135.9,20.3,134.3,17C133.4,15.2,135.1,18.7,134.3,17 M120.1,35.1
		c-2.9,0-5.5-1.9-7.2-4.1c-1.9-2.3-2.8-5.1-3.1-8.1v-0.7c0-4.8,2.8-9.5,7.7-10.7c1.1-0.3,2.4-0.4,3.6-0.2c1.3,0.2,2.4,0.7,3.5,1.4
		c2.1,1.4,3.8,3.6,4.8,5.9c0.6,1.5,0.9,3.1,1,4.7c0,1.5,0,2.9-0.5,4.4c-0.4,1.4-1.1,2.8-2,3.9C125.9,34,123,35.1,120.1,35.1"/>
	<path class="st0" d="M174.7,19.8c-2.4-1.9-5.3-3.1-8-4.5c-1.3-0.7-2.6-1.4-3.8-2.3c-1.1-0.9-2.3-2-2.9-3.3
		c-1.2-3.1,2.2-5.2,4.8-5.7c3.1-0.6,6.4,0.8,8.9,2.5c0.9,0.6,1.7,1.3,2.5,2l0.5,0.5l-0.6-4.7L176,4.2c-2.9-1.4-6-2.5-9.2-2.7
		c-3.1-0.2-6.4,0.5-9,2.2c-2.5,1.5-4.3,3.8-4.2,6.8c0.1,2.9,2.3,5,4.6,6.5c2.6,1.8,5.6,3,8.3,4.6c2.3,1.3,5.4,3.1,6,5.9
		c0.5,2.9-1.1,5.8-3.7,7c-2.9,1.4-6.2,0.6-8.9-0.8c-2.6-1.3-4.9-3.1-6.9-5.1l-0.5-0.5l0.8,5.7l0.1,0.1c5.4,3.3,12.1,4.9,18.3,2.6
		c2.6-1,5.1-2.8,6.3-5.3s1.2-5.7-0.2-8.1C176.9,21.8,175.9,20.7,174.7,19.8C173.6,18.9,175.9,20.7,174.7,19.8"/>
	<path class="st0" d="M200.6,34.8c-0.7,0.2-1.4,0.3-2.1,0.3h-7.7V21.8h9.2l0.7-2.1h-9.9v-8.6h7.1c1.4,0,2.8,0.5,4.1,1l0.6,0.2
		L201.2,9h-16l0.1,0.4c0.5,1.2,0.7,2.5,0.7,3.8v20.2c0,1.3-0.2,2.4-0.7,3.6l-0.2,0.3h16.6l1.4-3.3l-0.6,0.2
		C202,34.4,201.3,34.6,200.6,34.8C199.9,35.1,201.3,34.6,200.6,34.8"/>
	<path class="st0" d="M229.4,9.3c0.2,0.9,0.3,1.8,0.3,2.7v18L210.1,8.3L210,8.2h-1.2v26c0,0.8-0.1,1.8-0.4,2.7l-0.1,0.3h3.1
		l-0.1-0.3c-0.3-0.9-0.4-1.8-0.4-2.7V16.3L230.5,38l0.1,0.1h1.3V12c0-0.9,0.2-1.8,0.4-2.7l0.1-0.3h-3L229.4,9.3z"/>
	<path class="st0" d="M254.3,34.8c-0.7,0.2-1.4,0.3-2.1,0.3h-7.7V21.8h9.2l0.7-2.1h-9.9v-8.6h7.2c1.4,0,2.8,0.5,4.1,1l0.6,0.2L255,9
		h-16l0.1,0.4c0.5,1.2,0.7,2.5,0.7,3.8v20.2c0,1.3-0.2,2.4-0.7,3.6l-0.1,0.3h16.6L257,34l-0.6,0.2C255.7,34.4,255,34.6,254.3,34.8
		C253.7,35.1,255,34.6,254.3,34.8"/>
	<path class="st0" d="M261,9l-1.4,3.3l0.6-0.2c1.3-0.5,2.6-1,4-1h6v22.1c0,1.3-0.2,2.5-0.7,3.7l-0.1,0.3h6.3l-0.2-0.4
		c-0.5-1.1-0.7-2.2-0.7-3.4V11.1h6c1.4,0,2.7,0.5,4,1l0.6,0.2L284,9H261z"/>
	<path class="st0" d="M295.5,35.1c-0.1-0.6-0.2-1.2-0.2-1.9V13c0-1.3,0.2-2.5,0.7-3.6l0.1-0.4h-6.4l0.2,0.4c0.5,1.2,0.7,2.4,0.7,3.6
		v20.2c0,1.3-0.2,2.5-0.7,3.7l-0.1,0.3h6.5l-0.2-0.3C295.8,36.3,295.6,35.7,295.5,35.1C295.4,34.5,295.6,35.7,295.5,35.1"/>
	<path class="st0" d="M324,9.3c0.2,0.9,0.4,1.8,0.4,2.7v18L304.7,8.3l-0.1-0.1h-1.2v26c0,0.8-0.2,1.8-0.4,2.7l-0.1,0.3h3.1l-0.1-0.3
		c-0.3-0.9-0.4-1.8-0.4-2.7V16.3L325.1,38l0.1,0.1h1.3V12c0-0.9,0.2-1.8,0.4-2.7L327,9h-3V9.3z"/>
	<path class="st0" d="M348.9,34.8c-0.7,0.2-1.4,0.3-2.1,0.3h-7.7V21.8h9.2l0.7-2.1h-9.9v-8.6h7.2c1.4,0,2.8,0.5,4.1,1l0.6,0.2
		L349.6,9h-16l0.2,0.4c0.5,1.2,0.7,2.5,0.7,3.8v20.2c0,1.3-0.2,2.4-0.7,3.6l-0.2,0.3h16.6l1.4-3.3l-0.6,0.2
		C350.3,34.4,349.6,34.6,348.9,34.8C348.3,35.1,349.6,34.6,348.9,34.8"/>
	<path class="st0" d="M381,36.8c-2.4-1.8-4.9-3.7-7.2-5.8c-2.2-2.1-4.2-4.4-6-6.8c2.3-0.3,4.6-1.2,6.1-3s1.8-4.2,1.2-6.4
		c-1.2-5-7-5.9-11.4-5.9h-7.3l0.1,0.4c0.5,1.3,0.7,2.6,0.7,4v19.6c0,1.4-0.2,2.7-0.7,4l-0.1,0.3h6.4l-0.2-0.3
		c-0.5-1.3-0.7-2.6-0.7-4V11.1h0.7c1.8-0.1,3.8,0.1,5.4,1.1c1.5,1,2.3,2.6,2.5,4.4s-0.3,3.6-1.8,4.8s-3.5,1.3-5.2,0.9h-0.1l-0.8,0.5
		l0.1,0.2c3.2,5.2,7.2,9.9,11.6,14.2l0.1,0.1h7.3L381,36.8z"/>
	<g>
		<path class="st0" d="M277.4,91.9c-0.3-6.7,15.6-23,23.3-25.5v-0.1c-0.1-0.2-0.6-0.4-1.5-0.4c-0.7,0-1.3,0.1-1.7,0.4
			c-8,4.4-14.8,12.5-18.5,16.8c-1.9,2.2-2.5,2.9-2.8,2.9h-0.1l-0.1-0.1c-0.1-0.1-0.1-0.3-0.1-0.3c0.8-4.1,0.5-7.1-0.9-8.9
			c-0.8-1-1.9-1.6-3.3-1.7c-0.1,0-0.1,0-0.2,0c0,0.1,0,0.3,0.1,0.5c3.3,1.4,2.7,5.9,2.3,9.8c-0.3,2.4-0.6,4.8,0,6.1
			c0.5,1,1.1,1.5,1.9,1.5c0.5,0,1-0.2,1.2-0.5C277.3,92.3,277.4,92.1,277.4,91.9z"/>
		<path class="st0" d="M305,72.6c0.4-0.8,1.6-1.8,2.8-2.7c1.1-0.9,2.2-1.8,2.6-2.5c0.1-0.2,0.1-0.4,0.1-0.5
			c-0.1-0.1-0.2-0.2-0.5-0.2c-0.1,0-0.2,0-0.3,0c-1.9,0.7-5.3,2.8-6.5,4c-0.1,0.2-0.1,0.4,0.1,0.7C303.5,71.9,304.5,72.5,305,72.6z"
			/>
		<path class="st0" d="M198.7,80.3c-7.3,8.4-11.3,10.2-13.4,10.2c-0.5,0-1-0.1-1.3-0.3c-0.7-0.4-1.1-1-1.3-2
			c-1.5-7,9.6-28.4,11-30.3c0-0.9-1.2-1.6-1.8-2c-0.2-0.1-0.4-0.2-0.5-0.3s-0.3-0.2-0.6-0.2c-0.2,0-0.6,0.1-0.9,0.5
			c0.5,3-7.1,17.3-8.7,19l-0.1,0.2l-0.2-0.1c-1.2-1-2.5-1.5-3.8-1.5c-3,0-6.1,3-8.7,8.5c-0.2,0.4-0.2,0.4-0.3,0.4
			c-0.2,0.1-0.7,0.4-1.2,0.8c-2.5,1.7-5,3.4-6,3.4c-0.1,0-0.2,0-0.3-0.1c-0.1,0-0.2-0.1-0.3-0.3c-0.4-1.3,2.9-7.3,3.5-8.2
			c-0.1-2.1-2.3-2.5-3.1-2.5c-0.4,0-0.6,0.1-0.6,0.1c-0.1,0.1-0.3,0.3-0.7,0.7c-5.2,4.9-7.7,7-8.5,7c-0.1,0-0.2-0.1-0.3-0.1
			c-0.3-0.3,0-1.1,1.5-3.9c0.5-1,1-1.9,1.2-2.4c0.2-0.4,0.1-0.8,0-1.1c-0.2-0.4-0.8-0.6-1.4-0.7c-0.5,0-1-0.5-1.6-0.9
			c-0.6-0.5-1.3-1-1.7-0.9c-0.3,0.3-1.2,1.8-2.2,3.5c-4,6.6-8.1,13.1-10.6,13.1l0,0c-0.4,0-0.8-0.2-1.1-0.5
			c-2.4-3.6,2.4-10.1,4.5-12.9c0.4-0.5,0.7-1,0.8-1.1c0.2-0.4-0.9-1.4-1.7-1.9c-0.4,0.4-1.3,1.2-1.8,1.2c-0.2,0-0.3-0.1-0.4-0.2
			c-1-0.9-2.1-1.4-3.3-1.4c-5.5,0-10.7,9.5-11.1,13.4v0.1c-0.4,0.7-4.1,3.8-6.1,3.8c-0.7,0-1.1-0.3-1.3-0.9
			c-1.3-3.6,6.3-13.5,7.5-14.7c-0.2-0.3-1.2-0.9-2.3-1.4c-0.3,0.4-1.3,1.7-2.2,2c-0.5,0.1-0.9,0.2-1.3,0.2c-1.2,0-2.2-0.5-2.8-0.9
			c-0.3-0.1-0.5-0.3-0.7-0.3c-0.4-0.1-0.5-0.1-0.6,0.6c0,0.2,0,0.3-0.1,0.4v0.1c-6.4,9.8-9.8,11.1-10.3,11.2
			c-0.2,0.2-0.1,0.3-0.1,0.4c0.3,0.8,2.6,1.7,3.4,1.8c0.3-0.1,1.9-1.6,8-11.3l0.3-0.4h0.1c1.8-0.1,2.9,0.1,2.9,0.1l0.3,0.1l-0.2,0.3
			c-2.1,3.3-4.3,9.5-3.2,12.3c0.3,0.7,0.8,1.2,1.5,1.3c0.4,0.1,0.8,0.1,1.1,0.1c2.6,0,4.9-2.1,5.9-3c0.4-0.3,0.5-0.4,0.6-0.4h0.2
			v0.2c0,0.2,1,1.9,3.3,2.3c1.6,0.3,4.1-2.8,5.4-4.4c0.6-0.7,0.9-1.1,1.1-1.2l0.3-0.2v0.4c0.4,4.6,2.1,7.3,4.3,7.3
			c0.7,0,1.4-0.3,2.1-0.8c2.6-1.8,6.6-8.7,8.5-12.1c0.6-1.1,0.9-1.6,1-1.8c0.2-0.2,0.3-0.3,0.5-0.3c0.1,0,0.2,0,0.3,0.2
			c0.2,0.3,0.3,0.9,0.2,1.3c0,0.3-0.3,0.7-0.7,1.5c-1,1.8-2.6,4.7-2.4,7.3c0.1,1.2,1.8,2.2,2.4,2.2c0.1,0,0.1,0,0.1,0
			c0.4-0.4,8.3-8.5,8.4-8.6c0.5-0.5,1-0.7,1.4-0.7c0.9,0,1.1,1,1.2,1v0.1v0.1c0,0-1.7,4.6-0.5,6.9c0.4,0.7,0.9,1.1,1.7,1.2
			c1.2,0.3,3.1-1.6,4.5-2.9c1.2-1.1,1.8-1.7,2.2-1.7c0.2,0,0.3,0.1,0.4,0.2c0.5,1,3,3.1,4.3,3.2c2.9-0.2,5.4-3.6,6.9-5.6
			c0.8-1.1,1.1-1.5,1.5-1.5c0.1,0,0.1,0,0.2,0.1l0.1,0.1v0.1c-0.3,4,0.3,6.9,1.8,8.6c1.2,1.3,2.6,1.4,2.9,1.4l0,0h0.1
			c0.1,0,0.2,0,0.3,0c4.8,0,12.7-9.6,13.9-11.1C199.5,80.3,199.1,80.2,198.7,80.3z M124.8,87.5c-0.2,0-0.4-0.1-0.5-0.2
			s-0.1-0.2-0.2-0.3c-0.2-0.4,0-0.8,0.1-1.1c0.9-2.2,7.1-10.8,10.4-10.8c0.2,0,0.4,0,0.6,0.1l0.1,0.1c0.2,0.2,0.4,0.5,0.2,1
			C134.9,78.2,126.3,87.5,124.8,87.5z M180.5,77.4c-0.6,1.5-7.8,8-9.3,8c-0.2,0-0.4-0.1-0.6-0.2c-0.1-0.1-0.1-0.2-0.2-0.3
			c-0.2-0.4,0-0.7,0.1-1c0.8-1.9,5.7-7.6,8.8-7.6c0.3,0,0.6,0,0.8,0.1l0.1,0.1C180.4,76.5,180.7,76.8,180.5,77.4z"/>
		<path class="st0" d="M322.6,81.5c-0.1-0.1-0.2-0.2-1,0.3c-3,3.3-9.1,8-12.6,8c-0.3,0-0.6,0-0.9-0.1c-0.9-0.3-1.4-0.9-1.7-1.8
			c-0.3-1.2,0.2-2.6,0.6-3.1l0.1-0.1c8.2-2.8,12.6-6.4,12.1-8.2c-0.9-2.6-2.8-4-4.3-4.5c-1.6,0-4.3,1-9.8,9
			c-6.2,8-12.1,10.1-14.6,10.1c-0.1,0-0.2,0-0.4,0c-1.2-0.1-1.7-0.8-1.9-1.4c-0.4-1-0.1-2.2,0.4-2.7l0.1-0.1c8.2-2.8,13.2-9.7,13-11
			c-0.8-2.3-3.6-3.1-4.7-3.1c-0.2,0-0.3,0-0.4,0.1c-3.6,1.5-9.3,8.3-10.5,13.8c-0.3,1.4-0.1,2.7,0.8,3.8c1,1.4,2.7,2.2,3.8,2.3
			c0.1,0,0.2,0,0.3,0c3.8,0,10.1-5.4,11.9-7.4l0.3-0.3l0.1,0.4c0.7,3.3,4.5,6.2,7,6c4-0.2,10.5-7.2,12.4-9.3v-0.1
			C322.7,82.1,322.7,81.6,322.6,81.5z M306.9,82.3c1.3-2.7,6.7-8.1,8.6-8.1c0.2,0,0.4,0.1,0.6,0.2c0.7,0.3,1,1,0.9,1.8
			c-0.6,2.5-7.2,7.1-9.2,7.1c-0.3,0-0.5-0.1-0.7-0.2l-0.4-0.3L306.9,82.3z M289.6,83.3c1.3-2.7,6.7-8.1,8.6-8.1
			c0.2,0,0.4,0.1,0.6,0.2c0.7,0.3,1,1,0.9,1.8c-0.6,2.5-7.2,7.1-9.2,7.1c-0.3,0-0.5-0.1-0.7-0.2l-0.4-0.3L289.6,83.3z"/>
		<path class="st0" d="M95.1,91.5c0.2-1,5.2-15.8,6.4-17.4c7.9-12.9,8.3-15.2,7.9-16.6c0-0.5-3.5-1.5-3.5-1.5
			c-5,0.7-7.4,19.3-10,23.4c-2.7,4.2-13.4,13.2-16.5,6.9C73.8,75,98.8,43.9,110.9,48.2c4.4,1.9,0.2,8.9-0.2,9.2
			c-0.1,0.1-0.6,2.1,2.7,0.7c3-2.1,2.2-7,1.1-8.5c-1-1.5-3.8-3.6-7.2-4c-12.6-1.7-37.2,29-28.8,41.6c4.4,6.5,13.1-1.4,17-5.7
			c-1,2.8-2.2,8.3-3,10.6c-28.4,9.2-33,25.2-26.2,31.8c9.6,9.2,23.2-17.4,28.2-31.3c5.1-1.5,8.8-0.9,10.3-1.1
			c-0.3-0.3-0.9-0.4-1.8-0.6C100,90.6,97.8,91,95.1,91.5z M107.2,58.9c1.6,1.2-7.1,16.2-7.6,15.9C99.6,74.7,105.4,58.5,107.2,58.9z
			 M67,123c-6.7-8,2.8-22.8,25.3-29.9C89.2,103.7,74.9,131.6,67,123z"/>
		<path class="st0" d="M271.6,82.7c-0.3,0-0.6,0.2-0.7,0.2c-0.2,0.2-5.4,5.7-8,6c-0.4,0-0.6-0.1-0.8-0.3c-0.9-1.4,1-6.9,2.6-11
			c0.1-0.4,0.2-0.6,0.2-0.7c0-0.3-1.5-1.5-2.4-1.5c-0.1,0-0.2,0-0.2,0.1c-1,1-2.6,3-4.4,5.1c-3.7,4.3-8,9.2-9.1,8.5
			c-2.8-1.7,5.8-12.9,5.8-12.9s-1.3-3.2-3.8-2c-1.7,1.5-3.3,2.9-4.9,4.1l0,0c-19,16.2-23.9,14.5-25.7,13.7
			c-14.8-5.4,13.3-45.1,29.1-43.4c4.7,0.5-9.5,18.5-18.5,19.1c-0.3,0.6,0.3,1.1,0.3,1.1c8.1,0.1,23.8-17.1,20.5-21
			c0,0-1.6-1.8-5.3-1.8c-5.3-0.1-12.5,3-23.6,17.6c-10.1,14.2-9.3,22.9-6.5,26.9c0,0.1,0.1,0.1,0.1,0.2c0.1,0.1,0.2,0.3,0.3,0.4
			c0.9,1.1,1.8,1.7,2.6,1.9h0.1c0.1,0,0.2,0.1,0.2,0.1c0.1,0,0.2,0,0.2,0c9.1,2.6,27.4-14.5,28.2-14.4l0,0c-4.4,9.4-1.7,12.9,1.8,13
			c2.1,0,7.5-6.1,9.5-8.4l0.1-0.4l0.1-0.1l-0.1,0.7c-0.3,3.1,0,5.1,1,6.3c0.6,0.7,1.4,1.1,2.4,1.1c0.1,0,0.1,0,0.2,0
			c2.8,0,8.6-6.7,8.8-7.4C272.1,82.7,271.7,82.7,271.6,82.7z"/>
	</g>
</g>
</svg>
