<?xml version="1.0" encoding="utf-8"?>
<!-- Generator: Adobe Illustrator 23.0.2, SVG Export Plug-In . SVG Version: 6.00 Build 0)  -->
<svg version="1.1" id="Capa_1" xmlns="http://www.w3.org/2000/svg" xmlns:xlink="http://www.w3.org/1999/xlink" x="0px" y="0px"
	 viewBox="0 0 226 55" style="enable-background:new 0 0 226 55;" xml:space="preserve">
<style type="text/css">
	.st0{enable-background:new    ;}
</style>
<g id="Grupo_328" transform="translate(-988 -2434.077)">
	<path id="Trazado_130" d="M1003.8,2434.8c0.2,0.7,0.3,1.4,0.3,2v13.5l-14.7-16.2l0-0.1h-0.9v19.4c0,0.7-0.1,1.4-0.3,2l-0.1,0.2h2.2
		l-0.1-0.2c-0.2-0.7-0.3-1.3-0.3-2V2440l14.7,16.2l0,0.1h0.9v-19.4c0-0.7,0.1-1.4,0.3-2l0-0.2h-2.1L1003.8,2434.8z M1014.4,2454.4
		c-0.1-0.4-0.1-0.7-0.1-1.1v-12.1c0-0.7,0.1-1.5,0.4-2.2l0.1-0.2h-3.9l0.1,0.2c0.3,0.7,0.4,1.4,0.4,2.2v12.1c0,0.8-0.1,1.5-0.4,2.2
		l-0.1,0.2h3.9l-0.1-0.2C1014.6,2455.1,1014.4,2454.7,1014.4,2454.4L1014.4,2454.4z M1028.2,2454.2L1028.2,2454.2L1028.2,2454.2
		L1028.2,2454.2z M1028.2,2454.2C1028.2,2454.2,1028.2,2454.2,1028.2,2454.2C1027.9,2454.3,1028,2454.3,1028.2,2454.2
		c-0.5,0.1-0.9,0.2-1.3,0.2h-4.6v-8h5.5l0.5-1.2h-5.9v-5.1h4.3c0.8,0.1,1.7,0.3,2.5,0.6l0.3,0.1l-0.9-2h-9.5l0.1,0.2
		c0.3,0.7,0.4,1.5,0.4,2.2v12.1c0,0.7-0.1,1.5-0.4,2.1l-0.1,0.2h9.9l0.9-1.9l-0.3,0.1C1028.9,2454,1028.6,2454.1,1028.2,2454.2z
		 M1032.3,2438.8l-0.9,2l0.3-0.1c0.8-0.3,1.6-0.5,2.4-0.6h3.6v13.2c0,0.8-0.1,1.5-0.4,2.2l-0.1,0.2h3.8l-0.1-0.2
		c-0.3-0.6-0.4-1.3-0.4-2V2440h3.6c0.8,0.1,1.6,0.3,2.4,0.6l0.3,0.1l-0.9-2H1032.3z M1061.4,2454.7c-3.4,1.7-7.4,1.4-10.4-0.9
		c-1.4-1-2.4-2.5-2.9-4.1c-0.5-1.8-0.4-3.6,0.3-5.3c1.4-3.3,4.7-5.6,8.3-5.7c3.6-0.2,7.1,1.7,8.8,4.9c1,2.1,1,4.5,0.2,6.6
		C1064.8,2452.1,1063.3,2453.7,1061.4,2454.7L1061.4,2454.7z M1061.7,2452.3c0.6-0.7,1-1.5,1.2-2.3c0.2-0.9,0.3-1.8,0.3-2.7
		c-0.1-1-0.3-1.9-0.6-2.8c-0.6-1.4-1.6-2.7-2.9-3.5c-0.6-0.4-1.3-0.7-2.1-0.9c-0.7-0.1-1.5,0-2.2,0.1c-2.8,0.8-4.7,3.5-4.6,6.4v0.4
		c0.1,1.8,0.8,3.4,1.9,4.8c1,1.4,2.6,2.3,4.3,2.4C1058.8,2454.4,1060.5,2453.7,1061.7,2452.3L1061.7,2452.3z M1065.5,2443.5
		C1066,2444.6,1065,2442.5,1065.5,2443.5z M1090.1,2452c0.7-1.5,0.7-3.3-0.1-4.8c-0.5-0.7-1.1-1.4-1.7-1.9l0,0l0,0
		c-1.5-1-3.1-1.9-4.8-2.7c-0.8-0.4-1.6-0.9-2.3-1.4c-0.7-0.5-1.3-1.2-1.7-2c-0.7-1.9,1.3-3.1,2.9-3.4c1.9-0.2,3.8,0.3,5.3,1.5
		c0.5,0.4,1,0.8,1.5,1.2l0.3,0.3l-0.3-2.8l-0.1,0c-1.7-0.9-3.6-1.4-5.5-1.6c-1.9-0.1-3.8,0.3-5.4,1.3c-1.5,0.8-2.5,2.4-2.5,4.1
		c0.1,1.7,1.4,3,2.7,3.9c1.6,1.1,3.3,1.8,5,2.7c1.4,0.8,3.2,1.8,3.6,3.5c0.3,1.7-0.6,3.4-2.2,4.2c-1.8,0.7-3.7,0.5-5.3-0.5
		c-1.5-0.8-2.9-1.8-4.1-3l-0.3-0.3l0.5,3.4l0.1,0c3.3,2,7.3,2.9,10.9,1.5C1087.9,2454.7,1089.3,2453.5,1090.1,2452L1090.1,2452z
		 M1088.1,2445.2L1088.1,2445.2C1088,2445.1,1087.9,2445,1088.1,2445.2L1088.1,2445.2z M1088.2,2445.2L1088.2,2445.2l0.1,0.1
		L1088.2,2445.2z M1103.9,2454.2c0.1,0,0.1,0,0.1,0L1103.9,2454.2c-0.4,0.1-0.8,0.2-1.2,0.2h-4.6v-8h5.5l0.4-1.3h-5.9v-5.1h4.3
		c0.8,0.1,1.7,0.3,2.5,0.6l0.3,0.1l-0.9-2h-9.5l0.1,0.2c0.3,0.7,0.4,1.5,0.4,2.3v12.1c0,0.7-0.1,1.5-0.4,2.1l-0.1,0.2h9.9l0.8-2
		l-0.3,0.1C1104.8,2454,1104.4,2454.1,1103.9,2454.2L1103.9,2454.2z M1137.8,2453.8c-0.4,0.1-0.8,0.3-1.3,0.4c0.1,0,0.1,0,0.1,0
		c0,0,0,0-0.1,0c-0.4,0.1-0.8,0.2-1.2,0.2h-4.6v-8h5.5l0.4-1.3h-5.9v-5.1h4.3c0.8,0.1,1.7,0.3,2.5,0.6l0.3,0.1l-0.9-2h-9.6l0.1,0.2
		c0.3,0.7,0.4,1.5,0.4,2.3v12.1c0,0.7-0.1,1.5-0.4,2.1l-0.1,0.2h9.9l0.9-2L1137.8,2453.8z M1110.3,2453.8v-10.7l11.7,13l0,0.1h0.8
		v-15.6c0-0.6,0.1-1.1,0.2-1.6l0-0.2h-1.8l0,0.2c0.1,0.5,0.2,1.1,0.2,1.6v10.7l-11.8-13l-0.1-0.1h-0.7v15.6c0,0.5-0.1,1.1-0.3,1.6
		l-0.1,0.2h1.8l-0.1-0.2C1110.4,2454.9,1110.3,2454.4,1110.3,2453.8L1110.3,2453.8z M1140.8,2438.8l-0.9,2l0.3-0.1
		c0.8-0.3,1.6-0.5,2.4-0.6h3.6v13.2c0,0.8-0.1,1.5-0.4,2.2l-0.1,0.2h3.8l-0.1-0.2c-0.3-0.6-0.4-1.3-0.4-2V2440h3.6
		c0.8,0.1,1.6,0.3,2.4,0.6l0.3,0.1l-0.8-2L1140.8,2438.8z M1161.6,2454.4c-0.1-0.4-0.1-0.7-0.1-1.1v-12.1c0-0.7,0.1-1.5,0.4-2.2
		l0.1-0.2h-3.9l0.1,0.2c0.3,0.7,0.4,1.4,0.4,2.2v12.1c0,0.8-0.1,1.5-0.4,2.2l-0.1,0.2h3.9l-0.1-0.2
		C1161.8,2455.1,1161.7,2454.7,1161.6,2454.4L1161.6,2454.4z M1213.5,2455.4c-1.5-1.1-2.9-2.2-4.3-3.5c-1.3-1.2-2.5-2.6-3.6-4
		c1.4-0.1,2.7-0.8,3.6-1.8c0.9-1.1,1.1-2.5,0.7-3.8c-0.7-3-4.2-3.5-6.8-3.5h-4.4l0.1,0.2c0.3,0.8,0.4,1.6,0.4,2.4v11.7
		c0,0.8-0.1,1.6-0.4,2.4l-0.1,0.2h3.9l-0.1-0.2c-0.3-0.8-0.4-1.6-0.4-2.4v-13l0.4,0c1.1-0.1,2.2,0.1,3.2,0.7
		c0.9,0.6,1.4,1.6,1.5,2.6c0.2,1.1-0.2,2.2-1.1,2.9c-0.9,0.6-2.1,0.8-3.1,0.5l-0.1,0l-0.5,0.3l0.1,0.1c2,3.1,4.3,6,6.9,8.5l0,0h4.4
		L1213.5,2455.4z M1194.1,2454.2c0,0,0.1,0,0.1,0L1194.1,2454.2c-0.4,0.1-0.8,0.2-1.2,0.2h-4.6v-8h5.5l0.4-1.3h-5.9v-5.1h4.3
		c0.8,0.1,1.7,0.3,2.5,0.6l0.3,0.1l-0.9-2h-9.5l0.1,0.2c0.3,0.7,0.4,1.5,0.4,2.3v12.1c0,0.7-0.1,1.5-0.4,2.1l-0.1,0.2h9.9l0.9-2
		l-0.3,0.1C1194.9,2454,1194.5,2454.1,1194.1,2454.2L1194.1,2454.2z M1178.9,2438.9c0.1,0.5,0.2,1.1,0.2,1.6v10.7l-11.8-13l0-0.1
		h-0.7v15.6c0,0.5-0.1,1.1-0.3,1.6l-0.1,0.2h1.8l-0.1-0.2c-0.2-0.5-0.2-1.1-0.2-1.6v-10.7l11.7,13l0,0.1h0.8v-15.6
		c0-0.6,0.1-1.1,0.2-1.6l0-0.2h-1.8L1178.9,2438.9z"/>
	<g class="st0">
		<path d="M1028.8,2469.5c-0.2,0.1-0.3,0.2-0.3,0.3c-0.1,0.2-0.1,0.4-0.1,0.8v6.9c0,0.4,0,0.6,0.1,0.8c0.1,0.2,0.2,0.3,0.3,0.3
			c0.2,0.1,0.4,0.1,0.7,0.1v0.3c-0.4,0-1,0-1.8,0c-0.8,0-1.4,0-1.8,0v-0.3c0.3,0,0.6-0.1,0.7-0.1c0.2-0.1,0.3-0.2,0.3-0.3
			c0.1-0.2,0.1-0.4,0.1-0.8v-7.5l-3.4,9.1h-0.2l-3.5-9.1v7.4c0,0.4,0,0.6,0.1,0.8c0.1,0.2,0.2,0.3,0.4,0.4c0.2,0.1,0.5,0.1,0.8,0.1
			v0.3c-0.3,0-0.8,0-1.4,0c-0.6,0-1,0-1.3,0v-0.3c0.3,0,0.6-0.1,0.7-0.1c0.2-0.1,0.3-0.2,0.3-0.4c0.1-0.2,0.1-0.5,0.1-0.8v-6.8
			c0-0.4,0-0.6-0.1-0.8c-0.1-0.2-0.2-0.3-0.3-0.3c-0.2-0.1-0.4-0.1-0.7-0.1v-0.3c0.3,0,0.7,0,1.3,0c0.5,0,0.9,0,1.2,0l3.1,8.1l3-8.1
			h0.7c0.8,0,1.3,0,1.8,0v0.3C1029.2,2469.4,1029,2469.5,1028.8,2469.5z"/>
		<path d="M1045.7,2469.4c-0.3,0-0.6,0.1-0.7,0.1c-0.2,0.1-0.3,0.2-0.3,0.3s-0.1,0.4-0.1,0.8v6.9c0,0.4,0,0.6,0.1,0.8
			c0.1,0.2,0.2,0.3,0.3,0.3c0.2,0.1,0.4,0.1,0.7,0.1v0.3c-0.4,0-1,0-1.8,0c-0.8,0-1.4,0-1.8,0v-0.3c0.3,0,0.6-0.1,0.7-0.1
			c0.2-0.1,0.3-0.2,0.3-0.3c0.1-0.2,0.1-0.4,0.1-0.8v-6.9c0-0.4,0-0.6-0.1-0.8c-0.1-0.2-0.2-0.3-0.3-0.3c-0.2-0.1-0.4-0.1-0.7-0.1
			v-0.3c0.4,0,1,0,1.8,0c0.7,0,1.3,0,1.8,0V2469.4z"/>
		<path d="M1061.8,2469.4c-0.3,0-0.6,0.1-0.7,0.1c-0.2,0.1-0.3,0.2-0.3,0.3s-0.1,0.4-0.1,0.8v6.9c0,0.4,0,0.6,0.1,0.8
			c0.1,0.2,0.2,0.3,0.3,0.3c0.2,0.1,0.4,0.1,0.7,0.1h1c0.6,0,1-0.1,1.3-0.2s0.5-0.4,0.7-0.8s0.2-0.9,0.3-1.6h0.3c0,0.3,0,0.7,0,1.1
			c0,0.5,0,1.1,0.1,1.8c-0.6,0-1.7,0-3.2,0c-1.8,0-3.1,0-4.1,0v-0.3c0.3,0,0.6-0.1,0.7-0.1c0.2-0.1,0.3-0.2,0.3-0.3
			c0.1-0.2,0.1-0.4,0.1-0.8v-6.9c0-0.4,0-0.6-0.1-0.8c-0.1-0.2-0.2-0.3-0.3-0.3c-0.2-0.1-0.4-0.1-0.7-0.1v-0.3c0.4,0,1,0,1.8,0
			c0.7,0,1.3,0,1.8,0V2469.4z"/>
		<path d="M1081.4,2469.4c-0.3,0-0.6,0.1-0.7,0.1c-0.2,0.1-0.3,0.2-0.3,0.3s-0.1,0.4-0.1,0.8v6.9c0,0.4,0,0.6,0.1,0.8
			c0.1,0.2,0.2,0.3,0.3,0.3c0.2,0.1,0.4,0.1,0.7,0.1h1c0.6,0,1-0.1,1.3-0.2s0.5-0.4,0.7-0.8s0.2-0.9,0.3-1.6h0.3c0,0.3,0,0.7,0,1.1
			c0,0.5,0,1.1,0.1,1.8c-0.6,0-1.7,0-3.2,0c-1.8,0-3.1,0-4.1,0v-0.3c0.3,0,0.6-0.1,0.7-0.1c0.2-0.1,0.3-0.2,0.3-0.3
			c0.1-0.2,0.1-0.4,0.1-0.8v-6.9c0-0.4,0-0.6-0.1-0.8c-0.1-0.2-0.2-0.3-0.3-0.3c-0.2-0.1-0.4-0.1-0.7-0.1v-0.3c0.4,0,1,0,1.8,0
			c0.7,0,1.3,0,1.8,0V2469.4z"/>
		<path d="M1104.7,2479.1c-0.6,0-1.7,0-3.2,0c-1.8,0-3.1,0-4.1,0v-0.3c0.3,0,0.6-0.1,0.7-0.1c0.2-0.1,0.3-0.2,0.3-0.3
			c0.1-0.2,0.1-0.4,0.1-0.8v-6.9c0-0.4,0-0.6-0.1-0.8c-0.1-0.2-0.2-0.3-0.3-0.3c-0.2-0.1-0.4-0.1-0.7-0.1v-0.3c0.9,0,2.3,0,4.1,0
			c1.4,0,2.3,0,2.9,0c-0.1,0.6-0.1,1.2-0.1,1.7c0,0.4,0,0.7,0,0.9h-0.3c-0.1-0.6-0.1-1.1-0.3-1.4c-0.1-0.3-0.3-0.5-0.5-0.6
			c-0.2-0.1-0.6-0.2-1.1-0.2h-1.2c-0.3,0-0.6,0-0.7,0.1c-0.2,0.1-0.3,0.2-0.3,0.3s-0.1,0.4-0.1,0.8v3.3h0.9c0.3,0,0.6-0.1,0.8-0.2
			c0.2-0.2,0.3-0.3,0.4-0.5c0.1-0.2,0.1-0.5,0.1-0.8l0-0.3h0.3c0,0.4,0,0.8,0,1.3v0.7c0,0.5,0,1.1,0.1,2h-0.3c0-0.1,0-0.3-0.1-0.7
			c0-0.4-0.2-0.7-0.4-0.9c-0.2-0.2-0.5-0.3-0.9-0.3h-0.9v3.4c0,0.4,0,0.6,0.1,0.8c0.1,0.2,0.2,0.3,0.3,0.3c0.2,0.1,0.4,0.1,0.7,0.1
			h1c0.6,0,1-0.1,1.3-0.2c0.3-0.2,0.5-0.4,0.7-0.7c0.1-0.3,0.2-0.8,0.3-1.5h0.3c0,0.3,0,0.6,0,1
			C1104.6,2477.8,1104.7,2478.4,1104.7,2479.1z M1103.1,2466c0.2,0,0.3,0.1,0.4,0.2c0.1,0.1,0.1,0.2,0.1,0.3c0,0.2-0.1,0.4-0.4,0.5
			c-0.2,0.1-0.5,0.3-1,0.4c-0.7,0.3-1.3,0.5-1.8,0.8l-0.1-0.2c0.4-0.3,0.7-0.6,1-0.8c0.3-0.2,0.4-0.4,0.5-0.5
			c0.3-0.3,0.6-0.6,0.9-0.7C1102.8,2466,1103,2466,1103.1,2466z"/>
		<path d="M1121.4,2469.1c0.2,0.1,0.5,0.2,0.7,0.4c0.2,0.1,0.4,0.2,0.5,0.2c0.1,0,0.1,0,0.2-0.1s0.1-0.3,0.1-0.5h0.3
			c0,0.5-0.1,1.5-0.1,2.9h-0.3c-0.1-0.8-0.3-1.4-0.7-1.9c-0.4-0.5-0.9-0.8-1.6-0.8c-0.5,0-0.9,0.2-1.2,0.5c-0.3,0.3-0.5,0.7-0.5,1.2
			c0,0.4,0.1,0.7,0.2,0.9c0.2,0.3,0.4,0.5,0.6,0.7c0.3,0.2,0.6,0.4,1.1,0.7l0.4,0.3c0.6,0.4,1.1,0.7,1.4,1c0.3,0.3,0.6,0.6,0.8,0.9
			c0.2,0.4,0.3,0.8,0.3,1.2c0,0.8-0.3,1.5-0.8,2c-0.6,0.5-1.3,0.7-2.1,0.7c-0.4,0-0.8,0-1.1-0.1s-0.6-0.2-0.8-0.4
			c-0.2-0.1-0.4-0.2-0.5-0.2c-0.1,0-0.1,0-0.2,0.1s-0.1,0.3-0.1,0.5h-0.3c0-0.5,0.1-1.6,0.1-3.4h0.3c0.1,0.9,0.3,1.7,0.7,2.3
			s1,0.9,1.8,0.9c0.5,0,0.9-0.2,1.3-0.5s0.5-0.8,0.5-1.4c0-0.5-0.2-1-0.5-1.3c-0.3-0.4-0.9-0.8-1.7-1.2c-0.6-0.3-1-0.6-1.3-0.9
			c-0.3-0.3-0.6-0.6-0.8-0.9c-0.2-0.4-0.3-0.8-0.3-1.3c0-0.8,0.3-1.4,0.8-1.8c0.5-0.4,1.1-0.6,1.9-0.6
			C1120.8,2469,1121.1,2469,1121.4,2469.1z"/>
		<path d="M1139.9,2469.4c-0.3,0-0.6,0.1-0.7,0.1c-0.2,0.1-0.3,0.2-0.3,0.3c-0.1,0.2-0.1,0.4-0.1,0.8v6.9c0,0.4,0,0.6,0.1,0.8
			c0.1,0.2,0.2,0.3,0.3,0.3c0.2,0.1,0.4,0.1,0.7,0.1v0.3c-0.4,0-1,0-1.8,0c-0.8,0-1.4,0-1.8,0v-0.3c0.3,0,0.6-0.1,0.7-0.1
			c0.2-0.1,0.3-0.2,0.3-0.3c0.1-0.2,0.1-0.4,0.1-0.8v-6.9c0-0.4,0-0.6-0.1-0.8c-0.1-0.2-0.2-0.3-0.3-0.3s-0.4-0.1-0.7-0.1v-0.3
			c0.4,0,1,0,1.8,0c0.7,0,1.3,0,1.8,0V2469.4z"/>
		<path d="M1162.7,2469.5c-0.2,0.1-0.3,0.2-0.3,0.3c-0.1,0.2-0.1,0.4-0.1,0.8v6.9c0,0.4,0,0.6,0.1,0.8c0.1,0.2,0.2,0.3,0.3,0.3
			c0.2,0.1,0.4,0.1,0.7,0.1v0.3c-0.4,0-1,0-1.8,0c-0.8,0-1.4,0-1.8,0v-0.3c0.3,0,0.6-0.1,0.7-0.1c0.2-0.1,0.3-0.2,0.3-0.3
			c0.1-0.2,0.1-0.4,0.1-0.8v-7.5l-3.4,9.1h-0.2l-3.5-9.1v7.4c0,0.4,0,0.6,0.1,0.8c0.1,0.2,0.2,0.3,0.4,0.4c0.2,0.1,0.5,0.1,0.8,0.1
			v0.3c-0.3,0-0.8,0-1.4,0c-0.6,0-1,0-1.3,0v-0.3c0.3,0,0.6-0.1,0.7-0.1c0.2-0.1,0.3-0.2,0.3-0.4c0.1-0.2,0.1-0.5,0.1-0.8v-6.8
			c0-0.4,0-0.6-0.1-0.8c-0.1-0.2-0.2-0.3-0.3-0.3s-0.4-0.1-0.7-0.1v-0.3c0.3,0,0.7,0,1.3,0c0.5,0,0.9,0,1.2,0l3.1,8.1l3-8.1h0.7
			c0.8,0,1.3,0,1.8,0v0.3C1163.1,2469.4,1162.9,2469.5,1162.7,2469.5z"/>
		<path d="M1183.3,2479.1c-0.6,0-1.7,0-3.2,0c-1.8,0-3.1,0-4.1,0v-0.3c0.3,0,0.6-0.1,0.7-0.1c0.2-0.1,0.3-0.2,0.3-0.3
			c0.1-0.2,0.1-0.4,0.1-0.8v-6.9c0-0.4,0-0.6-0.1-0.8s-0.2-0.3-0.3-0.3c-0.2-0.1-0.4-0.1-0.7-0.1v-0.3c0.9,0,2.3,0,4.1,0
			c1.4,0,2.3,0,2.9,0c-0.1,0.6-0.1,1.2-0.1,1.7c0,0.4,0,0.7,0,0.9h-0.3c-0.1-0.6-0.1-1.1-0.3-1.4c-0.1-0.3-0.3-0.5-0.5-0.6
			c-0.2-0.1-0.6-0.2-1.1-0.2h-1.2c-0.3,0-0.6,0-0.7,0.1c-0.2,0.1-0.3,0.2-0.3,0.3c-0.1,0.2-0.1,0.4-0.1,0.8v3.3h0.9
			c0.3,0,0.6-0.1,0.8-0.2c0.2-0.2,0.3-0.3,0.4-0.5c0.1-0.2,0.1-0.5,0.1-0.8l0-0.3h0.3c0,0.4,0,0.8,0,1.3v0.7c0,0.5,0,1.1,0.1,2h-0.3
			c0-0.1,0-0.3-0.1-0.7c0-0.4-0.2-0.7-0.4-0.9c-0.2-0.2-0.5-0.3-0.9-0.3h-0.9v3.4c0,0.4,0,0.6,0.1,0.8c0.1,0.2,0.2,0.3,0.3,0.3
			s0.4,0.1,0.7,0.1h1c0.6,0,1-0.1,1.3-0.2c0.3-0.2,0.5-0.4,0.7-0.7c0.1-0.3,0.2-0.8,0.3-1.5h0.3c0,0.3,0,0.6,0,1
			C1183.2,2477.8,1183.2,2478.4,1183.3,2479.1z"/>
	</g>
</g>
</svg>
