<?xml version="1.0" encoding="utf-8"?>
<!-- Generator: Adobe Illustrator 23.0.2, SVG Export Plug-In . SVG Version: 6.00 Build 0)  -->
<svg version="1.1" id="Capa_1" xmlns="http://www.w3.org/2000/svg" xmlns:xlink="http://www.w3.org/1999/xlink" x="0px" y="0px"
	 viewBox="0 0 150.1 37.7" style="enable-background:new 0 0 150.1 37.7;" xml:space="preserve">
<style type="text/css">
	.st0{enable-background:new    ;}
</style>
<g id="Grupo_318" transform="translate(0 -0.292)">
	<path id="Trazado_130" d="M10.5,3.8c0.1,0.4,0.2,0.9,0.2,1.4v9L0.9,3.3l0,0H0.3v12.9c0,0.5-0.1,0.9-0.2,1.3l0,0.1h1.5l0-0.1
		c-0.1-0.4-0.2-0.9-0.2-1.3v-9L11,18l0,0h0.6V5.1c0-0.5,0.1-0.9,0.2-1.4l0-0.1h-1.4L10.5,3.8z M17.5,16.8c0-0.2-0.1-0.5-0.1-0.7V8
		c0-0.5,0.1-1,0.3-1.5l0.1-0.1h-2.6l0.1,0.1c0.2,0.5,0.3,1,0.3,1.4v8c0,0.5-0.1,1-0.3,1.5l-0.1,0.1h2.6l-0.1-0.1
		C17.7,17.3,17.6,17,17.5,16.8L17.5,16.8z M26.7,16.7L26.7,16.7L26.7,16.7L26.7,16.7z M26.7,16.7C26.7,16.7,26.8,16.7,26.7,16.7
		C26.5,16.7,26.6,16.7,26.7,16.7c-0.3,0.1-0.6,0.1-0.9,0.1h-3v-5.3h3.6l0.3-0.8h-3.9V7.3h2.8c0.6,0,1.1,0.2,1.6,0.4l0.2,0.1
		l-0.6-1.3h-6.3l0.1,0.1c0.2,0.5,0.3,1,0.3,1.5v8c0,0.5-0.1,1-0.3,1.4l-0.1,0.1h6.6l0.6-1.3l-0.2,0.1C27.2,16.5,27,16.6,26.7,16.7
		L26.7,16.7z M29.5,6.4l-0.6,1.3l0.2-0.1c0.5-0.2,1-0.4,1.6-0.4h2.4V16c0,0.5-0.1,1-0.3,1.5l-0.1,0.1h2.5l-0.1-0.1
		c-0.2-0.4-0.3-0.9-0.3-1.3V7.3h2.4c0.6,0,1.1,0.2,1.6,0.4l0.2,0.1l-0.6-1.3L29.5,6.4z M48.8,17c-2.2,1.1-4.9,0.9-6.9-0.6
		c-0.9-0.7-1.6-1.6-1.9-2.7c-0.3-1.2-0.3-2.4,0.2-3.6c1-2.2,3.1-3.7,5.5-3.8c2.4-0.2,4.7,1.1,5.9,3.2c0.6,1.4,0.7,3,0.1,4.4
		C51.1,15.3,50.1,16.4,48.8,17L48.8,17z M49,15.4c0.4-0.5,0.6-1,0.8-1.5c0.1-0.6,0.2-1.2,0.2-1.8c-0.1-0.6-0.2-1.3-0.4-1.9
		c-0.4-0.9-1.1-1.8-1.9-2.4c-0.4-0.3-0.9-0.5-1.4-0.6c-0.5-0.1-1,0-1.4,0.1c-1.9,0.5-3.1,2.3-3,4.3V12c0.1,1.2,0.5,2.3,1.2,3.2
		c0.7,0.9,1.7,1.5,2.9,1.6C47.1,16.8,48.2,16.3,49,15.4L49,15.4z M51.5,9.6C51.9,10.3,51.2,8.9,51.5,9.6z M67.9,15.2
		c0.5-1,0.5-2.2-0.1-3.2c-0.3-0.5-0.7-0.9-1.2-1.3l0,0l0,0c-1-0.7-2.1-1.3-3.2-1.8c-0.5-0.3-1-0.6-1.5-0.9c-0.5-0.3-0.9-0.8-1.1-1.3
		c-0.5-1.3,0.9-2.1,1.9-2.3c1.3-0.1,2.5,0.2,3.5,1c0.3,0.2,0.7,0.5,1,0.8l0.2,0.2l-0.2-1.9l0,0c-1.1-0.6-2.4-0.9-3.7-1.1
		c-1.3-0.1-2.5,0.2-3.6,0.9c-1,0.5-1.6,1.6-1.7,2.7c0.2,1.1,0.8,2.1,1.8,2.6c1,0.7,2.2,1.2,3.3,1.8c0.9,0.5,2.2,1.2,2.4,2.4
		c0.2,1.2-0.4,2.3-1.5,2.8c-1.2,0.5-2.5,0.3-3.6-0.3c-1-0.5-2-1.2-2.8-2L57.7,14l0.3,2.3l0,0c2.1,1.4,4.8,1.8,7.3,1
		C66.4,17,67.3,16.2,67.9,15.2L67.9,15.2z M66.6,10.7L66.6,10.7C66.5,10.6,66.4,10.5,66.6,10.7L66.6,10.7z M66.6,10.7L66.6,10.7
		L66.6,10.7L66.6,10.7z M77.1,16.7C77.1,16.7,77.1,16.7,77.1,16.7L77.1,16.7c-0.3,0.1-0.5,0.1-0.8,0.1h-3v-5.3h3.7l0.3-0.8h-3.9V7.3
		H76c0.6,0,1.1,0.2,1.6,0.4l0.2,0.1l-0.6-1.3H71L71,6.6c0.2,0.5,0.3,1,0.3,1.5v8c0,0.5-0.1,1-0.3,1.4L71,17.6h6.6l0.6-1.3l-0.2,0.1
		C77.6,16.5,77.4,16.6,77.1,16.7L77.1,16.7z M99.6,16.4c-0.3,0.1-0.6,0.2-0.8,0.3c0,0,0.1,0,0.1,0s0,0-0.1,0
		c-0.3,0.1-0.5,0.1-0.8,0.1h-3v-5.3h3.7l0.3-0.8h-3.9V7.3h2.8c0.6,0,1.1,0.2,1.6,0.4l0.2,0.1L99,6.4h-6.3l0.1,0.1
		C92.9,7,93,7.5,93,8.1v8c0,0.5-0.1,1-0.3,1.4l-0.1,0.1h6.6l0.6-1.3L99.6,16.4z M81.3,16.4V9.3l7.8,8.6l0,0h0.5V7.6
		c0-0.4,0.1-0.7,0.2-1.1l0-0.1h-1.2l0,0.1c0.1,0.4,0.1,0.7,0.1,1.1v7.1L81,6.1l0,0h-0.5v10.3c0,0.4-0.1,0.7-0.2,1.1l0,0.1h1.2l0-0.1
		C81.4,17.2,81.3,16.8,81.3,16.4L81.3,16.4z M101.6,6.4L101,7.7l0.2-0.1c0.5-0.2,1-0.4,1.6-0.4h2.4V16c0,0.5-0.1,1-0.3,1.5l-0.1,0.1
		h2.5l-0.1-0.1c-0.2-0.4-0.3-0.9-0.3-1.3V7.3h2.4c0.6,0,1.1,0.2,1.6,0.4l0.2,0.1l-0.6-1.3L101.6,6.4z M115.4,16.8
		c0-0.2-0.1-0.5-0.1-0.7V8c0-0.5,0.1-1,0.3-1.5l0.1-0.1h-2.6l0.1,0.1c0.2,0.5,0.3,1,0.3,1.5v8c0,0.5-0.1,1-0.3,1.5l-0.1,0.1h2.6
		l-0.1-0.1C115.5,17.3,115.5,17,115.4,16.8L115.4,16.8z M149.9,17.5c-1-0.7-1.9-1.5-2.9-2.3c-0.9-0.8-1.7-1.7-2.4-2.7
		c0.9-0.1,1.8-0.5,2.4-1.2c0.6-0.7,0.7-1.7,0.5-2.5c-0.5-2-2.8-2.4-4.5-2.4h-2.9l0.1,0.1c0.2,0.5,0.3,1,0.3,1.6v7.8
		c0,0.5-0.1,1.1-0.3,1.6l-0.1,0.1h2.6l-0.1-0.1c-0.2-0.5-0.3-1-0.3-1.6V7.2l0.3,0c0.7-0.1,1.5,0.1,2.1,0.4c0.6,0.4,0.9,1,1,1.7
		c0.1,0.7-0.2,1.4-0.7,1.9c-0.6,0.4-1.4,0.5-2.1,0.3h0l-0.3,0.2l0.1,0.1c1.3,2.1,2.8,4,4.6,5.6l0,0h2.9L149.9,17.5z M137,16.7
		C137,16.7,137,16.7,137,16.7L137,16.7c-0.3,0.1-0.5,0.1-0.8,0.1h-3v-5.3h3.7l0.3-0.8h-4V7.3h2.8c0.6,0,1.1,0.2,1.6,0.4l0.2,0.1
		l-0.6-1.3h-6.3l0.1,0.1c0.2,0.5,0.3,1,0.3,1.5v8c0,0.5-0.1,1-0.3,1.4l-0.1,0.1h6.6l0.6-1.3l-0.2,0.1
		C137.6,16.5,137.3,16.6,137,16.7L137,16.7z M126.9,6.5c0.1,0.4,0.1,0.7,0.1,1.1v7.1l-7.8-8.6l0,0h-0.5v10.3c0,0.4-0.1,0.7-0.2,1.1
		l0,0.1h1.2l0-0.1c-0.1-0.3-0.2-0.7-0.2-1.1V9.3l7.8,8.6l0,0h0.5V7.6c0-0.4,0.1-0.7,0.2-1.1l0-0.1h-1.2L126.9,6.5z"/>
	<g class="st0">
		<path d="M47,33.8c-0.2,0.1-0.5,0.1-0.8,0.1c-0.4,0-0.7-0.1-1-0.3c-0.2-0.2-0.4-0.5-0.5-0.9l-0.2-1.1c-0.1-0.4-0.1-0.6-0.2-0.8
			s-0.2-0.4-0.3-0.5c-0.1-0.1-0.3-0.2-0.5-0.2h-0.7v2.5c0,0.3,0,0.5,0.1,0.6c0,0.1,0.1,0.2,0.2,0.3c0.1,0,0.3,0.1,0.5,0.1v0.2
			c-0.4,0-0.9,0-1.6,0c-0.8,0-1.3,0-1.7,0v-0.2c0.2,0,0.4,0,0.5-0.1c0.1,0,0.2-0.1,0.2-0.3c0-0.1,0.1-0.3,0.1-0.6v-5.4
			c0-0.3,0-0.5-0.1-0.6c0-0.1-0.1-0.2-0.2-0.3c-0.1,0-0.3-0.1-0.5-0.1v-0.2c0.4,0,0.9,0,1.6,0c0.1,0,0.5,0,1.2,0l0.5,0
			c1,0,1.7,0.2,2.2,0.5c0.5,0.3,0.8,0.8,0.8,1.4c0,0.3-0.1,0.6-0.2,0.9s-0.4,0.5-0.8,0.8c-0.4,0.2-0.8,0.4-1.4,0.4h0
			c0.4,0,0.8,0.1,1.1,0.2c0.3,0.1,0.5,0.3,0.7,0.5c0.2,0.2,0.3,0.4,0.3,0.7l0.2,1.1c0.1,0.3,0.1,0.5,0.2,0.6
			c0.1,0.1,0.2,0.2,0.3,0.2c0.1,0,0.2,0,0.2-0.1c0.1,0,0.1-0.1,0.2-0.2l0.1,0.1C47.4,33.6,47.2,33.7,47,33.8z M43.1,26.4
			c-0.1,0.1-0.2,0.1-0.2,0.3c0,0.1-0.1,0.3-0.1,0.6V30h0.5c0.4,0,0.7-0.1,0.9-0.2c0.2-0.2,0.4-0.4,0.5-0.6c0.1-0.3,0.1-0.6,0.1-0.9
			c0-0.6-0.1-1-0.3-1.3c-0.2-0.3-0.6-0.5-1-0.5C43.3,26.4,43.2,26.4,43.1,26.4z"/>
		<path d="M57.6,33.8c-0.5,0-1.3,0-2.5,0c-1.6,0-2.7,0-3.5,0v-0.2c0.2,0,0.4,0,0.5-0.1c0.1,0,0.2-0.1,0.2-0.3c0-0.1,0.1-0.3,0.1-0.6
			v-5.4c0-0.3,0-0.5-0.1-0.6c0-0.1-0.1-0.2-0.2-0.3c-0.1,0-0.3-0.1-0.5-0.1v-0.2c0.8,0,2,0,3.5,0c1.1,0,1.8,0,2.3,0
			c0,0.6-0.1,1.1-0.1,1.6c0,0.3,0,0.6,0,0.7h-0.2c-0.1-0.5-0.2-0.9-0.3-1.2c-0.2-0.3-0.3-0.5-0.6-0.7c-0.2-0.1-0.5-0.2-0.9-0.2h-0.4
			c-0.2,0-0.4,0-0.5,0.1c-0.1,0-0.2,0.1-0.2,0.2c0,0.1-0.1,0.3-0.1,0.5v2.7h0.3c0.4,0,0.7-0.1,0.9-0.4c0.2-0.3,0.3-0.6,0.4-1H56
			c0,0.4,0,0.7,0,1l0,0.5c0,0.4,0,0.9,0.1,1.5h-0.2c-0.1-1-0.6-1.4-1.3-1.4h-0.3v2.7c0,0.2,0,0.4,0.1,0.5c0,0.1,0.1,0.2,0.2,0.2
			c0.1,0,0.3,0.1,0.5,0.1h0.5c0.3,0,0.6-0.1,0.9-0.2c0.2-0.1,0.5-0.4,0.6-0.7c0.2-0.3,0.3-0.8,0.4-1.4h0.2c0,0.2,0,0.5,0,0.9
			C57.5,32.8,57.5,33.3,57.6,33.8z"/>
		<path d="M65.9,26.1c0.2,0.1,0.5,0.2,0.7,0.3c0.2,0.1,0.3,0.2,0.4,0.2c0.1,0,0.1,0,0.2-0.1c0-0.1,0.1-0.2,0.1-0.4h0.2
			c0,0.4-0.1,1.3-0.1,2.5h-0.2c0-0.4-0.1-0.8-0.3-1.1c-0.1-0.4-0.4-0.6-0.6-0.9c-0.3-0.2-0.6-0.3-1-0.3c-0.2,0-0.4,0-0.6,0.1
			c-0.2,0.1-0.3,0.2-0.4,0.4c-0.1,0.2-0.2,0.4-0.2,0.6c0,0.3,0.1,0.5,0.2,0.7c0.1,0.2,0.3,0.4,0.5,0.5c0.2,0.2,0.5,0.4,0.9,0.7
			c0.1,0.1,0.2,0.1,0.3,0.2c0.4,0.3,0.8,0.5,1,0.7c0.2,0.2,0.4,0.5,0.6,0.7c0.2,0.3,0.2,0.6,0.2,1c0,0.5-0.1,0.8-0.4,1.2
			c-0.2,0.3-0.6,0.6-1,0.7S65.6,34,65.1,34c-0.4,0-0.7,0-1-0.1c-0.3-0.1-0.5-0.2-0.7-0.3c-0.2-0.1-0.3-0.2-0.4-0.2
			c-0.1,0-0.1,0-0.2,0.1s-0.1,0.2-0.1,0.4h-0.2c0-0.5,0-1.4,0-2.9h0.2c0,0.8,0.2,1.5,0.5,2c0.3,0.5,0.8,0.8,1.4,0.8
			c0.3,0,0.5,0,0.7-0.1c0.2-0.1,0.4-0.2,0.5-0.4c0.1-0.2,0.2-0.4,0.2-0.7c0-0.3-0.1-0.5-0.2-0.8c-0.1-0.2-0.3-0.4-0.5-0.6
			c-0.2-0.2-0.5-0.4-0.9-0.6c-0.4-0.3-0.8-0.5-1-0.7c-0.3-0.2-0.5-0.5-0.6-0.7c-0.2-0.3-0.3-0.6-0.3-1c0-0.4,0.1-0.8,0.3-1.1
			s0.5-0.5,0.9-0.7c0.4-0.1,0.8-0.2,1.2-0.2C65.3,26,65.6,26.1,65.9,26.1z"/>
		<path d="M78.4,33.8c-0.5,0-1.3,0-2.5,0c-1.6,0-2.7,0-3.5,0v-0.2c0.2,0,0.4,0,0.5-0.1c0.1,0,0.2-0.1,0.2-0.3c0-0.1,0.1-0.3,0.1-0.6
			v-5.4c0-0.3,0-0.5-0.1-0.6c0-0.1-0.1-0.2-0.2-0.3c-0.1,0-0.3-0.1-0.5-0.1v-0.2c0.8,0,2,0,3.5,0c1.1,0,1.8,0,2.3,0
			c0,0.6-0.1,1.1-0.1,1.6c0,0.3,0,0.6,0,0.7h-0.2c-0.1-0.5-0.2-0.9-0.3-1.2c-0.2-0.3-0.3-0.5-0.6-0.7c-0.2-0.1-0.5-0.2-0.9-0.2h-0.4
			c-0.2,0-0.4,0-0.5,0.1c-0.1,0-0.2,0.1-0.2,0.2c0,0.1-0.1,0.3-0.1,0.5v2.7h0.3c0.4,0,0.7-0.1,0.9-0.4c0.2-0.3,0.3-0.6,0.4-1h0.2
			c0,0.4,0,0.7,0,1l0,0.5c0,0.4,0,0.9,0.1,1.5h-0.2c-0.1-1-0.6-1.4-1.3-1.4h-0.3v2.7c0,0.2,0,0.4,0.1,0.5c0,0.1,0.1,0.2,0.2,0.2
			c0.1,0,0.3,0.1,0.5,0.1h0.5c0.3,0,0.6-0.1,0.9-0.2c0.2-0.1,0.5-0.4,0.6-0.7c0.2-0.3,0.3-0.8,0.4-1.4h0.2c0,0.2,0,0.5,0,0.9
			C78.3,32.8,78.3,33.3,78.4,33.8z"/>
		<path d="M89.7,33.8c-0.2,0.1-0.5,0.1-0.8,0.1c-0.4,0-0.7-0.1-1-0.3c-0.2-0.2-0.4-0.5-0.5-0.9l-0.2-1.1c-0.1-0.4-0.1-0.6-0.2-0.8
			c-0.1-0.2-0.2-0.4-0.3-0.5c-0.1-0.1-0.3-0.2-0.5-0.2h-0.7v2.5c0,0.3,0,0.5,0.1,0.6c0,0.1,0.1,0.2,0.2,0.3c0.1,0,0.3,0.1,0.5,0.1
			v0.2c-0.4,0-0.9,0-1.6,0c-0.8,0-1.3,0-1.7,0v-0.2c0.2,0,0.4,0,0.5-0.1c0.1,0,0.2-0.1,0.2-0.3c0-0.1,0.1-0.3,0.1-0.6v-5.4
			c0-0.3,0-0.5-0.1-0.6c0-0.1-0.1-0.2-0.2-0.3c-0.1,0-0.3-0.1-0.5-0.1v-0.2c0.4,0,0.9,0,1.6,0c0.1,0,0.5,0,1.2,0l0.5,0
			c1,0,1.7,0.2,2.2,0.5c0.5,0.3,0.8,0.8,0.8,1.4c0,0.3-0.1,0.6-0.2,0.9c-0.2,0.3-0.4,0.5-0.8,0.8c-0.4,0.2-0.8,0.4-1.4,0.4h0
			c0.4,0,0.8,0.1,1.1,0.2c0.3,0.1,0.5,0.3,0.7,0.5c0.2,0.2,0.3,0.4,0.3,0.7l0.2,1.1c0.1,0.3,0.1,0.5,0.2,0.6
			c0.1,0.1,0.2,0.2,0.3,0.2c0.1,0,0.2,0,0.2-0.1c0.1,0,0.1-0.1,0.2-0.2l0.1,0.1C90.2,33.6,90,33.7,89.7,33.8z M85.8,26.4
			c-0.1,0.1-0.2,0.1-0.2,0.3c0,0.1-0.1,0.3-0.1,0.6V30H86c0.4,0,0.7-0.1,0.9-0.2c0.2-0.2,0.4-0.4,0.5-0.6c0.1-0.3,0.1-0.6,0.1-0.9
			c0-0.6-0.1-1-0.3-1.3c-0.2-0.3-0.6-0.5-1-0.5C86,26.4,85.9,26.4,85.8,26.4z"/>
		<path d="M101.1,26.2v0.2c-0.2,0.1-0.4,0.2-0.5,0.4c-0.2,0.2-0.3,0.5-0.5,0.9l-2.3,6.2c-0.2,0-0.3,0-0.4,0c-0.1,0-0.2,0-0.4,0
			l-2.8-6.8c-0.2-0.4-0.4-0.7-0.7-0.7v-0.2c0.4,0,1,0,1.6,0c0.7,0,1.3,0,1.6,0v0.2c-0.3,0-0.5,0-0.6,0.1c-0.1,0.1-0.2,0.2-0.2,0.3
			c0,0.1,0,0.3,0.1,0.5l1.9,4.8l1.3-3.6c0.2-0.5,0.3-1,0.3-1.3c0-0.3-0.1-0.5-0.2-0.6c-0.2-0.1-0.4-0.2-0.7-0.2v-0.2
			c0.5,0,0.9,0,1.3,0C100.6,26.2,100.8,26.2,101.1,26.2z"/>
		<path d="M110.9,33.4c0.1,0.1,0.2,0.2,0.4,0.2v0.2c-0.4,0-1,0-1.6,0c-0.7,0-1.3,0-1.6,0v-0.2c0.3,0,0.5,0,0.6-0.1
			c0.1-0.1,0.2-0.2,0.2-0.3c0-0.1,0-0.3-0.1-0.5l-0.7-1.8h-2.4l-0.3,0.8c-0.2,0.5-0.3,0.9-0.3,1.2c0,0.3,0.1,0.5,0.2,0.6
			c0.2,0.1,0.4,0.2,0.7,0.2v0.2c-0.5,0-0.9,0-1.3,0c-0.3,0-0.6,0-0.8,0v-0.2c0.4-0.1,0.7-0.4,0.9-1.1l2.5-6.3c0.1,0,0.2,0,0.4,0
			c0.1,0,0.3,0,0.4,0l2.6,6.8C110.7,33.1,110.8,33.3,110.9,33.4z M106.8,27.8l-1.1,2.9h2.2L106.8,27.8z"/>
	</g>
</g>
</svg>
