<?xml version="1.0" encoding="utf-8"?>
<!-- Generator: Adobe Illustrator 23.0.2, SVG Export Plug-In . SVG Version: 6.00 Build 0)  -->
<svg version="1.1" id="Capa_1" xmlns="http://www.w3.org/2000/svg" xmlns:xlink="http://www.w3.org/1999/xlink" x="0px" y="0px"
	 viewBox="0 0 179 17.6" style="enable-background:new 0 0 179 17.6;" xml:space="preserve">
<style type="text/css">
	.st0{fill:#FFFFFF;}
</style>
<path id="Trazado_82" class="st0" d="M12.5,0.6c0.1,0.5,0.2,1.1,0.2,1.6v10.7L1,0l0,0H0.3v15.4c0,0.5-0.1,1.1-0.3,1.6l0,0.2h1.7
	l0-0.2c-0.2-0.5-0.2-1.1-0.2-1.6V4.7l11.7,12.9l0,0h0.7V2.2c0-0.5,0.1-1.1,0.2-1.6l0-0.1h-1.7L12.5,0.6z M20.9,16.1
	c-0.1-0.3-0.1-0.6-0.1-0.9V5.6c0-0.6,0.1-1.2,0.3-1.7l0.1-0.2h-3.1l0.1,0.2c0.2,0.5,0.3,1.1,0.3,1.7v9.6c0,0.6-0.1,1.2-0.3,1.7
	l-0.1,0.2h3.1l-0.1-0.2C21.1,16.7,21,16.4,20.9,16.1L20.9,16.1z M31.8,16L31.8,16L31.8,16L31.8,16z M31.8,16
	C31.9,15.9,31.9,15.9,31.8,16C31.6,16,31.7,16,31.8,16c-0.4,0.1-0.7,0.2-1,0.2h-3.6V9.8h4.4l0.4-1h-4.7V4.7h3.4
	c0.7,0,1.3,0.2,1.9,0.5l0.3,0.1l-0.7-1.6h-7.6l0.1,0.2c0.2,0.6,0.3,1.2,0.3,1.8v9.6c0,0.6-0.1,1.2-0.3,1.7l-0.1,0.2h7.8l0.7-1.5
	l-0.3,0.1C32.5,15.8,32.1,15.9,31.8,16L31.8,16z M35.1,3.7l-0.7,1.6l0.3-0.1c0.6-0.3,1.2-0.4,1.9-0.5h2.8v10.5
	c0,0.6-0.1,1.2-0.3,1.7L39,17.1h3L42,16.9c-0.2-0.5-0.3-1.1-0.3-1.6V4.7h2.9c0.7,0,1.3,0.2,1.9,0.5l0.3,0.1L46,3.7L35.1,3.7z
	 M58.2,16.3c-2.7,1.4-5.9,1.1-8.2-0.7c-1.1-0.8-1.9-2-2.3-3.3c-0.4-1.4-0.3-2.9,0.2-4.2c1.1-2.6,3.7-4.4,6.6-4.5
	c2.9-0.2,5.6,1.3,7,3.9c0.8,1.7,0.8,3.6,0.1,5.2C60.9,14.3,59.7,15.6,58.2,16.3L58.2,16.3z M58.4,14.5c0.4-0.5,0.8-1.2,1-1.8
	c0.2-0.7,0.2-1.4,0.2-2.1c-0.1-0.8-0.2-1.5-0.5-2.2c-0.5-1.1-1.3-2.1-2.3-2.8c-0.5-0.4-1.1-0.6-1.7-0.7c-0.6-0.1-1.2,0-1.7,0.1
	c-2.2,0.6-3.7,2.7-3.6,5.1v0.3c0.1,1.4,0.6,2.7,1.5,3.8c0.8,1.1,2.1,1.8,3.4,1.9C56.1,16.1,57.5,15.5,58.4,14.5L58.4,14.5z
	 M61.4,7.5C61.8,8.3,61,6.7,61.4,7.5z M80.9,14.2c0.6-1.2,0.6-2.6-0.1-3.8c-0.4-0.6-0.8-1.1-1.4-1.5l0,0l0,0
	c-1.2-0.8-2.5-1.5-3.8-2.1C75,6.4,74.4,6,73.8,5.6c-0.6-0.4-1-0.9-1.3-1.6c-0.6-1.5,1-2.5,2.3-2.7c1.5-0.2,3,0.3,4.2,1.2
	c0.4,0.3,0.8,0.6,1.2,0.9l0.2,0.2l-0.3-2.2l-0.1,0c-1.4-0.7-2.9-1.1-4.4-1.3c-1.5-0.1-3,0.3-4.3,1c-1.2,0.6-2,1.9-2,3.2
	c0.2,1.3,1,2.5,2.2,3.1c1.2,0.8,2.6,1.4,4,2.2c1.1,0.6,2.6,1.5,2.8,2.8c0.2,1.4-0.5,2.7-1.7,3.3c-1.4,0.5-3,0.4-4.2-0.4
	c-1.2-0.6-2.3-1.4-3.3-2.4l-0.3-0.3l0.4,2.7l0,0c2.6,1.7,5.7,2.2,8.7,1.2C79.2,16.3,80.3,15.4,80.9,14.2L80.9,14.2z M79.4,8.8
	L79.4,8.8C79.3,8.7,79.1,8.6,79.4,8.8L79.4,8.8z M79.4,8.8L79.4,8.8l0.1,0.1L79.4,8.8z M91.9,16C91.9,16,92,15.9,91.9,16L91.9,16
	c-0.3,0.1-0.7,0.1-1,0.1h-3.6V9.8h4.4l0.4-1h-4.7V4.7h3.4c0.7,0,1.3,0.2,1.9,0.5l0.3,0.1l-0.7-1.6h-7.6l0.1,0.2
	C84.9,4.5,85,5.1,85,5.7v9.6c0,0.6-0.1,1.2-0.3,1.7l-0.1,0.2h7.9l0.7-1.5l-0.3,0.1C92.6,15.8,92.2,15.9,91.9,16L91.9,16z
	 M118.7,15.6c-0.3,0.1-0.7,0.2-1,0.3c0,0,0.1,0,0.1,0s0,0-0.1,0c-0.3,0.1-0.7,0.1-1,0.1h-3.6V9.8h4.4l0.4-1h-4.7V4.7h3.4
	c0.7,0,1.3,0.2,1.9,0.5l0.3,0.1L118,3.7h-7.6l0.1,0.2c0.2,0.6,0.3,1.2,0.3,1.8v9.6c0,0.6-0.1,1.2-0.3,1.7l-0.1,0.2h7.9l0.7-1.5
	L118.7,15.6z M96.9,15.7V7.2l9.3,10.3l0,0h0.6V5.1c0-0.4,0.1-0.9,0.2-1.3l0-0.1h-1.4l0,0.1c0.1,0.4,0.2,0.9,0.2,1.3v8.5L96.6,3.4
	l0,0H96v12.3c0,0.4-0.1,0.9-0.2,1.3l0,0.2h1.5l0-0.2C97,16.5,97,16.1,96.9,15.7L96.9,15.7z M121.1,3.7l-0.7,1.6l0.3-0.1
	c0.6-0.3,1.2-0.4,1.9-0.5h2.8v10.5c0,0.6-0.1,1.2-0.3,1.7l-0.1,0.2h3l-0.1-0.2c-0.2-0.5-0.3-1.1-0.3-1.6V4.7h2.9
	c0.7,0,1.3,0.2,1.9,0.5l0.3,0.1L132,3.7H121.1z M137.6,16.1c-0.1-0.3-0.1-0.6-0.1-0.9V5.6c0-0.6,0.1-1.2,0.3-1.7l0.1-0.2h-3.1
	l0.1,0.2c0.2,0.5,0.3,1.1,0.3,1.7v9.6c0,0.6-0.1,1.2-0.3,1.7l-0.1,0.2h3.1l-0.1-0.2C137.8,16.7,137.7,16.4,137.6,16.1L137.6,16.1z
	 M178.7,16.9c-1.2-0.9-2.3-1.8-3.4-2.7c-1-1-2-2.1-2.8-3.2c1.1-0.1,2.1-0.6,2.9-1.4c0.7-0.9,0.9-2,0.6-3c-0.6-2.4-3.3-2.8-5.4-2.8
	H167l0.1,0.2c0.2,0.6,0.4,1.2,0.3,1.9v9.3c0,0.6-0.1,1.3-0.3,1.9l-0.1,0.2h3l-0.1-0.2c-0.2-0.6-0.4-1.2-0.3-1.9V4.7l0.3,0
	c0.9-0.1,1.8,0.1,2.5,0.5c0.7,0.5,1.1,1.2,1.2,2.1c0.1,0.9-0.2,1.7-0.9,2.3c-0.7,0.5-1.6,0.7-2.5,0.4l0,0l-0.4,0.2l0.1,0.1
	c1.5,2.5,3.4,4.7,5.5,6.7l0,0h3.5L178.7,16.9z M163.3,16C163.4,16,163.4,16,163.3,16L163.3,16c-0.3,0.1-0.7,0.1-1,0.1h-3.6V9.8h4.4
	l0.4-1h-4.7V4.7h3.4c0.7,0,1.3,0.2,1.9,0.5l0.3,0.1l-0.7-1.6h-7.6l0.1,0.2c0.2,0.6,0.3,1.2,0.3,1.8v9.6c0,0.6-0.1,1.2-0.3,1.7
	l-0.1,0.2h7.9l0.7-1.5l-0.3,0.1C164,15.8,163.7,15.9,163.3,16L163.3,16z M151.3,3.8c0.1,0.4,0.2,0.9,0.2,1.3v8.5l-9.3-10.3l0,0h-0.6
	v12.3c0,0.4-0.1,0.9-0.2,1.3l0,0.2h1.5l0-0.2c-0.1-0.4-0.2-0.8-0.2-1.3V7.2l9.3,10.3l0,0h0.6V5.1c0-0.4,0.1-0.9,0.2-1.3l0-0.1h-1.4
	L151.3,3.8z"/>
</svg>
