<?xml version="1.0" encoding="utf-8"?>
<!-- Generator: Adobe Illustrator 23.0.2, SVG Export Plug-In . SVG Version: 6.00 Build 0)  -->
<svg version="1.1" id="Capa_1" xmlns="http://www.w3.org/2000/svg" xmlns:xlink="http://www.w3.org/1999/xlink" x="0px" y="0px"
	 viewBox="0 0 294.9 29" style="enable-background:new 0 0 294.9 29;" xml:space="preserve">
<style type="text/css">
	.st0{fill:#FFFFFF;}
</style>
<path id="Trazado_82" class="st0" d="M20.6,1c0.2,0.9,0.3,1.8,0.4,2.7v17.6L1.7,0.1L1.6,0H0.5v25.3c0,0.9-0.1,1.8-0.4,2.6L0,28.2
	h2.9l-0.1-0.3c-0.3-0.9-0.4-1.7-0.4-2.6V7.7l19.2,21.2l0.1,0.1h1.2V3.7c0-0.9,0.2-1.8,0.4-2.7l0.1-0.2h-2.8L20.6,1z M34.5,26.5
	c-0.1-0.5-0.1-1-0.1-1.5V9.3c0-1,0.2-1.9,0.5-2.9L35,6.1h-5l0.1,0.3c0.4,0.9,0.6,1.9,0.5,2.8V25c0,1-0.2,2-0.6,2.9L30,28.2h5
	l-0.1-0.3C34.7,27.5,34.5,27,34.5,26.5L34.5,26.5z M52.4,26.3l-0.1,0L52.4,26.3C52.4,26.3,52.4,26.3,52.4,26.3L52.4,26.3z
	 M52.4,26.3C52.5,26.3,52.6,26.3,52.4,26.3c-0.3,0.1-0.2,0.1-0.1,0c-0.5,0.2-1.1,0.2-1.6,0.2h-6V16.1h7.2l0.6-1.6h-7.8V7.8h5.6
	c1.1,0.1,2.2,0.3,3.2,0.8l0.4,0.1l-1.1-2.6H40.4l0.1,0.3C40.8,7.3,41,8.3,41,9.4v15.8c0,1-0.2,1.9-0.5,2.8l-0.1,0.3h12.9l1.1-2.5
	L54,25.8C53.5,26,53,26.1,52.4,26.3L52.4,26.3z M57.9,6.1l-1.1,2.6l0.4-0.2c1-0.4,2-0.7,3.1-0.8H65V25c0,1-0.2,2-0.6,2.9l-0.1,0.3
	h4.9l-0.1-0.3c-0.4-0.8-0.6-1.7-0.5-2.6V7.8h4.7c1.1,0.1,2.1,0.3,3.1,0.8l0.4,0.2l-1.1-2.6L57.9,6.1z M95.8,26.9
	c-4.4,2.2-9.6,1.8-13.6-1.1c-1.8-1.3-3.1-3.2-3.8-5.4c-0.7-2.3-0.5-4.8,0.4-7C80.7,9.1,85,6.2,89.7,6c4.7-0.2,9.4,2.1,11.5,6.4
	c1.3,2.7,1.3,5.8,0.2,8.6C100.3,23.6,98.3,25.7,95.8,26.9z M96.2,23.8c0.7-0.9,1.3-1.9,1.6-3c0.3-1.1,0.4-2.3,0.4-3.5
	c-0.1-1.2-0.4-2.5-0.8-3.6c-0.8-1.9-2.1-3.5-3.7-4.6c-0.8-0.6-1.7-1-2.7-1.1c-0.9-0.1-1.9,0-2.8,0.2c-3.8,0.9-6,4.6-6,8.4V17
	c0.2,2.3,1,4.5,2.4,6.3c1.4,1.7,3.4,3.2,5.6,3.2C92.5,26.6,94.7,25.6,96.2,23.8L96.2,23.8z M101.2,12.4
	C101.9,13.7,100.6,11,101.2,12.4z M133.3,23.4c1-2,0.9-4.4-0.2-6.3c-0.6-1-1.4-1.8-2.3-2.5l-0.1,0l0,0c-2-1.4-4-2.5-6.2-3.5
	c-1-0.5-2-1.1-3-1.8c-0.9-0.7-1.7-1.5-2.2-2.6c-1-2.5,1.7-4.1,3.7-4.5c2.4-0.5,5,0.6,7,2c0.7,0.5,1.3,1,1.9,1.6l0.4,0.4L132,2.4
	l-0.1,0c-2.2-1.2-4.7-1.9-7.2-2.1c-2.5-0.2-4.9,0.4-7,1.7c-2,1-3.2,3.1-3.2,5.3c0.1,2.3,1.8,3.9,3.6,5.1c2.1,1.4,4.4,2.3,6.5,3.5
	c1.8,1,4.2,2.4,4.7,4.6c0.4,2.3-0.8,4.5-2.9,5.5c-2.3,1.1-4.8,0.5-7-0.6c-2-1-3.8-2.4-5.4-4l-0.4-0.4l0.6,4.4l0.1,0
	c4.3,2.6,9.5,3.8,14.3,2C130.5,26.9,132.3,25.4,133.3,23.4L133.3,23.4z M130.8,14.5L130.8,14.5C130.6,14.4,130.4,14.2,130.8,14.5
	L130.8,14.5z M130.8,14.6C130.8,14.6,130.9,14.6,130.8,14.6l0.2,0.1C131,14.7,130.9,14.6,130.8,14.6L130.8,14.6z M151.4,26.3
	c0.1,0,0.1,0,0.2,0S151.5,26.3,151.4,26.3c-0.5,0.2-1.1,0.2-1.6,0.2h-6V16.1h7.2l0.6-1.6h-7.8V7.8h5.6c1.1,0.1,2.2,0.3,3.2,0.8
	l0.4,0.1l-1.1-2.6h-12.5l0.1,0.3c0.4,0.9,0.6,1.9,0.5,2.9v15.8c0,1-0.2,1.9-0.5,2.8l-0.1,0.3h12.9l1.1-2.5l-0.4,0.1
	C152.5,26,151.9,26.1,151.4,26.3L151.4,26.3z M195.6,25.8c-0.5,0.2-1.1,0.4-1.6,0.5c0.1,0,0.1,0,0.2,0s-0.1,0-0.2,0
	c-0.5,0.2-1.1,0.2-1.6,0.2h-6V16.1h7.2l0.6-1.6h-7.8V7.8h5.6c1.1,0.1,2.2,0.3,3.2,0.8l0.4,0.1l-1.1-2.6H182l0.1,0.3
	c0.4,0.9,0.6,1.9,0.5,2.9v15.8c0,1-0.2,1.9-0.5,2.8l-0.1,0.3h12.9l1.1-2.5L195.6,25.8z M159.7,25.8v-14l15.3,16.9l0.1,0.1h1V8.5
	c0-0.7,0.1-1.4,0.3-2.1l0.1-0.2h-2.3l0.1,0.2c0.2,0.7,0.3,1.4,0.3,2.1v14L159.2,5.6l-0.1-0.1h-0.9v20.3c0,0.7-0.1,1.4-0.3,2.1
	l-0.1,0.3h2.4l-0.1-0.3C159.8,27.2,159.7,26.5,159.7,25.8L159.7,25.8z M199.5,6.1l-1.1,2.6l0.5-0.2c1-0.4,2.1-0.7,3.1-0.8h4.7V25
	c0,1-0.2,2-0.6,2.9l-0.1,0.3h5l-0.1-0.3c-0.4-0.8-0.6-1.7-0.6-2.6V7.8h4.7c1.1,0.1,2.1,0.3,3.1,0.8l0.4,0.2l-1.1-2.6L199.5,6.1z
	 M226.7,26.5c-0.1-0.5-0.1-1-0.1-1.5V9.3c0-1,0.2-1.9,0.6-2.9l0.1-0.3h-5l0.1,0.3c0.4,0.9,0.6,1.9,0.5,2.9V25c0,1-0.2,2-0.5,2.9
	l-0.1,0.3h5l-0.1-0.3C227,27.5,226.8,27,226.7,26.5L226.7,26.5z M294.4,27.8c-1.9-1.4-3.8-2.9-5.6-4.5c-1.7-1.6-3.3-3.4-4.7-5.3
	c1.8-0.2,3.5-1,4.8-2.3c1.1-1.4,1.5-3.3,1-5c-1-3.9-5.5-4.6-8.9-4.6h-5.8l0.1,0.3c0.4,1,0.6,2,0.6,3.1v15.3c0,1.1-0.2,2.1-0.6,3.1
	l-0.1,0.3h5l-0.1-0.3c-0.4-1-0.6-2-0.6-3.1v-17l0.6,0c1.5-0.1,2.9,0.2,4.2,0.9c1.1,0.8,1.8,2,1.9,3.4c0.2,1.4-0.3,2.8-1.4,3.8
	c-1.2,0.8-2.7,1.1-4.1,0.7l-0.1,0l-0.7,0.4l0.1,0.2c2.5,4,5.6,7.8,9,11.1l0.1,0.1h5.7L294.4,27.8z M269.1,26.3c0,0,0.1,0,0.1,0
	L269.1,26.3c-0.5,0.2-1.1,0.2-1.6,0.2h-6V16.1h7.2l0.6-1.6h-7.8V7.8h5.6c1.1,0.1,2.2,0.3,3.2,0.8l0.4,0.1l-1.1-2.6h-12.5l0.1,0.3
	c0.4,0.9,0.6,1.9,0.5,2.9v15.8c0,1-0.2,1.9-0.5,2.8l-0.1,0.3h12.9l1.1-2.5l-0.4,0.1C270.2,26,269.6,26.1,269.1,26.3L269.1,26.3z
	 M249.3,6.3c0.2,0.7,0.3,1.4,0.3,2.1v14L234.2,5.6l-0.1-0.1h-1v20.3c0,0.7-0.1,1.4-0.3,2.1l-0.1,0.3h2.4l-0.1-0.3
	c-0.2-0.7-0.3-1.4-0.3-2.1v-14l15.3,16.9l0.1,0.1h1V8.5c0-0.7,0.1-1.4,0.3-2.1l0-0.2h-2.3L249.3,6.3z"/>
</svg>
