<svg xmlns="http://www.w3.org/2000/svg" width="127.493" height="37.847" viewBox="0 0 127.493 37.847">
  <g id="Grupo_478" data-name="Grupo 478" transform="translate(-160.493 -295.999)">
    <path id="Trazado_261" data-name="Trazado 261" d="M180,400.213a4.9,4.9,0,0,1,.148,1.133v7.487l-8.181-9.012-.022-.028h-.474V410.54a3.8,3.8,0,0,1-.183,1.119l-.032.112h1.213l-.031-.106a3.943,3.943,0,0,1-.164-1.125v-7.474l8.163,9.014.024.028h.508V401.346a5,5,0,0,1,.163-1.133l.025-.1h-1.184Z" transform="translate(-8.116 -78.262)" fill="#161615"/>
    <path id="Trazado_262" data-name="Trazado 262" d="M224.224,419.049a3.994,3.994,0,0,1-.052-.625v-6.7a3.281,3.281,0,0,1,.238-1.209l.046-.117h-2.141l.052.12a2.992,2.992,0,0,1,.234,1.207v6.7a3.2,3.2,0,0,1-.234,1.228l-.047.112h2.137l-.05-.112a3.425,3.425,0,0,1-.183-.6c-.03-.19.038.189,0,0" transform="translate(-46.615 -86.255)" fill="#161615"/>
    <path id="Trazado_263" data-name="Trazado 263" d="M244.84,418.968a2.355,2.355,0,0,1-.69.109h-2.545v-4.439h3.047l.248-.69h-3.3V411.1h2.372a4.257,4.257,0,0,1,1.36.327l.183.064-.473-1.1h-5.295l.049.117a3.394,3.394,0,0,1,.232,1.25v6.689a3.158,3.158,0,0,1-.232,1.2l-.053.112h5.5l.477-1.084-.184.062c-.232.083-.465.162-.7.226s.235-.064,0,0" transform="translate(-59.759 -86.255)" fill="#161615"/>
    <path id="Trazado_264" data-name="Trazado 264" d="M268.017,410.4l-.476,1.1.187-.066a3.9,3.9,0,0,1,1.329-.327h1.988v7.323a3.227,3.227,0,0,1-.233,1.228l-.049.112h2.1l-.053-.118a2.693,2.693,0,0,1-.232-1.127V411.1h2a3.967,3.967,0,0,1,1.333.327l.187.066-.476-1.1Z" transform="translate(-80.715 -86.255)" fill="#161615"/>
    <path id="Trazado_265" data-name="Trazado 265" d="M311.642,412.823a5.188,5.188,0,0,0-4.884-2.711,5.268,5.268,0,0,0-4.619,3.171,4.582,4.582,0,0,0-.161,2.964,4.407,4.407,0,0,0,1.6,2.278,5.491,5.491,0,0,0,5.772.485,5.075,5.075,0,0,0,2.379-2.529,4.53,4.53,0,0,0-.082-3.66c-.283-.572.281.578,0,0m-4.7,6.028a3.266,3.266,0,0,1-2.391-1.357,4.87,4.87,0,0,1-1.036-2.675v-.24a3.526,3.526,0,0,1,2.541-3.552,3.128,3.128,0,0,1,1.2-.078,2.736,2.736,0,0,1,1.158.48A4.509,4.509,0,0,1,310,413.393a5.958,5.958,0,0,1,.341,1.549,5.179,5.179,0,0,1-.149,1.469,3.532,3.532,0,0,1-.679,1.293,3.338,3.338,0,0,1-2.571,1.148" transform="translate(-106.55 -86.04)" fill="#161615"/>
    <path id="Trazado_266" data-name="Trazado 266" d="M373.742,406.336a15.7,15.7,0,0,0-2.661-1.5,7.966,7.966,0,0,1-1.261-.776,2.868,2.868,0,0,1-.947-1.1c-.4-1.041.734-1.728,1.6-1.9a4.071,4.071,0,0,1,2.955.846,6.477,6.477,0,0,1,.821.668l.171.165-.184-1.567-.043-.023a8.059,8.059,0,0,0-3.062-.881,5.243,5.243,0,0,0-2.987.717,2.551,2.551,0,0,0-1.38,2.273,2.92,2.92,0,0,0,1.513,2.163c.873.6,1.85,1,2.768,1.511.774.433,1.8,1.016,1.981,1.965a2.213,2.213,0,0,1-1.221,2.337,3.341,3.341,0,0,1-2.965-.251,9.336,9.336,0,0,1-2.3-1.681l-.18-.181.254,1.884.036.023a7.021,7.021,0,0,0,6.064.848,3.743,3.743,0,0,0,2.1-1.769,2.886,2.886,0,0,0-.077-2.686,4.209,4.209,0,0,0-.988-1.086c-.378-.3.383.293,0,0" transform="translate(-155.223 -78.615)" fill="#161615"/>
    <path id="Trazado_267" data-name="Trazado 267" d="M415.675,418.968a2.329,2.329,0,0,1-.689.109h-2.543v-4.439h3.044l.248-.69h-3.292V411.1h2.369a4.27,4.27,0,0,1,1.362.327l.183.064-.473-1.1h-5.3l.046.117a3.381,3.381,0,0,1,.234,1.25v6.689a3.147,3.147,0,0,1-.234,1.2l-.051.112h5.5l.475-1.084-.183.062c-.233.083-.467.162-.7.226s.233-.064,0,0" transform="translate(-188.57 -86.255)" fill="#161615"/>
    <path id="Trazado_268" data-name="Trazado 268" d="M448.648,409.666a4.091,4.091,0,0,1,.115.9v5.963l-6.528-7.2-.025-.025h-.4v8.637a2.931,2.931,0,0,1-.143.888l-.035.112h1.021l-.033-.106a3.144,3.144,0,0,1-.128-.893v-5.949L449,419.182l.023.029h.43v-8.643a3.758,3.758,0,0,1,.135-.9l.024-.1h-.991Z" transform="translate(-211.977 -85.434)" fill="#161615"/>
    <path id="Trazado_269" data-name="Trazado 269" d="M488.161,418.968a2.363,2.363,0,0,1-.69.109h-2.547v-4.439h3.049l.249-.69h-3.3V411.1H487.3a4.21,4.21,0,0,1,1.356.327l.185.064-.472-1.1h-5.3l.045.117a3.271,3.271,0,0,1,.24,1.25v6.689a3.045,3.045,0,0,1-.24,1.2l-.045.112h5.5l.478-1.084-.187.062c-.234.083-.466.162-.7.226s.231-.064,0,0" transform="translate(-243.226 -86.255)" fill="#161615"/>
    <path id="Trazado_270" data-name="Trazado 270" d="M511.328,410.4l-.475,1.1.184-.066a3.9,3.9,0,0,1,1.335-.327h1.982v7.323a3.148,3.148,0,0,1-.234,1.228l-.045.112h2.1l-.052-.118a2.731,2.731,0,0,1-.235-1.127V411.1h2a3.978,3.978,0,0,1,1.34.327l.184.066-.474-1.1Z" transform="translate(-264.173 -86.255)" fill="#161615"/>
    <path id="Trazado_271" data-name="Trazado 271" d="M553.371,419.049a3.627,3.627,0,0,1-.05-.625v-6.7a3.246,3.246,0,0,1,.235-1.209l.042-.117h-2.135l.053.12a3.042,3.042,0,0,1,.232,1.207v6.7a3.168,3.168,0,0,1-.238,1.228l-.047.112h2.14l-.053-.112a3.254,3.254,0,0,1-.179-.6c-.033-.19.034.189,0,0" transform="translate(-294.793 -86.255)" fill="#161615"/>
    <path id="Trazado_272" data-name="Trazado 272" d="M576.228,409.666a4.1,4.1,0,0,1,.12.9v5.963l-6.53-7.2-.028-.025h-.4v8.637a3.048,3.048,0,0,1-.146.888l-.033.112h1.022l-.033-.106a3.261,3.261,0,0,1-.134-.893v-5.949l6.515,7.188.029.029h.43v-8.643a3.947,3.947,0,0,1,.131-.9l.026-.1H576.2Z" transform="translate(-308.174 -85.434)" fill="#161615"/>
    <path id="Trazado_273" data-name="Trazado 273" d="M615.733,418.968a2.321,2.321,0,0,1-.689.109H612.5v-4.439h3.049l.246-.69H612.5V411.1h2.373a4.255,4.255,0,0,1,1.356.327l.185.064-.472-1.1h-5.3l.051.117a3.479,3.479,0,0,1,.231,1.25v6.689a3.238,3.238,0,0,1-.231,1.2l-.051.112h5.5l.474-1.084-.184.062c-.229.083-.464.162-.7.226s.235-.064,0,0" transform="translate(-339.416 -86.255)" fill="#161615"/>
    <path id="Trazado_274" data-name="Trazado 274" d="M649.542,419.571a28.534,28.534,0,0,1-2.382-1.916,17.179,17.179,0,0,1-2-2.25,3.14,3.14,0,0,0,2.026-.986,2.334,2.334,0,0,0,.405-2.119c-.414-1.664-2.336-1.962-3.777-1.962H641.38l.047.117a3.415,3.415,0,0,1,.23,1.317v6.519a3.537,3.537,0,0,1-.23,1.318l-.047.112h2.136l-.051-.112a3.548,3.548,0,0,1-.235-1.318V411.05l.241-.005a2.992,2.992,0,0,1,1.781.374,1.906,1.906,0,0,1,.816,1.445,1.768,1.768,0,0,1-.6,1.606,2.053,2.053,0,0,1-1.739.282l-.037-.012-.279.171.047.076A24.862,24.862,0,0,0,647.3,419.7l.023.023h2.428Z" transform="translate(-362.592 -86.213)" fill="#161615"/>
    <path id="Trazado_275" data-name="Trazado 275" d="M559.151,327.06h0Z" transform="translate(-300.59 -23.42)" fill="#161615"/>
    <path id="Trazado_276" data-name="Trazado 276" d="M176.1,317.347a20.326,20.326,0,0,0,1.493-4.356,1.031,1.031,0,0,0-.355-.2,10.105,10.105,0,0,1-1.985,3.16c-.479.466-.964.943-3.212.937a29.293,29.293,0,0,1-4.684-.213c-.392-.069-.906-.393-.938-1.335-.052-1.526-.087-4.745-.087-6.6,0-.682,0-1.178.013-1.34.025-.072.03-.3.21-.353.383-.028,1.165-.039,2.05-.039,1.442,0,3.157.031,3.845.075a1.465,1.465,0,0,1,1.568,1.284,7.162,7.162,0,0,1,.215,1.187.26.26,0,0,0,.19.053.538.538,0,0,0,.307-.082c0-.523-.074-1.3-.074-2.794a21.358,21.358,0,0,1,.249-3.11.476.476,0,0,0-.068-.016,1.412,1.412,0,0,0-.233-.019.641.641,0,0,0-.186.021,10.816,10.816,0,0,1-.363,1.277,1.549,1.549,0,0,1-1.642,1.21c-.662.044-2.408.074-3.862.074-.894,0-1.676-.011-2.027-.038-.17-.03-.168-.206-.179-.344-.01-.1-.013-.638-.013-1.419,0-2.118.033-5.949.087-6.879a.556.556,0,0,1,.427-.563c.261-.032,1.135-.043,2.138-.043,1.361,0,2.949.02,3.5.042,1.6.06,1.912.681,2.16,1.535a12.867,12.867,0,0,1,.293,2.05.637.637,0,0,0,.154.017,1,1,0,0,0,.3-.045,31,31,0,0,1,.657-4.435l-.019-.022a.118.118,0,0,1-.014-.021c-.565.072-2.359.106-3.722.107h-7.1c-2,0-3.072-.106-3.873-.108a.453.453,0,0,0-.059.231.356.356,0,0,0,.007.076c0,.029.009.049,0,.052a11.7,11.7,0,0,1,1.7.282c.944.206,1.135.6,1.194,2.005.037.536.074,3.918.075,7.413,0,4.165-.038,8.324-.075,8.861-.1,1.448-.435,1.9-1.341,2.107a12.892,12.892,0,0,1-2.3.283.416.416,0,0,0-.035.179.627.627,0,0,0,.037.214c1.373,0,2.264-.107,4.707-.107,5.738,0,6.881.107,8.716.107,1.892-.005,1.949-.035,2.148-.356" fill="#161615"/>
    <path id="Trazado_277" data-name="Trazado 277" d="M269.534,299.45a.176.176,0,0,1,.123-.047.167.167,0,0,1,.123.047l.02.046c.068,2.728.226,11.756.226,14.966,0,.319,0,.582-.005.773.01,1.026-.245,1.551-1.118,1.759a16.283,16.283,0,0,1-1.671.31.369.369,0,0,0-.037.184.641.641,0,0,0,.031.215c.815-.034,2.274-.1,4.234-.1,1.511,0,3.408.1,4.074.106a.776.776,0,0,0,.031-.222.47.47,0,0,0-.025-.171,14.39,14.39,0,0,1-1.815-.246c-1.1-.243-1.352-.84-1.414-2.072-.162-2.368-.416-12.228-.416-15.806,0-.431,0-.771.011-.995a1.325,1.325,0,0,1,1.191-1.443,13.844,13.844,0,0,1,2.114-.345.3.3,0,0,0,.053-.206.4.4,0,0,0-.042-.2c-1.185,0-1.936.1-5.243.106a5.848,5.848,0,0,1-.662,1.973c-1.731,3.6-7.206,14.5-7.724,15.42a.166.166,0,0,1-.149.1.152.152,0,0,1-.117-.056c-.449-.718-4.71-9.389-7.507-15.493a6.131,6.131,0,0,1-.733-1.939c-3.447,0-4.988-.1-5.549-.106a.15.15,0,0,0-.029.061.7.7,0,0,0-.024.179.474.474,0,0,0,.008.093c.005.035.011.058,0,.06a11.572,11.572,0,0,1,2.325.462,1.527,1.527,0,0,1,1.078,1.656c-.147,3-.919,13.444-1.214,15.637-.284,2.109-.613,2.741-1.825,2.951l-1.4.207a.682.682,0,0,0-.04.235.372.372,0,0,0,.029.162c.479,0,2.144-.1,4.017-.106,1.725,0,3.016.105,3.57.113a.052.052,0,0,1,.007-.011.431.431,0,0,0,.025-.071.855.855,0,0,0,.026-.2.4.4,0,0,0,0-.073c0-.025-.006-.041,0-.043a15.954,15.954,0,0,1-1.872-.317c-1.121-.224-1.238-1.207-1.234-2.714,0-2.229.48-11.962.738-15.171a.133.133,0,0,1,.141-.121.128.128,0,0,1,.1.054s7.334,15.61,8.34,18.849a1.332,1.332,0,0,0,.217.017,1.22,1.22,0,0,0,.19-.014c1.248-3.38,7.9-16.6,8.83-18.446" transform="translate(-64.784 -0.004)" fill="#161615"/>
    <path id="Trazado_278" data-name="Trazado 278" d="M387.7,296.357c0,.026.006.04,0,.043a18.044,18.044,0,0,1,1.987.316c.9.23.861,1.03.97,1.866.075,1.626.074,4.378.074,7.024,0,2.931-.036,9.029-.111,9.885-.065.811-.244,1.4-1.193,1.578a11.5,11.5,0,0,1-1.633.246.6.6,0,0,0-.036.217.392.392,0,0,0,.032.176c1.883,0,2.622-.105,4.416-.105,1.6,0,2.91.1,3.682.105a.659.659,0,0,0,.058-.269.257.257,0,0,0-.025-.124,12.028,12.028,0,0,1-1.857-.317c-.958-.252-1.089-.917-1.155-2-.037-1.167-.074-5.083-.075-8.4,0-3.072.038-6.6.111-8.085.068-1.088.234-1.68,1.085-1.9.331-.069.936-.138,1.478-.208a.42.42,0,0,0,.015-.126.736.736,0,0,0-.048-.27c-.87,0-1.967.105-3.49.105-1.664,0-3.542-.1-4.231-.105a.762.762,0,0,0-.057.284.392.392,0,0,0,0,.065" transform="translate(-171.316 -0.007)" fill="#161615"/>
    <path id="Trazado_279" data-name="Trazado 279" d="M447.184,296.4c.392.038,1.34.142,1.778.244,1.168.241,1.285.682,1.341,2.43.036.745.036,2.826.036,6.5,0,8.184-.035,8.857-.11,9.847-.062,1.18-.521,1.485-1.3,1.652-.515.106-1.13.143-1.919.244a.651.651,0,0,0-.029.214.529.529,0,0,0,.025.182c.64,0,2.784-.106,4.225-.106,1.585,0,8.646.141,10.518.141a1.353,1.353,0,0,0,1.081-.386,29.6,29.6,0,0,0,1.648-5.138.545.545,0,0,0-.375-.146c-.027,0-.05,0-.053,0a16.282,16.282,0,0,1-2.1,3.636,2.788,2.788,0,0,1-2.072,1.153c-.533.036-1.43.06-2.4.06a17.921,17.921,0,0,1-4.288-.313,1.214,1.214,0,0,1-.63-1.085c-.054-1.371-.088-3.949-.088-6.438,0-.912,0-1.81.014-2.633.036-2.891.036-7.018.075-8.187.024-.87.092-1.407,1.01-1.618.481-.1.814-.14,1.543-.245a.246.246,0,0,0,.046-.172.531.531,0,0,0-.025-.166c-.008-.038-.017-.052-.012-.055-.623,0-2.019.105-3.817.106-2.006,0-3.292-.1-4.062-.105,0,0,0,0-.006.011a.359.359,0,0,0-.029.074.929.929,0,0,0-.027.216.626.626,0,0,0,.008.093" transform="translate(-216.01 -0.004)" fill="#161615"/>
    <path id="Trazado_280" data-name="Trazado 280" d="M535.13,296.356c0,.027.007.042,0,.044a17.994,17.994,0,0,1,1.986.316c.9.23.864,1.03.971,1.866.073,1.626.073,4.378.073,7.024,0,2.931-.035,9.029-.11,9.886-.064.81-.242,1.4-1.193,1.578a11.7,11.7,0,0,1-1.633.246.6.6,0,0,0-.037.218.405.405,0,0,0,.032.175c1.884,0,2.622-.105,4.417-.105,1.6,0,2.908.1,3.681.105a.67.67,0,0,0,.059-.269.285.285,0,0,0-.023-.124,12.115,12.115,0,0,1-1.86-.317c-.957-.252-1.087-.916-1.153-2-.036-1.166-.075-5.082-.075-8.4,0-3.072.038-6.6.112-8.085.066-1.088.233-1.68,1.084-1.9.33-.069.935-.138,1.477-.208a.463.463,0,0,0,.017-.128.764.764,0,0,0-.049-.268c-.869,0-1.966.105-3.491.105-1.664,0-3.542-.1-4.231-.105a.734.734,0,0,0-.059.283.377.377,0,0,0,.005.065" transform="translate(-282.474 -0.007)" fill="#161615"/>
    <path id="Trazado_281" data-name="Trazado 281" d="M597.114,298.028c-.809,2.115-4.119,11.183-6.363,16.269-1.127,2.611-1.562,2.946-4.109,3.242a.372.372,0,0,0-.05.218.5.5,0,0,0,.018.142c.006.026.01.037.006.04.549,0,1.653-.1,3.445-.106,1.591,0,3.467.1,4.157.106a.835.835,0,0,0,.045-.276.358.358,0,0,0-.013-.119,13.129,13.129,0,0,1-1.52-.279c-.921-.207-1.176-.622-1.169-1.089a2.8,2.8,0,0,1,.05-.469,59.211,59.211,0,0,1,2.394-6.752.466.466,0,0,1,.353-.295c.374-.035.559-.035,3.022-.035,2.28,0,3.052,0,3.42.035a.954.954,0,0,1,.324.223c.7,1.941,2.095,5.715,2.5,7.236a1.563,1.563,0,0,1,.085.442c0,.271-.168.469-.57.633a10.19,10.19,0,0,1-1.818.351l-.006.029a.505.505,0,0,0-.011.118,1.342,1.342,0,0,0,.022.245c.834-.067,3.167-.1,4.032-.1.84,0,2.9.069,3.838.1a.541.541,0,0,0,.068-.277.35.35,0,0,0-.017-.117c-2.423-.265-2.648-.433-3.586-2.507-1.106-2.617-5.371-15.459-6.033-17.224-.208-.634-.351-1.172-.429-1.5-.105.009-.365.03-.793.03-.4,0-.673-.022-.787-.03a10.923,10.923,0,0,1-.508,1.715m.774.94c.553,1.555,1.876,5.647,2.759,8.328a.34.34,0,0,1,.013.1c-.011.124-.039.218-.14.238-.206.039-1.627.038-2.441.039-1.986,0-2.9,0-3.257-.04a.277.277,0,0,1-.193-.3c0-.012,0-.024,0-.037.552-1.553,2.39-6.809,2.98-8.293h0c.026-.075.084-.065.113-.075a.664.664,0,0,1,.1,0Z" transform="translate(-321.281 -0.237)" fill="#161615"/>
    <path id="Trazado_282" data-name="Trazado 282" d="M332.026,380.987a.172.172,0,0,0-.055.11,14.381,14.381,0,0,0,1.439-.274,1.71,1.71,0,0,0,.562-.232,2.5,2.5,0,0,1-.256.08c-.4.1-.808.175-1.69.315" transform="translate(-129.295 -63.783)" fill="#a46539"/>
  </g>
</svg>
