<?xml version="1.0" encoding="utf-8"?>
<!-- Generator: Adobe Illustrator 23.0.2, SVG Export Plug-In . SVG Version: 6.00 Build 0)  -->
<svg version="1.1" id="Capa_1" xmlns="http://www.w3.org/2000/svg" xmlns:xlink="http://www.w3.org/1999/xlink" x="0px" y="0px"
	 viewBox="0 0 389.8 127.5" style="enable-background:new 0 0 389.8 127.5;" xml:space="preserve">
<style type="text/css">
	.st0{clip-path:url(#SVGID_2_);fill:#231F20;}
</style>
<g>
	<defs>
		<rect id="SVGID_1_" x="-47.2" y="-41.1" width="477" height="264"/>
	</defs>
	<clipPath id="SVGID_2_">
		<use xlink:href="#SVGID_1_"  style="overflow:visible;"/>
	</clipPath>
	<path class="st0" d="M353.3,34.9c1-1.2-3.2-1.9-5-0.6c-17.4,9.6-31.3,31.5-31.1,28.6c2.9-15.2-5.3-15.8-6.4-15.9
		c-1.1-0.1-0.4,1.3-0.4,1.3c7.6,3.1,0.9,17.8,3.3,23.1c1.9,4.1,5.8,2.1,5.6,0.4C318.9,62.5,341.6,38.6,353.3,34.9"/>
	<path class="st0" d="M359.5,43.9c1-2.3,6.7-5.5,7.9-7.8c0.4-0.7,0.4-1.7-1.4-1.5c-3,1.1-8,4.1-9.8,5.9
		C355.3,42.1,358.5,44,359.5,43.9"/>
	<path class="st0" d="M203.7,54.5c-14.7,17.1-20,15.1-21.2,14.5c-8.3-4.5,12.5-44.6,14.3-46.9c0-1.9-2.9-3.2-3.5-3.7
		c-0.6-0.5-1.9-0.6-2.7,0.6c0.9,3.9-10.5,25.3-12.7,27.6c-10.9-9-18.9,11-19,10.8c-0.1-0.3-9.3,6.9-10.9,6.1
		c-1.5-0.7,4.9-12.1,4.9-12.1c-0.2-4.1-5.2-4.5-5.9-3.9c-0.7,0.6-12.5,12.2-13.4,11.1c-0.7-0.6,3.2-6.9,3.9-9c0.7-2.1-1-2.9-2.4-3
		c-1.4-0.1-3.8-3.2-5.1-2.6c-1.9,1.7-15.6,28.6-20,23.5c-4.1-6.1,7.3-18.9,7.8-20.1c0.5-1.2-2.8-3.4-2.8-3.4s-2.4,2.5-2.9,1.8
		c-9.4-8.4-20.9,10.4-21.7,17.8c-0.7,1.2-9.1,8-10.3,4.3c-1.8-5.1,9.6-20.3,11-21.3c0.2-0.8-3.8-2.5-3.8-2.5s-1.7,2.5-3.3,3
		c-3.6,0.9-5.5-1-6.9-1.5c-1.4-0.5-1.2,1-1.4,1.8c-10.1,15.5-15,16.3-15,16.3c-1.8,1.7,3.5,3.8,5,3.9c1.4,0.1,10-13.5,12.3-17.2
		c2.6-0.2,4.2,0.2,4.2,0.2c-3.6,5.7-8.2,19-2.3,20.5c5.9,1.5,11.3-5.2,11.3-4.8c0,0.4,1.7,3.1,5.1,3.6c3.4,0.5,8.7-7.6,9.7-8.3
		c1,10.8,6.3,12.6,9.9,9.7c4.9-3.4,13.3-19.4,14-20.2c0.7-0.8,1,0.4,0.9,1.5c-0.2,1.2-5,7.6-4.5,12.9c0.2,2.2,3.6,4.1,4.2,3.5
		c0.6-0.6,12.3-12.6,12.3-12.6c2.5-2.4,3.2,0.3,3.2,0.3s-4.2,11.1,2,12.4c3.3,0.7,9.6-8.1,10.3-6.6c0.7,1.5,4.4,4.6,6.6,4.9
		c6.5-0.4,11.5-11.1,12.3-10.4c-1.2,15.4,7.3,14.9,7.3,14.9c7.8,0.7,21.3-16.6,21.3-16.6S204.8,54.2,203.7,54.5 M95.6,64.4
		c-1-1,10.8-17.6,15.1-16.1C111.8,49.3,95.5,66.3,95.6,64.4 M163.2,61.1c-1-1,8.7-12.8,13-11.2C177.4,50.9,163.2,63.1,163.2,61.1"/>
	<path class="st0" d="M51.7,71.6c0.3-1.4,7.6-23.2,9.4-25.5c11.5-18.9,12.1-22.3,11.6-24.3c0-0.8-5.1-2.3-5.1-2.3
		c-7.4,1-10.9,28.4-14.7,34.3C49,60,33.3,73.2,28.7,63.8C20.4,47.4,57.3,1.7,75,8c6.5,2.8,0.3,13-0.2,13.4c-0.1,0.1-0.9,3.1,4,1.1
		c4.3-3.1,3.2-10.2,1.6-12.4c-1.5-2.1-5.6-5.2-10.6-5.9c-18.5-2.5-54.5,42.6-42.2,61c6.4,9.5,19.3-2,25-8.3
		C51.1,61,49.4,69,48.2,72.4c-41.7,13.4-48.4,37-38.5,46.7c14.1,13.4,34-25.6,41.4-45.9c7.5-2.2,12.8-1.3,15.1-1.6
		c-0.4-0.5-1.2-0.6-2.6-0.9C58.9,70.3,55.8,70.8,51.7,71.6 M69.5,23.6c2.3,1.8-10.5,23.8-11.2,23.3C58.3,46.9,66.8,23.1,69.5,23.6
		 M10.5,117.7C0.7,106,14.6,84.3,47.6,73.9C43.1,89.4,22.1,130.3,10.5,117.7"/>
	<path class="st0" d="M385.5,57.9c0-0.4,0.5-2.9-2-1.2c-5,5.6-15.1,12.8-19.5,11.4c-3.4-1.1-2.3-5.7-1.4-6.6
		c12-4.1,18.7-9.4,17.9-12.4c-1.5-4.1-4.4-6.2-6.5-6.8c-2.8,0-7,2.2-14.6,13.3c-8.8,11.3-17.6,14.9-21.7,14.6c-3.6-0.3-3-4.4-2-5.3
		c12-4.1,19.6-14.3,19.2-16.4c-1.5-4.1-6.8-5.1-7.8-4.6c-5.5,2.3-13.8,12.5-15.5,20.4c-1.3,5.8,4.3,9.1,7,9.3
		c5.9,0.4,15.7-8.4,18.1-10.8c1.1,4.9,6.7,9.3,10.5,9.1C373.7,71.4,384.7,58.8,385.5,57.9 M376,47.4c1.8,2.2-9.2,9-10.2,8.9
		C367.7,52.2,374.6,46.2,376,47.4 M351.2,48.4c4.9,2.2-10.5,12.6-12.1,11.3C341,55.6,349.8,47.3,351.2,48.4"/>
	<path class="st0" d="M276.1,52.7c-6.5,13.8-2.5,19,2.6,19c3.1,0,11.1-8.9,14-12.3c-0.5,5.5,0.1,10.9,5.3,11.3
		c4.2,0.6,13.5-10.2,13.5-11.1c0-2.7-2.2-1.2-2.2-1.2s-7.8,8.3-11.6,8.7c-3.9,0.4,3.2-16.4,3.4-17.2c0.2-0.7-3.2-3.2-4.3-2.5
		c-4.7,4.6-17.2,21.8-19.6,20.5c-4.2-2.4,8.6-18.9,8.6-18.9s-1.9-4.6-5.6-3c-2.5,2.1-4.9,4.2-7.1,6l0,0
		c-27.9,23.8-35,21.3-37.7,20.1c-21.7-7.9,19.6-66.1,42.7-63.7c6.8,0.7-14,27.2-27.2,28c-0.5,0.9,0.5,1.6,0.5,1.6
		c12,0.2,34.9-25.1,30.1-30.8c0,0-2.3-2.6-7.8-2.6C266,4.5,255.4,9,239,30.5c-20.3,28.7-10.5,42.1-4.5,43.3
		C247.9,77.9,274.8,52.5,276.1,52.7L276.1,52.7z"/>
	<path class="st0" d="M69.8,94.6l12.7,12.8v4.9L66.8,96.4c-0.6-0.6-1.7-1.5-2.4-1.9H69.8z M72.2,93.9h-10v0.7h0.1
		c0.5,0,1,0.1,1.3,0.2c0.3,0.1,0.6,0.4,1.1,0.7c0.4,0.3,0.8,0.6,0.9,0.7l0.6,0.6v10.1c0,3.2-1.4,4.9-4.2,5v0.6h8.8v-0.6
		c-2.5,0-3.8-1.8-3.8-5v-9.4l15.6,15.7h0.6V99.6c0-2.3,0.8-4,2.3-4.7c0.6-0.3,0.9-0.3,1.9-0.4v-0.7h-8.8v0.7c2.5,0.1,3.8,1.8,3.8,5
		v4.5L72.2,93.9z M67.2,111.9h-2.6c0.9-0.6,1.4-1.3,1.7-2.2C66.4,110.7,66.6,111.3,67.2,111.9 M83.5,94.6c-0.5,0.5-0.7,1.1-0.9,2
		c-0.3-0.8-0.8-1.4-1.7-2H83.5z"/>
	<path class="st0" d="M92.8,99.1h3.6c-0.2,0.3-0.3,0.4-0.3,0.7c-0.1,0.3-0.1,0.3-0.1,1v9.6c0,0.6,0,0.7,0.1,1
		c0.1,0.3,0.1,0.4,0.3,0.7h-3.6c0.5-0.5,0.7-0.9,0.7-2v-8.9C93.5,100,93.3,99.5,92.8,99.1 M100.4,112h-0.6c-1,0-1.4-0.1-1.7-0.4
		c-0.4-0.3-0.5-0.8-0.5-1.9v-8.3c0-1.2,0.1-1.7,0.5-2c0.3-0.3,0.7-0.3,1.7-0.3h0.6v-0.5H90.1v0.5h0.6c1,0,1.4,0.1,1.8,0.3
		c0.3,0.3,0.5,0.8,0.5,2v8.3c0,1.2-0.1,1.7-0.5,1.9c-0.4,0.3-0.7,0.4-1.8,0.4h-0.6v0.5h10.3V112z"/>
	<path class="st0" d="M117.5,99.1v2.7c-0.4-0.5-0.6-0.7-1-1.1c-0.3-0.2-0.5-0.5-0.8-0.7c-0.5-0.4-0.7-0.6-1.3-0.9H117.5z
		 M118.9,98.6h-16.2v0.5h0.6c1,0,1.4,0.1,1.8,0.3c0.4,0.3,0.5,0.8,0.5,2v8.3c0,1.2-0.1,1.7-0.5,1.9c-0.4,0.3-0.7,0.4-1.8,0.4h-0.6
		v0.5h16.4v-5.1h-0.4c-0.8,1.2-1.8,2.2-2.9,3.1c-1.1,0.9-1.9,1.3-3.1,1.4c-0.3,0.1-0.7,0.1-1,0.1h-1.5v-6.6h0.5
		c0.7,0,1.2,0.2,1.9,0.6c0.4,0.3,0.8,0.6,1.1,1c0.3,0.3,0.4,0.5,0.6,0.9h0.5v-5.4h-0.5c-0.5,0.8-1,1.5-1.6,1.9
		c-0.6,0.4-1.2,0.5-1.9,0.5h-0.5v-5.9h2c1.4,0,2.1,0.3,3.3,1.2c1.2,1,2.1,2,3,3.3h0.4V98.6z M117.7,112h-3.6c0.7-0.3,1-0.5,1.5-0.9
		c0.3-0.2,0.5-0.4,0.8-0.6c0.6-0.5,0.8-0.7,1.3-1.3V112z M113.6,106.4c-0.3-0.3-0.4-0.5-0.8-0.7c-0.3-0.3-0.5-0.4-0.9-0.5
		c0.4-0.2,0.6-0.3,0.9-0.5c0.4-0.3,0.5-0.4,0.8-0.7V106.4z M105.4,99.1h3.3v13h-3.3c0.5-0.5,0.7-0.9,0.7-2v-8.9
		C106.1,100,105.9,99.5,105.4,99.1"/>
	<path class="st0" d="M136.4,99.1v2.8c-0.7-1.1-1.6-2.1-2.6-2.8H136.4z M137.8,98.6h-16.4v6.1h0.4c0.3-0.8,0.4-1.1,0.7-1.7
		c0.6-1.1,1.5-2.3,2.4-3.1c0.7-0.6,1.2-0.8,2-0.8h0.3v10.6c0,1.2-0.1,1.7-0.5,1.9c-0.4,0.3-0.7,0.4-1.7,0.4h-0.6v0.5h10.3V112h-0.6
		c-1,0-1.4-0.1-1.8-0.4c-0.4-0.3-0.5-0.8-0.5-1.9V99.1h0.3c0.6,0,1.1,0.1,1.6,0.5c0.6,0.5,1.4,1.3,1.9,2c0.8,1,1.4,2.2,1.6,3.1h0.5
		V98.6z M121.9,99.1h2c-0.7,0.6-1.5,1.6-2,2.6V99.1z M127.1,112c0.5-0.5,0.7-0.9,0.7-2V99.1h2.6v11.3c0,0.6,0,0.7,0.1,1
		c0.1,0.3,0.1,0.4,0.3,0.7H127.1z"/>
	<path class="st0" d="M152.6,105.5v0.3c0,4.3-1.2,6.7-3.5,6.7c-1.3,0-2.1-0.7-2.7-2.2c-0.5-1.4-0.8-3.1-0.8-4.7c0-3,0.9-5.6,2.1-6.5
		c0.3-0.2,0.9-0.4,1.4-0.4C151.3,98.6,152.5,101.2,152.6,105.5 M148.7,98.1c-2.4,0-4.2,0.5-5.7,1.7c-1.8,1.4-2.8,3.4-2.8,5.7
		c0,2.1,0.9,4.1,2.6,5.4c1.7,1.4,3.7,2,6.5,2c2.5,0,4.4-0.5,5.8-1.5c1.7-1.3,2.7-3.4,2.7-5.7C157.8,101.1,154.2,98.1,148.7,98.1
		 M146.6,98.7c-1,1-1.3,1.5-1.9,2.4c-0.7,1.3-1,2.8-1,4.3c0,1.7,0.4,3.4,1.2,4.8c0.5,0.8,0.7,1.2,1.5,2c-3.3-0.5-5.8-3.5-5.8-6.8
		C140.8,102.1,143.2,99.3,146.6,98.7 M150.9,98.7L150.9,98.7c1.8,0.5,2,0.6,3.1,1.7c1.3,1.3,2.1,3.4,2.1,5.3c0,3.3-2.3,6.4-5.2,6.8
		l-0.1,0l0-0.1c0.3-0.2,0.4-0.4,0.4-0.4c0.4-0.4,0.8-1,1-1.8c0.5-1.3,0.7-2.6,0.7-4.4C153.1,102.5,152.4,100.2,150.9,98.7
		L150.9,98.7z"/>
	<path class="st0" d="M176.4,95.5c-0.5,0.8-0.8,1.5-0.8,2.3c0,1,0.6,2,1.3,2.5c0.8,0.5,2.1,0.9,4.1,1.2l5.2,0.8
		c4.6,0.7,6.8,2.5,6.8,5.4c0,2-0.3,2.7-1.6,3.6c0.3-0.8,0.4-1,0.4-1.6c0-1.3-1-2.2-3-2.8c-1.1-0.3-2.1-0.5-3.5-0.7l-4.1-0.6
		c-2.6-0.4-4-0.9-5.3-1.7c-1.3-0.9-2-2.3-2-3.9C174.2,98,175,96.4,176.4,95.5 M192.7,93.6h-0.4l-3.1,2.5c-2.4-1.9-4.8-2.8-7.5-2.8
		c-4.7,0-8.1,2.8-8.1,6.6c0,3.4,2.4,5.4,7.3,6.2l5,0.8c0.8,0.1,1.9,0.4,2.9,0.6c0.5,0.2,1,0.3,1.5,0.6c0.7,0.4,1.1,1,1.1,1.8
		c0,1.7-1.7,2.6-4.7,2.6c-2.3,0-4.2-0.5-6.3-1.8c-1.2-0.7-2.4-1.6-3.4-2.7c-1.1-1.2-1.5-1.6-2.2-3h-0.6v7.7h0.6l3.4-2.7l0.2,0.2
		c1.8,1.4,2.9,2,4.5,2.5c1.2,0.3,2.4,0.5,3.7,0.5c4.9,0,7.9-2.3,7.9-6.2c0-2.5-1.2-4.3-3.6-5.2c-1.2-0.5-2.8-0.9-4.2-1.2l-4.4-0.7
		c-2.2-0.4-3.2-0.6-4.1-1c-0.7-0.4-1.2-1.1-1.2-1.9c0-1.7,1.8-2.9,4.6-2.9c3,0,6.1,1.4,8.4,3.8c0.9,0.9,1.2,1.4,2.1,2.8h0.5V93.6z
		 M191.2,95.2v3c-0.8-0.9-1-1.1-1.5-1.7L191.2,95.2z M174.7,112v-4.5c0.5,0.7,0.7,0.9,1.2,1.4c0.5,0.5,0.7,0.7,1.2,1.1L174.7,112z"
		/>
	<path class="st0" d="M211.6,99.1v2.7c-0.4-0.5-0.6-0.7-1-1.1c-0.3-0.2-0.5-0.5-0.8-0.7c-0.5-0.4-0.7-0.6-1.3-0.9H211.6z M213,98.6
		h-16.2v0.5h0.6c1,0,1.4,0.1,1.7,0.3c0.4,0.3,0.5,0.8,0.5,2v8.3c0,1.2-0.1,1.7-0.5,1.9c-0.4,0.3-0.7,0.4-1.7,0.4h-0.6v0.5h16.4v-5.1
		h-0.4c-0.9,1.2-1.8,2.2-2.9,3.1c-1.1,0.9-1.9,1.3-3.1,1.4c-0.3,0.1-0.7,0.1-1,0.1h-1.5v-6.6h0.5c0.7,0,1.2,0.2,1.9,0.6
		c0.4,0.3,0.8,0.6,1.1,1c0.3,0.3,0.4,0.5,0.6,0.9h0.5v-5.4h-0.5c-0.5,0.8-1.1,1.5-1.6,1.9c-0.6,0.4-1.2,0.5-2,0.5h-0.5v-5.9h2
		c1.4,0,2.1,0.3,3.3,1.2c1.2,1,2.1,2,3,3.3h0.4V98.6z M211.8,112h-3.6c0.7-0.3,1-0.5,1.5-0.9c0.3-0.2,0.5-0.4,0.8-0.6
		c0.6-0.5,0.8-0.7,1.3-1.3V112z M207.7,106.4c-0.3-0.3-0.4-0.5-0.8-0.7c-0.3-0.3-0.5-0.4-0.9-0.5c0.4-0.2,0.6-0.3,0.9-0.5
		c0.3-0.3,0.5-0.4,0.8-0.7V106.4z M199.5,99.1h3.2v13h-3.2c0.5-0.5,0.7-0.9,0.7-2v-8.9C200.1,100,200,99.5,199.5,99.1"/>
	<path class="st0" d="M221.6,99.1l9.5,9.6v3.7l-11.8-11.9c-0.5-0.5-1.3-1.1-1.8-1.4H221.6z M223.4,98.6h-7.5v0.5h0.1
		c0.3,0,0.8,0,0.9,0.1c0.2,0.1,0.5,0.3,0.8,0.5c0.4,0.2,0.6,0.4,0.7,0.5l0.4,0.4v7.6c0,2.4-1,3.7-3.1,3.8v0.5h6.6V112
		c-1.9,0-2.9-1.3-2.9-3.8v-7l11.7,11.8h0.4v-10.1c0-1.7,0.6-3,1.7-3.5c0.5-0.2,0.7-0.2,1.4-0.3v-0.5h-6.6v0.5c1.9,0,2.9,1.3,2.9,3.8
		v3.4L223.4,98.6z M219.6,112h-2c0.7-0.5,1.1-1,1.3-1.6C219.1,111.2,219.2,111.6,219.6,112 M231.8,99.1c-0.3,0.4-0.5,0.8-0.7,1.5
		c-0.2-0.6-0.6-1.1-1.3-1.5H231.8z"/>
	<path class="st0" d="M251.9,99.1v2.7c-0.4-0.5-0.6-0.7-1-1.1c-0.2-0.2-0.5-0.5-0.8-0.7c-0.5-0.4-0.7-0.6-1.3-0.9H251.9z
		 M253.3,98.6h-16.2v0.5h0.6c1,0,1.4,0.1,1.8,0.3c0.3,0.3,0.5,0.8,0.5,2v8.3c0,1.2-0.1,1.7-0.5,1.9c-0.4,0.3-0.7,0.4-1.8,0.4h-0.6
		v0.5h16.4v-5.1H253c-0.8,1.2-1.8,2.2-2.9,3.1c-1.1,0.9-1.9,1.3-3.1,1.4c-0.4,0.1-0.7,0.1-1,0.1h-1.5v-6.6h0.5
		c0.8,0,1.2,0.2,1.9,0.6c0.4,0.3,0.8,0.6,1.1,1c0.3,0.3,0.4,0.5,0.6,0.9h0.5v-5.4h-0.5c-0.5,0.8-1.1,1.5-1.6,1.9
		c-0.6,0.4-1.2,0.5-1.9,0.5h-0.5v-5.9h2c1.4,0,2.1,0.3,3.3,1.2c1.2,1,2.1,2,3,3.3h0.4V98.6z M252.1,112h-3.6c0.7-0.3,1-0.5,1.5-0.9
		c0.3-0.2,0.5-0.4,0.8-0.6c0.6-0.5,0.8-0.7,1.3-1.3V112z M248,106.4c-0.3-0.3-0.4-0.5-0.8-0.7c-0.3-0.3-0.5-0.4-0.9-0.5
		c0.4-0.2,0.6-0.3,0.9-0.5c0.4-0.3,0.5-0.4,0.8-0.7V106.4z M239.8,99.1h3.3v13h-3.3c0.5-0.5,0.7-0.9,0.7-2v-8.9
		C240.4,100,240.3,99.5,239.8,99.1"/>
	<path class="st0" d="M261.5,112c0.5-0.5,0.7-0.9,0.7-2V99.1h2.6v11.3c0,0.6,0,0.7,0.1,1c0.1,0.3,0.1,0.4,0.3,0.7H261.5z
		 M272.2,98.6h-16.4v6.1h0.5c0.3-0.8,0.4-1.1,0.7-1.7c0.6-1.1,1.5-2.3,2.4-3.1c0.7-0.6,1.2-0.8,2-0.8h0.3v10.6
		c0,1.2-0.1,1.7-0.5,1.9c-0.4,0.3-0.7,0.4-1.8,0.4h-0.6v0.5h10.3V112h-0.6c-1,0-1.4-0.1-1.8-0.4c-0.4-0.3-0.5-0.8-0.5-1.9V99.1h0.3
		c0.6,0,1.1,0.1,1.6,0.5c0.6,0.5,1.4,1.3,1.9,2c0.8,1,1.4,2.2,1.6,3.1h0.5V98.6z M270.8,99.1v2.8c-0.7-1.1-1.6-2.1-2.6-2.8H270.8z
		 M256.3,99.1h2c-0.7,0.6-1.5,1.6-2,2.6V99.1z"/>
	<path class="st0" d="M277,99.1h3.7c-0.2,0.3-0.3,0.4-0.3,0.7c-0.1,0.3-0.1,0.3-0.1,1v9.6c0,0.6,0,0.7,0.1,1
		c0.1,0.3,0.1,0.4,0.3,0.7H277c0.5-0.5,0.7-0.9,0.7-2v-8.9C277.7,100,277.5,99.5,277,99.1 M284.5,112h-0.6c-1,0-1.4-0.1-1.7-0.4
		c-0.4-0.3-0.5-0.8-0.5-1.9v-8.3c0-1.2,0.1-1.7,0.5-2c0.3-0.3,0.7-0.3,1.7-0.3h0.6v-0.5h-10.3v0.5h0.6c1,0,1.4,0.1,1.8,0.3
		c0.3,0.3,0.5,0.8,0.5,2v8.3c0,1.2-0.1,1.7-0.5,1.9c-0.4,0.3-0.7,0.4-1.8,0.4h-0.6v0.5h10.3V112z"/>
	<path class="st0" d="M292.7,99.1l9.5,9.6v3.7l-11.8-11.9c-0.5-0.5-1.3-1.1-1.8-1.4H292.7z M294.5,98.6H287v0.5h0.1
		c0.3,0,0.8,0,1,0.1c0.2,0.1,0.5,0.3,0.8,0.5c0.3,0.2,0.6,0.4,0.7,0.5l0.4,0.4v7.6c0,2.4-1,3.7-3.1,3.8v0.5h6.6V112
		c-1.9,0-2.9-1.3-2.9-3.8v-7l11.7,11.8h0.4v-10.1c0-1.7,0.6-3,1.7-3.5c0.5-0.2,0.7-0.2,1.4-0.3v-0.5h-6.6v0.5c1.9,0,2.9,1.3,2.9,3.8
		v3.4L294.5,98.6z M290.7,112h-2c0.7-0.5,1.1-1,1.3-1.6C290.2,111.2,290.3,111.6,290.7,112 M302.9,99.1c-0.3,0.4-0.5,0.8-0.7,1.5
		c-0.2-0.6-0.6-1.1-1.3-1.5H302.9z"/>
	<path class="st0" d="M323,99.1v2.7c-0.4-0.5-0.6-0.7-1-1.1c-0.3-0.2-0.5-0.5-0.8-0.7c-0.5-0.4-0.7-0.6-1.3-0.9H323z M324.4,98.6
		h-16.2v0.5h0.6c1,0,1.4,0.1,1.8,0.3c0.3,0.3,0.5,0.8,0.5,2v8.3c0,1.2-0.1,1.7-0.5,1.9c-0.4,0.3-0.7,0.4-1.8,0.4h-0.6v0.5h16.4v-5.1
		h-0.4c-0.8,1.2-1.8,2.2-2.9,3.1c-1.1,0.9-1.9,1.3-3.1,1.4c-0.3,0.1-0.7,0.1-1,0.1h-1.5v-6.6h0.5c0.8,0,1.2,0.2,1.9,0.6
		c0.4,0.3,0.8,0.6,1.1,1c0.3,0.3,0.4,0.5,0.6,0.9h0.5v-5.4h-0.5c-0.5,0.8-1,1.5-1.6,1.9c-0.5,0.4-1.2,0.5-1.9,0.5h-0.5v-5.9h2
		c1.4,0,2.1,0.3,3.3,1.2c1.2,1,2.1,2,3,3.3h0.4V98.6z M323.2,112h-3.6c0.7-0.3,1-0.5,1.5-0.9c0.3-0.2,0.5-0.4,0.8-0.6
		c0.6-0.5,0.8-0.7,1.3-1.3V112z M319.1,106.4c-0.3-0.3-0.4-0.5-0.8-0.7c-0.3-0.3-0.5-0.4-0.9-0.5c0.4-0.2,0.6-0.3,0.9-0.5
		c0.4-0.3,0.5-0.4,0.8-0.7V106.4z M310.9,99.1h3.3v13h-3.3c0.5-0.5,0.7-0.9,0.7-2v-8.9C311.6,100,311.4,99.5,310.9,99.1"/>
	<path class="st0" d="M334.6,105.4v-6.4h1c1.1,0,1.7,0.1,2.3,0.6c0.6,0.5,1,1.5,1,2.6c0,2.1-1,3.1-3.1,3.1H334.6z M327.2,98.6v0.5
		h0.6c1,0,1.4,0.1,1.8,0.3c0.3,0.3,0.5,0.8,0.5,2v8.3c0,1.2-0.1,1.7-0.5,1.9c-0.4,0.3-0.7,0.4-1.8,0.4h-0.6v0.5h9.8V112h-0.1
		c-1,0-1.4-0.1-1.7-0.4c-0.4-0.3-0.5-0.8-0.5-1.9v-3.8h1l3.4,6.6h6.2V112c-1.3,0-2-0.5-2.6-1.6l-2.2-4.5c2.3-0.4,3.5-1.7,3.5-3.7
		c0-1.4-0.8-2.7-2-3.2c-0.7-0.3-1.4-0.4-2.2-0.4c-0.3,0-0.9,0-1.7,0H327.2z M337.8,99.1c1.2,0,1.4,0,1.8,0.1c0.3,0.1,0.7,0.2,1,0.4
		c1,0.6,1.6,1.6,1.6,2.8c0,1.2-0.6,2.2-1.8,2.9c-0.4,0.2-0.9,0.5-1.4,0.7l-0.3,0.1l3,6.1h-2.4l-3.1-6.1c1.3-0.1,2-0.5,2.5-1.1
		c0.5-0.6,0.8-1.5,0.8-2.6C339.4,100.8,338.9,99.8,337.8,99.1 M329.9,99.1h3.3v11.3c0,0.6,0,0.7,0.1,1c0.1,0.3,0.1,0.4,0.3,0.7h-3.6
		c0.5-0.5,0.7-0.9,0.7-2v-8.9C330.5,100,330.4,99.5,329.9,99.1"/>
</g>
</svg>
