<svg xmlns="http://www.w3.org/2000/svg" width="18.564" height="18.565" viewBox="0 0 18.564 18.565">
  <g id="telephone-handle-silhouette" transform="translate(-0.01)">
    <path id="Trazado_232" data-name="Trazado 232" d="M18.534,14.385q-.079-.237-1-.7-.25-.145-.712-.4t-.837-.462q-.376-.211-.705-.409-.053-.04-.33-.231a3.705,3.705,0,0,0-.468-.284.863.863,0,0,0-.376-.092,1.094,1.094,0,0,0-.659.376,6.42,6.42,0,0,0-.725.818,7.949,7.949,0,0,1-.7.817,1,1,0,0,1-.607.376.9.9,0,0,1-.3-.066c-.119-.044-.209-.082-.271-.112s-.167-.092-.316-.185-.233-.143-.251-.152a13.856,13.856,0,0,1-3.1-2.294,13.849,13.849,0,0,1-2.294-3.1q-.013-.026-.152-.25t-.185-.317a2.857,2.857,0,0,1-.112-.27.892.892,0,0,1-.066-.3,1,1,0,0,1,.376-.607,7.941,7.941,0,0,1,.817-.7,6.417,6.417,0,0,0,.817-.725,1.094,1.094,0,0,0,.376-.659.861.861,0,0,0-.092-.376,3.665,3.665,0,0,0-.284-.468q-.191-.277-.231-.33-.2-.329-.409-.705t-.462-.837q-.25-.461-.4-.712-.461-.923-.7-1A.738.738,0,0,0,3.913,0a4.344,4.344,0,0,0-.93.132,5.221,5.221,0,0,0-.9.277,3.535,3.535,0,0,0-1.4,1.608A5.112,5.112,0,0,0,.01,4.469a5.092,5.092,0,0,0,.046.692,5.689,5.689,0,0,0,.165.758q.119.422.191.626t.27.732q.2.527.237.646a11.943,11.943,0,0,0,1.094,2.307,19.55,19.55,0,0,0,2.841,3.488A19.559,19.559,0,0,0,8.343,16.56a11.961,11.961,0,0,0,2.307,1.094q.119.039.646.237t.732.27q.2.073.626.191a5.739,5.739,0,0,0,.758.165,4.891,4.891,0,0,0,3.145-.627,3.532,3.532,0,0,0,1.608-1.4,5.193,5.193,0,0,0,.277-.9,4.334,4.334,0,0,0,.132-.929A.735.735,0,0,0,18.534,14.385Z" fill="#c5a993"/>
  </g>
</svg>
