<?xml version="1.0" encoding="utf-8"?>
<!-- Generator: Adobe Illustrator 23.0.2, SVG Export Plug-In . SVG Version: 6.00 Build 0)  -->
<svg version="1.1" id="Capa_1" xmlns="http://www.w3.org/2000/svg" xmlns:xlink="http://www.w3.org/1999/xlink" x="0px" y="0px"
	 viewBox="0 0 10.3 12.9" style="enable-background:new 0 0 10.3 12.9;" xml:space="preserve">
<style type="text/css">
	.st0{fill:#D0AA93;}
</style>
<path class="st0" d="M5.5,12.5c-0.2,0.2-0.4,0.2-0.6,0.1c0,0-0.1,0-0.1-0.1c-1.1-1.3-4.1-5.9-4.1-7.8c0-2.5,2-4.5,4.5-4.5
	s4.5,2,4.5,4.5C9.6,6.6,6.6,11.2,5.5,12.5z M5.2,2.1c-1.5,0-2.7,1.2-2.7,2.7c0,1,1.4,3.7,2.7,5.4c1.3-1.7,2.7-4.4,2.7-5.4
	C7.8,3.3,6.6,2.1,5.2,2.1z"/>
<circle class="st0" cx="5.2" cy="4.8" r="0.9"/>
</svg>
