<?xml version="1.0" encoding="utf-8"?>
<!-- Generator: Adobe Illustrator 23.0.2, SVG Export Plug-In . SVG Version: 6.00 Build 0)  -->
<svg version="1.1" id="Capa_1" xmlns="http://www.w3.org/2000/svg" xmlns:xlink="http://www.w3.org/1999/xlink" x="0px" y="0px"
	 viewBox="0 0 297.8 51.9" style="enable-background:new 0 0 297.8 51.9;" xml:space="preserve">
<style type="text/css">
	.st0{fill:#FFFFFF;}
</style>
<path id="Trazado_1" class="st0" d="M105,44.1c0.3,0.6,0.4,1.2,0.4,1.9c0,0.6-0.1,1.3-0.4,1.8c-0.3,0.5-0.7,1-1.2,1.4
	c-0.5,0.4-1,0.7-1.6,0.9c-0.6,0.2-1.2,0.3-1.9,0.3h-3.5c0.1-0.1,0.1-0.3,0.1-0.4c0-0.1,0.1-0.2,0.1-0.3c0-0.1,0-0.2,0-0.3v-6.9
	c0-0.2,0-0.4,0-0.5c0-0.2-0.1-0.4-0.2-0.5h3.7c0.6,0,1.3,0.1,1.9,0.3c0.6,0.2,1.1,0.5,1.6,0.9C104.4,43,104.8,43.5,105,44.1
	L105,44.1z M103.9,46.2c0-0.5-0.1-1.1-0.3-1.6c-0.2-0.5-0.5-0.9-0.8-1.3c-0.4-0.4-0.8-0.7-1.2-0.9c-0.5-0.2-1-0.3-1.6-0.3h-1.6v8
	h1.8c0.5,0,1.1-0.1,1.6-0.3c0.9-0.3,1.6-1,1.9-1.9C103.8,47.2,103.9,46.7,103.9,46.2L103.9,46.2z M114.8,49.9h-2.6v-4.5h3l0.2-0.5
	h-3.2v-2.9h2.4c0.2,0,0.5,0,0.7,0.1c0.2,0.1,0.4,0.1,0.7,0.2l-0.4-0.9h-5c0.1,0.2,0.1,0.4,0.2,0.6c0,0.2,0.1,0.4,0.1,0.6v6.5
	c0,0.2,0,0.4,0,0.6c0,0.2-0.1,0.4-0.2,0.6h5.2l0.4-0.8c-0.2,0.1-0.5,0.2-0.7,0.2C115.3,49.9,115,49.9,114.8,49.9L114.8,49.9z
	 M126.5,46c-0.3-0.2-0.6-0.4-1-0.6l-1-0.5c-0.2-0.1-0.4-0.2-0.6-0.3c-0.2-0.1-0.4-0.3-0.6-0.4c-0.2-0.2-0.4-0.3-0.5-0.5
	c-0.1-0.2-0.2-0.4-0.2-0.6c0-0.2,0.1-0.4,0.2-0.5c0.1-0.2,0.3-0.3,0.4-0.4c0.2-0.1,0.4-0.2,0.6-0.2c0.2-0.1,0.4-0.1,0.6-0.1
	c0.2,0,0.5,0,0.7,0.1c0.2,0.1,0.5,0.2,0.7,0.3c0.2,0.1,0.4,0.2,0.6,0.4c0.2,0.1,0.4,0.3,0.6,0.5l-0.1-1c-0.4-0.2-0.8-0.4-1.3-0.5
	c-0.4-0.1-0.9-0.2-1.4-0.2c-0.3,0-0.7,0-1,0.1c-0.4,0.1-0.7,0.2-1,0.4c-0.3,0.2-0.6,0.4-0.8,0.7c-0.4,0.6-0.4,1.4,0.1,2
	c0.3,0.3,0.6,0.6,0.9,0.8c0.4,0.2,0.8,0.5,1.2,0.7c0.4,0.2,0.8,0.4,1.2,0.6c0.3,0.2,0.6,0.4,0.9,0.7c0.2,0.3,0.4,0.6,0.4,0.9
	c0,0.3,0,0.5-0.2,0.7c-0.1,0.2-0.2,0.4-0.4,0.6c-0.2,0.2-0.4,0.3-0.6,0.4c-0.2,0.1-0.5,0.1-0.8,0.1c-0.3,0-0.6-0.1-0.9-0.2
	c-0.3-0.1-0.6-0.3-0.9-0.4c-0.3-0.2-0.6-0.4-0.8-0.6c-0.2-0.2-0.5-0.4-0.7-0.6l0.2,1.3c0.5,0.3,1,0.5,1.5,0.7
	c0.5,0.2,1.1,0.3,1.6,0.2c0.4,0,0.8-0.1,1.2-0.2c0.4-0.1,0.8-0.3,1.1-0.5c0.3-0.2,0.6-0.5,0.8-0.8c0.2-0.4,0.3-0.8,0.3-1.2
	c0-0.4-0.1-0.7-0.3-1.1C127,46.5,126.7,46.2,126.5,46L126.5,46z M141,44.1c0.3,0.6,0.4,1.2,0.4,1.9c0,0.6-0.1,1.3-0.4,1.8
	c-0.3,0.5-0.7,1-1.2,1.4c-0.5,0.4-1,0.7-1.6,0.9c-0.6,0.2-1.2,0.3-1.9,0.3h-3.5c0.1-0.1,0.1-0.3,0.1-0.4c0-0.1,0.1-0.2,0.1-0.3
	c0-0.1,0-0.2,0-0.3v-6.9c0-0.2,0-0.4,0-0.5c0-0.2-0.1-0.4-0.1-0.5h3.7c0.6,0,1.3,0.1,1.9,0.3c0.6,0.2,1.1,0.5,1.6,0.9
	C140.3,43,140.7,43.5,141,44.1L141,44.1z M139.8,46.1c0-0.5-0.1-1.1-0.3-1.6c-0.2-0.5-0.4-0.9-0.8-1.3c-0.4-0.4-0.8-0.7-1.2-0.9
	c-0.5-0.2-1-0.3-1.6-0.3h-1.6v8h1.8c0.5,0,1.1-0.1,1.6-0.3c0.9-0.3,1.6-1,1.8-1.9C139.8,47.2,139.8,46.7,139.8,46.1L139.8,46.1z
	 M150.8,49.9h-2.6v-4.5h3l0.2-0.5h-3.2v-2.9h2.4c0.2,0,0.5,0,0.7,0.1c0.2,0.1,0.4,0.1,0.7,0.2l-0.4-0.9h-5c0.1,0.2,0.1,0.4,0.2,0.6
	c0,0.2,0.1,0.4,0.1,0.6v6.5c0,0.4-0.1,0.8-0.2,1.2h5.2l0.4-0.8c-0.2,0.1-0.5,0.2-0.7,0.2C151.2,49.9,151,49.9,150.8,49.9L150.8,49.9
	z M167.6,49.7c0-0.1,0-0.2,0-0.3v-7.9l-0.3-0.2l-1.9,1.1l0.2,0.3c0.1,0,0.2-0.1,0.2-0.1c0.1,0,0.2-0.1,0.3-0.1c0.1,0,0.2,0,0.2,0.1
	c0,0.1,0,0.2,0,0.3v6.4c0,0.4-0.1,0.8-0.2,1.2h1.8c-0.1-0.1-0.1-0.2-0.1-0.4C167.6,49.9,167.6,49.8,167.6,49.7L167.6,49.7z
	 M179.9,46.8c0.1,0.3,0.2,0.6,0.2,0.9c0,0.4-0.1,0.9-0.3,1.2c-0.2,0.3-0.5,0.6-0.8,0.9c-0.4,0.2-0.7,0.4-1.2,0.5
	c-0.4,0.1-0.8,0.2-1.2,0.2c-0.4,0-0.8-0.1-1.2-0.2c-0.4-0.1-0.8-0.3-1.1-0.5c-0.3-0.2-0.6-0.5-0.8-0.9c-0.2-0.4-0.3-0.8-0.3-1.2
	c0-0.3,0-0.5,0.1-0.8c0.1-0.2,0.2-0.4,0.4-0.6c0.2-0.2,0.4-0.4,0.6-0.5c0.2-0.2,0.5-0.3,0.7-0.4c-0.3-0.2-0.6-0.4-0.8-0.8
	c-0.2-0.3-0.3-0.7-0.3-1c0-0.4,0.1-0.7,0.2-1c0.1-0.3,0.4-0.5,0.6-0.8c0.3-0.2,0.6-0.4,0.9-0.5c0.3-0.1,0.7-0.2,1-0.2
	c0.3,0,0.6,0,0.9,0.1c0.3,0.1,0.6,0.2,0.9,0.4c0.3,0.2,0.5,0.4,0.7,0.6c0.2,0.3,0.3,0.6,0.3,0.9c0,0.2,0,0.4-0.1,0.6
	c-0.1,0.2-0.2,0.4-0.3,0.5c-0.1,0.2-0.3,0.3-0.4,0.4c-0.2,0.1-0.3,0.2-0.5,0.4c0.3,0.1,0.5,0.3,0.8,0.5c0.2,0.2,0.5,0.4,0.6,0.6
	C179.7,46.3,179.8,46.6,179.9,46.8L179.9,46.8z M175.1,43.1c0,0.3,0.1,0.6,0.2,0.8c0.2,0.2,0.4,0.4,0.6,0.5c0.2,0.1,0.5,0.2,0.8,0.3
	c0.3,0.1,0.5,0.1,0.8,0.2c0.2-0.2,0.4-0.4,0.5-0.7c0.1-0.3,0.2-0.6,0.2-0.8c0-0.2,0-0.4-0.1-0.7c-0.1-0.2-0.2-0.4-0.4-0.5
	c-0.2-0.1-0.3-0.3-0.5-0.3c-0.2-0.1-0.4-0.1-0.7-0.1c-0.4,0-0.8,0.1-1.1,0.3C175.2,42.3,175.1,42.7,175.1,43.1L175.1,43.1z
	 M178.8,47.9c0-0.4-0.1-0.7-0.3-1c-0.2-0.3-0.5-0.5-0.8-0.6c-0.3-0.2-0.7-0.3-1-0.4c-0.4-0.1-0.7-0.2-1-0.3
	c-0.4,0.2-0.7,0.5-0.9,0.9c-0.2,0.4-0.3,0.8-0.3,1.2c0,0.3,0.1,0.6,0.2,0.9c0.1,0.3,0.3,0.5,0.5,0.7c0.2,0.2,0.5,0.3,0.8,0.4
	c0.3,0.1,0.6,0.2,0.9,0.1c0.3,0,0.6-0.1,0.8-0.2c0.2-0.1,0.5-0.2,0.6-0.4c0.2-0.2,0.3-0.4,0.4-0.7C178.7,48.5,178.8,48.2,178.8,47.9
	L178.8,47.9z M191.7,46.8c0.1,0.3,0.2,0.6,0.2,0.9c0,0.4-0.1,0.9-0.3,1.2c-0.2,0.3-0.5,0.6-0.8,0.9c-0.4,0.2-0.7,0.4-1.2,0.5
	c-0.4,0.1-0.8,0.2-1.2,0.2c-0.4,0-0.8-0.1-1.2-0.2c-0.4-0.1-0.8-0.3-1.1-0.5c-0.3-0.2-0.6-0.5-0.8-0.9c-0.2-0.4-0.3-0.8-0.3-1.2
	c0-0.3,0-0.5,0.1-0.8c0.1-0.2,0.2-0.4,0.4-0.6c0.2-0.2,0.4-0.4,0.6-0.5c0.2-0.2,0.5-0.3,0.7-0.4c-0.3-0.2-0.6-0.4-0.8-0.8
	c-0.2-0.3-0.3-0.7-0.3-1c0-0.4,0.1-0.7,0.2-1c0.2-0.3,0.4-0.5,0.6-0.8c0.3-0.2,0.6-0.4,0.9-0.5c0.3-0.1,0.7-0.2,1-0.2
	c0.3,0,0.6,0,0.9,0.1c0.3,0.1,0.6,0.2,0.9,0.4c0.3,0.2,0.5,0.4,0.7,0.6c0.2,0.3,0.3,0.6,0.3,0.9c0,0.2,0,0.4-0.1,0.6
	c-0.1,0.2-0.2,0.4-0.3,0.5c-0.1,0.2-0.3,0.3-0.4,0.4c-0.2,0.1-0.3,0.2-0.5,0.4c0.3,0.1,0.5,0.3,0.8,0.5c0.2,0.2,0.5,0.4,0.6,0.6
	C191.4,46.3,191.6,46.6,191.7,46.8L191.7,46.8z M186.8,43.1c0,0.3,0.1,0.6,0.2,0.8c0.2,0.2,0.4,0.4,0.6,0.5c0.2,0.1,0.5,0.2,0.8,0.3
	c0.3,0.1,0.5,0.1,0.8,0.2c0.2-0.2,0.4-0.4,0.5-0.7c0.1-0.3,0.2-0.6,0.2-0.8c0-0.2,0-0.4-0.1-0.7c-0.1-0.2-0.2-0.4-0.4-0.5
	c-0.2-0.2-0.3-0.3-0.5-0.3c-0.2-0.1-0.4-0.1-0.7-0.1c-0.4,0-0.8,0.1-1,0.3C186.9,42.3,186.8,42.7,186.8,43.1L186.8,43.1z
	 M190.5,47.9c0-0.4-0.1-0.7-0.3-1c-0.2-0.3-0.5-0.5-0.8-0.6c-0.3-0.2-0.7-0.3-1.1-0.4c-0.4-0.1-0.7-0.2-1-0.3
	c-0.4,0.2-0.7,0.5-0.9,0.9c-0.2,0.4-0.3,0.8-0.3,1.2c0,0.3,0.1,0.6,0.2,0.9c0.1,0.3,0.3,0.5,0.5,0.7c0.2,0.2,0.5,0.3,0.7,0.4
	c0.3,0.1,0.6,0.1,0.9,0.1c0.3,0,0.6-0.1,0.8-0.2c0.2-0.1,0.5-0.2,0.6-0.4c0.2-0.2,0.3-0.4,0.4-0.7C190.4,48.5,190.5,48.2,190.5,47.9
	L190.5,47.9z M203.4,46.8c0.1,0.3,0.2,0.6,0.2,0.9c0,0.4-0.1,0.9-0.3,1.2c-0.2,0.3-0.5,0.6-0.8,0.9c-0.4,0.2-0.7,0.4-1.2,0.5
	c-0.4,0.1-0.8,0.2-1.2,0.2c-0.4,0-0.8-0.1-1.2-0.2c-0.4-0.1-0.8-0.3-1.1-0.5c-0.3-0.2-0.6-0.5-0.8-0.9c-0.2-0.4-0.3-0.8-0.3-1.2
	c0-0.3,0-0.5,0.1-0.8c0.1-0.2,0.2-0.4,0.4-0.6c0.2-0.2,0.4-0.4,0.6-0.5c0.2-0.2,0.5-0.3,0.7-0.4c-0.3-0.2-0.6-0.4-0.8-0.8
	c-0.2-0.3-0.3-0.7-0.3-1c0-0.4,0.1-0.7,0.2-1c0.1-0.3,0.4-0.5,0.6-0.8c0.3-0.2,0.6-0.4,0.9-0.5c0.3-0.1,0.7-0.2,1-0.2
	c0.3,0,0.6,0,0.9,0.1c0.3,0.1,0.6,0.2,0.9,0.4c0.3,0.2,0.5,0.4,0.7,0.6c0.3,0.4,0.3,1,0.2,1.5c-0.1,0.2-0.2,0.4-0.3,0.5
	c-0.1,0.2-0.3,0.3-0.4,0.4c-0.2,0.1-0.3,0.2-0.5,0.4c0.3,0.1,0.5,0.3,0.8,0.5c0.2,0.2,0.5,0.4,0.6,0.6
	C203.2,46.3,203.3,46.6,203.4,46.8L203.4,46.8z M198.6,43.1c0,0.3,0.1,0.6,0.2,0.8c0.2,0.2,0.4,0.4,0.6,0.5c0.2,0.1,0.5,0.2,0.8,0.3
	c0.3,0.1,0.5,0.1,0.8,0.2c0.2-0.2,0.4-0.4,0.5-0.7c0.1-0.3,0.2-0.6,0.2-0.8c0-0.2,0-0.4-0.1-0.7c-0.1-0.2-0.2-0.4-0.4-0.5
	c-0.2-0.1-0.3-0.3-0.5-0.3c-0.2-0.1-0.4-0.1-0.7-0.1c-0.4,0-0.8,0.1-1.1,0.3C198.7,42.3,198.5,42.7,198.6,43.1L198.6,43.1z
	 M202.2,47.9c0-0.4-0.1-0.7-0.3-1c-0.2-0.3-0.5-0.5-0.8-0.6c-0.3-0.2-0.7-0.3-1-0.4c-0.4-0.1-0.7-0.2-1-0.3
	c-0.4,0.2-0.7,0.5-0.9,0.9c-0.2,0.4-0.3,0.8-0.3,1.2c0,0.3,0.1,0.6,0.2,0.9c0.1,0.3,0.3,0.5,0.5,0.7c0.2,0.2,0.5,0.3,0.7,0.4
	c0.3,0.1,0.6,0.1,0.9,0.1c0.3,0,0.6-0.1,0.8-0.2c0.2-0.1,0.5-0.2,0.6-0.4c0.2-0.2,0.3-0.4,0.4-0.7C202.2,48.5,202.2,48.2,202.2,47.9
	L202.2,47.9z M22.4,3.3c0.2,0.9,0.3,1.8,0.4,2.7v17.6L3.5,2.4L3.5,2.3H2.3v25.2c0,0.9-0.1,1.8-0.4,2.6l-0.1,0.3h2.9l-0.1-0.3
	c-0.3-0.9-0.4-1.7-0.4-2.6V10l19.2,21.2l0.1,0.1h1.2V5.9c0-0.9,0.2-1.8,0.4-2.7l0.1-0.2h-2.8L22.4,3.3z M36.2,28.7
	c-0.1-0.5-0.1-1-0.1-1.5V11.5c0-1,0.2-1.9,0.5-2.8l0.1-0.3h-5l0.1,0.3c0.4,0.9,0.6,1.9,0.5,2.8v15.7c0,1-0.2,2-0.6,2.9l-0.1,0.3h5
	l-0.1-0.3C36.4,29.7,36.3,29.2,36.2,28.7L36.2,28.7z M54.1,28.5l-0.1,0L54.1,28.5C54.1,28.5,54.1,28.5,54.1,28.5L54.1,28.5z
	 M54.1,28.5C54.2,28.5,54.2,28.5,54.1,28.5c-0.3,0.1-0.2,0.1-0.1,0c-0.5,0.2-1,0.2-1.6,0.2h-6V18.4h7.1l0.6-1.6h-7.7v-6.7H52
	c1.1,0.1,2.2,0.3,3.2,0.8l0.4,0.1l-1.1-2.6H42.1l0.1,0.3c0.4,0.9,0.6,1.9,0.5,2.9v15.7c0,1-0.2,1.9-0.5,2.8l-0.1,0.3H55l1.1-2.5
	L55.7,28C55.2,28.2,54.6,28.4,54.1,28.5L54.1,28.5z M59.6,8.4L58.4,11l0.4-0.2c1-0.4,2-0.7,3.1-0.8h4.7v17.2c0,1-0.2,2-0.6,2.9
	L66,30.4h4.9l-0.1-0.3c-0.4-0.8-0.6-1.7-0.5-2.6V10.1h4.7c1.1,0.1,2.1,0.3,3.1,0.8l0.4,0.2l-1.1-2.6L59.6,8.4z M97.4,29.1
	c-4.4,2.2-9.6,1.8-13.5-1.1c-1.8-1.3-3.1-3.2-3.7-5.4c-0.7-2.3-0.5-4.7,0.4-7c1.9-4.3,6.1-7.2,10.8-7.4c4.6-0.2,9.4,2.1,11.5,6.4
	c1.3,2.7,1.3,5.8,0.2,8.6C101.9,25.8,99.9,27.9,97.4,29.1L97.4,29.1z M97.8,26.1c0.7-0.9,1.3-1.9,1.6-3c0.3-1.1,0.4-2.3,0.4-3.5
	c-0.1-1.2-0.4-2.5-0.8-3.6c-0.8-1.9-2.1-3.5-3.7-4.6c-0.8-0.6-1.7-1-2.7-1.1c-0.9-0.1-1.9,0-2.8,0.2c-3.8,0.9-6,4.6-6,8.3v0.6
	c0.2,2.3,1,4.5,2.4,6.3c1.4,1.7,3.4,3.2,5.6,3.2C94,28.8,96.3,27.8,97.8,26.1L97.8,26.1z M102.8,14.6
	C103.4,16,102.1,13.3,102.8,14.6z M134.8,25.7c1-2,0.9-4.4-0.2-6.3c-0.6-1-1.4-1.8-2.3-2.5l-0.1,0l0,0c-2-1.4-4-2.5-6.2-3.5
	c-1-0.5-2-1.1-3-1.8c-0.9-0.6-1.7-1.5-2.2-2.6c-0.9-2.4,1.7-4.1,3.7-4.5c2.4-0.5,5,0.6,6.9,2c0.7,0.5,1.3,1,1.9,1.6l0.4,0.4
	l-0.4-3.7l-0.1,0c-2.2-1.2-4.7-1.9-7.2-2.1c-2.5-0.1-4.9,0.4-7,1.7c-2,1-3.2,3.1-3.2,5.3c0.1,2.3,1.8,3.9,3.5,5.1
	c2,1.4,4.3,2.3,6.5,3.5c1.8,1,4.2,2.4,4.6,4.6c0.4,2.3-0.8,4.5-2.9,5.5c-2.3,1.1-4.8,0.5-7-0.6c-2-1-3.8-2.4-5.4-4l-0.4-0.4l0.6,4.4
	l0.1,0c4.2,2.6,9.5,3.8,14.2,2C132,29.1,133.7,27.6,134.8,25.7L134.8,25.7z M132.2,16.8L132.2,16.8
	C132.1,16.7,131.9,16.5,132.2,16.8L132.2,16.8z M132.3,16.8C132.3,16.8,132.3,16.8,132.3,16.8l0.2,0.1
	C132.4,16.9,132.4,16.9,132.3,16.8L132.3,16.8z M152.8,28.5c0.1,0,0.1,0,0.2,0S152.9,28.5,152.8,28.5c-0.5,0.2-1.1,0.2-1.6,0.2h-6
	V18.4h7.2l0.6-1.6h-7.7v-6.7h5.6c1.1,0.1,2.2,0.3,3.2,0.8l0.4,0.1l-1.1-2.6h-12.4l0.1,0.3c0.4,0.9,0.6,1.9,0.5,2.9v15.7
	c0,1-0.2,1.9-0.5,2.8l-0.1,0.3h12.9l1.1-2.5l-0.4,0.1C153.9,28.2,153.4,28.4,152.8,28.5L152.8,28.5z M196.9,28
	c-0.5,0.2-1.1,0.4-1.6,0.5c0.1,0,0.1,0,0.2,0c0,0-0.1,0-0.2,0c-0.5,0.2-1.1,0.2-1.6,0.2h-6V18.4h7.1l0.6-1.6h-7.7v-6.7h5.6
	c1.1,0.1,2.2,0.3,3.2,0.8l0.4,0.1l-1.1-2.6h-12.4l0.1,0.3c0.4,0.9,0.5,1.9,0.5,2.9v15.7c0,1-0.2,1.9-0.5,2.8l-0.1,0.3h12.9l1.1-2.5
	L196.9,28z M161.1,28V14.1L176.4,31l0.1,0.1h1V10.8c0-0.7,0.1-1.4,0.3-2.1l0.1-0.2h-2.3l0.1,0.2c0.2,0.7,0.3,1.4,0.3,2.1v14
	L160.5,7.9l-0.1-0.1h-0.9V28c0,0.7-0.1,1.4-0.3,2.1l-0.1,0.3h2.4l-0.1-0.3C161.2,29.5,161.1,28.8,161.1,28L161.1,28z M200.8,8.4
	l-1.1,2.6l0.4-0.2c1-0.4,2-0.7,3.1-0.8h4.7v17.2c0,1-0.2,2-0.6,2.9l-0.1,0.3h4.9l-0.1-0.3c-0.4-0.8-0.6-1.7-0.6-2.6V10.1h4.7
	c1.1,0.1,2.1,0.3,3.1,0.8l0.4,0.2l-1.1-2.6L200.8,8.4z M227.9,28.7c-0.1-0.5-0.1-1-0.1-1.5V11.5c0-1,0.2-1.9,0.6-2.8l0.1-0.3h-5
	l0.1,0.3c0.4,0.9,0.6,1.9,0.5,2.8v15.7c0,1-0.2,2-0.5,2.9l-0.1,0.3h5l-0.1-0.3C228.2,29.7,228,29.2,227.9,28.7L227.9,28.7z
	 M295.5,30c-1.9-1.4-3.8-2.9-5.6-4.5c-1.7-1.6-3.3-3.4-4.7-5.3c1.8-0.2,3.5-1,4.7-2.3c1.1-1.4,1.5-3.3,0.9-5c-1-3.9-5.5-4.6-8.9-4.6
	h-5.7l0.1,0.3c0.4,1,0.6,2,0.6,3.1V27c0,1.1-0.2,2.1-0.6,3.1l-0.1,0.3h5l-0.1-0.3c-0.4-1-0.6-2-0.6-3.1v-17l0.6,0
	c1.4-0.1,2.9,0.2,4.2,0.9c1.1,0.8,1.8,2,1.9,3.4c0.2,1.4-0.3,2.8-1.4,3.8c-1.2,0.8-2.7,1.1-4.1,0.7l-0.1,0l-0.7,0.4l0.1,0.2
	c2.5,4,5.6,7.8,9,11.1l0.1,0.1h5.7L295.5,30z M270.2,28.5c0,0,0.1,0,0.1,0L270.2,28.5c-0.5,0.2-1.1,0.2-1.6,0.2h-6V18.4h7.2l0.6-1.6
	h-7.7v-6.7h5.6c1.1,0.1,2.2,0.3,3.2,0.8l0.4,0.1l-1.1-2.6h-12.4l0.1,0.3c0.4,0.9,0.6,1.9,0.5,2.9v15.7c0,1-0.2,1.9-0.5,2.8l-0.1,0.3
	h12.9l1.1-2.5l-0.4,0.1C271.3,28.2,270.7,28.4,270.2,28.5L270.2,28.5z M250.5,8.6c0.2,0.7,0.3,1.4,0.3,2.1v14L235.4,7.8l-0.1-0.1
	h-0.9V28c0,0.7-0.1,1.4-0.3,2.1l-0.1,0.3h2.4l-0.1-0.3c-0.2-0.7-0.3-1.4-0.3-2.1V14.1L251.3,31l0.1,0.1h1V10.8
	c0-0.7,0.1-1.4,0.3-2.1l0-0.2h-2.3L250.5,8.6z"/>
</svg>
