<svg xmlns="http://www.w3.org/2000/svg" width="297.763" height="112.939" viewBox="0 0 297.763 112.939">
  <path id="Trazado_1" data-name="Trazado 1" d="M432.717,273.758c-.026.471.083,7.058.083,7.058l-.672-.015-.036-7.1s.024-2.846,3.873-2.57a3.553,3.553,0,0,1,3.38,3.432l-.209,3.635-1.565-.921-.033-2.77s-.276-2.381-2.2-2.54A2.285,2.285,0,0,0,432.717,273.758ZM375.223,282.2l-.585-8.3s-2.708-5.8-13.084-6.444a23.935,23.935,0,0,0-16.691,5.091l-.188,6.354.86.287s.167-4.708.231-6.513c15.661-8.572,24.036,2.062,24.036,2.062l-.338,6.615Zm25.924-32.836.315.047-.088-4.671s.013-1.5,2.051-1.359a1.879,1.879,0,0,1,1.788,1.816l.15,4.788.36.052,0,.452-4.575-.67Zm1.507-5.511c.784.254.911,1.282.911,1.282l.123,4.6.693.1-.126-4.672s-.145-1.261-1.162-1.342A1.522,1.522,0,0,0,402.654,243.854Zm-1.936,5.886-4.576-.674,0-.452.313.046-.086-4.669s.012-1.506,2.05-1.361a1.881,1.881,0,0,1,1.789,1.818l.147,4.784.361.053Zm-1.342-.651-.123-4.67s-.146-1.262-1.165-1.344a1.426,1.426,0,0,0-.7.105c.97.12,1.116,1.331,1.116,1.331l.119,4.467Zm26.156,25.474a3.551,3.551,0,0,0-3.38-3.432c-3.847-.276-3.873,2.57-3.873,2.57l.037,7.651.671.018s-.106-7.141-.084-7.611a2.287,2.287,0,0,1,2.623-1.79c1.924.159,2.2,2.54,2.2,2.54l.109,5.479,1.853.829Zm-99.24-8.185,14.462-.753a36.734,36.734,0,0,1,20.79-5.274c9.494.386,17.539,6.333,17.539,6.333l3.744,1.244,1.691-21.917-3.074-.132s-1.057-.455.151-1.737,13.068-14.656,13.068-14.656.152-.377,1.21.3,16.239,11.18,17.448,12.086-.331.975-.906.983a25.186,25.186,0,0,1-3.7.031l2.48,20.774-.149-1.535,24.557.879s.4.037,1.007.123a14.5,14.5,0,0,1,3.036.586c.323.083.645.174.956.272a.334.334,0,0,0-.041.008,60.83,60.83,0,0,1,5.787,2.669c.269.18-8.6,1.183-8.6,1.183s-22.535-.077-26.062-.088l2.115,17.711-2.189-1.678-3.708-41.51-14.585-2.824-.368,42.189-5.7,2.366-.208-14.656-.383-.083-9.833-.725s-5.675-5.916-18.447-6.392a25.666,25.666,0,0,0-16.61,5.233S329.755,267.886,326.292,266.377Zm66.858-28.948,15.458,3.862,0,.007,3.182.526L395.153,230.98S393.776,235.134,393.151,237.43Zm-8.252,7.707,7.511-7.631c0-.016,0-.038,0-.055l-9.975,7.265c-.048.091-.063.149-.031.16A11.088,11.088,0,0,0,384.9,245.137Zm-39.444,90.608a4.4,4.4,0,0,1,.4,1.9,3.889,3.889,0,0,1-.449,1.856,4.675,4.675,0,0,1-1.183,1.432,5.463,5.463,0,0,1-1.657.918,5.658,5.658,0,0,1-1.875.325h-3.541a3.519,3.519,0,0,0,.146-.385,2.112,2.112,0,0,0,.072-.33,2.5,2.5,0,0,0,.022-.331V334.16a3.407,3.407,0,0,0-.046-.556,2.625,2.625,0,0,0-.154-.53H340.9a5.623,5.623,0,0,1,1.9.318,4.776,4.776,0,0,1,1.579.911A4.324,4.324,0,0,1,345.455,335.745Zm-1.134,2.112a4.69,4.69,0,0,0-.285-1.632,4.133,4.133,0,0,0-.812-1.354,3.963,3.963,0,0,0-1.261-.925,3.791,3.791,0,0,0-1.618-.342h-1.573v8.057h1.823a4.579,4.579,0,0,0,1.612-.266,3.014,3.014,0,0,0,1.875-1.947A4.968,4.968,0,0,0,344.321,337.857Zm11.053,3.8h-2.6v-4.555h3.038l.185-.519h-3.222V333.6H355.2a2.224,2.224,0,0,1,.693.107c.225.068.453.144.681.225l-.371-.861h-5.058a3.141,3.141,0,0,1,.184.63,3.586,3.586,0,0,1,.053.64v6.615a3.4,3.4,0,0,1-.045.62,3.494,3.494,0,0,1-.193.6H356.4l.37-.845q-.345.117-.693.225A2.413,2.413,0,0,1,355.374,341.661Zm11.794-3.956a5.987,5.987,0,0,0-.985-.622l-1.009-.509c-.167-.078-.363-.182-.588-.315a5.058,5.058,0,0,1-.639-.449,2.755,2.755,0,0,1-.516-.549,1.062,1.062,0,0,1-.211-.626.871.871,0,0,1,.179-.54,1.559,1.559,0,0,1,.441-.4,2.387,2.387,0,0,1,.569-.244,2.16,2.16,0,0,1,.568-.084,2.772,2.772,0,0,1,.739.1,4.393,4.393,0,0,1,.714.278,4.59,4.59,0,0,1,.652.4,5.374,5.374,0,0,1,.576.478l-.118-1.018a9.021,9.021,0,0,0-1.289-.5,4.726,4.726,0,0,0-1.367-.2,4.336,4.336,0,0,0-1.024.134,3.642,3.642,0,0,0-1.015.409,2.632,2.632,0,0,0-.786.692,1.666,1.666,0,0,0,.052,2.023,4.158,4.158,0,0,0,.924.792,10.954,10.954,0,0,0,1.2.664c.432.21.832.422,1.2.639a4.063,4.063,0,0,1,.926.74,1.371,1.371,0,0,1,.367.948,1.73,1.73,0,0,1-.157.758,1.906,1.906,0,0,1-.423.587,1.743,1.743,0,0,1-.621.385,2.189,2.189,0,0,1-.764.131,2.688,2.688,0,0,1-.907-.161,5.4,5.4,0,0,1-.891-.422,7.057,7.057,0,0,1-.825-.562,7.571,7.571,0,0,1-.693-.611l.171,1.271a7.471,7.471,0,0,0,1.5.7,5.173,5.173,0,0,0,1.639.251,4.931,4.931,0,0,0,1.208-.156,3.567,3.567,0,0,0,1.108-.49,2.752,2.752,0,0,0,.812-.834,2.158,2.158,0,0,0,.318-1.188,1.964,1.964,0,0,0-.3-1.082A3.213,3.213,0,0,0,367.168,337.7Zm14.674-1.96a4.411,4.411,0,0,1,.4,1.9,3.879,3.879,0,0,1-.449,1.856,4.671,4.671,0,0,1-1.182,1.432,5.446,5.446,0,0,1-1.658.918,5.654,5.654,0,0,1-1.875.325h-3.54a3.7,3.7,0,0,0,.145-.385,1.788,1.788,0,0,0,.071-.33,2.376,2.376,0,0,0,.021-.331V334.16a3.229,3.229,0,0,0-.046-.556,2.787,2.787,0,0,0-.151-.53h3.71a5.616,5.616,0,0,1,1.9.318,4.764,4.764,0,0,1,1.578.911A4.329,4.329,0,0,1,381.842,335.745Zm-1.135,2.112a4.673,4.673,0,0,0-.286-1.632,4.063,4.063,0,0,0-.812-1.354,3.96,3.96,0,0,0-1.26-.925,3.8,3.8,0,0,0-1.62-.342h-1.57v8.057h1.822a4.6,4.6,0,0,0,1.613-.266,3,3,0,0,0,1.873-1.947A4.947,4.947,0,0,0,380.707,337.857Zm11.054,3.8h-2.6v-4.555h3.038l.186-.519h-3.224V333.6h2.432a2.248,2.248,0,0,1,.694.107c.223.068.451.144.678.225l-.369-.861h-5.057a3.3,3.3,0,0,1,.182.63,3.6,3.6,0,0,1,.054.64v6.615a2.654,2.654,0,0,1-.236,1.217h5.254l.37-.845c-.229.078-.46.152-.7.225A2.391,2.391,0,0,1,391.761,341.661Zm17.043-.188a2.8,2.8,0,0,1-.02-.315v-8.016l-.328-.2-1.943,1.094.174.307a2.37,2.37,0,0,1,.251-.134.664.664,0,0,1,.276-.066.2.2,0,0,1,.218.134.784.784,0,0,1,.045.261V341a2.508,2.508,0,0,1-.237,1.176h1.784a3.843,3.843,0,0,1-.146-.378A1.81,1.81,0,0,1,408.8,341.473Zm12.507-2.923a2.6,2.6,0,0,1,.152.929,2.3,2.3,0,0,1-.33,1.243,2.917,2.917,0,0,1-.858.885,4.045,4.045,0,0,1-1.169.535,4.748,4.748,0,0,1-1.262.178,4.069,4.069,0,0,1-1.228-.191,3.557,3.557,0,0,1-1.09-.556,2.954,2.954,0,0,1-.786-.889,2.379,2.379,0,0,1-.3-1.205,2.25,2.25,0,0,1,.139-.817,2.122,2.122,0,0,1,.391-.639,3.413,3.413,0,0,1,.574-.519,7.32,7.32,0,0,1,.707-.439,2.326,2.326,0,0,1-.773-.768,1.931,1.931,0,0,1-.3-1.042,2.17,2.17,0,0,1,.238-1.024,2.291,2.291,0,0,1,.627-.761,3.036,3.036,0,0,1,.885-.468,3.254,3.254,0,0,1,1.023-.165,4.069,4.069,0,0,1,.932.117,3.468,3.468,0,0,1,.912.366,2.17,2.17,0,0,1,.687.622,1.505,1.505,0,0,1,.27.9,1.478,1.478,0,0,1-.117.593,2.262,2.262,0,0,1-.3.514,2.845,2.845,0,0,1-.429.443,5.573,5.573,0,0,1-.482.362,8.192,8.192,0,0,1,.812.485,3.338,3.338,0,0,1,.652.58A2.372,2.372,0,0,1,421.31,338.55Zm-4.893-3.786a1.3,1.3,0,0,0,.238.814,1.748,1.748,0,0,0,.607.5,3.856,3.856,0,0,0,.793.307c.28.074.549.145.8.218a2.892,2.892,0,0,0,.535-.7,1.751,1.751,0,0,0,.218-.858,1.6,1.6,0,0,0-.139-.661,1.679,1.679,0,0,0-.377-.527,1.72,1.72,0,0,0-.554-.351,1.782,1.782,0,0,0-.66-.124,1.564,1.564,0,0,0-1.064.349A1.3,1.3,0,0,0,416.418,334.764Zm3.7,4.9a1.473,1.473,0,0,0-.337-1,2.671,2.671,0,0,0-.832-.639,5.587,5.587,0,0,0-1.062-.409q-.568-.158-1.017-.319a2.277,2.277,0,0,0-.872.941,2.692,2.692,0,0,0-.3,1.253,2.435,2.435,0,0,0,.177.949,1.962,1.962,0,0,0,.5.714,2.223,2.223,0,0,0,.76.444,2.935,2.935,0,0,0,.95.149,2.118,2.118,0,0,0,.825-.158,1.943,1.943,0,0,0,.648-.435,1.892,1.892,0,0,0,.414-.661A2.3,2.3,0,0,0,420.115,339.667Zm13.068-1.117a2.584,2.584,0,0,1,.153.929,2.293,2.293,0,0,1-.331,1.243,2.924,2.924,0,0,1-.858.885,4.013,4.013,0,0,1-1.169.535,4.747,4.747,0,0,1-1.262.178,4.079,4.079,0,0,1-1.229-.191,3.536,3.536,0,0,1-1.089-.556,2.943,2.943,0,0,1-.786-.889,2.38,2.38,0,0,1-.3-1.205,2.236,2.236,0,0,1,.139-.817,2.121,2.121,0,0,1,.39-.639,3.426,3.426,0,0,1,.575-.519,7.39,7.39,0,0,1,.706-.439,2.329,2.329,0,0,1-.772-.768,1.922,1.922,0,0,1-.3-1.042,2.2,2.2,0,0,1,.235-1.024,2.308,2.308,0,0,1,.63-.761A3.048,3.048,0,0,1,428.8,333a3.28,3.28,0,0,1,1.024-.165,4.086,4.086,0,0,1,.932.117,3.478,3.478,0,0,1,.911.366,2.17,2.17,0,0,1,.687.622,1.5,1.5,0,0,1,.271.9,1.479,1.479,0,0,1-.12.593,2.256,2.256,0,0,1-.3.514,2.888,2.888,0,0,1-.429.443,5.212,5.212,0,0,1-.482.362,7.647,7.647,0,0,1,.812.485,3.386,3.386,0,0,1,.655.58A2.449,2.449,0,0,1,433.183,338.55Zm-4.893-3.786a1.31,1.31,0,0,0,.237.814,1.772,1.772,0,0,0,.61.5,3.839,3.839,0,0,0,.793.307c.28.074.549.145.8.218a2.9,2.9,0,0,0,.536-.7,1.748,1.748,0,0,0,.216-.858,1.584,1.584,0,0,0-.137-.661,1.674,1.674,0,0,0-.376-.527,1.7,1.7,0,0,0-.555-.351,1.775,1.775,0,0,0-.659-.124,1.556,1.556,0,0,0-1.063.349A1.3,1.3,0,0,0,428.29,334.764Zm3.7,4.9a1.482,1.482,0,0,0-.338-1,2.716,2.716,0,0,0-.831-.639,5.625,5.625,0,0,0-1.064-.409q-.568-.158-1.018-.319a2.265,2.265,0,0,0-.87.941,2.667,2.667,0,0,0-.306,1.253,2.389,2.389,0,0,0,.18.949,1.966,1.966,0,0,0,.5.714,2.242,2.242,0,0,0,.759.444,2.961,2.961,0,0,0,.952.149,2.118,2.118,0,0,0,.825-.158,1.922,1.922,0,0,0,.647-.435,1.9,1.9,0,0,0,.415-.661A2.324,2.324,0,0,0,431.99,339.667Zm13.067-1.117a2.623,2.623,0,0,1,.152.929,2.292,2.292,0,0,1-.33,1.243,2.915,2.915,0,0,1-.858.885,4.054,4.054,0,0,1-1.169.535,4.749,4.749,0,0,1-1.262.178,4.07,4.07,0,0,1-1.228-.191,3.544,3.544,0,0,1-1.089-.556,2.945,2.945,0,0,1-.787-.889,2.38,2.38,0,0,1-.3-1.205,2.252,2.252,0,0,1,.139-.817,2.121,2.121,0,0,1,.391-.639,3.451,3.451,0,0,1,.574-.519,7.423,7.423,0,0,1,.707-.439,2.331,2.331,0,0,1-.773-.768,1.929,1.929,0,0,1-.3-1.042,2.169,2.169,0,0,1,.238-1.024,2.289,2.289,0,0,1,.627-.761,3.053,3.053,0,0,1,.884-.468,3.268,3.268,0,0,1,1.023-.165,4.075,4.075,0,0,1,.932.117,3.446,3.446,0,0,1,.912.366,2.168,2.168,0,0,1,.687.622,1.613,1.613,0,0,1,.152,1.5,2.26,2.26,0,0,1-.3.514,2.848,2.848,0,0,1-.429.443,5.435,5.435,0,0,1-.482.362,8.109,8.109,0,0,1,.813.485,3.321,3.321,0,0,1,.652.58A2.376,2.376,0,0,1,445.057,338.55Zm-4.893-3.786a1.3,1.3,0,0,0,.238.814,1.731,1.731,0,0,0,.607.5,3.864,3.864,0,0,0,.792.307c.281.074.551.145.806.218a2.869,2.869,0,0,0,.534-.7,1.741,1.741,0,0,0,.219-.858,1.6,1.6,0,0,0-.139-.661,1.668,1.668,0,0,0-.378-.527,1.7,1.7,0,0,0-.553-.351,1.783,1.783,0,0,0-.66-.124,1.564,1.564,0,0,0-1.064.349A1.3,1.3,0,0,0,440.164,334.764Zm3.7,4.9a1.474,1.474,0,0,0-.338-1,2.658,2.658,0,0,0-.832-.639,5.605,5.605,0,0,0-1.062-.409q-.568-.158-1.017-.319a2.274,2.274,0,0,0-.872.941,2.683,2.683,0,0,0-.3,1.253,2.418,2.418,0,0,0,.178.949,1.939,1.939,0,0,0,.5.714,2.219,2.219,0,0,0,.759.444,2.939,2.939,0,0,0,.95.149,2.12,2.12,0,0,0,.826-.158,1.943,1.943,0,0,0,.648-.435,1.906,1.906,0,0,0,.415-.661A2.323,2.323,0,0,0,443.861,339.667Zm-182.1-45.2a11.258,11.258,0,0,1,.36,2.687v17.8l-19.443-21.413-.054-.071h-1.129V319a9.026,9.026,0,0,1-.424,2.657l-.081.265h2.886l-.075-.265a9.385,9.385,0,0,1-.39-2.657V301.235l19.4,21.416.056.068h1.2V297.152a11.733,11.733,0,0,1,.386-2.687l.063-.247h-2.8Zm14.011,25.767a7.852,7.852,0,0,1-.127-1.482V302.819a7.9,7.9,0,0,1,.552-2.881l.115-.275H271.22l.137.285a7.266,7.266,0,0,1,.546,2.871v15.932a7.379,7.379,0,0,1-.559,2.9l-.109.278h5.081l-.122-.278A6.79,6.79,0,0,1,275.769,320.233Zm18.155-.223-.131.038.039-.008C293.863,320.03,293.893,320.018,293.925,320.009Zm0,0c.089-.026.123-.036-.092.03-.242.07-.156.044-.039.008a5.875,5.875,0,0,1-1.606.242h-6.043V309.751h7.236l.6-1.646h-7.832v-6.766h5.635a10.005,10.005,0,0,1,3.233.778l.437.15-1.126-2.6H281.747l.1.275a7.96,7.96,0,0,1,.555,2.972v15.9a7.3,7.3,0,0,1-.549,2.835l-.115.278h13.056l1.136-2.57-.443.148C294.971,319.679,294.449,319.849,293.925,320.009Zm5.5-20.346-1.13,2.621.446-.168a9.087,9.087,0,0,1,3.161-.778h4.722v17.412a7.341,7.341,0,0,1-.565,2.9l-.109.278h4.987l-.126-.285a6.3,6.3,0,0,1-.549-2.67V301.339H315a9.661,9.661,0,0,1,3.17.778l.439.156-1.129-2.609Zm38.3,20.981a13.054,13.054,0,0,1-13.718-1.143,10.566,10.566,0,0,1-3.791-5.419,10.825,10.825,0,0,1,.384-7.044,12.523,12.523,0,0,1,10.965-7.527c4.7-.168,9.5,2.1,11.6,6.433a10.8,10.8,0,0,1,.2,8.708A12.066,12.066,0,0,1,337.725,320.645Zm.4-3.11a8.339,8.339,0,0,0,1.6-3.072,12.125,12.125,0,0,0,.362-3.494,14.231,14.231,0,0,0-.815-3.67,10.736,10.736,0,0,0-3.782-4.664,6.638,6.638,0,0,0-2.748-1.152,7.783,7.783,0,0,0-2.84.194c-3.847.945-6.043,4.632-6.043,8.443v.559a11.7,11.7,0,0,0,2.461,6.367c1.376,1.694,3.42,3.211,5.689,3.211A7.957,7.957,0,0,0,338.127,317.535Zm5.042-11.589c.661,1.362-.661-1.364,0,0Zm30.084,2.37Zm2.34,8.813a6.868,6.868,0,0,0-.185-6.373,9.841,9.841,0,0,0-2.291-2.545l-.065-.05-.036-.028a38.1,38.1,0,0,0-6.283-3.536,18.081,18.081,0,0,1-3-1.841,6.677,6.677,0,0,1-2.231-2.6c-.961-2.48,1.737-4.116,3.785-4.518,2.453-.48,5.043.636,7.024,2.016a17.522,17.522,0,0,1,1.95,1.576l.4.389-.434-3.716-.093-.05a19.324,19.324,0,0,0-7.284-2.093,12.574,12.574,0,0,0-7.1,1.69,6.089,6.089,0,0,0-3.277,5.389c.1,2.306,1.8,3.931,3.591,5.171,2.075,1.4,4.4,2.356,6.587,3.582,1.838,1.018,4.269,2.412,4.7,4.674a5.26,5.26,0,0,1-2.893,5.55c-2.306,1.109-4.871.472-7.049-.607a21.312,21.312,0,0,1-5.464-4.008l-.433-.415.617,4.481.074.05c4.291,2.6,9.577,3.833,14.411,2.023A9,9,0,0,0,375.593,317.129Zm-2.576-9,.031.022C372.836,307.986,372.636,307.83,373.017,308.133Zm.042.028c.021.017.039.034.059.05l.136.1C373.2,308.276,373.134,308.221,373.059,308.161Zm20.794,11.87c.072-.029.144-.04.156-.047s-.056.018-.156.047a5.885,5.885,0,0,1-1.641.249h-6.045V309.749h7.243l.587-1.655h-7.83V301.33H391.8a10.1,10.1,0,0,1,3.236.777l.433.151-1.129-2.6H381.756l.122.278a7.984,7.984,0,0,1,.552,2.968V318.8a7.306,7.306,0,0,1-.552,2.833l-.122.28h13.071l1.12-2.574-.437.149C394.965,319.68,394.4,319.861,393.854,320.031Zm44.65-.538c-.546.187-1.111.368-1.66.538.072-.029.147-.04.156-.047s-.052.018-.156.047a5.845,5.845,0,0,1-1.637.249h-6.048V309.749H436.4l.587-1.655h-7.832V301.33H434.8a10.035,10.035,0,0,1,3.233.777l.433.151-1.123-2.6H424.749l.122.278a7.983,7.983,0,0,1,.549,2.968V318.8a7.305,7.305,0,0,1-.549,2.833l-.122.28H437.82l1.123-2.574Zm-36.25.032V305.4l15.484,17.086.056.07h1.02V302.016a9.2,9.2,0,0,1,.318-2.153l.056-.241h-2.35l.057.241a9.332,9.332,0,0,1,.286,2.153v14.154l-15.515-17.077-.065-.073h-.958v20.5a6.985,6.985,0,0,1-.346,2.124l-.072.268h2.421l-.082-.268A7.531,7.531,0,0,1,402.253,319.525Zm40.181-19.872-1.132,2.619.455-.166a9.15,9.15,0,0,1,3.162-.777h4.721v17.412a7.389,7.389,0,0,1-.562,2.9l-.121.28h5l-.122-.287a6.3,6.3,0,0,1-.562-2.671V301.33h4.744a9.672,9.672,0,0,1,3.173.777l.437.154-1.117-2.607Zm27.469,20.57a8.436,8.436,0,0,1-.131-1.482V302.813a7.867,7.867,0,0,1,.558-2.882l.105-.278h-5.079l.127.281a7.235,7.235,0,0,1,.549,2.878v15.929a7.56,7.56,0,0,1-.549,2.9l-.122.28h5.09l-.122-.28A7,7,0,0,1,469.9,320.224Zm68.352,1.329A68.811,68.811,0,0,1,532.6,317a39.384,39.384,0,0,1-4.731-5.339,7.5,7.5,0,0,0,4.8-2.343,5.551,5.551,0,0,0,.961-5.037c-.979-3.945-5.541-4.662-8.971-4.662h-5.8l.113.278a8,8,0,0,1,.567,3.133v15.473a8.322,8.322,0,0,1-.567,3.131l-.106.28h5.07l-.105-.28a8.224,8.224,0,0,1-.566-3.131V301.325l.567-.029a7.163,7.163,0,0,1,4.229.889A4.486,4.486,0,0,1,530,305.621a4.209,4.209,0,0,1-1.416,3.811,4.792,4.792,0,0,1-4.132.667l-.078-.009-.665.4.1.175a60.006,60.006,0,0,0,9.109,11.206l.053.053h5.779Zm-25.581-1.522a.76.76,0,0,1,.144-.04l-.144.04a5.891,5.891,0,0,1-1.645.249H504.99V309.749h7.243l.587-1.655h-7.83V301.33h5.639a10.062,10.062,0,0,1,3.23.777l.433.151-1.127-2.6H500.577l.119.278a7.92,7.92,0,0,1,.552,2.968V318.8a7.248,7.248,0,0,1-.552,2.833l-.119.28h13.072l1.123-2.574-.439.149C513.786,319.68,513.221,319.861,512.675,320.031Zm-19.955-20.167a9.337,9.337,0,0,1,.29,2.153v14.154l-15.518-17.077-.056-.073h-.961v20.5a6.944,6.944,0,0,1-.35,2.124l-.069.268h2.419l-.078-.268a7.359,7.359,0,0,1-.315-2.124V305.4l15.481,17.086.062.07h1.017V302.016a9.036,9.036,0,0,1,.322-2.153l.05-.241h-2.346Z" transform="translate(-240.986 -229.381)" fill="#fff"/>
</svg>
