<svg xmlns="http://www.w3.org/2000/svg" width="226" height="54.979" viewBox="0 0 226 54.979">
  <g id="Grupo_328" data-name="Grupo 328" transform="translate(-988 -2434.077)">
    <path id="Trazado_130" data-name="Trazado 130" d="M256.741,270.6a8.538,8.538,0,0,1,.273,2.038v13.5L242.267,269.9l-.041-.054h-.857v19.369a6.847,6.847,0,0,1-.322,2.015l-.062.2h2.189l-.057-.2a7.12,7.12,0,0,1-.3-2.015V275.735l14.714,16.244.043.051h.911V272.638a8.9,8.9,0,0,1,.293-2.038l.048-.188H256.7Zm10.627,19.544a5.952,5.952,0,0,1-.1-1.124V276.936a5.99,5.99,0,0,1,.418-2.185l.087-.208h-3.86l.1.216a5.511,5.511,0,0,1,.414,2.177V289.02a5.6,5.6,0,0,1-.424,2.2l-.083.211h3.853l-.092-.211A5.149,5.149,0,0,1,267.369,290.144Zm13.771-.169-.1.029.029-.006Zm0,0c.068-.02.094-.027-.07.023-.183.053-.119.033-.029.006a4.453,4.453,0,0,1-1.218.184h-4.584v-7.994h5.488l.452-1.249h-5.941v-5.132h4.274a7.591,7.591,0,0,1,2.452.59l.331.114-.854-1.974H271.9l.076.208A6.037,6.037,0,0,1,272.4,277v12.061a5.535,5.535,0,0,1-.417,2.15l-.087.211h9.9l.862-1.95-.336.112C281.933,289.725,281.537,289.853,281.139,289.975Zm4.17-15.432-.857,1.988.338-.127a6.893,6.893,0,0,1,2.4-.59h3.581V289.02a5.569,5.569,0,0,1-.429,2.2l-.083.211h3.783l-.1-.216a4.779,4.779,0,0,1-.417-2.026V275.813h3.6a7.329,7.329,0,0,1,2.4.59l.333.119-.857-1.979Zm29.052,15.914a9.9,9.9,0,0,1-10.405-.867,8.014,8.014,0,0,1-2.875-4.11,8.211,8.211,0,0,1,.291-5.343,9.5,9.5,0,0,1,8.317-5.709,9.318,9.318,0,0,1,8.8,4.879,8.188,8.188,0,0,1,.154,6.6A9.152,9.152,0,0,1,314.361,290.457Zm.3-2.359a6.323,6.323,0,0,0,1.214-2.33,9.2,9.2,0,0,0,.275-2.65,10.8,10.8,0,0,0-.618-2.784,8.143,8.143,0,0,0-2.868-3.538,5.034,5.034,0,0,0-2.085-.874,5.905,5.905,0,0,0-2.154.147,6.365,6.365,0,0,0-4.584,6.4v.424a8.872,8.872,0,0,0,1.867,4.829,5.909,5.909,0,0,0,4.315,2.435A6.035,6.035,0,0,0,314.666,288.1Zm3.825-8.79c.5,1.033-.5-1.035,0,0Zm22.819,1.8Zm1.775,6.685a5.209,5.209,0,0,0-.14-4.834,7.463,7.463,0,0,0-1.738-1.93l-.049-.038-.028-.021a28.9,28.9,0,0,0-4.765-2.682,13.713,13.713,0,0,1-2.277-1.4,5.064,5.064,0,0,1-1.692-1.974c-.729-1.881,1.318-3.122,2.871-3.427a7.312,7.312,0,0,1,5.327,1.529,13.3,13.3,0,0,1,1.479,1.2l.306.295-.329-2.819-.071-.038a14.656,14.656,0,0,0-5.525-1.588,9.536,9.536,0,0,0-5.388,1.282,4.619,4.619,0,0,0-2.486,4.088c.073,1.749,1.365,2.982,2.724,3.922,1.574,1.06,3.337,1.787,5,2.717,1.394.772,3.238,1.83,3.562,3.545a3.99,3.99,0,0,1-2.194,4.21,6.087,6.087,0,0,1-5.346-.461,16.161,16.161,0,0,1-4.144-3.04l-.329-.315.468,3.4.056.038c3.255,1.974,7.264,2.907,10.93,1.534A6.827,6.827,0,0,0,343.084,287.79Zm-1.954-6.823.023.017C340.992,280.855,340.84,280.737,341.13,280.966Zm.032.021.045.038.1.079Zm15.772,9c.055-.022.109-.031.119-.036l-.119.036a4.466,4.466,0,0,1-1.244.189H351.1v-7.988H356.6l.445-1.255H351.1v-5.131h4.275a7.658,7.658,0,0,1,2.454.589l.329.114-.857-1.975h-9.548l.093.211a6.057,6.057,0,0,1,.419,2.252v12.064a5.543,5.543,0,0,1-.419,2.149l-.093.213h9.915l.85-1.952-.331.113C357.777,289.725,357.348,289.863,356.934,289.991Zm33.866-.408c-.414.142-.843.279-1.259.408.055-.022.112-.031.118-.036s-.039.014-.118.036a4.435,4.435,0,0,1-1.242.189h-4.587v-7.988h5.5l.445-1.255h-5.941v-5.131h4.276a7.611,7.611,0,0,1,2.452.589l.329.114-.852-1.975h-9.551l.092.211a6.054,6.054,0,0,1,.417,2.252v12.064a5.54,5.54,0,0,1-.417,2.149l-.092.213h9.915l.852-1.952Zm-27.5.024V278.894l11.744,12.959.043.053h.774V276.327a6.978,6.978,0,0,1,.242-1.633l.043-.183h-1.783l.043.183a7.079,7.079,0,0,1,.217,1.633v10.736L362.86,274.11l-.05-.055h-.727v15.553a5.3,5.3,0,0,1-.262,1.611l-.055.2H363.6l-.062-.2A5.712,5.712,0,0,1,363.305,289.608Zm30.477-15.073-.859,1.987.345-.126a6.94,6.94,0,0,1,2.4-.589h3.58v13.207a5.6,5.6,0,0,1-.426,2.2l-.092.213h3.793l-.092-.218a4.776,4.776,0,0,1-.426-2.026V275.806h3.6a7.336,7.336,0,0,1,2.407.589l.331.117-.847-1.977Zm20.835,15.6a6.4,6.4,0,0,1-.1-1.124V276.932a5.968,5.968,0,0,1,.424-2.186l.08-.211h-3.852l.1.213a5.488,5.488,0,0,1,.417,2.183v12.082a5.735,5.735,0,0,1-.417,2.2l-.092.213h3.86l-.092-.213A5.317,5.317,0,0,1,414.617,290.137Zm51.844,1.008a52.211,52.211,0,0,1-4.293-3.451,29.891,29.891,0,0,1-3.589-4.049,5.685,5.685,0,0,0,3.643-1.777,4.211,4.211,0,0,0,.729-3.82c-.743-2.992-4.2-3.536-6.8-3.536h-4.4l.085.211a6.068,6.068,0,0,1,.431,2.376v11.736a6.312,6.312,0,0,1-.431,2.374l-.08.213H455.6l-.08-.213a6.238,6.238,0,0,1-.429-2.374V275.8l.43-.022a5.433,5.433,0,0,1,3.208.674,3.4,3.4,0,0,1,1.467,2.607,3.192,3.192,0,0,1-1.074,2.89,3.635,3.635,0,0,1-3.134.506l-.059-.007-.5.3.078.132a45.513,45.513,0,0,0,6.909,8.5l.04.04h4.384Zm-19.4-1.155a.58.58,0,0,1,.109-.031l-.109.031a4.47,4.47,0,0,1-1.247.189h-4.582v-7.988h5.494l.445-1.255h-5.939v-5.131h4.277a7.632,7.632,0,0,1,2.45.589l.329.114-.855-1.975h-9.547l.09.211a6.007,6.007,0,0,1,.419,2.252v12.064a5.5,5.5,0,0,1-.419,2.149l-.09.213H447.8l.852-1.952-.333.113C447.9,289.725,447.473,289.863,447.058,289.991Zm-15.135-15.3a7.079,7.079,0,0,1,.22,1.633v10.736l-11.77-12.953-.043-.055H419.6v15.553a5.27,5.27,0,0,1-.265,1.611l-.052.2h1.835l-.059-.2a5.584,5.584,0,0,1-.239-1.611V278.894l11.742,12.959.047.053h.771V276.327a6.845,6.845,0,0,1,.244-1.633l.038-.183h-1.78Z" transform="translate(747.014 2164.235)"/>
    <text id="MILLÉSIME" transform="translate(988 2464.056)" font-size="14" font-family="PlayfairDisplay-Regular, Playfair Display" letter-spacing="0.813em"><tspan x="29.961" y="15">MILLÉSIME</tspan></text>
  </g>
</svg>
