<svg xmlns="http://www.w3.org/2000/svg" width="150.136" height="37.708" viewBox="0 0 150.136 37.708">
  <g id="Grupo_318" data-name="Grupo 318" transform="translate(0 -0.292)">
    <path id="Trazado_130" data-name="Trazado 130" d="M251.46,270.346a5.676,5.676,0,0,1,.181,1.355v8.974l-9.8-10.8-.027-.036h-.569v12.876a4.551,4.551,0,0,1-.214,1.339l-.041.133h1.455l-.038-.133a4.733,4.733,0,0,1-.2-1.339V273.76l9.782,10.8.028.034h.606V271.7a5.914,5.914,0,0,1,.195-1.355l.032-.125h-1.414Zm7.065,12.992a3.96,3.96,0,0,1-.064-.747v-8.033a3.982,3.982,0,0,1,.278-1.452l.058-.139H256.23l.069.144a3.663,3.663,0,0,1,.275,1.447v8.033a3.721,3.721,0,0,1-.282,1.46l-.055.14H258.8l-.061-.14A3.425,3.425,0,0,1,258.524,283.338Zm9.154-.113-.066.019.02,0Zm0,0c.045-.013.062-.018-.046.015s-.079.022-.02,0a2.961,2.961,0,0,1-.81.122h-3.047v-5.314H267.4l.3-.83h-3.949v-3.411H266.6a5.046,5.046,0,0,1,1.63.392l.22.076-.568-1.312h-6.341l.051.139a4.013,4.013,0,0,1,.28,1.5v8.018a3.68,3.68,0,0,1-.277,1.43l-.058.14h6.583l.573-1.3-.224.075C268.206,283.059,267.943,283.145,267.678,283.226Zm2.772-10.259-.57,1.322.225-.085a4.583,4.583,0,0,1,1.594-.392h2.381v8.78a3.7,3.7,0,0,1-.285,1.46l-.055.14h2.514l-.063-.144a3.177,3.177,0,0,1-.277-1.346v-8.89h2.392a4.872,4.872,0,0,1,1.6.392l.222.079-.569-1.316Zm19.313,10.579a6.582,6.582,0,0,1-6.917-.576,5.327,5.327,0,0,1-1.911-2.732,5.458,5.458,0,0,1,.194-3.552,6.314,6.314,0,0,1,5.529-3.8,6.194,6.194,0,0,1,5.851,3.244,5.443,5.443,0,0,1,.1,4.39A6.084,6.084,0,0,1,289.763,283.546Zm.2-1.568a4.2,4.2,0,0,0,.807-1.549,6.113,6.113,0,0,0,.183-1.762,7.178,7.178,0,0,0-.411-1.85,5.413,5.413,0,0,0-1.907-2.352,3.346,3.346,0,0,0-1.386-.581,3.926,3.926,0,0,0-1.432.1,4.231,4.231,0,0,0-3.047,4.257v.282a5.9,5.9,0,0,0,1.241,3.21,3.928,3.928,0,0,0,2.868,1.619A4.012,4.012,0,0,0,289.966,281.978Zm2.542-5.843c.333.687-.333-.688,0,0Zm15.169,1.195Zm1.18,4.444a3.463,3.463,0,0,0-.093-3.213,4.961,4.961,0,0,0-1.155-1.283l-.032-.025-.018-.014a19.21,19.21,0,0,0-3.168-1.783,9.117,9.117,0,0,1-1.513-.928,3.366,3.366,0,0,1-1.125-1.312c-.484-1.251.876-2.075,1.908-2.278a4.861,4.861,0,0,1,3.541,1.017,8.834,8.834,0,0,1,.983.795l.2.2-.219-1.874-.047-.025a9.743,9.743,0,0,0-3.673-1.055,6.339,6.339,0,0,0-3.582.852,3.07,3.07,0,0,0-1.652,2.717,3.519,3.519,0,0,0,1.811,2.607c1.046.7,2.218,1.188,3.321,1.806.927.513,2.152,1.216,2.368,2.357a2.652,2.652,0,0,1-1.459,2.8,4.047,4.047,0,0,1-3.554-.306,10.745,10.745,0,0,1-2.755-2.021l-.219-.209.311,2.259.038.025a8.426,8.426,0,0,0,7.266,1.02A4.538,4.538,0,0,0,308.857,281.773Zm-1.3-4.536.015.011C307.466,277.163,307.366,277.085,307.558,277.237Zm.021.014.03.025.068.053Zm10.485,5.985c.036-.015.073-.02.079-.024l-.079.024a2.97,2.97,0,0,1-.827.126h-3.048v-5.31h3.652l.3-.834h-3.948v-3.411h2.842a5.091,5.091,0,0,1,1.631.392l.219.076-.569-1.313h-6.347l.062.14a4.026,4.026,0,0,1,.278,1.5v8.02a3.685,3.685,0,0,1-.278,1.428l-.062.141h6.591l.565-1.3-.22.075C318.624,283.06,318.339,283.151,318.064,283.237Zm22.513-.271c-.275.094-.56.186-.837.271.036-.015.074-.02.078-.024s-.026.009-.078.024a2.949,2.949,0,0,1-.826.126h-3.049v-5.31h3.653l.3-.834h-3.949v-3.411h2.843a5.059,5.059,0,0,1,1.63.392l.219.076-.566-1.313h-6.349l.061.14a4.024,4.024,0,0,1,.277,1.5v8.02a3.682,3.682,0,0,1-.277,1.428l-.061.141h6.591l.566-1.3Zm-18.278.016v-7.122l7.807,8.615.028.035h.514V274.153a4.638,4.638,0,0,1,.161-1.085l.028-.121h-1.185l.029.121a4.706,4.706,0,0,1,.144,1.085v7.137L322,272.68l-.033-.037h-.483v10.339a3.524,3.524,0,0,1-.174,1.071l-.036.135H322.5l-.041-.135A3.8,3.8,0,0,1,322.3,282.982Zm20.26-10.02-.571,1.321.229-.084a4.614,4.614,0,0,1,1.594-.392h2.38v8.78a3.725,3.725,0,0,1-.283,1.46l-.061.141h2.522l-.061-.145a3.174,3.174,0,0,1-.283-1.347v-8.889h2.392a4.877,4.877,0,0,1,1.6.392l.22.078-.563-1.314Zm13.85,10.372a4.258,4.258,0,0,1-.066-.747v-8.032a3.967,3.967,0,0,1,.282-1.453l.053-.14h-2.561l.064.142a3.648,3.648,0,0,1,.277,1.451v8.032a3.812,3.812,0,0,1-.277,1.46l-.061.141h2.566l-.061-.141A3.534,3.534,0,0,1,356.41,283.334Zm34.464.67a34.7,34.7,0,0,1-2.854-2.294,19.871,19.871,0,0,1-2.386-2.692,3.779,3.779,0,0,0,2.422-1.181,2.8,2.8,0,0,0,.485-2.54c-.494-1.989-2.794-2.351-4.523-2.351h-2.923l.057.14a4.033,4.033,0,0,1,.286,1.58v7.8a4.2,4.2,0,0,1-.286,1.578l-.053.141h2.556l-.053-.141a4.146,4.146,0,0,1-.285-1.578V273.8l.286-.015a3.612,3.612,0,0,1,2.132.448,2.262,2.262,0,0,1,.975,1.733,2.122,2.122,0,0,1-.714,1.921,2.416,2.416,0,0,1-2.083.336l-.039,0-.335.2.052.088a30.255,30.255,0,0,0,4.593,5.65l.027.027h2.914Zm-12.9-.768a.385.385,0,0,1,.073-.02l-.073.02a2.973,2.973,0,0,1-.829.126H374.1v-5.31h3.652l.3-.834H374.1v-3.411h2.843a5.074,5.074,0,0,1,1.629.392l.219.076-.568-1.313h-6.347l.06.14a3.993,3.993,0,0,1,.278,1.5v8.02a3.654,3.654,0,0,1-.278,1.428l-.06.141h6.591l.566-1.3-.222.075C378.536,283.06,378.251,283.151,377.975,283.237Zm-10.061-10.169a4.705,4.705,0,0,1,.146,1.085v7.137l-7.824-8.611-.028-.037h-.485v10.339a3.5,3.5,0,0,1-.176,1.071l-.035.135h1.22l-.039-.135a3.711,3.711,0,0,1-.159-1.071v-7.122l7.806,8.615.031.035h.513V274.153a4.551,4.551,0,0,1,.162-1.085l.025-.121h-1.183Z" transform="translate(-240.986 -269.551)"/>
    <text id="RESERVA" transform="translate(10.903 16)" font-size="17" font-family="PlayfairDisplay-Bold, Playfair Display" font-weight="700" letter-spacing="0.351em"><tspan x="8.594" y="18">RESERVA</tspan></text>
  </g>
</svg>
