<svg xmlns="http://www.w3.org/2000/svg" width="179.008" height="17.586" viewBox="0 0 179.008 17.586">
  <path id="Trazado_82" data-name="Trazado 82" d="M253.474,270.443a6.769,6.769,0,0,1,.216,1.615v10.7L242,269.885l-.032-.043h-.679v15.352a5.426,5.426,0,0,1-.255,1.6l-.049.159h1.735l-.045-.159a5.642,5.642,0,0,1-.234-1.6V274.513L254.1,287.388l.034.041h.722v-15.37a7.052,7.052,0,0,1,.232-1.615l.038-.149h-1.686Zm8.423,15.491a4.718,4.718,0,0,1-.077-.891v-9.578a4.747,4.747,0,0,1,.332-1.732l.069-.165h-3.059l.083.171a4.368,4.368,0,0,1,.328,1.726v9.578a4.436,4.436,0,0,1-.336,1.741l-.066.167h3.054l-.073-.167A4.078,4.078,0,0,1,261.9,285.934Zm10.915-.134-.079.023.023,0Zm0,0c.054-.016.074-.021-.055.018-.145.042-.094.026-.023,0a3.53,3.53,0,0,1-.965.146h-3.633v-6.336h4.35l.359-.99h-4.708v-4.067h3.387a6.017,6.017,0,0,1,1.944.467l.263.09-.677-1.565h-7.56l.06.165a4.786,4.786,0,0,1,.334,1.786v9.56a4.387,4.387,0,0,1-.33,1.7l-.069.167h7.849l.683-1.545-.267.089C273.441,285.6,273.127,285.7,272.811,285.8Zm3.3-12.232-.679,1.576.268-.1a5.464,5.464,0,0,1,1.9-.467h2.838v10.468a4.414,4.414,0,0,1-.34,1.741l-.066.167h3l-.076-.171a3.788,3.788,0,0,1-.33-1.605v-10.6h2.852a5.81,5.81,0,0,1,1.906.467l.264.094-.679-1.569Zm23.027,12.614a7.848,7.848,0,0,1-8.247-.687,6.352,6.352,0,0,1-2.279-3.258,6.507,6.507,0,0,1,.231-4.235,7.528,7.528,0,0,1,6.592-4.525,7.385,7.385,0,0,1,6.976,3.867,6.49,6.49,0,0,1,.122,5.235A7.254,7.254,0,0,1,299.143,286.181Zm.242-1.87a5.012,5.012,0,0,0,.962-1.847,7.29,7.29,0,0,0,.218-2.1,8.557,8.557,0,0,0-.49-2.206,6.454,6.454,0,0,0-2.273-2.8,3.99,3.99,0,0,0-1.652-.693,4.681,4.681,0,0,0-1.707.117,5.045,5.045,0,0,0-3.633,5.076v.336a7.031,7.031,0,0,0,1.48,3.828,4.684,4.684,0,0,0,3.42,1.93A4.784,4.784,0,0,0,299.385,284.312Zm3.031-6.967c.4.819-.4-.82,0,0Zm18.086,1.424Zm1.407,5.3a4.129,4.129,0,0,0-.111-3.831,5.915,5.915,0,0,0-1.377-1.53l-.039-.03-.022-.017a22.9,22.9,0,0,0-3.777-2.126,10.868,10.868,0,0,1-1.8-1.107,4.014,4.014,0,0,1-1.341-1.565c-.577-1.491,1.044-2.474,2.275-2.716a5.8,5.8,0,0,1,4.223,1.212,10.536,10.536,0,0,1,1.172.947l.242.234-.261-2.234-.056-.03a11.617,11.617,0,0,0-4.379-1.258,7.558,7.558,0,0,0-4.271,1.016,3.661,3.661,0,0,0-1.97,3.24,4.2,4.2,0,0,0,2.159,3.108c1.247.84,2.645,1.417,3.96,2.154,1.105.612,2.566,1.45,2.824,2.81a3.162,3.162,0,0,1-1.739,3.337,4.825,4.825,0,0,1-4.237-.365,12.81,12.81,0,0,1-3.285-2.409l-.261-.25.371,2.694.045.03a10.047,10.047,0,0,0,8.664,1.216A5.411,5.411,0,0,0,321.909,284.068Zm-1.549-5.408.018.013C320.251,278.571,320.131,278.477,320.36,278.659Zm.025.017.035.03.082.063Zm12.5,7.136c.043-.017.087-.024.094-.028l-.094.028a3.54,3.54,0,0,1-.986.15h-3.634v-6.331h4.354l.353-.995h-4.707V274.57h3.389a6.07,6.07,0,0,1,1.945.467l.261.091-.679-1.565h-7.568l.074.167a4.8,4.8,0,0,1,.332,1.785v9.562a4.393,4.393,0,0,1-.332,1.7l-.074.169h7.858l.673-1.547-.263.09C333.554,285.6,333.215,285.71,332.886,285.812Zm26.842-.323c-.328.112-.668.221-1,.323.043-.017.089-.024.094-.028s-.031.011-.094.028a3.516,3.516,0,0,1-.984.15h-3.636v-6.331h4.356l.353-.995h-4.709V274.57H357.5a6.033,6.033,0,0,1,1.944.467l.261.091-.675-1.565h-7.57l.073.167a4.8,4.8,0,0,1,.33,1.785v9.562a4.39,4.39,0,0,1-.33,1.7l-.073.169h7.858l.675-1.547Zm-21.793.019v-8.492l9.309,10.271.034.042h.613V274.982a5.53,5.53,0,0,1,.191-1.294l.034-.145H346.7l.034.145a5.612,5.612,0,0,1,.172,1.294v8.509l-9.327-10.266-.039-.044h-.576v12.327a4.2,4.2,0,0,1-.208,1.277l-.043.161h1.456l-.049-.161A4.527,4.527,0,0,1,337.936,285.508Zm24.156-11.947-.681,1.575.274-.1a5.5,5.5,0,0,1,1.9-.467h2.838v10.468a4.443,4.443,0,0,1-.338,1.741l-.073.169h3.007l-.073-.173a3.785,3.785,0,0,1-.338-1.606v-10.6h2.852a5.815,5.815,0,0,1,1.907.467l.263.093-.671-1.567Zm16.514,12.366a5.077,5.077,0,0,1-.079-.891v-9.576a4.731,4.731,0,0,1,.336-1.732l.063-.167h-3.053l.077.169a4.349,4.349,0,0,1,.33,1.73v9.576a4.545,4.545,0,0,1-.33,1.741l-.073.169h3.06l-.073-.169A4.215,4.215,0,0,1,378.606,285.928Zm41.092.8a41.37,41.37,0,0,1-3.4-2.735,23.688,23.688,0,0,1-2.844-3.209,4.506,4.506,0,0,0,2.887-1.409,3.337,3.337,0,0,0,.578-3.028c-.589-2.371-3.331-2.8-5.393-2.8h-3.486l.068.167a4.809,4.809,0,0,1,.341,1.883v9.3a5,5,0,0,1-.341,1.882l-.064.169h3.048l-.063-.169a4.945,4.945,0,0,1-.34-1.882v-10.33l.341-.017a4.307,4.307,0,0,1,2.543.534,2.7,2.7,0,0,1,1.163,2.066,2.53,2.53,0,0,1-.852,2.291,2.881,2.881,0,0,1-2.484.4l-.047-.005-.4.238.062.1a36.073,36.073,0,0,0,5.476,6.737l.032.032h3.474Zm-15.379-.915a.458.458,0,0,1,.087-.024l-.087.024a3.544,3.544,0,0,1-.989.15H399.7v-6.331h4.354l.353-.995H399.7V274.57h3.39a6.05,6.05,0,0,1,1.942.467l.261.091-.677-1.565h-7.567l.072.167a4.761,4.761,0,0,1,.332,1.785v9.562a4.357,4.357,0,0,1-.332,1.7l-.072.169H404.9l.675-1.547-.264.09C404.987,285.6,404.647,285.71,404.319,285.812Zm-12-12.124a5.612,5.612,0,0,1,.175,1.294v8.509l-9.329-10.266-.034-.044h-.578v12.327a4.176,4.176,0,0,1-.21,1.277l-.041.161h1.454l-.047-.161a4.427,4.427,0,0,1-.189-1.277v-8.492l9.307,10.271.037.042h.611V274.982a5.426,5.426,0,0,1,.194-1.294l.03-.145h-1.411Z" transform="translate(-240.986 -269.843)"/>
</svg>
