<svg xmlns="http://www.w3.org/2000/svg" width="294.912" height="28.973" viewBox="0 0 294.912 28.973">
  <path id="Trazado_82" data-name="Trazado 82" d="M261.559,270.832a11.15,11.15,0,0,1,.356,2.661v17.628l-19.257-21.208-.053-.07h-1.118v25.292a8.94,8.94,0,0,1-.42,2.631l-.08.262h2.859l-.075-.262a9.3,9.3,0,0,1-.386-2.631v-17.6L262.6,298.748l.056.067h1.19V273.493a11.617,11.617,0,0,1,.383-2.661l.062-.245h-2.778Zm13.877,25.521a7.771,7.771,0,0,1-.126-1.468v-15.78a7.822,7.822,0,0,1,.546-2.853l.114-.272h-5.04l.136.282a7.2,7.2,0,0,1,.541,2.843v15.78a7.307,7.307,0,0,1-.554,2.868l-.108.275h5.032l-.12-.275A6.721,6.721,0,0,1,275.436,296.352Zm17.981-.221-.129.038.038-.008C293.357,296.152,293.387,296.14,293.418,296.131Zm0,0c.089-.026.122-.035-.091.029-.239.069-.155.043-.038.008a5.815,5.815,0,0,1-1.59.24h-5.986V285.971h7.166l.591-1.631h-7.757v-6.7h5.581a9.912,9.912,0,0,1,3.2.77l.433.148-1.115-2.578H281.357l.1.272a7.883,7.883,0,0,1,.55,2.943v15.75a7.228,7.228,0,0,1-.544,2.808l-.114.275h12.931l1.125-2.546-.439.147C294.454,295.8,293.937,295.972,293.418,296.131Zm5.445-20.151-1.119,2.6.442-.166a9,9,0,0,1,3.131-.77h4.676v17.246a7.272,7.272,0,0,1-.56,2.868l-.108.275h4.939l-.125-.282a6.24,6.24,0,0,1-.544-2.645V277.639h4.7a9.57,9.57,0,0,1,3.14.77l.435.155-1.118-2.584ZM336.8,296.76a12.929,12.929,0,0,1-13.587-1.132,10.465,10.465,0,0,1-3.754-5.367,10.721,10.721,0,0,1,.38-6.976,12.4,12.4,0,0,1,10.86-7.455c4.651-.166,9.4,2.084,11.494,6.372a10.691,10.691,0,0,1,.2,8.624A11.951,11.951,0,0,1,336.8,296.76Zm.4-3.08a8.256,8.256,0,0,0,1.585-3.042,12.009,12.009,0,0,0,.359-3.46,14.1,14.1,0,0,0-.807-3.635,10.634,10.634,0,0,0-3.745-4.62,6.574,6.574,0,0,0-2.722-1.141,7.711,7.711,0,0,0-2.813.193c-3.81.936-5.986,4.588-5.986,8.362v.553a11.585,11.585,0,0,0,2.438,6.306c1.363,1.677,3.387,3.18,5.634,3.18A7.881,7.881,0,0,0,337.2,293.68Zm4.994-11.478c.655,1.349-.655-1.351,0,0Zm29.8,2.347Zm2.317,8.729a6.8,6.8,0,0,0-.183-6.312,9.745,9.745,0,0,0-2.269-2.52l-.064-.05-.036-.028a37.73,37.73,0,0,0-6.222-3.5,17.9,17.9,0,0,1-2.973-1.823,6.612,6.612,0,0,1-2.21-2.578c-.951-2.457,1.721-4.076,3.749-4.475,2.429-.475,4.995.63,6.957,2a17.364,17.364,0,0,1,1.931,1.561l.4.385-.429-3.681-.093-.049a19.138,19.138,0,0,0-7.214-2.073,12.452,12.452,0,0,0-7.036,1.674,6.031,6.031,0,0,0-3.246,5.337c.1,2.284,1.783,3.894,3.557,5.121,2.055,1.384,4.358,2.334,6.524,3.548,1.821,1.009,4.228,2.389,4.652,4.63a5.21,5.21,0,0,1-2.865,5.5c-2.284,1.1-4.825.468-6.981-.6a21.1,21.1,0,0,1-5.411-3.969l-.429-.411.611,4.438.074.05c4.25,2.578,9.485,3.8,14.273,2A8.915,8.915,0,0,0,374.3,293.278Zm-2.552-8.91.03.022C371.574,284.223,371.375,284.068,371.753,284.368Zm.042.028c.02.016.039.034.058.05l.134.1C371.938,284.511,371.869,284.456,371.795,284.4Zm20.6,11.757c.071-.029.143-.04.155-.047s-.056.018-.155.047a5.832,5.832,0,0,1-1.625.247h-5.987v-10.43h7.174l.581-1.639h-7.755v-6.7h5.583a10,10,0,0,1,3.2.769l.429.149-1.118-2.579H380.408l.121.275a7.909,7.909,0,0,1,.547,2.94v15.753a7.237,7.237,0,0,1-.547,2.806l-.121.278h12.946l1.109-2.549-.433.148C393.491,295.8,392.931,295.984,392.39,296.152Zm44.222-.532c-.541.185-1.1.365-1.645.532.071-.029.146-.04.154-.047s-.052.018-.154.047a5.792,5.792,0,0,1-1.622.247h-5.99v-10.43h7.176l.581-1.639h-7.757v-6.7h5.584a9.939,9.939,0,0,1,3.2.769l.429.149-1.112-2.579H422.989l.12.275a7.9,7.9,0,0,1,.544,2.94v15.753a7.233,7.233,0,0,1-.544,2.806l-.12.278h12.946l1.113-2.549Zm-35.9.032v-13.99l15.336,16.922.056.069h1.01V278.31a9.111,9.111,0,0,1,.315-2.132l.056-.238h-2.328l.056.238a9.243,9.243,0,0,1,.284,2.132v14.019l-15.366-16.914-.065-.072h-.949v20.308a6.921,6.921,0,0,1-.342,2.1l-.071.265h2.4l-.081-.265A7.459,7.459,0,0,1,400.709,295.652Zm39.8-19.682-1.122,2.594.451-.165a9.062,9.062,0,0,1,3.132-.769h4.675v17.246a7.319,7.319,0,0,1-.556,2.868l-.12.278h4.953l-.12-.284a6.236,6.236,0,0,1-.557-2.646V277.63h4.7a9.58,9.58,0,0,1,3.142.769l.433.152-1.106-2.582Zm27.206,20.373a8.36,8.36,0,0,1-.129-1.468V279.1a7.793,7.793,0,0,1,.553-2.854l.1-.275h-5.03l.126.279a7.166,7.166,0,0,1,.544,2.851v15.777a7.488,7.488,0,0,1-.544,2.868l-.12.278h5.041l-.121-.278A6.941,6.941,0,0,1,467.713,296.343Zm67.7,1.317a68.168,68.168,0,0,1-5.606-4.507,39.027,39.027,0,0,1-4.686-5.288,7.423,7.423,0,0,0,4.757-2.321,5.5,5.5,0,0,0,.952-4.988c-.97-3.907-5.488-4.617-8.885-4.617H516.2l.111.275a7.923,7.923,0,0,1,.562,3.1v15.325a8.242,8.242,0,0,1-.562,3.1l-.1.278h5.021l-.1-.278a8.146,8.146,0,0,1-.56-3.1V277.625l.562-.029a7.1,7.1,0,0,1,4.189.88,4.443,4.443,0,0,1,1.916,3.4,4.168,4.168,0,0,1-1.4,3.774,4.746,4.746,0,0,1-4.092.661l-.077-.009L521,286.7l.1.173a59.431,59.431,0,0,0,9.021,11.1l.052.052H535.9Zm-25.336-1.508a.757.757,0,0,1,.142-.04l-.142.04a5.838,5.838,0,0,1-1.629.247h-5.983v-10.43h7.174l.581-1.639h-7.755v-6.7h5.585a9.967,9.967,0,0,1,3.2.769l.429.149-1.116-2.579H498.092l.118.275a7.845,7.845,0,0,1,.546,2.94v15.753a7.179,7.179,0,0,1-.546,2.806l-.118.278h12.946l1.112-2.549-.435.148C511.174,295.8,510.615,295.984,510.074,296.152ZM490.31,276.178a9.244,9.244,0,0,1,.288,2.132v14.019l-15.369-16.914-.056-.072h-.952v20.308a6.881,6.881,0,0,1-.347,2.1l-.068.265h2.4l-.077-.265a7.292,7.292,0,0,1-.312-2.1v-13.99l15.332,16.922.061.069h1.007V278.31a8.94,8.94,0,0,1,.319-2.132l.049-.238h-2.324Z" transform="translate(-240.986 -269.843)"/>
</svg>
