<svg xmlns="http://www.w3.org/2000/svg" xmlns:xlink="http://www.w3.org/1999/xlink" width="246.903" height="246.903" viewBox="0 0 246.903 246.903">
  <defs>
    <clipPath id="clip-path">
      <circle id="Elipse_8" data-name="Elipse 8" cx="69.888" cy="69.888" r="69.888" fill="none"/>
    </clipPath>
  </defs>
  <g id="Grupo_42" data-name="Grupo 42" transform="matrix(0.951, -0.309, 0.309, 0.951, -488.157, 61.148)" opacity="0.101">
    <g id="Grupo_41" data-name="Grupo 41" transform="translate(494.692 178.167)">
      <g id="Grupo_40" data-name="Grupo 40" transform="translate(0 0)" clip-path="url(#clip-path)">
        <g id="Grupo_39" data-name="Grupo 39" transform="translate(4.508 86.953)">
          <path id="Trazado_1" data-name="Trazado 1" d="M618.963,372.528c-.024.446.079,6.622.079,6.622l-.63-.013-.034-6.662s.022-2.675,3.634-2.411a3.333,3.333,0,0,1,3.171,3.221l-.2,3.418-1.468-.864-.031-2.6s-.259-2.229-2.063-2.377A2.144,2.144,0,0,0,618.963,372.528Zm-53.948,7.921-.548-7.789s-2.542-5.441-12.277-6.046a22.457,22.457,0,0,0-15.661,4.777l-.177,5.963.807.269s.158-4.419.217-6.111c14.695-8.043,22.552,1.932,22.552,1.932l-.317,6.207Zm24.326-30.808.3.045-.083-4.382s.012-1.412,1.925-1.276a1.763,1.763,0,0,1,1.678,1.7l.141,4.492.337.05v.423l-4.293-.629Zm1.413-5.17c.743.238.855,1.2.855,1.2l.116,4.317.651.1-.117-4.384s-.135-1.189-1.091-1.259a1.428,1.428,0,0,0-.413.022Zm-1.816,5.523-4.293-.633v-.424l.3.043-.081-4.381s.011-1.414,1.923-1.277a1.766,1.766,0,0,1,1.678,1.706l.138,4.49.339.049Zm-1.258-.611L587.564,345s-.137-1.189-1.092-1.26a1.332,1.332,0,0,0-.654.1c.91.113,1.04,1.248,1.04,1.248l.112,4.191Zm24.537,23.9a3.332,3.332,0,0,0-3.171-3.221c-3.61-.259-3.634,2.411-3.634,2.411l.036,7.18.63.017s-.1-6.7-.078-7.141a2.146,2.146,0,0,1,2.461-1.68c1.806.149,2.063,2.378,2.063,2.378l.1,5.14,1.739.778ZM519.1,365.6l13.57-.706a34.472,34.472,0,0,1,19.507-4.949,33.61,33.61,0,0,1,16.457,5.945l3.514,1.168,1.587-20.565-2.885-.125s-.993-.426.149-1.635,12.262-13.751,12.262-13.751.149-.354,1.136.284,15.237,10.491,16.372,11.341-.311.916-.85.923a23.593,23.593,0,0,1-3.471.03l2.328,19.492-.14-1.44,23.036.825s.371.036.945.116a13.575,13.575,0,0,1,2.849.549c.3.078.605.163.892.256l-.039.008a57.123,57.123,0,0,1,5.43,2.5c.252.17-8.073,1.11-8.073,1.11l-24.454-.081,1.984,16.618-2.054-1.574-3.479-38.949-13.684-2.65-.345,44.814-5.35-3.007L576.1,368.4l-.36-.077-9.226-.681s-5.325-5.55-17.31-6a24.076,24.076,0,0,0-15.585,4.9s-11.265.47-14.514-.947Zm62.733-27.162,14.5,3.623h0l2.986.493-15.6-10.176s-1.295,3.906-1.882,6.06Zm-7.743,7.232,7.047-7.16v-.052l-9.363,6.817c-.044.085-.059.14-.03.149a10.392,10.392,0,0,0,2.35.248Z" transform="translate(-519.1 -330.884)"/>
        </g>
      </g>
    </g>
    <path id="Trazado_52" data-name="Trazado 52" d="M511.38,249.822a3.082,3.082,0,0,0,1.633,1.669,7.776,7.776,0,0,0,3.057.492v1.51q-.282,0-1.405-.07-6.428-.211-8.536-.211-2.389,0-10.4.211-1.476.071-1.967.07v-1.51a8.285,8.285,0,0,0,5.076-1.282q1.667-1.283,1.669-4.62V228.518a15.606,15.606,0,0,0-.615-5.111,3.436,3.436,0,0,0-2.037-2.161,13.471,13.471,0,0,0-4.374-.527v-1.58a57.648,57.648,0,0,0,10.31-.932,21.471,21.471,0,0,0,7.078-2.722V246.5A8.611,8.611,0,0,0,511.38,249.822Zm32.511-15.016q3.828,3.267,6.148,5.568a22.821,22.821,0,0,1,3.916,5.2,12.572,12.572,0,0,1,1.6,6.165,11.527,11.527,0,0,1-2.283,7.026,15.048,15.048,0,0,1-6.305,4.829,22.674,22.674,0,0,1-9.08,1.74,23.529,23.529,0,0,1-8.325-1.424,13.939,13.939,0,0,1-6.06-4.2A10.266,10.266,0,0,1,521.233,253q0-8.782,11.7-13.946a53.066,53.066,0,0,1-4.882-4.672,19.723,19.723,0,0,1-3.2-4.76,12.782,12.782,0,0,1-1.229-5.568,10.04,10.04,0,0,1,2.073-6.376,12.6,12.6,0,0,1,5.533-3.987,20.966,20.966,0,0,1,7.6-1.335,20,20,0,0,1,7.306,1.247,11.522,11.522,0,0,1,5.006,3.547,8.321,8.321,0,0,1,1.809,5.287,9.135,9.135,0,0,1-2.494,6.305,26.929,26.929,0,0,1-7.412,5.357Q543.609,234.6,543.891,234.806Zm-.3,27.1a8.014,8.014,0,0,0,1.95-5.638,11.765,11.765,0,0,0-1.457-5.726,20.668,20.668,0,0,0-3.6-4.8q-2.143-2.125-5.691-5.112l-.737-.632q-3.9,4.075-3.9,11.733a17.914,17.914,0,0,0,1.932,8.887,6.58,6.58,0,0,0,6.183,3.408A6.864,6.864,0,0,0,543.592,261.908Zm-9.1-46.615a6.471,6.471,0,0,0-1.388,4.339,10.519,10.519,0,0,0,1.159,4.794,18.651,18.651,0,0,0,3.038,4.321,58.483,58.483,0,0,0,4.655,4.408,13.306,13.306,0,0,0,2.019-4.724,23.781,23.781,0,0,0,.65-5.392,12.177,12.177,0,0,0-1.686-6.885,5.341,5.341,0,0,0-4.672-2.494A4.7,4.7,0,0,0,534.494,215.293Zm49.758,8.693q3.829,3.267,6.148,5.568a22.8,22.8,0,0,1,3.917,5.2,12.578,12.578,0,0,1,1.6,6.165,11.522,11.522,0,0,1-2.283,7.026,15.05,15.05,0,0,1-6.305,4.83,22.67,22.67,0,0,1-9.08,1.739,23.533,23.533,0,0,1-8.325-1.423,13.947,13.947,0,0,1-6.06-4.2,10.267,10.267,0,0,1-2.265-6.71q0-8.781,11.7-13.945a53.154,53.154,0,0,1-4.883-4.672,19.728,19.728,0,0,1-3.2-4.759,12.785,12.785,0,0,1-1.23-5.568,10.038,10.038,0,0,1,2.073-6.375,12.6,12.6,0,0,1,5.533-3.987,20.982,20.982,0,0,1,7.6-1.335,20.016,20.016,0,0,1,7.307,1.247,11.525,11.525,0,0,1,5.006,3.548,8.318,8.318,0,0,1,1.808,5.287,9.13,9.13,0,0,1-2.494,6.305,26.93,26.93,0,0,1-7.412,5.357Q583.971,223.775,584.252,223.986Zm-.3,27.1a8.012,8.012,0,0,0,1.95-5.638,11.765,11.765,0,0,0-1.458-5.727,20.673,20.673,0,0,0-3.6-4.794q-2.143-2.125-5.691-5.111l-.737-.633q-3.9,4.076-3.9,11.733a17.918,17.918,0,0,0,1.932,8.888,6.578,6.578,0,0,0,6.182,3.407A6.862,6.862,0,0,0,583.954,251.087Zm-9.1-46.615a6.472,6.472,0,0,0-1.388,4.339,10.517,10.517,0,0,0,1.16,4.794,18.633,18.633,0,0,0,3.038,4.321,58.36,58.36,0,0,0,4.655,4.408,13.29,13.29,0,0,0,2.019-4.724,23.745,23.745,0,0,0,.651-5.392,12.167,12.167,0,0,0-1.686-6.885,5.339,5.339,0,0,0-4.672-2.494A4.7,4.7,0,0,0,574.856,204.472ZM624.614,233.6q3.829,3.267,6.148,5.568a22.8,22.8,0,0,1,3.916,5.2,12.574,12.574,0,0,1,1.6,6.165,11.521,11.521,0,0,1-2.283,7.026,15.054,15.054,0,0,1-6.305,4.83,22.675,22.675,0,0,1-9.08,1.739,23.529,23.529,0,0,1-8.325-1.423,13.944,13.944,0,0,1-6.06-4.2,10.267,10.267,0,0,1-2.266-6.709q0-8.782,11.7-13.946a53.093,53.093,0,0,1-4.883-4.672,19.708,19.708,0,0,1-3.2-4.759,12.786,12.786,0,0,1-1.23-5.568,10.038,10.038,0,0,1,2.073-6.375,12.6,12.6,0,0,1,5.533-3.988,20.979,20.979,0,0,1,7.6-1.335,20.01,20.01,0,0,1,7.306,1.247,11.517,11.517,0,0,1,5.006,3.548,8.315,8.315,0,0,1,1.809,5.287,9.133,9.133,0,0,1-2.494,6.305,26.928,26.928,0,0,1-7.412,5.357Q624.332,233.393,624.614,233.6Zm-.3,27.1a8.012,8.012,0,0,0,1.95-5.638,11.766,11.766,0,0,0-1.458-5.726,20.694,20.694,0,0,0-3.6-4.8q-2.143-2.126-5.692-5.111l-.737-.633q-3.9,4.076-3.9,11.733a17.918,17.918,0,0,0,1.932,8.888,6.58,6.58,0,0,0,6.182,3.407A6.862,6.862,0,0,0,624.315,260.7Zm-9.1-46.615a6.472,6.472,0,0,0-1.388,4.339,10.515,10.515,0,0,0,1.159,4.794,18.634,18.634,0,0,0,3.039,4.321,58.25,58.25,0,0,0,4.655,4.408,13.3,13.3,0,0,0,2.019-4.725,23.779,23.779,0,0,0,.65-5.392,12.172,12.172,0,0,0-1.686-6.885,5.34,5.34,0,0,0-4.672-2.495A4.694,4.694,0,0,0,615.218,214.09Zm-52.8,132.134a97.972,97.972,0,1,1,97.972-97.972A98.082,98.082,0,0,1,562.422,346.223Zm0-192a94.028,94.028,0,1,0,94.028,94.028A94.135,94.135,0,0,0,562.422,154.224ZM507.978,314.3l5.558-7.351,1.049,9.046,3.617-4.784,1.039.786-5.522,7.3-1.059-9.033-3.644,4.819Zm15.639.373-4.448,7.394-1.115-.671L522.5,314Zm6.938,5.027-3.1-1.528-.916,1.859,3.013,1.484-.541,1.1-3.013-1.484-1.274,2.587,3.1,1.529-.54,1.1-4.272-2.1,3.813-7.741,4.271,2.1Zm5.5,2.2-2.6,6.933-1.219-.457,2.6-6.933-1.857-.7.429-1.145,4.93,1.847-.43,1.146Zm3.457,4.492a4.228,4.228,0,0,1,2.035-2.727,4.4,4.4,0,0,1,3.415-.518,4.514,4.514,0,0,1,3.305,5.418,4.243,4.243,0,0,1-2.037,2.756A4.561,4.561,0,0,1,540.146,330,4.24,4.24,0,0,1,539.512,326.391Zm1.272.326a3.122,3.122,0,0,0,.38,2.514,3.184,3.184,0,0,0,4.376,1.043,3.348,3.348,0,0,0,1.1-4.495,3.218,3.218,0,0,0-4.416-1.07A3.118,3.118,0,0,0,540.784,326.717Zm21.836.133-1.083.579a1.835,1.835,0,0,0-.534-.7,1.5,1.5,0,0,0-1.625.058.952.952,0,0,0-.391.743q-.028.631.893,1.057l.845.39a3.691,3.691,0,0,1,1.491,1.1,2.347,2.347,0,0,1,.419,1.52,2.638,2.638,0,0,1-.879,1.931,2.722,2.722,0,0,1-2.016.694,2.652,2.652,0,0,1-1.824-.746,3.06,3.06,0,0,1-.816-1.91l1.33-.233a2.245,2.245,0,0,0,.267,1.064,1.487,1.487,0,0,0,2.177.247,1.416,1.416,0,0,0,.448-1.015,1.5,1.5,0,0,0-.05-.463,1.175,1.175,0,0,0-.2-.4,1.749,1.749,0,0,0-.368-.346,3.673,3.673,0,0,0-.546-.317l-.816-.383a2.4,2.4,0,0,1-1.673-2.266,2.075,2.075,0,0,1,.814-1.592,2.686,2.686,0,0,1,1.877-.577A2.583,2.583,0,0,1,562.621,326.85Zm8.458-.413-3.452.216.13,2.069,3.352-.209.077,1.222-3.352.209.18,2.879,3.453-.216.076,1.221-4.752.3-.538-8.612,4.752-.3Zm5.168,6.873-1.746-9.049,7.426,5.273-1.136-5.888,1.278-.247,1.734,8.989-7.423-5.256,1.145,5.932ZM590.8,321.968l-3.285,1.084.649,1.969,3.19-1.052.383,1.163-3.19,1.052.9,2.739,3.285-1.084.383,1.162-4.522,1.491-2.7-8.194,4.522-1.492Zm5.47-2.278,3,6.771-1.191.527-3-6.771-1.814.8-.5-1.12,4.813-2.132.5,1.118Zm4.873-3.8,4.087,7.6-1.146.617L600,316.5Zm8.219,5.281-5.193-7.613,8.908,1.892-3.378-4.954,1.075-.734,5.158,7.563-8.9-1.879,3.4,4.991ZM618.227,305l-2.59,2.294,1.375,1.552,2.514-2.227.811.916-2.514,2.227,1.913,2.159,2.589-2.294.812.916-3.565,3.158-5.721-6.46,3.565-3.157Zm7.291-2.194,4.517.5-1.073,1.177-4.271-.556-.158.174,2.612,2.378-.878.963-6.38-5.809,1.028-1.129a3.81,3.81,0,0,1,2.138-1.393,2.36,2.36,0,0,1,1.961.652,2.452,2.452,0,0,1,.811,1.45A2.344,2.344,0,0,1,625.519,302.8Zm-1.824.532.279-.305q1.246-1.368.2-2.32-.979-.892-2.191.439l-.312.343ZM536.8,176.314l-2.915-8.122,1.221-.438a5.676,5.676,0,0,1,1.345-.34,2.074,2.074,0,0,1,.978.13,2.355,2.355,0,0,1,.82.578,2.489,2.489,0,0,1,.544.874,2.034,2.034,0,0,1-.138,1.717,2.086,2.086,0,0,1,1.3.408,2.43,2.43,0,0,1,.74,2.988,2.351,2.351,0,0,1-.708.89,5.644,5.644,0,0,1-1.329.649Zm-.437-5.074.383-.138a1.5,1.5,0,0,0,.894-.662,1.245,1.245,0,0,0,0-1.006,1.187,1.187,0,0,0-.638-.753,1.443,1.443,0,0,0-1.054.043l-.431.155Zm1.25,3.482.757-.272a2,2,0,0,0,1.1-.764,1.2,1.2,0,0,0,.089-1.041,1.215,1.215,0,0,0-.711-.742,2.169,2.169,0,0,0-1.5.14l-.621.223Zm5.222-5.122a4.224,4.224,0,0,1,.644-3.341,4.4,4.4,0,0,1,2.849-1.954,4.512,4.512,0,0,1,5.334,3.439,4.238,4.238,0,0,1-.633,3.367,4.559,4.559,0,0,1-6.055,1.457A4.241,4.241,0,0,1,542.834,169.6Zm1.287-.261a3.117,3.117,0,0,0,1.437,2.1,3.184,3.184,0,0,0,4.393-.967,3.348,3.348,0,0,0-.966-4.525,3.218,3.218,0,0,0-4.442.96A3.114,3.114,0,0,0,544.121,169.338Zm11.055,2.339-.624-8.606,1.805-.131a6.572,6.572,0,0,1,2.07.108,3.836,3.836,0,0,1,1.528.747,4.462,4.462,0,0,1,.408,6.408,4.082,4.082,0,0,1-1.4.959,6.691,6.691,0,0,1-2.006.386Zm1.209-1.315.586-.043a4.872,4.872,0,0,0,1.442-.289,2.962,2.962,0,0,0,1.8-3.043,3,3,0,0,0-1.115-2.228,3.6,3.6,0,0,0-2.571-.6l-.585.043Zm13.477-6.312-3.457-.155-.093,2.072,3.355.15-.055,1.223-3.355-.151-.13,2.881,3.457.155-.055,1.223-4.756-.214.386-8.62,4.757.213Zm7.68,3.955,3.512.605-.048.28a5.89,5.89,0,0,1-.518,1.658,3.657,3.657,0,0,1-.964,1.15,3.906,3.906,0,0,1-3.242.814,4.2,4.2,0,0,1-2.834-1.815,4.5,4.5,0,0,1,6.262-6.265,5.43,5.43,0,0,1,1.4,1.6l-1.065.719a3.148,3.148,0,0,0-2.309-1.833,3.089,3.089,0,0,0-2.423.541A3.151,3.151,0,0,0,574,167.593a3.241,3.241,0,0,0,2.535,3.726,2.605,2.605,0,0,0,1.811-.346,2.3,2.3,0,0,0,1.108-1.4l-2.12-.366Zm10.443,5.165-3.524-1.109-1.546,1.71-1.338-.421,6.827-7.466,1.176,9.984-1.36-.428Zm-.139-1.327-.34-3.183-2.161,2.4Zm-23.02,7.01A68.435,68.435,0,0,1,614.536,200l.917-.883a69.7,69.7,0,0,0-50.626-21.534,70.555,70.555,0,0,0-56.834,28.931l1.028.749A69.276,69.276,0,0,1,564.827,178.853Zm40.428,126.5a70.14,70.14,0,0,0,25.363-32.732l-1.19-.448a69.03,69.03,0,0,1-131.7-8.118l-1.237.3a70.6,70.6,0,0,0,24.523,38.465,70.3,70.3,0,0,0,84.237,2.536Zm29.213-57.491" transform="translate(0)"/>
  </g>
</svg>
