<?xml version="1.0" encoding="utf-8"?>
<!-- Generator: Adobe Illustrator 23.0.2, SVG Export Plug-In . SVG Version: 6.00 Build 0)  -->
<svg version="1.1" id="Capa_1" xmlns="http://www.w3.org/2000/svg" xmlns:xlink="http://www.w3.org/1999/xlink" x="0px" y="0px"
	 viewBox="0 0 24.7 31.6" style="enable-background:new 0 0 24.7 31.6;" xml:space="preserve">
<style type="text/css">
	.st0{fill:none;}
	.st1{fill:none;stroke:#A7907E;}
	.st2{fill:none;stroke:#FFFFFF;}
	.st3{fill:none;stroke:#A7907E;stroke-linecap:round;}
	.st4{fill:#A7907E;}
</style>
<g id="Grupo_7" transform="translate(-37 -501.872)">
	<g id="Elipse_1" transform="translate(37 510.245)">
		<ellipse class="st0" cx="3.9" cy="3.2" rx="3.6" ry="3.6"/>
		<ellipse class="st1" cx="3.9" cy="3.2" rx="3.1" ry="3.1"/>
	</g>
	<g id="Elipse_2" transform="translate(45.477 510.245)">
		<ellipse class="st0" cx="3.9" cy="3.2" rx="3.6" ry="3.6"/>
		<ellipse class="st2" cx="3.9" cy="3.2" rx="3.1" ry="3.1"/>
	</g>
	<g id="Elipse_3" transform="translate(45.477 510.245)">
		<ellipse class="st0" cx="3.9" cy="3.2" rx="3.6" ry="3.6"/>
		<ellipse class="st1" cx="3.9" cy="3.2" rx="3.1" ry="3.1"/>
	</g>
	<g id="Elipse_7" transform="translate(45.477 526.306)">
		<ellipse class="st0" cx="3.9" cy="3.2" rx="3.6" ry="3.6"/>
		<ellipse class="st1" cx="3.9" cy="3.2" rx="3.1" ry="3.1"/>
	</g>
	<g id="Elipse_5" transform="translate(49.492 518.275)">
		<ellipse class="st0" cx="3.9" cy="3.2" rx="3.6" ry="3.6"/>
		<ellipse class="st1" cx="3.9" cy="3.2" rx="3.1" ry="3.1"/>
	</g>
	<g id="Elipse_6" transform="translate(41.015 518.275)">
		<ellipse class="st0" cx="3.9" cy="3.2" rx="3.6" ry="3.6"/>
		<ellipse class="st1" cx="3.9" cy="3.2" rx="3.1" ry="3.1"/>
	</g>
	<g id="Elipse_4" transform="translate(53.954 510.245)">
		<ellipse class="st0" cx="3.9" cy="3.2" rx="3.6" ry="3.6"/>
		<ellipse class="st1" cx="3.9" cy="3.2" rx="3.1" ry="3.1"/>
	</g>
	<path id="Trazado_8" class="st3" d="M49.4,510.1c-1.7-2.3-1.3-5.6,1-7.3c0.1-0.1,0.2-0.1,0.2-0.2"/>
	<g id="Trazado_9" transform="matrix(0.966, -0.259, 0.259, 0.966, 42.018, 503.144)">
		<path class="st0" d="M5,5.2C4.8,3.7,5.1,0.1,0.4-0.2C0.3,3.6,2.6,4.6,5,5.2z"/>
		<path class="st4" d="M3.8,3.8C3.7,2.6,3.3,1.4,1.5,0.9C1.7,2.5,2.5,3.3,3.8,3.8 M5,5.2C2.6,4.6,0.3,3.6,0.4-0.2
			C5.1,0.1,4.8,3.7,5,5.2z"/>
	</g>
</g>
</svg>
